<svg id="Layer_1" data-name="Layer 1" xmlns="http://www.w3.org/2000/svg" viewBox="0 0 468.26 255.3"><defs><style>.cls-1{fill:#ec3237;}</style></defs><path class="cls-1" d="M335.18,220.84a16.31,16.31,0,0,1,2,13.42,15.7,15.7,0,0,1-6.08,8.66,16.44,16.44,0,0,1-20-.64c-5-4.07-8.74-13-2.91-22.09-1.52-.47-3.05-.87-4.54-1.42-7.56-2.8-11.88-8.43-13.91-16a70,70,0,0,1-1.88-13.5q-1.07-16.08-2.12-32.16-.85-12.73-1.77-25.46c-.67-9.2-1.38-18.4-2.06-27.6-.6-8.05-1.13-16.1-1.78-24.14-.63-7.72-.79-15.48-1.92-23.15-1.48-10.11-5.31-19.12-13-26.13-6.09-5.52-13.38-8.4-21.44-9.54-7.09-1-14.11-.25-21.11.84a22,22,0,0,1-5.25.4,4.61,4.61,0,0,1-4.43-3.56,5.31,5.31,0,0,1,1.66-6,10.47,10.47,0,0,1,4.57-1.65,81.41,81.41,0,0,1,24.56-1.54c17.85,1.83,31.07,10.58,39.31,26.62.87,1.7,1.66,3.45,2.43,5.2,2,4.45,5.41,6.52,10.23,6.5q11.5-.06,23-.08,29.2-.06,58.41-.11,27.65,0,55.29,0A38.59,38.59,0,0,1,446.48,50c7.9,3,12.18,8.93,13.54,17.14.74,4.43.35,8.84-.11,13.26-.7,6.75-1.37,13.5-2.06,20.25q-1.16,11.2-2.3,22.4l-2,19.42q-1.16,10.9-2.32,21.8c-.47,4.36-.88,8.74-1.47,13.09a43.22,43.22,0,0,1-12.56,25,88.63,88.63,0,0,1-22.9,16.38c-.88.46-.72.68-.26,1.31a16.23,16.23,0,0,1-9.46,25.54c-6.58,1.44-12.27-.51-16.43-5.85s-4.61-11.38-1.65-17.57c.2-.41.58-.76.57-1.34ZM438.73,119.7h0V79.19a19.08,19.08,0,0,0-.19-3.46,16.54,16.54,0,0,0-16.8-14H346a45.13,45.13,0,0,0-9.27,1,42.43,42.43,0,0,0-33.74,41.34q0,38.17,0,76.35a16.63,16.63,0,0,0,17.07,17h77.35a45.51,45.51,0,0,0,13.11-1.91c15.5-4.65,28.76-18.08,28.29-37.78C438.49,145.12,438.73,132.41,438.73,119.7Z"/><path class="cls-1" d="M7.83,87.34q0-21.11,0-42.2c0-6.41,3.84-11,10.14-12.2a12.27,12.27,0,0,1,2.27-.17c10.35,0,20.71-.1,31.06,0,11.82.14,22.47,3.73,31.52,11.49A50.21,50.21,0,0,1,99,71.1c3.49,14.14,2.74,28.12-3.19,41.48-7.37,16.59-20.37,26.06-38.27,28.88a46.85,46.85,0,0,1-7.29.5c-10,0-19.91,0-29.87,0-5.19,0-9.18-2.16-11.48-7a12.62,12.62,0,0,1-1.11-5.59Zm24.89-.06v20.25c0,3.48,0,7,0,10.43,0,.52-.08,1,.75,1,5.75-.15,11.52.38,17.25-.32C60.12,117.48,67.1,112.76,71,104c4-9,4.32-18.37,2.17-27.81-3-13.1-12.12-20.26-25.57-20.4-4.56,0-9.12,0-13.67,0-1,0-1.18.29-1.18,1.21C32.74,67.06,32.72,77.17,32.72,87.28Z"/><path class="cls-1" d="M144,132.36c0-4.7,1.43-8.78,2.92-12.82q13.52-36.51,27.1-73a41.92,41.92,0,0,1,5.15-9.83c6.23-8.74,20.32-8.49,26.49-.14A45.37,45.37,0,0,1,211.59,48q13.47,36.25,26.87,72.55A33.67,33.67,0,0,1,241,132.1c0,5.62-3.1,9.45-8.64,10.5a17.33,17.33,0,0,1-5.61.15,10.61,10.61,0,0,1-8.12-5.68c-1.9-3.37-2.86-7.09-4-10.73-.48-1.48-1-3-1.38-4.45-.19-.72-.53-.92-1.25-.91q-19.49,0-39,0c-.76,0-1,.28-1.23,1-1.29,4-2.36,8.12-3.93,12-.28.7-.59,1.4-.93,2.07a12.8,12.8,0,0,1-19.09,4.48A9.08,9.08,0,0,1,144,132.36ZM193.14,58h-.28c-.1.26-.22.51-.31.77q-6.36,19.05-12.74,38.1c-.37,1.11,0,1.14.92,1.14,7.83,0,15.66,0,23.5,0,1.36,0,1.36,0,.94-1.35q-5-16.22-10.07-32.43C194.46,62.12,193.8,60.05,193.14,58Z"/><path class="cls-1" d="M136.64,87.4q0,21,0,41.93a18.45,18.45,0,0,1-.69,5.33,11.07,11.07,0,0,1-10.24,8.18,16.35,16.35,0,0,1-5.12-.34A11.23,11.23,0,0,1,112,132.37a31.18,31.18,0,0,1-.2-3.34q0-41.7,0-83.4a18.35,18.35,0,0,1,.85-6,10.67,10.67,0,0,1,8.91-7.54c4.42-.72,8.56-.08,11.83,3.31,2.54,2.62,3.3,5.95,3.3,9.48,0,11.22,0,22.45,0,33.67Z"/><path class="cls-1" d="M221.29,204.48c-5.08,0-10.15,0-15.23,0-.93,0-1.11.26-1.08,1.15a13.92,13.92,0,0,0,13.54,13.5A20.17,20.17,0,0,0,232,215.06l2.29-1.74c1.6-1.19,2.92-1.25,4.13-.21a3.7,3.7,0,0,1,.76,4.39,9.32,9.32,0,0,1-2.88,3.17,27.27,27.27,0,0,1-11.41,5c-7,1.37-13.7.59-19.55-3.93-4.3-3.32-6.67-7.84-7.81-13.07a30.22,30.22,0,0,1,1.77-19.44c3.55-7.84,11-13.38,21.34-12.84,7.85.41,15.08,5.94,18.2,14.2a25.82,25.82,0,0,1,1.74,9.83c-.06,2.8-1.24,4-4.05,4.05-5.07,0-10.15,0-15.22,0Zm-2.64-6.2c4.16,0,8.32-.05,12.47,0,1.19,0,1.36-.42,1.19-1.38s-.25-1.82-.46-2.71c-2.18-9.52-12.52-14-20.5-8.86-4.45,2.86-5.95,7.29-6.36,12.27-.06.82.51.64.95.64Z"/><path class="cls-1" d="M51.77,201.82a26.8,26.8,0,0,1-5.68,16.75,20.94,20.94,0,0,1-33.39-1.1c-6.32-8.95-6.4-22.62-.39-31.79,8.36-12.74,28-12.61,35.84,1.38A29.7,29.7,0,0,1,51.77,201.82Zm-35.64-.5a22.52,22.52,0,0,0,3.24,12.26c4.73,7.34,16,7.52,20.87,0a20.06,20.06,0,0,0,3-8.38c.68-5.25.3-10.39-2.33-15.11a11.87,11.87,0,0,0-11.1-6.63c-5.12,0-8.72,2.45-11.16,6.79A22.74,22.74,0,0,0,16.13,201.32Z"/><path class="cls-1" d="M157.58,183.07a15.78,15.78,0,0,1,9.81-6.24c11-2.29,20.83,4.47,21.3,16.07.39,9.66.11,19.33.11,29,0,3.27-2.42,5-5.45,4.16a3.83,3.83,0,0,1-2.79-4c0-3.39,0-6.79,0-10.18,0-5.56,0-11.11,0-16.66,0-10.56-9.83-13.53-16.4-10.73-4.52,1.92-6.56,5.6-6.61,10.34-.09,8.74,0,17.49,0,26.24a13.84,13.84,0,0,1,0,1.44,3.89,3.89,0,0,1-4,3.75,3.84,3.84,0,0,1-4.14-3.62,11.42,11.42,0,0,1-.08-1.55V181.54a11.7,11.7,0,0,1,.1-1.67,3.69,3.69,0,0,1,3.74-3.47,3.82,3.82,0,0,1,4.33,3.25C157.6,180.67,157.41,181.71,157.58,183.07Z"/><path class="cls-1" d="M68.74,182.74a17.07,17.07,0,0,1,11.47-6.18c11-1.36,19,5.81,19.72,15.76.44,6.1.1,12.22.16,18.33,0,3.72,0,7.43,0,11.15,0,3.3-2.33,5.09-5.38,4.28a3.83,3.83,0,0,1-2.88-4c0-2.52,0-5,0-7.55,0-6.59,0-13.18,0-19.77-.06-5.84-3.63-10.1-9.36-11-7-1.12-13.54,3-13.64,11.15-.1,9,0,18,0,27,0,3.26-2.33,5.08-5.38,4.27a3.56,3.56,0,0,1-2.75-3,10.07,10.07,0,0,1-.14-1.9q0-19.91,0-39.79c0-.4,0-.8.05-1.2a3.8,3.8,0,0,1,4.29-3.8,3.87,3.87,0,0,1,3.92,4C68.78,181.17,68.74,182,68.74,182.74Z"/><path class="cls-1" d="M119.19,190.09v30.8c0,.56,0,1.12,0,1.68a3.84,3.84,0,0,1-4,3.69,3.9,3.9,0,0,1-4.2-3.58c0-.4,0-.8,0-1.2V158.57c0-2.4.82-3.82,2.53-4.44,3-1.09,5.66.77,5.68,4.09q0,14.13,0,28.28Z"/><path class="cls-1" d="M130.12,201.35q0-10,0-20a9.76,9.76,0,0,1,.13-2c.45-2,2.14-3.07,4.47-2.91a3.8,3.8,0,0,1,3.59,3.53c0,.32,0,.64,0,1q0,20.43,0,40.86c0,2.67-1.29,4.24-3.65,4.48-2.68.28-4.54-1.42-4.55-4.28C130.1,215.09,130.12,208.22,130.12,201.35Z"/><path class="cls-1" d="M129.18,164.61a5.06,5.06,0,1,1,10.11-.05,5,5,0,0,1-5.1,5.08A5,5,0,0,1,129.18,164.61Z"/><path class="cls-1" d="M425.47,117.08c0,12.87-.08,25.73,0,38.6.12,15.56-10.56,26.45-25.59,28.2a46.33,46.33,0,0,1-5.39.27q-38.38,0-76.76,0c-1.21,0-1.5-.3-1.5-1.5,0-25.66,0-51.31,0-77a31.67,31.67,0,0,1,23.21-29.89,25.08,25.08,0,0,1,6.4-.82q39.15,0,78.32,0c1.11,0,1.28.33,1.28,1.33q-.06,20.39,0,40.76Zm-94.28,51.33a1.84,1.84,0,0,0,.37.11q12.46,0,24.94,0a1.3,1.3,0,0,0,1.21-.76L409.19,91c.16-.24.49-.44.31-.85-8.15,0-16.3,0-24.46,0a2.21,2.21,0,0,0-2.12,1.12q-20.54,30.72-41.14,61.4Zm.18-64.67a14.79,14.79,0,0,0,14.71,14.84A15,15,0,0,0,361,103.71a14.8,14.8,0,1,0-29.59,0Zm48.94,51.4a14.8,14.8,0,1,0,14.75-14.77A14.75,14.75,0,0,0,380.31,155.14Z"/></svg>