<svg id="Layer_1" data-name="Layer 1" xmlns="http://www.w3.org/2000/svg" viewBox="0 0 515.85 210.61"><defs><style>.cls-1{fill:#fefefe;}.cls-2{fill:#fff;}.cls-3{fill:#d63930;}.cls-4{fill:#d63a31;}.cls-5{fill:#757474;}</style></defs><path class="cls-1" d="M241.46,139.63c-1.18,2.1-4.28,2.12-4.89,4.7-1.88,8.06-7.6,9.22-14.67,8.41a63.81,63.81,0,0,0-10,0c-1.8.07-3.85-.67-6.07,1.34,7.78,1.28,14.87,2.46,21.95,3.61,1.1.18,2.4-.19,2.86,1.36,1.3,4.43-3.1,9.18-7.7,8.48-9.72-1.49-19.39.6-29.09.6-.09,0-.17.56-.25.87.28.17.54.45.83.49,9.8,1.4,19.57,3,29.4,4.07,4.19.46,3.41,3.67,3.78,5.82.5,2.87-2.26,2.24-3.9,2.2-8-.18-15.88,1-23.81,1.35-5.35.26-11,.18-17.49,1.23,1.55.91,1.9,1.3,2.3,1.33,11.34,1.07,22.68,2.07,34,3.14,13.57,1.28,27.18,1,40.78,1,4.47,0,9,.5,13-2.32a3,3,0,0,1,3.69.22c1.21.82,2.69,2,3.94,1.9,3.71-.38,4.63,2,5.9,4.62,2.35,4.93,5.73,8.11,12,7.68a147.32,147.32,0,0,1,22.43,0c7,.59,11.41-2.71,15-7.84,2.21-3.19,3.52-7.25,8.8-4.52.85.44,2.77-.31,3.69-1.09,2.88-2.42,5.42-1.43,8.22.06a11.77,11.77,0,0,0,12.75-.74c3.75-2.62,6.84-4.86,10.57-.15.87,1.1,2.65,1.23,4.21,1.17,11.1-.4,22.25,1,33.29-1.05a16.15,16.15,0,0,1,7.71.53c8.66,2.51,18-3.71,19.86-12.54,2.34-11.15,5-22.23,7.58-33.34.4-1.77.5-3.36,3.15-3.57,11.17-.92,18.28-8.71,21.56-17.71,10.48-28.81,19.92-58,28.89-87.33,4.3-14-4.25-25-18.94-24.74-21,.41-41.91.25-62.86,0-5.95-.07-11.23,1.13-15.67,5-1.79,1.57-2.68,1.49-4.43-.07a18.62,18.62,0,0,0-13.12-4.94q-33.42.27-66.85,0c-6.09-.06-11.55.78-15.93,5.34-1,1.09-1.89,1.7-3.11,0-3.1-4.34-7.61-5.3-12.68-5.28-21.95.09-43.9.15-65.85,0-5.91,0-11.18,1.15-15.83,4.78-2.05,1.6-3.69,2.19-5.75-.34-2.81-3.43-6.89-4.37-11.21-4.37-24.94,0-49.89-.31-74.83.17-7.48.15-15.19.08-23.3,2.24,4,1,7.35,1.81,10.65,2.7.9.25,2.09.43,2.33,1.53.37,1.72-6.52,9.22-8.48,9.33-6.27.35-12.55.67-18.83,1-.89,0-2.12-.3-2.2,1.41,5.8,1,11.63,1.95,17.4,3.18,1.32.27,4.06-.33,3.58,2.28-.38,2.13-.48,5.62-3.06,5.72-5.09.18-9.77,2.6-15.09,1.81C76.78,39.62,72,43,66.79,41.8c9.91,1.73,19.82,2.58,30.15,4.45-2.53,3.16-1.61,8.44-7.26,8.6q-16.91.48-33.8,1c-2,.07-4.14-.42-5.71,1.54,12.19,1.5,24.11,3.21,36.09,4.29,4,.37,4.24,2.14,3.75,5.12-.51,3.16-2.29,4.1-5.53,4.1-16,0-32.14-.84-48.24,1.31.34.22.58.52.84.53,15.2.66,30.13,3.74,45.25,5.06,1,.08,2-.16,2.43,1.15.72,2.47-2.76,7.35-5.28,6.72-7-1.74-13.83.3-20.72.08-10.3-.33-20.5,1.76-30.81,1.07-.73,0-1.69-.16-2.23,2.07,3.57,0,7-.38,10.22.07,13.26,1.85,26.62,2.48,39.92,3.8,2.14.21,4.57-.35,4.33,3.1-.18,2.71-.68,4.81-4.17,4.94-15.89.57-31.76,1.43-47.65,1.87a122,122,0,0,0-13.95,1.6c11.38,1,22.83,1.14,34.08,2.74,7.76,1.09,15.63-.57,23.21,1.72,1.26.38,3.94-1.24,3.54,1.66-.32,2.35-.34,5.65-4.37,5.34-9.64-.72-19.2.83-28.81,1.09-9.43.26-18.85,1.24-28.31,1-.77,0-1.72,0-1.73,1.19.25.2.48.56.73.56,17.36.63,34.68,1.86,52,3.07,7.87.55,7.9.13,10.36,8L9,133l0,1.78c5.56,0,11.17-.52,16.66.09,18.25,2,36.59,3.08,54.9,3.63,24.59.75,49.22,0,73.83.3,6.36.07,11.82-1.26,16.43-5.54,2.09-1.94,3.57-1.64,5.48.21,3.88,3.76,8.64,5.27,14,5.24q23-.12,45.9,0C238,138.73,239.91,138,241.46,139.63Z"/><path class="cls-2" d="M241.46,139.63c-1.55-1.67-3.49-.9-5.18-.91q-23-.1-45.9,0c-5.41,0-10.17-1.48-14-5.24-1.91-1.85-3.39-2.15-5.48-.21-4.61,4.28-10.07,5.61-16.43,5.54-24.61-.29-49.24.45-73.83-.3-18.31-.55-36.65-1.6-54.9-3.63-5.49-.61-11.1-.09-16.66-.09L9,133l66.12-2.35c-2.46-7.91-2.49-7.49-10.36-8-17.33-1.21-34.65-2.44-52-3.07-.25,0-.48-.36-.73-.56,0-1.23,1-1.22,1.73-1.19,9.46.28,18.88-.7,28.31-1,9.61-.26,19.17-1.81,28.81-1.09,4,.31,4.05-3,4.37-5.34.4-2.9-2.28-1.28-3.54-1.66-7.58-2.29-15.45-.63-23.21-1.72-11.25-1.6-22.7-1.77-34.08-2.74a122,122,0,0,1,14-1.6c15.89-.44,31.76-1.3,47.65-1.87,3.49-.13,4-2.23,4.17-4.94.24-3.45-2.19-2.89-4.33-3.1-13.3-1.32-26.66-2-39.92-3.8-3.27-.45-6.65-.07-10.22-.07.54-2.23,1.5-2.12,2.23-2.07,10.31.69,20.51-1.4,30.81-1.07,6.89.22,13.74-1.82,20.72-.08,2.52.63,6-4.25,5.28-6.72-.38-1.31-1.48-1.07-2.43-1.15-15.12-1.32-30-4.4-45.25-5.06-.26,0-.5-.31-.84-.53,16.1-2.15,32.19-1.3,48.24-1.31,3.24,0,5-.94,5.53-4.1.49-3,.29-4.75-3.75-5.12-12-1.08-23.9-2.79-36.09-4.29,1.57-2,3.74-1.47,5.71-1.54q16.91-.53,33.8-1c5.65-.16,4.73-5.44,7.26-8.6C86.61,44.38,76.7,43.53,66.79,41.8c5.23,1.18,10-2.18,14.88-1.46,5.32.79,10-1.63,15.09-1.81,2.58-.1,2.68-3.59,3.06-5.72.48-2.61-2.26-2-3.58-2.28-5.77-1.23-11.6-2.15-17.4-3.18.08-1.71,1.31-1.36,2.2-1.41,6.28-.36,12.56-.68,18.83-1,2-.11,8.85-7.61,8.48-9.33-.24-1.1-1.43-1.28-2.33-1.53-3.3-.89-6.62-1.69-10.65-2.7,8.11-2.16,15.82-2.09,23.3-2.24,24.94-.48,49.89-.17,74.83-.17,4.32,0,8.4.94,11.21,4.37,2.06,2.53,3.7,1.94,5.75.34,4.65-3.63,9.92-4.83,15.83-4.78,22,.19,43.9.13,65.85,0,5.07,0,9.58.94,12.68,5.28,1.22,1.71,2.07,1.1,3.11,0,4.38-4.56,9.84-5.4,15.93-5.34q33.42.33,66.85,0a18.62,18.62,0,0,1,13.12,4.94c1.75,1.56,2.64,1.64,4.43.07,4.44-3.89,9.72-5.09,15.67-5,20.95.23,41.91.39,62.86,0,14.69-.28,23.24,10.69,18.94,24.74-9,29.32-18.41,58.52-28.89,87.33-3.28,9-10.39,16.79-21.56,17.71-2.65.21-2.75,1.8-3.15,3.57-2.54,11.11-5.24,22.19-7.58,33.34-1.85,8.83-11.2,15.05-19.86,12.54a16.15,16.15,0,0,0-7.71-.53c-11,2-22.19.65-33.29,1.05-1.56.06-3.34-.07-4.21-1.17-3.73-4.71-6.82-2.47-10.57.15a11.77,11.77,0,0,1-12.75.74c-2.8-1.49-5.34-2.48-8.22-.06-.92.78-2.84,1.53-3.69,1.09-5.28-2.73-6.59,1.33-8.8,4.52-3.56,5.13-8,8.43-15,7.84a147.32,147.32,0,0,0-22.43,0c-6.26.43-9.64-2.75-12-7.68-1.27-2.65-2.19-5-5.9-4.62-1.25.12-2.73-1.08-3.94-1.9a3,3,0,0,0-3.69-.22c-4,2.82-8.51,2.33-13,2.32-13.6,0-27.21.3-40.78-1-11.35-1.07-22.69-2.07-34-3.14-.4,0-.75-.42-2.3-1.33,6.54-1,12.14-1,17.49-1.23,7.93-.39,15.84-1.53,23.81-1.35,1.64,0,4.4.67,3.9-2.2-.37-2.15.41-5.36-3.78-5.82-9.83-1.08-19.6-2.67-29.4-4.07-.29,0-.55-.32-.83-.5.08-.3.16-.86.25-.86,9.7,0,19.37-2.09,29.09-.6,4.6.7,9-4.05,7.7-8.48-.46-1.55-1.76-1.18-2.86-1.36-7.08-1.15-14.17-2.33-21.95-3.61,2.22-2,4.27-1.27,6.07-1.34a63.81,63.81,0,0,1,10,0c7.07.81,12.79-.35,14.67-8.41C237.18,141.75,240.28,141.73,241.46,139.63Zm79.27-10.69h29.41c10.89,0,15.79-3.44,19.21-13.73Q383.23,73.41,397,31.55c2.57-7.82-.66-12.29-9-12.32q-30.16-.07-60.32,0c-10.29,0-15.69,4-18.9,13.65Q294.89,75,281.05,117.05c-2.49,7.54.67,11.83,8.77,11.86C300.13,129,310.43,128.93,320.73,128.94ZM160,19.59v0c-10.47,0-20.94-.06-31.41,0-8.48.06-14.15,4.13-16.83,12.18q-14.2,42.78-28.27,85.6c-2.36,7.16.94,11.81,8.55,11.84,20.61.1,41.22.15,61.83,0,9.49-.06,14.76-4.1,17.75-13.09q14.07-42.3,28-84.64c2.5-7.57-.64-11.88-8.7-11.94C180.58,19.54,170.28,19.59,160,19.59Zm259.8,109.35c10.31,0,20.61.05,30.91,0,8.54,0,14.09-4,16.8-12.16q14.13-42.53,28.12-85.1c2.65-8.08-.34-12.39-8.71-12.42q-30.66-.12-61.32,0c-9.21,0-15,4.25-17.89,13q-14,42.3-27.92,84.65c-2.53,7.71.53,12,8.61,12C398.84,129,409.31,128.94,419.78,128.94ZM222,129.07c10.48,0,21,.1,31.44,0,8.42-.1,13.84-4,16.47-11.93q14.23-42.79,28.32-85.66c2.52-7.68-.58-11.88-8.73-11.9q-30.69-.06-61.37,0c-9.51,0-14.95,3.92-17.9,12.83q-14,42.35-27.94,84.74c-2.48,7.57.7,11.87,8.77,11.92C201.38,129.13,211.69,129.08,222,129.07Zm88,63.11v0c3.33,0,6.65,0,10,0,4.85.06,7.63-2,8.63-7,2-10.09,4.45-20.09,6.68-30.13,1.16-5.19,0-7-5.1-7.12-7-.21-14-.15-20.93,0-4.23.08-7.13,1.83-8,6.54-1.12,6.2-2.81,12.29-4.17,18.45-1,4.67.14,6.34,4.72,6.56,3.82.18,7.65,0,11.47.08,1.6.05,4-.78,3.63,2.44-.24,2.16-.61,4-3.46,3.71-3.24-.3-6.58.61-9.68-1.38-1.91-1.22-4.17-.86-6.25,0s-4,2.14-3.58,4.73c.39,2.4,2.55,2.95,4.59,3C302.34,192.27,306.16,192.18,310,192.18Zm-55.73-12.61v0c3.16,0,6.31-.1,9.46,0,5.12.19,8-2,9-7.17,1.84-9.27,4-18.47,6.13-27.68.63-2.79,1.79-5.91-2.26-6.84-3.54-.82-8.22-.58-8.74,3.42-1,7.78-6.06,6.7-11.11,6.61a57.87,57.87,0,0,0-7,.08c-3.79.38-6.36,2-7.13,6.29-1.16,6.35-2.87,12.61-4.26,18.92-1,4.57.19,6.13,4.93,6.3C246.94,179.68,250.6,179.57,254.25,179.57Zm144.12,0v0c3.83,0,7.66.14,11.47,0,3.17-.15,5.87-1.29,6.69-4.84Q419,164,421.41,153.29c.66-2.86-.62-4.83-3.35-5-8.6-.56-17.23-.86-25.83.18a6.46,6.46,0,0,0-2.7,1.18,3.66,3.66,0,0,0-1.85,3.8c.29,1.49,1.47,2.13,2.74,2.62a6,6,0,0,0,5.32-.19c3.09-1.81,6.4-1.46,9.69-1.41,1.35,0,3.33-.53,3,2-.23,1.74-.76,3.25-3,3.16-2-.08-4,0-6,0-14.19,0-14.19,0-16.67,13.69-.83,4.54.33,6,5.15,6.22C391.39,179.68,394.88,179.56,398.37,179.56Zm-37.61,0c3.36-.38,6.25-1.37,7-5.54.7-3.92,2.11-7.72,2.65-11.65.73-5.3,1.91-9.4,8.76-8.05a3.55,3.55,0,0,0,4.48-3.55c.06-3.34-2.68-2.67-4.73-2.85a7.52,7.52,0,0,0-1.5,0c-2.77.27-3.6-1-2.88-3.56.84-2.94,1.26-5.88-2.77-6.56-3.82-.64-7.83-.25-8.95,4.22-2.66,10.62-4.89,21.36-7.25,32.06C354.67,178.2,357,179.47,360.76,179.59Zm67.62-.08c2.27-.3,5.07-1.26,5.88-4.75,2.69-11.46,5.29-22.94,7.91-34.42.55-2.43-.43-3.33-2.59-2-5.43,3.34-10.61,7-12.25,13.71-1.79,7.24-3.42,14.52-5,21.82C421.52,177.83,423.26,179.62,428.38,179.51ZM284,179.57c3.15-.16,5.84-1.53,6.7-5.48,1.48-6.81,2.9-13.63,4.62-20.37,1-3.94-1.06-5.48-4.21-5.62-3.88-.17-7.19,1.13-8.13,5.66-1.37,6.66-2.93,13.27-4.33,19.93C277.76,177.75,279.26,179.51,284,179.57Zm58.65,0c3.06-.29,5.93-1.41,6.77-5.43,1.43-6.8,2.8-13.62,4.49-20.36,1.11-4.37-1.49-5.62-4.69-5.65-3.65,0-6.69,1.42-7.55,5.73-1.33,6.65-3,13.23-4.43,19.86C336.33,177.73,338,179.59,342.61,179.55Zm7.26-33.68c3.1-.31,6.32-1,6.58-4.64.24-3.41-2.79-3.63-5.3-3.56-3.1.09-6.3.77-6.54,4.55C344.38,145.7,347.38,145.67,349.87,145.87Zm-59.42,0c4.27.08,7.54-2,7.38-4.66-.19-3.09-2.56-3.51-5-3.52-3.37,0-6.59.85-7,4.71C285.56,145.53,288.46,145.62,290.45,145.84Z"/><path class="cls-3" d="M320.73,128.93c-10.3,0-20.6,0-30.91,0-8.1,0-11.26-4.32-8.77-11.86Q294.91,75,308.81,32.89c3.21-9.68,8.61-13.62,18.9-13.65q30.17-.09,60.32,0c8.3,0,11.53,4.5,9,12.32q-13.78,41.85-27.64,83.66c-3.42,10.29-8.32,13.72-19.21,13.73Q335.42,129,320.73,128.93Zm45.8-76.41c12.27,0,12.48-.14,15.8-11.79.23-.8.41-1.61.63-2.41,1.81-6.59.62-8.26-6.06-8.28q-20.7,0-41.41,0c-17,.05-14.42-1.89-20.25,15.24a8.69,8.69,0,0,0-.32.94c-.92,4,.53,6,4.72,6.26,3,.17,6,0,9,0,5.63.07,6.06.65,4.26,6.17Q325.13,82.36,317.29,106c-4.15,12.61-4.08,12.69,9.24,12.64,7,0,8.76-1.29,10.9-7.78q8-24.37,16.05-48.76C356.64,52.51,356.64,52.5,366.53,52.52Z"/><path class="cls-4" d="M160,19.59c10.3,0,20.6-.05,30.91,0,8.06.06,11.2,4.37,8.7,11.94q-13.93,42.35-28,84.64c-3,9-8.26,13-17.75,13.09-20.61.15-41.22.1-61.83,0-7.61,0-10.91-4.68-8.55-11.84q14.07-42.81,28.27-85.6c2.68-8,8.35-12.12,16.83-12.18,10.47-.08,20.94,0,31.41,0Zm-30.79,98.83v.11c5.31,0,10.63,0,15.94,0,15.23,0,15.23,0,19.58-14.54,1.73-5.8.42-7.59-5.78-7.62-9.3-.05-18.6.07-27.91,0-5.8-.06-7.18-2-5.42-7.5,3.2-10,6.5-19.87,9.7-29.82,1.53-4.77,4.76-6.91,9.72-6.85,7.47.08,14.95,0,22.42,0,15.14.08,14,.87,18.73-14,1.94-6,.59-7.94-5.82-8q-22.18-.09-44.36,0c-8.5,0-14.3,4-17,12q-10.77,32.1-21.26,64.28c-2.4,7.4.72,11.67,8.51,11.84C113.9,118.55,121.54,118.42,129.19,118.42Z"/><path class="cls-4" d="M419.78,128.94c-10.47,0-20.94.05-31.4,0-8.08-.05-11.14-4.33-8.61-12q13.92-42.35,27.92-84.65c2.91-8.75,8.68-13,17.89-13q30.66-.12,61.32,0c8.37,0,11.36,4.34,8.71,12.42q-14,42.57-28.12,85.1c-2.71,8.14-8.26,12.11-16.8,12.16C440.39,129,430.09,128.94,419.78,128.94Zm3.72-10.8v0c6.64,0,13.29,0,19.93,0,8.5-.07,14.24-4,16.93-12q10.72-32.08,21.16-64.27c2.39-7.37-.81-11.69-8.59-11.75-13.78-.11-27.57-.14-41.35,0-7.58.09-13.27,3.88-15.7,11-7.53,22-14.74,44-21.86,66.14-2.12,6.56,1.1,10.7,8.06,10.87C409.22,118.28,416.36,118.14,423.5,118.14Z"/><path class="cls-3" d="M222,129.07c-10.31,0-20.62.06-30.94,0-8.07-.05-11.25-4.35-8.77-11.92Q196.2,74.75,210.23,32.4c3-8.91,8.39-12.8,17.9-12.83q30.68-.08,61.37,0c8.15,0,11.25,4.22,8.73,11.9q-14.09,42.86-28.32,85.66c-2.63,7.91-8.05,11.83-16.47,11.93C243,129.17,232.48,129.07,222,129.07Zm33.25-99c-6.81,0-13.62,0-20.43,0-8.06.08-14.16,4.27-16.67,11.8Q207.43,74,197,106.18c-2.51,7.72.55,12,8.61,12.11q20.43.19,40.85,0c8.22-.09,13.89-4.21,16.5-12Q273.67,74.19,284.12,42c2.47-7.6-.81-11.82-8.94-11.9C268.53,30,261.89,30.08,255.25,30.08Z"/><path class="cls-5" d="M310,192.18c-3.82,0-7.64.09-11.46,0-2-.07-4.2-.62-4.59-3-.43-2.59,1.48-3.84,3.58-4.73s4.34-1.24,6.25,0c3.1,2,6.44,1.08,9.68,1.38,2.85.25,3.22-1.55,3.46-3.71.35-3.22-2-2.39-3.63-2.44-3.82-.1-7.65.1-11.47-.08-4.58-.22-5.74-1.89-4.72-6.56,1.36-6.16,3.05-12.25,4.17-18.45.85-4.71,3.75-6.46,8-6.54,7-.15,14-.21,20.93,0,5.13.15,6.26,1.93,5.1,7.12-2.23,10-4.66,20-6.68,30.13-1,5-3.78,7.06-8.63,7-3.32,0-6.64,0-10,0Zm3.92-18.75c2.67-.14,5.06.62,5.7-2.55.88-4.38,2-8.72,2.89-13.1.24-1.15.92-2.55-1-3.27-4.19-1.55-8,.42-9,4.91-.68,2.91-1.08,5.9-2,8.71C309,172.24,309.74,174.3,313.9,173.43Z"/><path class="cls-5" d="M254.25,179.57c-3.65,0-7.31.11-10.95,0-4.74-.17-5.94-1.73-4.93-6.3,1.39-6.31,3.1-12.57,4.26-18.92.77-4.25,3.34-5.91,7.13-6.29a57.87,57.87,0,0,1,7-.08c5,.09,10.09,1.17,11.11-6.61.52-4,5.2-4.24,8.74-3.42,4.05.93,2.89,4.05,2.26,6.84-2.09,9.21-4.29,18.41-6.13,27.68-1,5.17-3.88,7.36-9,7.17-3.15-.12-6.3,0-9.46,0Zm5.11-25c-3.58-.88-5.09.84-5.57,4.27-.38,2.78-1.21,5.5-1.83,8.25-1.51,6.7-1.24,6.93,5.59,6.39,2-.16,3-.83,3.34-2.83.72-3.74,1.52-7.48,2.56-11.14C264.54,155.68,263.84,153.66,259.36,154.56Z"/><path class="cls-5" d="M398.37,179.56c-3.49,0-7,.12-10.47,0-4.82-.19-6-1.68-5.15-6.22,2.48-13.68,2.48-13.68,16.67-13.69,2,0,4-.07,6,0,2.27.09,2.8-1.42,3-3.16.33-2.55-1.65-2-3-2-3.29-.05-6.6-.4-9.69,1.41a6,6,0,0,1-5.32.19c-1.27-.49-2.45-1.13-2.74-2.62a3.66,3.66,0,0,1,1.85-3.8,6.46,6.46,0,0,1,2.7-1.18c8.6-1,17.23-.74,25.83-.18,2.73.18,4,2.15,3.35,5Q419,164,416.53,174.65c-.82,3.55-3.52,4.69-6.69,4.84-3.81.19-7.64,0-11.47,0Zm1.54-6.22c5.1,1.33,5.76-2.09,5.91-5.58.16-3.68-2.84-1.54-4.33-1.89-3.94-.93-5.71,1-5.94,4.93S398.37,172.84,399.91,173.34Z"/><path class="cls-5" d="M360.76,179.59c-3.73-.12-6.09-1.39-5.19-5.49,2.36-10.7,4.59-21.44,7.25-32.06,1.12-4.47,5.13-4.86,8.95-4.22,4,.68,3.61,3.62,2.77,6.56-.72,2.54.11,3.83,2.88,3.56a7.52,7.52,0,0,1,1.5,0c2.05.18,4.79-.49,4.73,2.85a3.55,3.55,0,0,1-4.48,3.55c-6.85-1.35-8,2.75-8.76,8.05-.54,3.93-2,7.73-2.65,11.65C367,178.22,364.12,179.21,360.76,179.59Z"/><path class="cls-5" d="M428.38,179.51c-5.12.11-6.86-1.68-6-5.64,1.55-7.3,3.18-14.58,5-21.82,1.64-6.67,6.82-10.37,12.25-13.71,2.16-1.33,3.14-.43,2.59,2-2.62,11.48-5.22,23-7.91,34.42C433.45,178.25,430.65,179.21,428.38,179.51Z"/><path class="cls-5" d="M284,179.57c-4.7-.06-6.2-1.82-5.35-5.88,1.4-6.66,3-13.27,4.33-19.93.94-4.53,4.25-5.83,8.13-5.66,3.15.14,5.22,1.68,4.21,5.62-1.72,6.74-3.14,13.56-4.62,20.37C289.8,178,287.11,179.41,284,179.57Z"/><path class="cls-5" d="M342.61,179.55c-4.65,0-6.28-1.82-5.41-5.85,1.44-6.63,3.1-13.21,4.43-19.86.86-4.31,3.9-5.77,7.55-5.73,3.2,0,5.8,1.28,4.69,5.65-1.69,6.74-3.06,13.56-4.49,20.36C348.54,178.14,345.67,179.26,342.61,179.55Z"/><path class="cls-5" d="M349.87,145.87c-2.49-.2-5.49-.17-5.26-3.65.24-3.78,3.44-4.46,6.54-4.55,2.51-.07,5.54.15,5.3,3.56C356.19,144.91,353,145.56,349.87,145.87Z"/><path class="cls-5" d="M290.45,145.84c-2-.22-4.89-.31-4.57-3.47.38-3.86,3.6-4.73,7-4.71,2.42,0,4.79.43,5,3.52C298,143.83,294.72,145.92,290.45,145.84Z"/><path class="cls-2" d="M366.53,52.52c-9.89,0-9.89,0-13,9.6q-8,24.39-16.05,48.76c-2.14,6.49-3.95,7.75-10.9,7.78-13.32,0-13.39,0-9.24-12.64q7.79-23.67,15.59-47.33c1.8-5.52,1.37-6.1-4.26-6.17-3,0-6,.13-9,0-4.19-.23-5.64-2.26-4.72-6.26a8.69,8.69,0,0,1,.32-.94c5.83-17.13,3.24-15.19,20.25-15.24q20.7-.06,41.41,0c6.68,0,7.87,1.69,6.06,8.28-.22.8-.4,1.61-.63,2.41C379,52.38,378.8,52.54,366.53,52.52Z"/><path class="cls-2" d="M129.19,118.42c-7.65,0-15.29.13-22.93,0-7.79-.17-10.91-4.44-8.51-11.84Q108.23,74.35,119,42.26c2.68-8,8.48-12,17-12q22.19-.11,44.36,0c6.41,0,7.76,1.93,5.82,8-4.77,14.84-3.59,14.05-18.73,14-7.47,0-14.95.06-22.42,0-5-.06-8.19,2.08-9.72,6.85-3.2,9.95-6.5,19.87-9.7,29.82-1.76,5.48-.38,7.44,5.42,7.5,9.31.1,18.61,0,27.91,0,6.2,0,7.51,1.82,5.78,7.62-4.35,14.56-4.35,14.55-19.58,14.54-5.31,0-10.63,0-15.94,0Z"/><path class="cls-2" d="M423.5,118.14c-7.14,0-14.28.14-21.42,0-7-.17-10.18-4.31-8.06-10.87,7.12-22.1,14.33-44.18,21.86-66.14,2.43-7.08,8.12-10.87,15.7-11,13.78-.15,27.57-.12,41.35,0,7.78.06,11,4.38,8.59,11.75Q471.08,74,460.36,106.14c-2.69,8-8.43,12-16.93,12-6.64,0-13.29,0-19.93,0Zm8.07-22.09c4.61.41,9.89.26,12.06-6.32,3.43-10.42,6.95-20.8,10.28-31.25,1.27-4-.27-6-4.47-6.33-3-.2-6-.06-9,0-4.14,0-7,2-8.27,5.91-3.47,10.4-7,20.8-10.31,31.24-1.5,4.68-.05,6.57,4.75,6.78C428,96.09,429.29,96.05,431.57,96.05Z"/><path class="cls-2" d="M255.25,30.08c6.64,0,13.28-.06,19.93,0,8.13.08,11.41,4.3,8.94,11.9q-10.46,32.19-21.19,64.28c-2.61,7.79-8.28,11.91-16.5,12q-20.42.23-40.85,0c-8.06-.07-11.12-4.39-8.61-12.11Q207.43,74,218.15,41.9c2.51-7.53,8.61-11.72,16.67-11.8C241.63,30,248.44,30.08,255.25,30.08Zm-20.94,66c3.93.26,9.36.66,11.51-5.32,3.87-10.79,7.4-21.7,10.86-32.62,1.16-3.68-.77-5.77-4.53-6-2.82-.14-5.65,0-8.48,0-4.53-.05-7.57,1.94-9,6.34-3.39,10.42-6.92,20.8-10.25,31.25-1.38,4.35.07,6.14,4.76,6.35C230.49,96.1,231.83,96.05,234.31,96.05Z"/><path class="cls-2" d="M313.9,173.43c-4.16.87-4.88-1.19-3.49-5.3.94-2.81,1.34-5.8,2-8.71,1.05-4.49,4.84-6.46,9-4.91,2,.72,1.27,2.12,1,3.27-.89,4.38-2,8.72-2.89,13.1C319,174.05,316.57,173.29,313.9,173.43Z"/><path class="cls-2" d="M259.36,154.56c4.48-.9,5.18,1.12,4.09,4.94-1,3.66-1.84,7.4-2.56,11.14-.38,2-1.34,2.67-3.34,2.83-6.83.54-7.1.31-5.59-6.39.62-2.75,1.45-5.47,1.83-8.25C254.27,155.4,255.78,153.68,259.36,154.56Z"/><path class="cls-2" d="M399.91,173.34c-1.54-.5-4.59,1.48-4.36-2.54s2-5.86,5.94-4.93c1.49.35,4.49-1.79,4.33,1.89C405.67,171.25,405,174.67,399.91,173.34Z"/><path class="cls-4" d="M431.57,96.05c-2.28,0-3.61,0-4.94,0-4.8-.21-6.25-2.1-4.75-6.78,3.34-10.44,6.84-20.84,10.31-31.24,1.31-3.93,4.13-5.89,8.27-5.91,3,0,6-.16,9,0,4.2.28,5.74,2.36,4.47,6.33-3.33,10.45-6.85,20.83-10.28,31.25C441.46,96.31,436.18,96.46,431.57,96.05Z"/><path class="cls-4" d="M234.31,96.05c-2.48,0-3.82,0-5.14,0-4.69-.21-6.14-2-4.76-6.35,3.33-10.45,6.86-20.83,10.25-31.25,1.44-4.4,4.48-6.39,9-6.34,2.83,0,5.66-.1,8.48,0,3.76.2,5.69,2.29,4.53,6-3.46,10.92-7,21.83-10.86,32.62C243.67,96.71,238.24,96.31,234.31,96.05Z"/></svg>