<svg id="Layer_1" data-name="Layer 1" xmlns="http://www.w3.org/2000/svg" viewBox="0 0 540.52 134.36"><defs><style>.cls-1{fill:#0754a0;}.cls-2{fill:#e3051f;}</style></defs><path class="cls-1" d="M486.7,8.63l13.54,13.09c8.6,8.32,17.23,16.61,25.79,25,4.57,4.47,4.69,8.6.27,12.92Q507.56,77.91,488.67,96c-.65.63-1.14,1.75-2.89,1.08,2.57-4.56,5.38-9,6.3-14.24a20.89,20.89,0,0,0-.3-10.33c-2.24-6.86-8.4-10.26-14.78-8.11a12.41,12.41,0,0,0-7.75,15.67,20.22,20.22,0,0,0,4.11,6.77c3.23,3.78,3.05,5.92-.66,9.19a18.14,18.14,0,0,1-28.15-4.6c-4-6.92-5.53-14.58-6.26-22.39-1.37-14.79-1.49-29.55,2.38-44.07a37.33,37.33,0,0,1,4.88-11.38,18.08,18.08,0,0,1,28.12-2.15c2.36,2.56,2.9,5,.17,7.81-3,3-5.12,6.52-5.21,11-.13,5.81,4.14,11.27,9.62,12.28,6,1.1,11.23-1.95,13.34-7.83s.86-11.52-1.4-17c-1.19-2.86-2.87-5.51-4.32-8.26Z"/><path class="cls-1" d="M23.51,53.5c0,6.11,1.13,11.93,5,16.85,4.05,5.09,10.32,6.44,15.57,3.42,2.23-1.28,4.29-2.58,2.28-5.78-1.53-2.42-.67-4.9,1.15-6.85A5.62,5.62,0,0,1,54,59.79c2.58,1,3.67,3.24,3.79,5.95.23,5-2.25,8.67-5.94,11.48-7.31,5.58-15.42,6.58-24,3.3-11-4.23-17.8-16-16.77-29,1.1-13.87,9-24,20.91-26.53A22.42,22.42,0,0,1,53.14,31c3,2.86,4.86,6.36,4.36,10.69-.46,4-3.7,6.48-7.26,5.66S44.19,42.64,46,39.22c2.16-4.16-.33-5.39-3.09-6.68-5.48-2.58-11.53-.61-15.22,4.78C25,41.26,23.53,46.93,23.51,53.5Z"/><path class="cls-2" d="M429.33,8.91C409.06,37.45,408.06,66,428.06,95c-2.06.76-2.74-.64-3.57-1.44q-17.4-16.78-34.72-33.62c-4.31-4.2-4.62-8.68-.63-12.59,12.93-12.66,26-25.21,39-37.79A5.43,5.43,0,0,1,429.33,8.91Z"/><path class="cls-1" d="M320,58.33c0,3.32,0,6.65,0,10,0,2.94,0,5.59,4,6.26,3.08.51,1.68,2.73.66,4.11-3,4-10.7,4.08-13.61-.08-1.38-2-2-.9-3-.12-4.92,3.82-10.35,4.56-15.88,1.89-5.88-2.84-7-8.4-7.17-14.3-.07-3.32,0-6.65-.05-10s.63-6.71-4.39-7.38c-2.48-.33-1.45-2.71-.44-3.94A10.47,10.47,0,0,1,290.86,41c4.21.87,4.3,4.39,4.36,7.87.13,6.3-.61,12.63.63,18.9.65,3.23,1.94,5.65,5.65,5.84s6.38-1.49,7.51-5.15c1.66-5.37.84-10.89.79-16.35,0-1.93-1.35-2.89-3.24-3.13-3.27-.41-2.88-2.43-1.47-4.21A10.38,10.38,0,0,1,315.77,41c4.23.85,4.45,4.33,4.4,7.83-.05,3.15,0,6.31,0,9.47Z"/><path class="cls-1" d="M97.49,61.3c0,3,.07,6,0,9-.07,2.44.67,4.35,3.18,4.93,4.09.94,2.11,3.28.78,4.56-3,2.92-7,3-9.93.4-2.45-2.17-3.88-1.66-6.2-.34a15.49,15.49,0,0,1-14.36.74,12.19,12.19,0,0,1-7.65-12.23c.2-5,3.16-8.86,8.28-10.7a22.76,22.76,0,0,1,13.24-.7c2.45.59,2.73-.12,2.81-2.25.22-6.06-2.11-8.6-7.74-8.2-2,.14-3.49.35-3.48,3a4.71,4.71,0,0,1-4.53,5,4.56,4.56,0,0,1-5-2.56,6.19,6.19,0,0,1,.95-7c3.59-4.45,14.41-6.22,22-3.61,5.71,2,7.45,4.91,7.57,13,0,2.32,0,4.65,0,7Zm-15.94,1c-5,.06-7.59,2.33-7.35,6.32s2.58,5.89,6.45,6c4.53.07,6.81-2.45,7-6.88C87.82,62.85,84.79,62.37,81.55,62.27Z"/><path class="cls-1" d="M256.94,81.7c-11.74,0-20.32-8.6-20.43-20.54A20.35,20.35,0,0,1,257.28,40.3c11.94,0,20.24,8.41,20.29,20.54S269,81.68,256.94,81.7Zm9.3-18.79c.13-4.7-.23-8.32-2.11-11.62-1.77-3.1-4.21-5.13-8-4.8-3.6.3-5.62,2.58-6.89,5.69-1.49,3.65-1.39,7.51-1.05,11.33.61,7,4.5,11.87,9.24,11.86,5.13,0,8.54-4.83,8.84-12.46C266.25,62.58,266.24,62.24,266.24,62.91Z"/><path class="cls-1" d="M220.49,81.58c-2.46-.33-4.92-.63-7.37-1a3.11,3.11,0,0,1-2.88-2.37c-.33-1.56.42-2.42,1.89-3,2.38-.93,2.85-3.07,2.87-5.31.05-6.49-.07-13,.1-19.45.07-2.49-.9-3.26-3.17-3.07-1.61.14-3.12-.11-3.27-2.11-.13-1.83.7-3.68,2.56-3.64,3.71.06,3.67-2,3.8-4.78.58-13.15,12-19.51,23.65-13.33,2.64,1.4,4.65,3.35,4.94,6.42.32,3.47-1.28,6-4.85,6.29-3.25.23-5.35-1.77-5.46-5.12-.06-1.85.67-3.68-2.27-3.75-2.58-.05-4.71.54-5.54,3.19-.91,2.9-.68,5.95-.44,8.91s2.82,1.3,4.3,1.86c2,.75,5.6-2.06,5.85,2.25.23,4.08-3,4.31-5.94,4-3.16-.32-4.37.54-4.2,4,.29,6,.12,12,.09,18,0,3,.75,5.31,4.06,5.86,1.35.23,2.11.78,2.09,2.23a2.87,2.87,0,0,1-2.41,2.78A33.24,33.24,0,0,1,220.49,81.58Z"/><path class="cls-1" d="M192.65,61.38c-3.16,0-6.32.16-9.47,0-3-.19-3.35,1.06-2.65,3.55,2.17,7.7,11.52,10.92,19.23,6.75,1.31-.71,2.49-3.69,4.38-1.41,1.73,2.08.53,4.44-.93,6.38-3.51,4.7-13.08,6.65-20.32,4.19C172.24,77.18,167,66.09,170.34,54.47a20,20,0,0,1,24.33-13.72c7.13,1.81,12.25,9,11.39,16.09-.36,2.92-1.26,5-4.95,4.61A74.56,74.56,0,0,0,192.65,61.38Zm-4.54-5.9a8.8,8.8,0,0,0,2,0c1.91-.45,5,1.44,5.54-1.55s-1.14-5.46-4.06-6.74a7.45,7.45,0,0,0-8.38,1.09c-1.81,1.57-3.37,3.87-2.74,6.09s3.4.72,5.17,1.11A12.07,12.07,0,0,0,188.11,55.48Z"/><path class="cls-1" d="M285.32,112c-.41,1.77-1.13,4.67-1.75,7.58a20.88,20.88,0,0,0-.53,3.91c0,1.34,2.8,2.47.24,4a5.45,5.45,0,0,1-5.23.34,3.89,3.89,0,0,1-2.37-4.48,78,78,0,0,1,1.69-8.29c.73-2.82,1-5.66-2.44-6.47-3.23-.76-5.39,1.21-6.18,4.36-.93,3.7-1.78,7.43-2.49,11.17-.57,3-2.2,4.49-5.22,3.74-3.18-.8-2-3.36-1.71-5.35s1.06-4.19,1.37-6.32c.42-2.82,2-6.58-2.15-7.54-4-.93-5.91,1.92-6.55,5.73-.52,3.11-1.32,6.16-1.93,9.26-.54,2.71-1.61,4.86-4.88,4.35-3.55-.57-2.67-3.06-2.18-5.39,1.17-5.52,2.21-11.07,3.45-16.57.82-3.67,3.22-4.72,5.41-2.07,1.68,2,2.22,1.63,3.88.29,3-2.4,7.08-3.34,9.57-.63,3.2,3.47,4.73,1.84,7.64,0C278.92,99.92,285.45,103.91,285.32,112Z"/><path class="cls-1" d="M120.86,45.21c2.28-1.89,4.17-4.36,7.38-4.82s6,.18,7.51,3.43A5.44,5.44,0,0,1,134,50.93c-2.7,2-5.44,1.46-7.41-1.24-1.34-1.83-2.18-.9-3,.23a12,12,0,0,0-2.14,7c-.08,4,0,8-.09,12-.06,3,.32,5.73,4,6.48A2.2,2.2,0,0,1,127.11,78a2.76,2.76,0,0,1-2.2,2.44,27,27,0,0,1-15.74-.15c-2.66-.9-3.51-3.19-.36-4.91,2.27-1.23,2.82-3.06,2.82-5.36,0-5.65,0-11.31,0-17,0-1.86-.12-3.55-2.53-4.22-3.46-1-3.81-3.13-1.12-5.57C112.48,39.15,117.27,39.86,120.86,45.21Z"/><path class="cls-1" d="M154,44.8a41.77,41.77,0,0,1,5.67-3.87,6.91,6.91,0,0,1,7.52.67,5.62,5.62,0,0,1,2.08,5.77c-.73,4.47-5.74,6.31-9,2.89-2.74-2.9-3.69-.95-4.41,1.05-2.52,6.9-1.72,14-1.06,21.15.16,1.65,1.62,2.5,3.13,2.83s2.39,1.12,2.24,2.72a2.72,2.72,0,0,1-2.2,2.41,27.11,27.11,0,0,1-15.71-.16c-2.83-1-3.31-3.33-.31-4.93,2.55-1.37,2.82-3.54,2.86-5.86.09-5.32.08-10.64,0-15.95,0-2,0-4-2.61-4.72-3.51-1-3.87-3-1.21-5.51C145.35,39.29,150.19,39.85,154,44.8Z"/><path class="cls-1" d="M344,63.76c0,1.82,0,3.65,0,5.48,0,2.82.44,5.38,3.76,6.12a2.28,2.28,0,0,1,2.05,2.39,2.58,2.58,0,0,1-2,2.59,26.68,26.68,0,0,1-16.16-.17c-2.4-.84-3.13-3-.37-4.78,1.12-.72,2.48-1.21,2.66-2.73a102.87,102.87,0,0,0,.09-21.84c-.16-1.63-1.58-2-3-2-3.24,0-2.42-2.2-1.77-3.78,1.75-4.26,9.89-5.84,12.56-2.16,1.92,2.63,2.69,1.63,4.24.08a8.59,8.59,0,0,1,7.7-2.61,5.53,5.53,0,0,1,5,4.74,5.46,5.46,0,0,1-2.44,6.07c-2.4,1.47-5,1.3-6.7-1-2.28-3-3.19-.91-4.09.88C343.61,55.07,344,59.45,344,63.76Z"/><path class="cls-1" d="M300,118c.39-5.46,2.31-10.27,7.07-13.53,3.19-2.19,6.89-3.12,10.35-1.23,2.71,1.47,4.76,3.25,7.43,0,.79-.93,2.52-.9,3.74-.06s.54,2.17.33,3.21c-.8,4.08-1.8,8.11-2.61,12.18a23.61,23.61,0,0,0-.55,5.41c.05,1.33,2.6,2.71-.18,3.91-2,.86-4.27.89-5.53-.79-1.67-2.21-2.68-2.29-4.84-.56a9,9,0,0,1-10.32.75C301.24,125.4,300.12,122,300,118Zm20.12-5.9c-.1-2.26-2.09-3.83-5.39-3.9-4.14-.1-7.72,4-7.59,8.83.08,3.21,1.43,5.45,5,5.52C316.4,122.63,320.05,118.38,320.1,112.09Z"/><path class="cls-1" d="M214.77,116.92c0-8.44,6.1-14.62,14.32-14.51,6.95.09,11.68,4.75,11.67,11.51,0,8.33-6.28,14.66-14.39,14.53C219.38,128.35,214.76,123.75,214.77,116.92Zm19.5-2.59c0-3.7-1.74-6-5.54-6.33-4.1-.3-7.72,4-7.58,8.75.11,3.74,2,5.93,5.8,6C231,122.92,234.27,119,234.27,114.33Z"/><path class="cls-1" d="M202.91,102.4c3.8,0,7.3.88,9.55,4.25,1.29,1.95,1.62,4.11-.6,5.72s-2.92-.21-4.12-1.73c-2.66-3.34-6.07-3.07-9.27-.84s-4.21,7.25-2.2,10.22,6,3.43,9.25,1.15c1.42-1,2.63-3.1,4.46-.83s.26,4-1.39,5.52c-3.56,3.2-10.32,3.51-15,.78-4-2.38-5.91-7-4.92-12C190.13,107.26,195.77,102.42,202.91,102.4Z"/><path class="cls-1" d="M330.58,124.49c1.41-6.5,2.61-13,4.29-19.47,1.08-4.16,3.8-2.45,5.42-.52,1.23,1.48,1.54,1.39,2.62.11a6,6,0,0,1,5.33-2.18c2.52.23,4.21,1.44,3.79,4.14-.39,2.5-1.24,4.39-4.66,3-3.61-1.48-5.73.93-6.72,4-1.2,3.79-1.93,7.73-2.94,11.58a3.6,3.6,0,0,1-4.52,2.86C331.19,127.71,330.29,126.57,330.58,124.49Z"/><path class="cls-1" d="M292.05,120.64c1.54.09,3.25.49,3.22,3s-1,4.5-3.94,4.64c-2.19.1-4.11-.55-4-3.18S288.73,120.68,292.05,120.64Z"/><path class="cls-1" d="M184,123.76c-.41,2.57-1.38,4.52-4.32,4.51-2.25,0-3.86-.73-3.64-3.43s1.65-4.23,4.42-4.2C182.5,120.67,183.92,121.54,184,123.76Z"/></svg>