<svg id="Layer_1" data-name="Layer 1" xmlns="http://www.w3.org/2000/svg" viewBox="0 0 262.53 262.52"><defs><style>.cls-1{fill:#d9d9d9;}.cls-2{fill:#fefdfc;}.cls-3{fill:#fecc00;}.cls-4{fill:#fe2314;}</style></defs><path class="cls-1" d="M130,7.13a108,108,0,0,0-15.66,1.16A121.16,121.16,0,0,0,73.53,21.46,124,124,0,0,0,34.21,54.11C16.43,76.39,7.72,101.92,7,130.23a113.07,113.07,0,0,0,1.63,20.09c4,26.14,15.55,48.57,33.85,67.47a122.13,122.13,0,0,0,39.2,27A123.87,123.87,0,0,0,150,254.09a119.49,119.49,0,0,0,40.94-13.63,123.34,123.34,0,0,0,59.62-74,126.45,126.45,0,0,0,5.05-36.31A129.16,129.16,0,0,0,253.42,108a120.07,120.07,0,0,0-20.89-50.07c-2.66-3.67-5.53-6.77-2.57-11.47.1-.15.06-.39.08-.58.55-7.42-1.44-13.88-7.69-18.32C215.91,23,209,22.43,201.86,26.1a3.64,3.64,0,0,1-4.09-.18C177.64,13.49,155.82,6.92,130,7.13Z"/><path class="cls-2" d="M130,7.13c25.87-.21,47.69,6.36,67.82,18.79a3.64,3.64,0,0,0,4.09.18c7.1-3.67,14-3.13,20.49,1.46,6.25,4.44,8.24,10.9,7.69,18.32,0,.19,0,.43-.08.58-3,4.7-.09,7.8,2.57,11.47A120.07,120.07,0,0,1,253.42,108a129.16,129.16,0,0,1,2.14,22.12,126.45,126.45,0,0,1-5.05,36.31,123.34,123.34,0,0,1-59.62,74A119.49,119.49,0,0,1,150,254.09a123.87,123.87,0,0,1-68.27-9.27,122.13,122.13,0,0,1-39.2-27c-18.3-18.9-29.82-41.33-33.85-67.47A113.07,113.07,0,0,1,7,130.23c.72-28.31,9.43-53.84,27.21-76.12A124,124,0,0,1,73.53,21.46,121.16,121.16,0,0,1,114.29,8.29,108,108,0,0,1,130,7.13ZM20.35,131.87a86.16,86.16,0,0,0,.91,14.37c.55,3.73,1.21,7.46,2.11,11.12A111.25,111.25,0,0,0,140,242.43c27.15-1.89,50.67-12.34,69.94-31.48,25.81-25.62,36.62-56.85,32.79-93-2.18-20.56-10-38.91-22.57-55.29-1-1.27-1.74-1.95-3.66-1.38-14.2,4.2-27-7.25-24.43-21.86.35-2-.27-2.62-1.64-3.45-23.95-14.48-49.83-19.51-77.31-14.85C59.17,30.26,20.35,76.55,20.35,131.87Zm179.89-89a10.61,10.61,0,1,0,10.54-10.63A10.65,10.65,0,0,0,200.24,42.87Z"/><path class="cls-3" d="M20.35,131.87c0-55.32,38.82-101.61,92.72-110.75,27.48-4.66,53.36.37,77.31,14.85,1.37.83,2,1.49,1.64,3.45C189.43,54,202.25,65.48,216.45,61.28c1.92-.57,2.69.11,3.66,1.38C232.64,79,240.5,97.39,242.68,118c3.83,36.15-7,67.38-32.79,93-19.27,19.14-42.79,29.59-69.94,31.48A111.25,111.25,0,0,1,23.37,157.36c-.9-3.66-1.56-7.39-2.11-11.12A86.16,86.16,0,0,1,20.35,131.87Zm61.26-6.42-.7-.09c-2.57-12.22-5.17-24.43-7.67-36.66-.3-1.5-.65-2.29-2.38-2.25-5.16.09-10.33.06-15.5,0-1.57,0-2.13.44-1.77,2.09,4.39,20,9.1,40,14,59.94a2.24,2.24,0,0,0,2.34,2c4.47.51,8.91.14,13.36.07,2.25,0,3.08-.87,3.87-2.7,4.38-10.11,8.87-20.16,13.33-30.24,4.22-9.52,8.41-19.06,12.7-28.55,1-2.28.42-3-2-3-3.38.06-6.76,0-10.13-.11a2.38,2.38,0,0,0-2.65,1.73c-2,4.75-4.13,9.46-6.23,14.17Q86.92,113.67,81.61,125.45ZM189.42,97.28a47.87,47.87,0,0,0-16.91,3c-3.21,1.21-6.13,2.87-8.14,5.76-2.92,4.23-1.13,9.08,3.88,10.14,3.84.81,7.28.08,9.74-3.41,1.49-2.11,2.79-4.37,4.82-6a4.46,4.46,0,0,1,5-.66c1.76.81,2.34,2.24,2.36,4.1s-.57,3.75-.6,5.61c0,2.07-1.06,2.68-2.83,3-3.79.74-7.6,1.46-11.33,2.47-5.86,1.58-11.66,3.42-16,8.09-5.9,6.37-4.32,16,3.47,19.67a46.35,46.35,0,0,0,29.35,3.37c7.91-1.62,9.43-3.34,10.84-11.2.17-1,.31-2,.46-2.94,1.47-9.6,3-19.19,4.37-28.82.83-6-.9-8.39-6.78-10.37A36.11,36.11,0,0,0,189.42,97.28Zm-84.07,31.48c0,1.1-.06,2.19,0,3.28.67,10.55,7.82,19,17.06,20.13,10.59,1.24,19.49-2.39,27-9.72a16.12,16.12,0,0,0,4-6.56,3,3,0,0,0-.51-3.34,2.78,2.78,0,0,0-3.33-.3,28.52,28.52,0,0,0-4.43,2.45,22,22,0,0,1-9,3.6c-6.39,1.11-12.07-1.4-14.06-6.28-1.63-4-.91-5.41,3.25-6.32.58-.13,1.17-.24,1.75-.35,8.47-1.63,17.09-2.41,25.5-4.47a3.41,3.41,0,0,0,3-3c2.19-11-5.67-20.64-17.38-21.14C119.85,95.91,105.47,109.91,105.35,128.76Zm85.28,55v-5.65c0-1,0-2-1.45-2s-1.72.84-1.53,1.92c.59,3.44-1,4.13-4.14,4a6.59,6.59,0,0,0-7.2,6.92,7.13,7.13,0,0,0,7,7.34,7.43,7.43,0,0,0,7.3-7.15C190.7,187.36,190.63,185.58,190.63,183.8Zm-38.26,12.41c1,0,2,0,3,0,2.86-.13,4.72-1.85,4.72-4.32s-1.94-4.21-4.74-4.32c-1.48-.06-3,0-4.46,0-.81,0-1.73-.12-1.8-1.14-.08-1.25.91-1.35,1.85-1.36,2.09,0,4.17,0,6.25,0,1,0,1.37-.53,1.37-1.49s-.29-1.51-1.34-1.5a76.55,76.55,0,0,0-7.73.12c-2.39.26-3.68,1.92-3.52,4.37s1.42,3.87,4,3.93c1.68,0,3.37,0,5.06,0,1,0,1.83.36,1.74,1.53-.08,1-.89,1.24-1.74,1.25-2,0-4,0-6,0-.93,0-1.78,0-1.84,1.34s.81,1.6,1.91,1.58S151.28,196.21,152.37,196.21Zm-56.22.09a7.39,7.39,0,0,0,1.19-.22c1.75-.58,4.47-1.27,4-3.13-.78-2.88-2.73-.49-4.17.08l-.28.11c-.58.15-1.25.3-1.63-.26s.17-1.1.57-1.51c1.6-1.63,3.18-3.28,4.85-4.84,1-.94,1.19-1.61,0-2.61a7.41,7.41,0,0,0-8.59-.71A7,7,0,0,0,89.14,191,7.16,7.16,0,0,0,96.15,196.3ZM145.27,189a7.13,7.13,0,0,0-7.14-6.85,7.1,7.1,0,1,0,7.14,6.85Zm15.5-2c0,.8,0,1.59,0,2.39a6.75,6.75,0,0,0,6.72,6.89,6.86,6.86,0,0,0,7.12-6.55c.12-2,0-4,0-6,0-1-.26-1.68-1.49-1.68s-1.54.57-1.52,1.65c0,1.79,0,3.58,0,5.37-.06,2.51-1.42,3.91-3.88,4s-3.89-1.31-4-3.81c-.09-1.58,0-3.18-.05-4.77,0-1,.41-2.33-1.37-2.38-2-.06-1.44,1.43-1.52,2.51C160.72,185.34,160.77,186.14,160.77,186.93Zm-44.14,4.64v-1.78c0-4.52-2.86-7.66-6.9-7.69s-7.11,3-7.3,7.38c-.06,1.58,0,3.17,0,4.76,0,1-.11,2,1.41,2.07s1.62-.76,1.6-1.89c0-1.68-.09-3.38,0-5,.2-2.46,1.48-4.13,4.08-4.29,2.26-.13,4,1.84,4.12,4.53.07,1.58,0,3.17,0,4.76,0,1.07,0,2,1.52,1.94s1.42-1.05,1.42-2.06ZM75,188.64c0,3.39,1.47,5.69,4.22,7a6.6,6.6,0,0,0,7.49-1.2c.69-.59,1.34-1.27.47-2.24a1.4,1.4,0,0,0-2.28-.14c-2,1.67-4,1.65-5.81-.23a3.53,3.53,0,0,1-.14-5.12c1.82-2.09,3.89-2.15,6-.37.08.07.16.12.24.18,1,.83,1.61.07,2.25-.56.88-.87.18-1.4-.44-1.91-2.33-1.91-4.89-2.61-7.75-1.35A6.88,6.88,0,0,0,75,188.64Zm42.39-.74c-.06,4.29,1.54,6.36,4.07,7.64a6.7,6.7,0,0,0,7.28-.88c.86-.63,1.82-1.32.73-2.64-.95-1.16-1.53-.56-2.38.12a3.77,3.77,0,0,1-5.58-.29,3.58,3.58,0,0,1-.08-5.33,3.69,3.69,0,0,1,5.54-.47c.87.69,1.56,1.21,2.48.12,1.13-1.32,0-2-.79-2.64a6.53,6.53,0,0,0-7.26-.79C118.67,184,117.39,186.21,117.34,187.9Z"/><path class="cls-4" d="M200.24,42.87a10.61,10.61,0,0,1,21.21-.08,10.61,10.61,0,1,1-21.21.08Z"/><path class="cls-4" d="M81.61,125.45q5.28-11.79,10.57-23.57c2.1-4.71,4.22-9.42,6.23-14.17A2.38,2.38,0,0,1,101.06,86c3.37.15,6.75.17,10.13.11,2.4,0,3,.72,2,3-4.29,9.49-8.48,19-12.7,28.55-4.46,10.08-9,20.13-13.33,30.24-.79,1.83-1.62,2.67-3.87,2.7-4.45.07-8.89.44-13.36-.07a2.24,2.24,0,0,1-2.34-2c-4.88-19.93-9.59-39.9-14-59.94-.36-1.65.2-2.11,1.77-2.09,5.17.05,10.34.08,15.5,0,1.73,0,2.08.75,2.38,2.25,2.5,12.23,5.1,24.44,7.67,36.66Z"/><path class="cls-4" d="M189.42,97.28A36.11,36.11,0,0,1,201.14,99c5.88,2,7.61,4.37,6.78,10.37-1.33,9.63-2.9,19.22-4.37,28.82-.15,1-.29,2-.46,2.94-1.41,7.86-2.93,9.58-10.84,11.2A46.35,46.35,0,0,1,162.9,149c-7.79-3.63-9.37-13.3-3.47-19.67,4.33-4.67,10.13-6.51,16-8.09,3.73-1,7.54-1.73,11.33-2.47,1.77-.34,2.81-1,2.83-3,0-1.86.63-3.7.6-5.61s-.6-3.29-2.36-4.1a4.46,4.46,0,0,0-5,.66c-2,1.68-3.33,3.94-4.82,6-2.46,3.49-5.9,4.22-9.74,3.41-5-1.06-6.8-5.91-3.88-10.14,2-2.89,4.93-4.55,8.14-5.76A47.87,47.87,0,0,1,189.42,97.28Zm-1.7,31.1c-.32-.94.65-2.25-1.1-2.38-4.83-.37-12.33,6.16-12.41,11-.05,2.48.82,4.72,3.3,5.84s4.6.38,6.47-1.44a8.7,8.7,0,0,0,2.46-4.65C187,133.92,187.31,131.08,187.72,128.38Z"/><path class="cls-4" d="M105.35,128.76c.12-18.85,14.5-32.85,32.85-32.06,11.71.5,19.57,10.15,17.38,21.14a3.41,3.41,0,0,1-3,3c-8.41,2.06-17,2.84-25.5,4.47-.58.11-1.17.22-1.75.35-4.16.91-4.88,2.32-3.25,6.32,2,4.88,7.67,7.39,14.06,6.28a22,22,0,0,0,9-3.6,28.52,28.52,0,0,1,4.43-2.45,2.78,2.78,0,0,1,3.33.3,3,3,0,0,1,.51,3.34,16.12,16.12,0,0,1-4,6.56c-7.52,7.33-16.42,11-27,9.72-9.24-1.09-16.39-9.58-17.06-20.13C105.29,131,105.35,129.86,105.35,128.76Zm18.59-11q6.69-1.27,13.37-2.53c.74-.14,1.25-.31,1.33-1.23a7,7,0,0,0-4.71-6.52c-4.61-1.11-11.06,2.63-12.31,7.19C121.1,116.59,121.19,118.16,123.94,117.77Z"/><path class="cls-4" d="M190.63,183.8c0,1.78.07,3.56,0,5.34a7.43,7.43,0,0,1-7.3,7.15,7.13,7.13,0,0,1-7-7.34,6.59,6.59,0,0,1,7.2-6.92c3.11.14,4.73-.55,4.14-4-.19-1.08.1-1.94,1.53-1.92s1.46,1,1.45,2Zm-3,3.72c.55-2.35-.9-2.66-3-2.59-3.55.13-5.29,1.4-5.29,4.15a4.35,4.35,0,0,0,4.17,4.17C186.06,193.16,187.62,191.11,187.63,187.52Z"/><path class="cls-4" d="M152.37,196.21c-1.09,0-2.19,0-3.28,0s-2-.13-1.91-1.58.91-1.34,1.84-1.34c2,0,4,0,6,0,.85,0,1.66-.27,1.74-1.25.09-1.17-.76-1.51-1.74-1.53-1.69,0-3.38,0-5.06,0-2.55-.06-3.81-1.55-4-3.93s1.13-4.11,3.52-4.37a76.55,76.55,0,0,1,7.73-.12c1.05,0,1.34.57,1.34,1.5s-.33,1.49-1.37,1.49c-2.08,0-4.16,0-6.25,0-.94,0-1.93.11-1.85,1.36.07,1,1,1.12,1.8,1.14,1.49,0,3,0,4.46,0,2.8.11,4.73,1.9,4.74,4.32s-1.86,4.19-4.72,4.32C154.36,196.25,153.36,196.21,152.37,196.21Z"/><path class="cls-4" d="M96.15,196.3a7.16,7.16,0,0,1-7-5.32,7,7,0,0,1,2.94-7.77,7.41,7.41,0,0,1,8.59.71c1.17,1,1,1.67,0,2.61-1.67,1.56-3.25,3.21-4.85,4.84-.4.41-1,.87-.57,1.51s1,.41,1.63.26l.28-.11c1.44-.57,3.39-3,4.17-.08.5,1.86-2.22,2.55-4,3.13A7.39,7.39,0,0,1,96.15,196.3Zm.67-10.41c.09-.5-.18-.73-.62-.79A3.7,3.7,0,0,0,93,186.32a3.87,3.87,0,0,0-1.27,3.16.7.7,0,0,0,.73.73A25.34,25.34,0,0,0,96.82,185.89Z"/><path class="cls-4" d="M145.27,189a7.1,7.1,0,1,1-7.14-6.85A7.13,7.13,0,0,1,145.27,189Zm-7,4.33a4.11,4.11,0,1,0-4.18-4.16A4.26,4.26,0,0,0,138.26,193.28Z"/><path class="cls-4" d="M160.77,186.93c0-.79-.05-1.59,0-2.38.08-1.08-.5-2.57,1.52-2.51,1.78.05,1.33,1.38,1.37,2.38.06,1.59,0,3.19.05,4.77.15,2.5,1.57,3.86,4,3.81s3.82-1.45,3.88-4c0-1.79,0-3.58,0-5.37,0-1.08.33-1.65,1.52-1.65s1.51.63,1.49,1.68c0,2,.07,4,0,6a6.86,6.86,0,0,1-7.12,6.55,6.75,6.75,0,0,1-6.72-6.89C160.75,188.52,160.77,187.73,160.77,186.93Z"/><path class="cls-4" d="M116.63,191.57v2.68c0,1,.09,2-1.42,2.06s-1.54-.87-1.52-1.94c0-1.59,0-3.18,0-4.76-.12-2.69-1.86-4.66-4.12-4.53-2.6.16-3.88,1.83-4.08,4.29-.13,1.67-.06,3.37,0,5,0,1.13-.19,1.93-1.6,1.89s-1.41-1.07-1.41-2.07c0-1.59,0-3.18,0-4.76.19-4.41,3.19-7.41,7.3-7.38s6.85,3.17,6.9,7.69Z"/><path class="cls-4" d="M75,188.64a6.88,6.88,0,0,1,4.26-6c2.86-1.26,5.42-.56,7.75,1.35.62.51,1.32,1,.44,1.91-.64.63-1.25,1.39-2.25.56-.08-.06-.16-.11-.24-.18-2.12-1.78-4.19-1.72-6,.37a3.53,3.53,0,0,0,.14,5.12c1.77,1.88,3.84,1.9,5.81.23a1.4,1.4,0,0,1,2.28.14c.87,1,.22,1.65-.47,2.24a6.6,6.6,0,0,1-7.49,1.2C76.42,194.33,75,192,75,188.64Z"/><path class="cls-4" d="M117.34,187.9c0-1.69,1.33-3.9,4-5.16a6.53,6.53,0,0,1,7.26.79c.78.63,1.92,1.32.79,2.64-.92,1.09-1.61.57-2.48-.12a3.69,3.69,0,0,0-5.54.47,3.58,3.58,0,0,0,.08,5.33,3.77,3.77,0,0,0,5.58.29c.85-.68,1.43-1.28,2.38-.12,1.09,1.32.13,2-.73,2.64a6.7,6.7,0,0,1-7.28.88C118.88,194.26,117.28,192.19,117.34,187.9Z"/><path class="cls-3" d="M187.72,128.38c-.41,2.7-.75,5.54-1.28,8.35a8.7,8.7,0,0,1-2.46,4.65c-1.87,1.82-4,2.56-6.47,1.44s-3.35-3.36-3.3-5.84c.08-4.82,7.58-11.35,12.41-11C188.37,126.13,187.4,127.44,187.72,128.38Z"/><path class="cls-3" d="M123.94,117.77c-2.75.39-2.84-1.18-2.32-3.09,1.25-4.56,7.7-8.3,12.31-7.19a7,7,0,0,1,4.71,6.52c-.08.92-.59,1.09-1.33,1.23Q130.62,116.48,123.94,117.77Z"/><path class="cls-3" d="M187.63,187.52c0,3.59-1.57,5.64-4.15,5.73a4.35,4.35,0,0,1-4.17-4.17c0-2.75,1.74-4,5.29-4.15C186.73,184.86,188.18,185.17,187.63,187.52Z"/><path class="cls-3" d="M96.82,185.89a25.34,25.34,0,0,1-4.34,4.32.7.7,0,0,1-.73-.73A3.87,3.87,0,0,1,93,186.32a3.7,3.7,0,0,1,3.18-1.22C96.64,185.16,96.91,185.39,96.82,185.89Z"/><path class="cls-3" d="M138.26,193.28a4.26,4.26,0,0,1-4.18-4.16,4.12,4.12,0,1,1,4.18,4.16Z"/></svg>