<svg id="Layer_1" data-name="Layer 1" xmlns="http://www.w3.org/2000/svg" viewBox="0 0 840.22 263.7"><defs><style>.cls-1{fill:#027dc3;}.cls-2{fill:#fdbc32;}</style></defs><path class="cls-1" d="M29.75,81.26a4,4,0,0,1,2.19-.3H51.55c2.16,0,2.2,0,2.64,2.23,2.41,12.21,4.77,24.43,7.2,36.64,2.83,14.29,5.4,28.63,7.85,43,.06.34.14.68.25,1.23,1-1.47.89-3,1.15-4.47,2.17-12,5-23.85,7.7-35.72,3.09-13.51,6.29-27,9.45-40.49.57-2.42.59-2.42,3.1-2.42h19.35c2,0,2.07,0,2.46,1.91,4.26,20.66,9,41.23,12.89,62,1,5.38,2,10.76,2.74,16.19a5.74,5.74,0,0,0,.78,2.33c.55-3.1,1.07-6.21,1.64-9.31,3.49-19.2,7.57-38.28,11.57-57.38q1.47-7,2.89-14c.21-1.06.51-1.74,1.83-1.73,6.88.07,13.78,0,20.67.07a3.14,3.14,0,0,1,.7.24c-.71,2.77-1.4,5.57-2.14,8.36q-12.74,48.27-25.46,96.54c-.45,1.73-1.1,2.72-3,2.92-3.51.38-7,.85-10.54.29a15.89,15.89,0,0,1-12.8-9.86c-1.6-3.59-2.21-7.45-3-11.24q-4.49-20.7-8.86-41.43c-1.24-5.88-2.1-11.83-2.9-17.78,0-.41-.14-.81-.29-1.63A49.16,49.16,0,0,0,97.78,115c-2.13,11.47-5.11,22.74-7.86,34.06-3,12.26-6.06,24.51-9,36.79-.47,2-1.26,3-3.38,3.2-3.78.33-7.52.91-11.34.24a14.88,14.88,0,0,1-10.88-7.63A40.24,40.24,0,0,1,51.51,171q-10.32-42.33-20.6-84.66C30.49,84.65,30.13,82.94,29.75,81.26Z"/><path class="cls-1" d="M306.79,118.31c3.51-5.35,8-9.44,14.2-11.16a29.08,29.08,0,0,1,18.48.43c6.08,2.3,10.23,6.71,13,12.77,1.54-1.81,2.77-3.4,4.16-4.84,7.85-8.19,17.44-11.19,28.48-8.88,8.85,1.84,14.49,7.63,17.79,15.88a44,44,0,0,1,3,16c.12,16,.08,32,.08,48,0,2,0,2-2.08,2q-8.88,0-17.76,0c-2.09,0-2.13,0-2.14-2.27,0-4.33,0-8.66,0-13q0-14.86,0-29.71a31.4,31.4,0,0,0-1.59-10.7c-1.56-4.34-4.18-7.58-9-8.45a13.11,13.11,0,0,0-13.06,4.63c-2.72,3.17-3.66,7-3.67,11.08v29.17c0,5.57,0,11.14,0,16.71,0,2.7.11,2.54-2.65,2.54H337.6c-2.74,0-2.91.54-2.91-2.85,0-11.75,0-23.51,0-35.27,0-3.8-.08-7.6-.18-11.4a20.15,20.15,0,0,0-1.71-7.45,11.94,11.94,0,0,0-18.55-4.93,16.33,16.33,0,0,0-6.81,12.91c-.14,3.62-.05,7.25-.06,10.88v35c0,.71,0,1.41,0,2.12a.91.91,0,0,1-1,1h-.53c-6.27,0-12.54,0-18.82,0-1.31,0-1.74-.51-1.64-1.72,0-.53,0-1.06,0-1.59V111.05c0-.35,0-.7,0-1.06,0-2.29,0-2.31,2.33-2.32q8.08,0,16.17,0c2.38,0,2.39,0,2.4,2.53s0,5.22,0,7.83Z"/><path class="cls-1" d="M464.12,180.15a2.07,2.07,0,0,0-1.05.77c-8,9.25-22.65,11.61-33.12,7.58-10.29-4-16.13-14-15.18-25.08s7.24-18.26,17-22.74a61.7,61.7,0,0,1,21-5c2.64-.21,5.29-.35,7.93-.39,1.31,0,1.62-.49,1.61-1.73A11.08,11.08,0,0,0,455,123a23.17,23.17,0,0,0-9.12-1.23,43.42,43.42,0,0,0-19.74,5.33c-.38.21-.79.36-1.41.65-1.33-4.6-2.6-9.09-4-13.55-.34-1.11.33-1.43,1-1.79a52,52,0,0,1,10.11-3.89c9.58-2.58,19.26-3.5,29.08-1.57,12.59,2.48,20.56,10.57,23,23.24a60.65,60.65,0,0,1,1,11.33q0,18,.14,36.06a65.89,65.89,0,0,0,.83,9c.3,2.1.26,2.19-1.84,2.64a22.53,22.53,0,0,1-8.42.43,13.55,13.55,0,0,1-10.59-7.88C464.81,181.13,464.73,180.47,464.12,180.15ZM463,155.79h.09c0-1.32,0-2.64,0-4,0-2.22,0-2.27-2.13-2.19-2.37.09-4.76.19-7.11.48a28.54,28.54,0,0,0-10.81,3.25,11.8,11.8,0,0,0-5.62,14,9.2,9.2,0,0,0,6.73,6.47,14.43,14.43,0,0,0,7.82-.07c5.3-1.44,10.68-6,11-13C463.1,159.14,463,157.47,463,155.79Z"/><path class="cls-1" d="M213,180.22c-.41-.08-.65.21-.87.46-6.58,7.29-15,10-24.53,9.6S170.5,185.6,166,176.84s-4-23.69,8.14-32.45c5.72-4.13,12.23-6.24,19-7.59a98.37,98.37,0,0,1,16.07-1.54c1.86-.06,1.93-.15,1.86-2-.24-6.46-4.75-10.79-12-11.42a42.93,42.93,0,0,0-23.56,4.79,4.14,4.14,0,0,1-2.11.84c-1.28-4.33-2.55-8.71-3.87-13.08-.39-1.27.33-1.73,1.27-2.21A51.85,51.85,0,0,1,181,108.38a67.33,67.33,0,0,1,26.24-1.94c14.47,1.83,24,11.31,25.91,25.89a70,70,0,0,1,.57,9.26c0,10.69,0,21.39.05,32.09a97.94,97.94,0,0,0,.93,12.68c.31,2.29.25,2.35-2,2.8a22.92,22.92,0,0,1-8.42.36,13.53,13.53,0,0,1-10.48-8c-.19-.4-.37-.8-.57-1.19C213.21,180.26,213.08,180.25,213,180.22Zm-1.11-24h0c0-1.77,0-3.54,0-5.3,0-.82-.19-1.38-1.16-1.35-6,.14-12,.47-17.6,3.11s-7.83,6.73-7.21,12.84a9,9,0,0,0,6,8c8.18,3.14,19.62-2.76,19.89-13C211.92,159.08,211.89,157.66,211.89,156.25Z"/><path class="cls-1" d="M577.34,144.42c0,4.6,0,9.19,0,13.79a26.76,26.76,0,0,0,.78,6.56c1.24,5,4,7.09,9.09,7.1a33.89,33.89,0,0,0,6.59-.54c1.69-.34,1.83-.22,1.86,1.54.1,4.59.1,9.19.21,13.78a1.61,1.61,0,0,1-1.41,1.85c-7.45,1.83-14.94,2.84-22.5.75-7.39-2.05-12.15-6.82-14.34-14.21a54.35,54.35,0,0,1-1.83-15.47q-.06-38,0-76.08,0-.8,0-1.59c0-.65.4-.92,1-.93h1.86c5.21,0,10.42,0,15.63,0,3.48,0,3-.4,3,3.17,0,6.54,0,13.07,0,19.61,0,2.67,0,2.68,2.77,2.68,4.77,0,9.54,0,14.31,0,1.89,0,1.94,0,1.94,1.87,0,5.66,0,11.31,0,17,0,1.39-.48,1.83-1.84,1.81-4.59-.06-9.19,0-13.78,0-4,0-3.41-.43-3.44,3.58C577.32,135.23,577.34,139.83,577.34,144.42Z"/><path class="cls-1" d="M270.17,134.87V185c0,.53,0,1.06,0,1.59-.05,2-.05,2-2.1,2q-8.88,0-17.76,0c-2,0-2.05,0-2.05-2.06,0-7.43,0-14.85,0-22.28q0-40,0-80.09c0-3.63-.39-3.19,3.29-3.21,5.39,0,10.78,0,16.16,0,2.44,0,2.46,0,2.46,2.47v51.44Z"/><path class="cls-1" d="M519.75,122.91a31.17,31.17,0,0,1,5.5-9.32A22.3,22.3,0,0,1,544.46,106c2.22.19,2.34.3,2.34,2.55,0,5.65,0,11.31,0,17,0,1.6-.26,2-1.94,1.82a25.11,25.11,0,0,0-10,.33c-6.7,1.83-10.67,6.23-12.27,12.9a33.32,33.32,0,0,0-.61,7.91q0,18.28,0,36.58v1.33c0,2.19,0,2.21-2.16,2.22-5.3,0-10.6,0-15.9,0-1.39,0-3.12.6-4.1-.3s-.43-2.84-.43-4.3q0-36.58,0-73.17c0-3.37-.44-3.16,3.08-3.16,4.77,0,9.54,0,14.31,0,2.41,0,2.42,0,2.43,2.51,0,3.53,0,7.07,0,10.6A2.94,2.94,0,0,0,519.75,122.91Z"/><path class="cls-2" d="M796.9,173.4c-.42,5.92-3,10.6-8.13,13.73a7.8,7.8,0,0,1-9.36-.32c-12.3-8.73-24.69-17.34-37-26-3.12-2.19-3.83-4.25-2.86-8A11.12,11.12,0,0,1,743,147a6.56,6.56,0,0,1,7.78-1.15q20.34,9.61,40.78,19C795.41,166.58,797.07,169.31,796.9,173.4Z"/><path class="cls-2" d="M701.8,218.09c.73-8.08,1.38-15.28,2-22.49.42-4.75.82-9.5,1.25-14.25.31-3.51.68-7,1-10.55a5.15,5.15,0,0,1,2.79-4.24,10.83,10.83,0,0,1,11.11-.07,5.85,5.85,0,0,1,3.08,4.95q1.08,13,2.22,26.12c.57,6.59,1.1,13.19,1.81,19.77a7.33,7.33,0,0,1-2.89,7c-3.69,2.94-8,3.56-12.51,2.92a14.07,14.07,0,0,1-5.23-1.78C703.28,223.59,701.3,221.12,701.8,218.09Z"/><path class="cls-2" d="M631.88,173.91c.13-4.44,1.47-7.3,5.24-9,13.48-6.15,26.88-12.47,40.32-18.72,4.26-2,7.06-1.29,9.93,2.43a10.89,10.89,0,0,1,2.33,5.82,6.26,6.26,0,0,1-2.81,6.13q-19.12,13.31-38.16,26.73a7,7,0,0,1-7.76.3C635.24,184.58,632.58,179.56,631.88,173.91Z"/><path class="cls-2" d="M701.84,51.64c-.47-3.36,1.45-5.92,4.68-7.63a16.72,16.72,0,0,1,15.06-.43c2.84,1.23,5.22,3.28,5.46,6.62a43.79,43.79,0,0,1-.44,7.12c-.64,7.29-1.31,14.59-2,21.88-.56,6.33-1.07,12.66-1.66,19-.3,3.14-2.27,5.19-5.84,6a11.28,11.28,0,0,1-6.53-.35c-2.66-1-4.46-2.67-4.69-5.76-.36-4.93-.88-9.84-1.32-14.76q-1.29-14.37-2.55-28.75C702,53.75,701.93,53,701.84,51.64Z"/><path class="cls-2" d="M689.74,114.46a11.15,11.15,0,0,1-5.43,9.14,5.93,5.93,0,0,1-6,.13c-5.65-2.7-11.34-5.31-17-8-7.91-3.69-15.77-7.5-23.76-11-4.43-1.93-6-5.2-5.5-9.48a16.56,16.56,0,0,1,7.94-12.81,7.94,7.94,0,0,1,9.6.26c12.37,8.78,24.82,17.46,37.26,26.15A6,6,0,0,1,689.74,114.46Z"/><path class="cls-2" d="M796.92,96.31c.09,4-1.58,6.63-5.3,8.32-13.64,6.22-27.19,12.63-40.78,19-3.2,1.49-5.34,1.13-8-1.25a11.45,11.45,0,0,1-3.61-6.61,6.17,6.17,0,0,1,2.63-6.68q19-13.26,37.91-26.6a7.21,7.21,0,0,1,8-.59C793.59,84.91,796.47,89.87,796.92,96.31Z"/><path class="cls-2" d="M804.85,189a4.34,4.34,0,0,1-4.13-4.29,4.18,4.18,0,0,1,4.41-3.95,4.14,4.14,0,0,1,4.13,4.23A4.34,4.34,0,0,1,804.85,189Zm-1.7-6.12c-1.49,1.63-1.5,2.42,0,3.75,1.31,1.67,2.56,1.66,3.73,0,1.47-1.45,1.48-1.92.09-3.78C805.13,181.44,804.7,181.45,803.15,182.89Z"/><path class="cls-2" d="M803.16,182.9a14.64,14.64,0,0,1,3.5.19c.18,1.17-.36,2.39.22,3.53a3.78,3.78,0,0,1-.75,0c-.18,0-2.28-.08-2.47,0a1.41,1.41,0,0,1-.5,0Z"/></svg>