<svg id="Layer_1" data-name="Layer 1" xmlns="http://www.w3.org/2000/svg" viewBox="0 0 427.76 264.83"><defs><style>.cls-1{fill:#03914c;}.cls-2{fill:#fdfdfd;}.cls-3{fill:#5c5b5a;}.cls-4{fill:#f3f9f6;}.cls-5{fill:#e21830;}</style></defs><path class="cls-1" d="M397.46,258.41c-5.78-2.84-12.18-3.43-18.35-4.72a714.05,714.05,0,0,0-307.36,3.52c-5.12,1.19-5.16,1.18-4.4-3.82,1.5-10,3-19.93,4.61-29.87a7.51,7.51,0,0,0-1.44-6.07C64.28,208.84,58.25,200.08,52,191.5c-1.75-2.41-1.62-3,1.46-3.74a801.42,801.42,0,0,1,103.64-17,784.64,784.64,0,0,1,256.53,17.09c3,.71,2.83,1.37,1.29,3.5-6.32,8.72-12.46,17.56-18.75,26.3a7,7,0,0,0-1.31,5.64c1.82,11.7,3.41,23.44,5.07,35.16ZM105.77,222.74c-.25-.62-.56-1.22-.76-1.85-3.37-10.63-6.87-21.23-10-31.93-1-3.34-2.86-2.45-5-2-3,.63-.91,2.46-.61,3.42,4.72,15.35,9.76,30.59,14.28,46,1.16,3.92,3.41,2.34,5.59,2.39,2.65.06,3.4-1.18,3.44-3.76q.33-24.13,1-48.26c.06-2.31-.45-3-2.92-2.91-2.83.14-2.8,1.69-2.91,3.76C107.21,199.34,107.88,211.15,105.77,222.74Zm77.48,1.3a48.43,48.43,0,0,0,1.67,5.31c.73,1.69,2.36,1.71,3.87,1.25s1-1.91.74-2.76c-2.05-5.76-1.51-11.77-1.91-17.69-.37-5.56-.39-11.17-2.21-16.53-1.68-5-4.45-7.09-9.18-7.28-8-.33-13.34,5.08-13,13.24.06,1.62-.13,3.35,2.52,3.12,2-.18,3.41-.46,3.06-3a8.84,8.84,0,0,1,.57-4.4c1-2.71,2.85-4.35,5.76-4.4s4.36,2,5.08,4.48a39.67,39.67,0,0,1,1,5.19c.75,5.28.73,5.31-4.52,5.67-4.67.31-9.15,1.19-11.21,6a16.86,16.86,0,0,0,2,17.06,8,8,0,0,0,13-.19A47.39,47.39,0,0,0,183.25,224Zm183.25,9.62c.16,1.26.34,2.32.43,3.38.19,2.16,1.5,3.39,3.5,3.15,2.44-.29,1.85-2.59,1.46-3.9-.88-3,.27-5.64.6-8.41.93-7.69,3-15.26,2.71-23.06-.25-7.35-4.17-11.08-11.28-11.16-6-.07-10.28,3.67-11.68,10.39-.31,1.46-1.75,3.43,1.52,3.86,2.29.3,3.62.33,3.7-2.5a8.64,8.64,0,0,1,1.44-3.77c1.5-2.59,3.72-3.91,6.84-3.14,2.93.72,3.67,3,3.82,5.58.11,2-.12,4.08,0,6.12.18,3.79-1.57,4.44-5,3.81-10-1.83-14.62,1.71-15.83,11.7-.71,5.87,1.19,10.56,5,12.4,4.1,2,7.15.9,12-4.18C365.74,233.84,365.91,233.84,366.5,233.66Zm-225.9-6.48a51,51,0,0,0,2.13,5.55c.84,1.6,2.51,1.65,4,1.09,1.6-.62,1-2.41.59-3.17-2.24-3.86-1.69-8.16-2.26-12.26-1-7-.9-14.16-3.3-20.92-2-5.57-5.44-7.73-11.28-7.23-7,.61-11.33,6-10.82,13.71.12,1.7.12,3.23,2.67,3,2.12-.19,3.29-.54,2.92-3.09a11.3,11.3,0,0,1,.49-4.82,5.71,5.71,0,0,1,5.37-4.32c2.74-.16,4.31,1.49,5.1,3.88a44.38,44.38,0,0,1,1.55,5.89c1,5.16.93,5.24-4.36,5.6-4.79.33-9.1,1.72-10.91,6.51a16.64,16.64,0,0,0,2.85,16.91,7.93,7.93,0,0,0,12.48-.16A15.19,15.19,0,0,0,140.6,227.18Zm171.53-.85c.29,1.65.54,2.84.69,4,.25,2.15,1.54,3.3,3.58,3,2.55-.34,1.87-2.71,1.38-3.87-.88-2.1-.33-4-.22-6,.51-8.95,2.58-17.83,1.32-26.86-.73-5.18-3-7.72-7.65-8.9a12.19,12.19,0,0,0-15.38,12.32c0,1.72.71,2.13,2.14,2.08,1.22,0,2.85,1,3.31-1.17.17-.8.14-1.63.3-2.43.89-4.36,3.54-6.81,7.06-6.54,4.28.34,4.46,3.73,5,6.81a13.8,13.8,0,0,1,.11,2c.18,7,.18,7-6.91,6.57-6.73-.43-11,2.46-12.4,8.62a21.33,21.33,0,0,0-.05,9.34c.81,3.65,2.72,6.59,6.69,7.46s6.88-.89,9.17-4C310.84,228.17,311.36,227.41,312.13,226.33Zm-70-1.38c1,2.09-.65,5,3,4.9s2.11-3,2.14-4.54c.29-12.26.36-24.53.5-36.8,0-1.82.72-3.74-2.53-3.81s-2.78,1.63-2.8,3.56c-.07,8.59-.15,17.18-.3,25.76a22.37,22.37,0,0,1-1,7.66c-1,2.65-2.68,4.52-5.7,4.4s-4.64-2.16-5.15-4.94a43.68,43.68,0,0,1-.77-7.3c-.11-8.58-.09-17.17-.09-25.76,0-1.79.34-3.4-2.55-3.4s-3.1,1.1-3,3.41c.29,10.08.38,20.17.66,30.25a21.93,21.93,0,0,0,1.06,6,8.79,8.79,0,0,0,11.92,5.3C239.59,228.77,240.72,226.89,242.16,225ZM327,223.14c.05-.3.16-1,.26-1.64.33-2.33-1.71-1.64-2.77-2.06s-2-.44-2.44,1.15c-1.79,5.91,1.55,12.9,7.2,14.73a11.61,11.61,0,0,0,14.66-7.64c2.31-6.88.06-12.36-6.63-16.05-2.86-1.58-5.88-2.92-7.21-6.27a8.4,8.4,0,0,1,1.65-9.11,5,5,0,0,1,6-1.19c3.39,1.43,4.38,4.21,4.1,7.64,0,.41-.07.82-.11,1.22-.21,2.11,1.37,1.92,2.69,2.16,1.53.27,2.54.1,3-1.75,1.35-5.9-2.9-12.56-9-14-7-1.58-12.53,1.77-13.92,8.38s1.28,12,7.73,15.5c2.65,1.44,5.38,2.79,6.53,5.83a8.43,8.43,0,0,1-1.93,9.42,5,5,0,0,1-6.32,1.23C327.39,229.22,326.8,226.56,327,223.14Zm-60.39-13.47c.19,5.07,0,10.42,2.18,15.43a9.94,9.94,0,0,0,9.2,6.33c4.36.27,7.28-1.87,9.35-5.39,1.76-3,2.29-6.37,2.7-9.76.19-1.59.23-2.9-2.08-3-1.87-.06-3.07,0-3.24,2.33a27.73,27.73,0,0,1-1.24,6.37c-.84,2.66-2.14,5.32-5.5,5.11s-4.48-2.82-5.08-5.6c-1.41-6.46-1.07-13-.4-19.5.32-3.12.69-6.25,2.17-9.08a5.34,5.34,0,0,1,5.22-3.25c2.36.11,3.65,1.58,4.52,3.57a16.25,16.25,0,0,1,1.13,8c-.17,2.09.47,2.89,2.68,2.94s2.92-.77,2.69-2.84-.17-4.36-.58-6.48c-1.2-6.1-4.29-9-9.62-9.36-6.18-.4-9.91,2.15-12,8.2C267,198.81,267.06,204.15,266.64,209.67Zm-47.87,20.18a2.94,2.94,0,0,1,.81,0c1.5.09,2.58,0,2.54-2.09,0-1.81-.65-2.33-2.38-2.3-3.71.06-5-2.34-5.06-5.58-.3-8.85-.46-17.72-.87-26.57-.14-3,0-5.15,3.9-4.46,1.27.22,2.11-.22,2-1.77-.1-1.08.06-2.52-1.57-2.18-5.23,1.07-4.42-2.51-4.58-5.56-.06-1.23.75-3.32-2-3-2,.26-3.7.36-3.54,3.23.12,2.14,1.39,4.89-2,6.22-.61.25-.67,2.63.26,2.87,2.91.72,1.91,2.89,2,4.56.85,9.78,0,19.65,1.43,29.4C210.51,227.91,212.61,229.65,218.77,229.85Z"/><path class="cls-2" d="M286.11,14.31c3.37-.11,4.66.62,4.21,4.8-1.13,10.51-1.14,21.14-1.91,31.69-1.27,17.32-2.45,34.64-3.31,52-.6,12-1.45,24.09-2.45,36.12-.36,4.33-1,8.65-.71,13,.24,3.63-1.48,4.49-4.68,4.21-12.48-1.11-25-1.62-37.51-1.61-8.05,0-16.12-.25-24.16.07-15.35.62-30.68,1.57-46,2.38-.7-1.45-1.37-2.91-2.12-4.33A23,23,0,0,0,137.23,142c-9,3.94-13.58,11.23-15.17,20.65-7.24.29-14.26,2.09-21.38,3.2-.24-1.36-.47-2.73-.71-4.09-2.58-13-5.11-26.06-7.76-39.07-5.9-28.95-11.77-57.9-17.91-86.8-.67-3.15.71-3.56,2.75-4,6.49-1.47,13-2.91,19.5-4.25a707.32,707.32,0,0,1,78-11.63c17.2-1.56,34.43-2.49,51.67-3a530.38,530.38,0,0,1,55.95,1.46Zm-150.9,98.63c2-.18,4.08-.33,6.11-.55,17.24-1.91,34.49-3.67,51.81-4.57,15.68-.81,31.39-1.13,47.05-2.25,17-1.22,29.74-15.16,29.16-31-.6-16.31-14.15-29.18-31.51-29a925.44,925.44,0,0,0-107.42,7.38c-16.67,2.11-28.33,16.12-27,31.5C104.74,100.73,118.51,113,135.21,112.94Z"/><path class="cls-1" d="M286.62,151q4.68-63.48,9.37-127c.64-8.6.64-8.65,9.13-7.93,18.63,1.59,37.09,4.43,55.51,7.56,1.5.25,3.18.43,2.53,2.68-4.65,16.3,1.67,31.74,3.74,47.5.76,5.8,2,11.55,2.65,17.36a7.89,7.89,0,0,0,3.64,5.93c7,5,13.79,10.25,20.8,15.2,2.14,1.51,2.52,2.93,1.93,5.4-2.75,11.51-5.21,23.09-7.94,34.6-.6,2.51-.32,3.95,2.48,4.16,3.21.25,3.6,2,2.75,4.72-1,3.1-.79,7.39-2.83,9.08-2.2,1.82-6.15-.56-9.33-1.08-7.53-1.25-15-2.82-22.57-3.85-2.9-.39-3.39-1.63-3.6-4.15-2.2-25.82-28.82-40.19-52.06-28.21C295.16,137,290.5,143.49,286.62,151Zm74.56-60.44c-2.35-13.39-4.73-26.77-7-40.17-.27-1.56-1.1-2-2.42-2.19-8.75-1.32-17.5-2.63-26.25-4C324,44,323.21,44.29,323,46q-2,18.85-4.17,37.71c-.15,1.29.2,1.94,1.67,2.14,12.94,1.78,25.86,3.76,38.68,6.33C360.35,92.37,361.54,92.45,361.18,90.59Z"/><path class="cls-1" d="M100,161.79c.24,1.36.47,2.73.71,4.09-8,1.63-7.1,1.89-8.56-5.2-8.9-43-17.71-86.08-26.69-129.09-.76-3.6-.13-5,3.63-5.89A689.68,689.68,0,0,1,259.83,7.05c6.95.3,13.9.69,20.85,1,5.86.29,5.87.3,5.43,6.22l-3.9.17c-.07-2.06-1.45-2.22-3.09-2.29-4.09-.18-8.18-.52-12.27-.72A695,695,0,0,0,72.61,29.22c-2.27.54-3.12,1-2.56,3.7q13.13,63,26,126C96.5,161.26,97.35,162.6,100,161.79Z"/><path class="cls-3" d="M341,162.81c-13.38-1.81-26.93-3.44-40.54-4.39-3-.21-3.23-1.31-2.3-3.89,3.86-10.74,14.11-17,25.81-15.61,10.48,1.27,19.65,11,20.8,21.74C345.15,164.6,342.58,162.53,341,162.81Z"/><path class="cls-3" d="M122.06,162.68c1.59-9.42,6.12-16.71,15.17-20.65a23,23,0,0,1,30.22,10.59c.75,1.42,1.42,2.88,2.12,4.33-3.34,2.79-7.51,1.6-11.25,2.06-11.39,1.42-22.88,2-34.14,4.45A1.76,1.76,0,0,1,122.06,162.68Z"/><path class="cls-3" d="M17.24,152.88c-.06,0-1.16.06-2.25,0-1.25-.09-3.18.46-3.22-1.42,0-1.61,1.8-1.78,3.15-1.93,13.94-1.57,27.85-3.37,41.7-5.63,5.78-.95,11.58-1.78,17.37-2.66,1.19-.18,2.65-.67,3.08,1s-1.15,2-2.29,2.19C56,147.71,37.39,151.91,17.24,152.88Z"/><path class="cls-3" d="M73.16,157c2.18,0,4.35,0,6.53,0,1,0,2,.38,2.08,1.53s-.93,1.6-1.92,1.61c-14.34.24-28.32,3.63-42.56,4.72-1.44.11-3.4.44-3.57-1.62-.15-1.72,1.69-1.94,3-2.1C48.86,159.76,60.87,157.11,73.16,157Z"/><path class="cls-3" d="M36.25,178.21h-2c-1.3,0-2.67-.27-2.69-1.82s1.33-1.92,2.6-2.06c2.43-.28,4.87-.56,7.31-.7a146.19,146.19,0,0,0,23.37-3.43,4.57,4.57,0,0,1,1.21-.16c1.26,0,3.06-.8,3.34,1.18.21,1.48-1.35,1.81-2.56,2.07-5.71,1.22-11.28,3.06-17.14,3.61C45.19,177.33,40.72,177.78,36.25,178.21Z"/><path class="cls-4" d="M105.77,222.74c2.11-11.59,1.44-23.4,2.11-35.15.11-2.07.08-3.62,2.91-3.76,2.47-.13,3,.6,2.92,2.91q-.61,24.12-1,48.26c0,2.58-.79,3.82-3.44,3.76-2.18,0-4.43,1.53-5.59-2.39-4.52-15.4-9.56-30.64-14.28-46-.3-1-2.35-2.79.61-3.42,2.11-.45,4-1.34,5,2,3.14,10.7,6.64,21.3,10,31.93C105.21,221.52,105.52,222.12,105.77,222.74Z"/><path class="cls-4" d="M183.25,224a47.39,47.39,0,0,1-2.83,5.06,8,8,0,0,1-13,.19,16.86,16.86,0,0,1-2-17.06c2.06-4.82,6.54-5.7,11.21-6,5.25-.36,5.27-.39,4.52-5.67a39.67,39.67,0,0,0-1-5.19c-.72-2.53-2.15-4.53-5.08-4.48s-4.74,1.69-5.76,4.4a8.84,8.84,0,0,0-.57,4.4c.35,2.56-1,2.84-3.06,3-2.65.23-2.46-1.5-2.52-3.12-.31-8.16,5-13.57,13-13.24,4.73.19,7.5,2.32,9.18,7.28,1.82,5.36,1.84,11,2.21,16.53.4,5.92-.14,11.93,1.91,17.69.3.85.81,2.29-.74,2.76s-3.14.44-3.87-1.25A48.43,48.43,0,0,1,183.25,224Zm-4.57-13.9c-8.18.27-11.44,6.38-7.93,14.16.9,2,2.3,3.47,4.56,3.56,2.07.09,3.56-1.13,4.61-2.85,2.05-3.38,2.33-7.16,2.49-11C182.53,211.17,181.81,209.21,178.68,210.14Z"/><path class="cls-4" d="M366.5,233.66c-.59.18-.76.18-.84.27-4.8,5.08-7.85,6.15-12,4.18-3.82-1.84-5.72-6.53-5-12.4,1.21-10,5.85-13.53,15.83-11.7,3.44.63,5.19,0,5-3.81-.1-2,.13-4.09,0-6.12-.15-2.57-.89-4.86-3.82-5.58-3.12-.77-5.34.55-6.84,3.14a8.64,8.64,0,0,0-1.44,3.77c-.08,2.83-1.41,2.8-3.7,2.5-3.27-.43-1.83-2.4-1.52-3.86,1.4-6.72,5.68-10.46,11.68-10.39,7.11.08,11,3.81,11.28,11.16.27,7.8-1.78,15.37-2.71,23.06-.33,2.77-1.48,5.45-.6,8.41.39,1.31,1,3.61-1.46,3.9-2,.24-3.31-1-3.5-3.15C366.84,236,366.66,234.92,366.5,233.66Zm-12.45-5.42c0,2.1.35,5.25,3.88,6.28,3.37,1,5.29-1.44,6.86-3.93a22.74,22.74,0,0,0,3.29-10c.1-1.08.33-1.89-1.26-2.4C358.91,215.71,354.25,218.92,354.05,228.24Zm12.48,4.4.24.17,0-.31Z"/><path class="cls-4" d="M140.6,227.18a15.19,15.19,0,0,1-2.82,6.17,7.93,7.93,0,0,1-12.48.16,16.64,16.64,0,0,1-2.85-16.91c1.81-4.79,6.12-6.18,10.91-6.51,5.29-.36,5.33-.44,4.36-5.6a44.38,44.38,0,0,0-1.55-5.89c-.79-2.39-2.36-4-5.1-3.88A5.71,5.71,0,0,0,125.7,199a11.3,11.3,0,0,0-.49,4.82c.37,2.55-.8,2.9-2.92,3.09-2.55.23-2.55-1.3-2.67-3-.51-7.66,3.78-13.1,10.82-13.71,5.84-.5,9.3,1.66,11.28,7.23,2.4,6.76,2.33,13.92,3.3,20.92.57,4.1,0,8.4,2.26,12.26.45.76,1,2.55-.59,3.17-1.45.56-3.12.51-4-1.09A51,51,0,0,1,140.6,227.18ZM139.42,219c-.49-1.47,1-4.05-1-5.25-3.46-2.08-10.74,1.88-11.32,6a14.93,14.93,0,0,0,1.34,8.74,4.89,4.89,0,0,0,9,.4C139.11,225.91,139.51,222.69,139.42,219Z"/><path class="cls-4" d="M312.13,226.33c-.77,1.08-1.29,1.84-1.84,2.58-2.29,3.07-5.21,4.83-9.17,4s-5.88-3.81-6.69-7.46a21.33,21.33,0,0,1,.05-9.34c1.4-6.16,5.67-9,12.4-8.62,7.09.45,7.09.45,6.91-6.57a13.8,13.8,0,0,0-.11-2c-.56-3.08-.74-6.47-5-6.81-3.52-.27-6.17,2.18-7.06,6.54-.16.8-.13,1.63-.3,2.43-.46,2.15-2.09,1.13-3.31,1.17-1.43.05-2.12-.36-2.14-2.08a12.19,12.19,0,0,1,15.38-12.32c4.67,1.18,6.92,3.72,7.65,8.9,1.26,9-.81,17.91-1.32,26.86-.11,2-.66,3.9.22,6,.49,1.16,1.17,3.53-1.38,3.87-2,.27-3.33-.88-3.58-3C312.67,229.17,312.42,228,312.13,226.33Zm-4.67-14.85c-3.86-.16-6.33,1.26-7.31,4.51a15,15,0,0,0-.16,8.84c1.28,4.23,5.45,5.18,8.52,1.95,2.33-2.45,3.29-5.55,4-8.78C313.77,211.88,313.67,211.72,307.46,211.48Z"/><path class="cls-4" d="M242.16,225c-1.44,1.94-2.57,3.82-4.66,4.7a8.79,8.79,0,0,1-11.92-5.3,21.93,21.93,0,0,1-1.06-6c-.28-10.08-.37-20.17-.66-30.25-.06-2.31.3-3.4,3-3.41s2.54,1.61,2.55,3.4c0,8.59,0,17.18.09,25.76a43.68,43.68,0,0,0,.77,7.3c.51,2.78,2.1,4.81,5.15,4.94s4.7-1.75,5.7-4.4a22.37,22.37,0,0,0,1-7.66c.15-8.58.23-17.17.3-25.76,0-1.93-.31-3.63,2.8-3.56s2.55,2,2.53,3.81c-.14,12.27-.21,24.54-.5,36.8,0,1.58,1.59,4.4-2.14,4.54S243.17,227,242.16,225Z"/><path class="cls-4" d="M327,223.14c-.23,3.42.36,6.08,3.41,7.58a5,5,0,0,0,6.32-1.23,8.43,8.43,0,0,0,1.93-9.42c-1.15-3-3.88-4.39-6.53-5.83-6.45-3.51-9.12-8.92-7.73-15.5s7-10,13.92-8.38c6.14,1.41,10.39,8.07,9,14-.42,1.85-1.43,2-3,1.75-1.32-.24-2.9-.05-2.69-2.16,0-.4.08-.81.11-1.22.28-3.43-.71-6.21-4.1-7.64a5,5,0,0,0-6,1.19,8.4,8.4,0,0,0-1.65,9.11c1.33,3.35,4.35,4.69,7.21,6.27,6.69,3.69,8.94,9.17,6.63,16.05a11.61,11.61,0,0,1-14.66,7.64c-5.65-1.83-9-8.82-7.2-14.73.48-1.59,1.43-1.55,2.44-1.15s3.1-.27,2.77,2.06C327.19,222.17,327.08,222.84,327,223.14Z"/><path class="cls-4" d="M266.64,209.67c.42-5.52.38-10.86,2.12-16,2.07-6.05,5.8-8.6,12-8.2,5.33.35,8.42,3.26,9.62,9.36.41,2.12.35,4.32.58,6.48s-.45,2.9-2.69,2.84-2.85-.85-2.68-2.94a16.25,16.25,0,0,0-1.13-8c-.87-2-2.16-3.46-4.52-3.57a5.34,5.34,0,0,0-5.22,3.25c-1.48,2.83-1.85,6-2.17,9.08-.67,6.51-1,13,.4,19.5.6,2.78,1.82,5.4,5.08,5.6s4.66-2.45,5.5-5.11a27.73,27.73,0,0,0,1.24-6.37c.17-2.34,1.37-2.39,3.24-2.33,2.31.08,2.27,1.39,2.08,3-.41,3.39-.94,6.77-2.7,9.76-2.07,3.52-5,5.66-9.35,5.39a9.94,9.94,0,0,1-9.2-6.33C266.65,220.09,266.83,214.74,266.64,209.67Z"/><path class="cls-4" d="M218.77,229.85c-6.16-.2-8.26-1.94-9-7.18-1.43-9.75-.58-19.62-1.43-29.4-.14-1.67.86-3.84-2-4.56-.93-.24-.87-2.62-.26-2.87,3.37-1.33,2.1-4.08,2-6.22-.16-2.87,1.56-3,3.54-3.23,2.74-.36,1.93,1.73,2,3,.16,3.05-.65,6.63,4.58,5.56,1.63-.34,1.47,1.1,1.57,2.18.15,1.55-.69,2-2,1.77-3.87-.69-4,1.47-3.9,4.46.41,8.85.57,17.72.87,26.57.11,3.24,1.35,5.64,5.06,5.58,1.73,0,2.35.49,2.38,2.3,0,2.06-1,2.18-2.54,2.09A2.94,2.94,0,0,0,218.77,229.85Z"/><path class="cls-5" d="M135.21,112.94c-16.7.09-30.47-12.21-31.84-28.55-1.29-15.38,10.37-29.39,27-31.5a925.44,925.44,0,0,1,107.42-7.38c17.36-.17,30.91,12.7,31.51,29,.58,15.89-12.17,29.83-29.16,31.05-15.66,1.12-31.37,1.44-47.05,2.25-17.32.9-34.57,2.66-51.81,4.57C139.29,112.61,137.25,112.76,135.21,112.94Zm87.22-64.66c-10.85.54-20.8.94-30.74,1.55-20.7,1.27-41.38,2.87-61.91,5.76-11.31,1.59-19.2,8.26-22.56,19.34-3.27,10.81-.12,20.23,8,27.84,6.89,6.49,15.33,8.36,24.64,7.25,17.47-2.09,35-3.8,52.55-4.72,15.94-.83,31.89-1.39,47.83-2.28,13.65-.76,25.15-11.78,26.21-24.78,1.17-14.24-7.49-26.07-21.63-29.41C237.07,47,229.27,48.61,222.43,48.28Z"/><path class="cls-2" d="M361.18,90.59c.36,1.86-.83,1.78-2,1.55-12.82-2.57-25.74-4.55-38.68-6.33-1.47-.2-1.82-.85-1.67-2.14Q321,64.82,323,46c.18-1.67,1-2,2.47-1.73,8.75,1.37,17.5,2.68,26.25,4,1.32.2,2.15.63,2.42,2.19C356.45,63.82,358.83,77.2,361.18,90.59Z"/><path class="cls-1" d="M178.68,210.14c3.13-.93,3.85,1,3.73,3.91-.16,3.8-.44,7.58-2.49,11-1,1.72-2.54,2.94-4.61,2.85-2.26-.09-3.66-1.58-4.56-3.56C167.24,216.52,170.5,210.41,178.68,210.14Z"/><path class="cls-1" d="M354.05,228.24c.2-9.32,4.86-12.53,12.77-10,1.59.51,1.36,1.32,1.26,2.4a22.74,22.74,0,0,1-3.29,10c-1.57,2.49-3.49,4.9-6.86,3.93C354.4,233.49,354.09,230.34,354.05,228.24Z"/><polygon class="cls-1" points="366.53 232.64 366.79 232.5 366.77 232.81 366.53 232.64"/><path class="cls-1" d="M139.42,219c.09,3.72-.31,6.94-2,9.86a4.89,4.89,0,0,1-9-.4,14.93,14.93,0,0,1-1.34-8.74c.58-4.09,7.86-8.05,11.32-6C140.38,214.92,138.93,217.5,139.42,219Z"/><path class="cls-1" d="M307.46,211.48c6.21.24,6.31.4,5,6.52-.68,3.23-1.64,6.33-4,8.78-3.07,3.23-7.24,2.28-8.52-1.95a15,15,0,0,1,.16-8.84C301.13,212.74,303.6,211.32,307.46,211.48Z"/><path class="cls-4" d="M222.43,48.28c6.84.33,14.64-1.27,22.34.55,14.14,3.34,22.8,15.17,21.63,29.41-1.06,13-12.56,24-26.21,24.78-15.94.89-31.89,1.45-47.83,2.28-17.57.92-35.08,2.63-52.55,4.72-9.31,1.11-17.75-.76-24.64-7.25-8.07-7.61-11.22-17-8-27.84,3.36-11.08,11.25-17.75,22.56-19.34,20.53-2.89,41.21-4.49,61.91-5.76C201.63,49.22,211.58,48.82,222.43,48.28ZM108.85,82.6c.08,15,13.63,26.7,28.75,25,8.94-1,17.89-2.08,26.85-2.88,24.88-2.23,49.82-3.37,74.78-4.24,10.12-.35,17.65-5.48,22.12-14.47,8.3-16.73-4.52-35.67-24.1-35.33A1042.47,1042.47,0,0,0,130.72,58,24.87,24.87,0,0,0,108.85,82.6Z"/><path class="cls-1" d="M108.85,82.6A24.87,24.87,0,0,1,130.72,58a1042.47,1042.47,0,0,1,106.53-7.38c19.58-.34,32.4,18.6,24.1,35.33-4.47,9-12,14.12-22.12,14.47-25,.87-49.9,2-74.78,4.24-9,.8-17.91,1.85-26.85,2.88C122.48,109.3,108.93,97.57,108.85,82.6Zm14.88,11.28c1.19,1.08-1.32,3.87,1.6,3.94,2,.05,3.6,1.1,5.43,1.47a17.41,17.41,0,0,0,11.53-1.1c1.55-.76,2.41-2,1.23-3.58s-2-.41-3.14.51c-2.94,2.27-6.49,1.85-9.7.68a41.12,41.12,0,0,0-7-1.87c3.53-6.75,5.56-13.82,4.32-21.52-.27-1.67.67-2.08,1.91-2.53.92-.33,1.78-.93,1.42-2.11s-1.45-1.1-2.38-.84a15.54,15.54,0,0,0-8.53,5.94c-.49.67-.91,1.39-.13,2.17a1.58,1.58,0,0,0,2.18.18c.74-.42.94-1.74,2.49-1.28a30.36,30.36,0,0,1-3.19,16.44C120.63,92.66,120.68,94.05,123.73,93.88Zm12.5,8.4c-15.82-.12-25.4-14-20.06-26.76,3.79-9,12.8-13.45,23.63-11.59,1,.18,2.33,1,2.79-.48.56-1.78-1.18-1.91-2.25-2.14-8.49-1.77-16,.11-22.16,6.35-6,6-7.92,13.34-5.27,21.42,3.1,9.49,10,14.87,19.86,15.77,9.56.87,16.92-3.27,21.94-11.43.84-1.37,1.25-2.72,3.4-2.87,9.4-.63,18.77-1.64,28.16-2.28,22.35-1.51,44.72-2.47,67.12-2.54,1.2,0,3.22.59,3-1.54-.14-1.68-2-1-3.05-1-32.11,0-64.13,1.73-96.09,4.81a5,5,0,0,0-4.54,3.19C149,98.46,142.79,102.1,136.23,102.28ZM239.31,72.51c0,2.63,0,4.38,0,6.14,0,1.17.48,1.77,1.66,1.81s1.61-.63,1.56-1.8c-.14-3.81-.21-7.62-.34-11.43,0-.78.09-1.73-1-1.94a1.82,1.82,0,0,0-2,1.13c-1.13,1.86-2.35,3.67-3.4,5.57-1,1.73-1.75,1.7-2.87.12-1.41-2-2.95-3.91-4.47-5.83a1.74,1.74,0,0,0-2.14-.72c-.61.26-.64.81-.61,1.36.18,3.94.37,7.88.53,11.82.05,1.24.35,2.14,1.85,2s1.23-1.12,1.22-2.07c0-1.66,0-3.31,0-5.38C234.61,78.65,234.61,78.65,239.31,72.51Zm-98.71,20c4.13,0,7.2-1.47,9.19-4.78,1.88-3.12.76-6-1-8.75-1-1.6-1.93-3.28-3-4.84-1.66-2.41-2.21-4.46,1.38-5.53a1.41,1.41,0,0,0,1.15-1.82c-.32-1.1-1.19-1.24-2.27-1.1a5.34,5.34,0,0,0-4.41,7.5,73.71,73.71,0,0,0,4.09,7c1.28,2.12,2.81,4.26.75,6.66s-4.49,2.83-7.39,2.22c-1.27-.27-3.07-2-3.74.29s1.75,2.32,3.16,2.85A8.08,8.08,0,0,0,140.6,92.53Zm48.65-18,1.38-.9c2,2.33,4.05,4.69,6.12,7,.62.69,1.35,1.51,2.43,1.11,1.28-.48.63-1.62.59-2.47-.17-3.39-.46-6.77-.64-10.15-.08-1.33-.17-2.49-2-2.29s-1.16,1.44-1.08,2.43c.18,2,.38,3.89.58,5.84l-1.3.9q-3.3-3.8-6.62-7.58a2,2,0,0,0-2.15-.79c-.85.25-.78.93-.72,1.64.33,3.92.67,7.84.93,11.76.08,1.25.65,1.65,1.8,1.53,1.4-.15,1.23-1,1.09-2C189.43,78.56,189.38,76.55,189.25,74.55Zm-22.42,4.63c2,.54,2.75,2.52,4.07,3.78,1,1,2.3,1.41,3.27.49,1.19-1.13-.57-1.69-1-2.53-.69-1.45-3.21-1.85-1.71-4.58,2.34-4.24-.05-7.57-5-7.28-1.38.08-4.06-.69-4.06,1.31,0,4.32.82,8.64,1.33,13,.13,1.11.9,1.2,1.8,1s1.5-.5,1.23-1.62S166.07,80.44,166.83,79.18Zm-26.07,7.68c1.71-.09,2.18-.61,1.25-2.27-2-3.56-3.78-7.22-5.67-10.84-.48-.92-.75-2.2-2.24-1.89-1.15.25-1.25,1.27-1.48,2.2-1,3.82-2.06,7.61-3,11.44-.2.85-1.12,2.24.65,2.62,1.38.29,1.76-.83,2.22-1.87,1.49-3.33,3.9-3.55,6.34-.6C139.4,86.3,139.82,87,140.76,86.86Zm114.52-6.64c1.88,0,1.52-1,1.09-2.14C255,74.53,253.68,71,252.2,67.47c-.42-1-.38-2.7-2.15-2.49-1.27.16-1.53,1.35-1.92,2.39-1.26,3.44-2.66,6.83-3.84,10.29-.26.75-1.74,2,.22,2.6,1.26.38,1.8-.41,2.4-1.53,1.61-3,4.39-3,6.23,0C253.71,79.67,254.21,80.25,255.28,80.22Zm-79.92-7.58c.21,1.89.46,3.78.64,5.67.53,5.56.52,5.55,5.91,4.89,1.21-.15,2.74,0,2.52-1.83s-1.67-1-2.61-.86c-1.59.24-2.56.06-2.79-1.85s.9-2,2.17-2,2-.53,2-1.6c0-1.48-1.23-1.11-2.12-1-1.25.09-2.41.38-2.47-1.58s1-2,2.31-2l1.63-.15c.85-.09,1.09-.65,1.06-1.4s-.38-.89-.95-1.1C178.59,66.3,175.14,68.61,175.36,72.64Zm38.89-4c.88.23,1.91.86,2.22-.67s-.88-1.75-2-2c-2.65-.49-5.09-.06-6.17,2.65-1.23,3.09.79,4.73,3.31,6,1.25.64,3.36,1.15,2.7,3-.8,2.22-2.66,1.13-4.1.39-.67-.35-1.3-.64-1.73.1a1.72,1.72,0,0,0,.24,1.91c1.28,1.77,5.2,2.11,7.08.41,2.12-1.91,2.51-4.21.51-6.44a12.08,12.08,0,0,0-3-2c-1.07-.63-2.41-1.17-1.9-2.68S213.23,68.57,214.25,68.6Zm-59.2,16.89c.94-.13,1.91-.19,2.83-.41,1.28-.31,3.62.58,3.34-1.77-.23-1.94-2.21-.61-3.39-.8-.94-.15-2,.11-2.06-1.31-.05-1.06-.37-2.21,1.23-2.55,1.08-.22,2.84.25,2.73-1.61-.13-2-1.86-.93-2.87-1-1.17-.09-1.74-.5-1.83-1.67-.07-.89,0-1.48,1.11-1.75,1.37-.33,4.12.59,3.63-1.84s-3-.36-4.53-.67a10.11,10.11,0,0,0-1.63.08c-1.53-.05-2.23.48-2,2.17.52,3.63.92,7.28,1.36,10.92C153.15,84.5,153.16,85.86,155.05,85.49ZM223,73.87h-.11c-.13-2.29-.22-4.58-.41-6.86a1.38,1.38,0,0,0-1.62-1.39c-.87.06-1.64.32-1.59,1.38q.28,6.25.65,12.5c.07,1.27,1,1.47,2,1.37S223,80,223,79.13C223,77.38,223,75.62,223,73.87ZM202.44,71c.23,3,.46,5.65.65,8.36.09,1.23-.05,2.51,1.88,2.29,1.76-.2,1.26-1.34,1.18-2.39-.19-2.71-.12-5.45-.56-8.11-.27-1.68,1.35-5-2-4.64C200.82,66.8,203.25,69.72,202.44,71Z"/><path class="cls-4" d="M136.23,102.28c6.56-.18,12.74-3.82,16.51-11.12A5,5,0,0,1,157.28,88c32-3.08,64-4.76,96.09-4.81,1.09,0,2.91-.65,3.05,1,.19,2.13-1.83,1.54-3,1.54-22.4.07-44.77,1-67.12,2.54-9.39.64-18.76,1.65-28.16,2.28-2.15.15-2.56,1.5-3.4,2.87-5,8.16-12.38,12.3-21.94,11.43-9.86-.9-16.76-6.28-19.86-15.77-2.65-8.08-.68-15.37,5.27-21.42,6.14-6.24,13.67-8.12,22.16-6.35,1.07.23,2.81.36,2.25,2.14-.46,1.47-1.75.66-2.79.48C129,62.07,120,66.5,116.17,75.52,110.83,88.24,120.41,102.16,136.23,102.28Z"/><path class="cls-4" d="M239.31,72.51c-4.7,6.14-4.7,6.14-10,.82,0,2.07,0,3.72,0,5.38,0,1,.24,2-1.22,2.07s-1.8-.8-1.85-2c-.16-3.94-.35-7.88-.53-11.82,0-.55,0-1.1.61-1.36a1.74,1.74,0,0,1,2.14.72c1.52,1.92,3.06,3.83,4.47,5.83,1.12,1.58,1.91,1.61,2.87-.12,1.05-1.9,2.27-3.71,3.4-5.57a1.82,1.82,0,0,1,2-1.13c1.09.21,1,1.16,1,1.94.13,3.81.2,7.62.34,11.43,0,1.17-.29,1.83-1.56,1.8s-1.68-.64-1.66-1.81C239.34,76.89,239.31,75.14,239.31,72.51Z"/><path class="cls-4" d="M140.6,92.53a8.08,8.08,0,0,1-2.12-.28c-1.41-.53-3.79-.63-3.16-2.85s2.47-.56,3.74-.29c2.9.61,5.45.06,7.39-2.22s.53-4.54-.75-6.66a73.71,73.71,0,0,1-4.09-7,5.34,5.34,0,0,1,4.41-7.5c1.08-.14,1.95,0,2.27,1.1a1.41,1.41,0,0,1-1.15,1.82c-3.59,1.07-3,3.12-1.38,5.53,1.08,1.56,2,3.24,3,4.84,1.78,2.76,2.9,5.63,1,8.75C147.8,91.06,144.73,92.52,140.6,92.53Z"/><path class="cls-4" d="M123.73,93.88c-3,.17-3.1-1.22-2-3.5A30.36,30.36,0,0,0,125,73.94c-1.55-.46-1.75.86-2.49,1.28a1.58,1.58,0,0,1-2.18-.18c-.78-.78-.36-1.5.13-2.17A15.54,15.54,0,0,1,129,66.93c.93-.26,2-.4,2.38.84s-.5,1.78-1.42,2.11c-1.24.45-2.18.86-1.91,2.53,1.24,7.7-.79,14.77-4.32,21.52Z"/><path class="cls-4" d="M189.25,74.55c.13,2,.18,4,.43,6,.14,1,.31,1.88-1.09,2-1.15.12-1.72-.28-1.8-1.53-.26-3.92-.6-7.84-.93-11.76-.06-.71-.13-1.39.72-1.64a2,2,0,0,1,2.15.79Q192,72.21,195.35,76l1.3-.9c-.2-2-.4-3.89-.58-5.84-.08-1-.73-2.24,1.08-2.43s1.9,1,2,2.29c.18,3.38.47,6.76.64,10.15,0,.85.69,2-.59,2.47-1.08.4-1.81-.42-2.43-1.11-2.07-2.3-4.08-4.66-6.12-7Z"/><path class="cls-4" d="M166.83,79.18c-.76,1.26-.3,2.44,0,3.58s-.33,1.46-1.23,1.62-1.67.07-1.8-1c-.51-4.33-1.34-8.65-1.33-13,0-2,2.68-1.23,4.06-1.31,4.93-.29,7.32,3,5,7.28-1.5,2.73,1,3.13,1.71,4.58.4.84,2.16,1.4,1,2.53-1,.92-2.24.5-3.27-.49C169.58,81.7,168.88,79.72,166.83,79.18Zm.14-3.09a2.19,2.19,0,0,0,2.22-2.23,1.9,1.9,0,0,0-2-2.09c-1.4-.07-1.63.74-1.39,1.82S165.63,75.87,167,76.09Z"/><path class="cls-4" d="M140.76,86.86c-.94.13-1.36-.56-1.89-1.21-2.44-3-4.85-2.73-6.34.6-.46,1-.84,2.16-2.22,1.87-1.77-.38-.85-1.77-.65-2.62.9-3.83,2-7.62,3-11.44.23-.93.33-2,1.48-2.2,1.49-.31,1.76,1,2.24,1.89C138.23,77.37,140,81,142,84.59,142.94,86.25,142.47,86.77,140.76,86.86Z"/><path class="cls-4" d="M255.29,80.22c-1.08,0-1.58-.55-2.15-1.47-1.84-3-4.62-3-6.23,0-.6,1.12-1.14,1.91-2.4,1.53-2-.59-.48-1.85-.22-2.6,1.18-3.46,2.58-6.85,3.84-10.29.39-1,.65-2.23,1.92-2.39,1.77-.21,1.73,1.51,2.15,2.49,1.48,3.5,2.8,7.06,4.17,10.61C256.8,79.17,257.16,80.27,255.29,80.22Z"/><path class="cls-4" d="M175.36,72.64c-.22-4,3.23-6.34,7.25-4.86.57.21.92.48.95,1.1s-.21,1.31-1.06,1.4l-1.63.15c-1.28.1-2.37.22-2.31,2s1.22,1.67,2.47,1.58c.89-.07,2.13-.44,2.12,1,0,1.07-.81,1.61-2,1.6s-2.41,0-2.17,2,1.2,2.09,2.79,1.85c.94-.15,2.41-.83,2.61.86s-1.31,1.68-2.52,1.83c-5.39.66-5.38.67-5.91-4.89C175.82,76.42,175.57,74.53,175.36,72.64Z"/><path class="cls-4" d="M214.25,68.59c-1,0-2.36-.69-2.83.72s.83,2,1.9,2.68a12.08,12.08,0,0,1,3,2c2,2.23,1.61,4.53-.51,6.44-1.88,1.7-5.8,1.36-7.08-.41a1.72,1.72,0,0,1-.24-1.91c.43-.74,1.06-.45,1.73-.1,1.44.74,3.3,1.83,4.1-.39.66-1.84-1.45-2.35-2.7-3-2.52-1.3-4.54-2.94-3.31-6,1.08-2.71,3.52-3.14,6.17-2.65,1.08.2,2.28.37,2,2S215.13,68.83,214.25,68.59Z"/><path class="cls-4" d="M155.05,85.49c-1.89.37-1.9-1-2.06-2.22-.44-3.64-.84-7.29-1.36-10.92-.25-1.69.45-2.22,2-2.17a10.11,10.11,0,0,1,1.63-.08c1.55.31,4-1.87,4.53.67s-2.26,1.51-3.63,1.84c-1.1.27-1.18.86-1.11,1.75.09,1.17.66,1.58,1.83,1.67,1,.08,2.74-1,2.87,1,.11,1.86-1.65,1.39-2.73,1.61-1.6.34-1.28,1.49-1.23,2.55.06,1.42,1.12,1.16,2.06,1.31,1.18.19,3.16-1.14,3.39.8.28,2.35-2.06,1.46-3.34,1.77C157,85.3,156,85.36,155.05,85.49Z"/><path class="cls-4" d="M123.68,93.93a41.12,41.12,0,0,1,7,1.87c3.21,1.17,6.76,1.59,9.7-.68,1.19-.92,1.93-2.11,3.14-.51s.32,2.82-1.23,3.58a17.41,17.41,0,0,1-11.53,1.1c-1.83-.37-3.41-1.42-5.43-1.47-2.92-.07-.41-2.86-1.6-3.94Z"/><path class="cls-4" d="M223,73.87c0,1.75,0,3.51,0,5.26,0,.82.07,1.64-1.08,1.74s-1.94-.1-2-1.37q-.36-6.24-.65-12.5c-.05-1.06.72-1.32,1.59-1.38A1.38,1.38,0,0,1,222.45,67c.19,2.28.28,4.57.41,6.86Z"/><path class="cls-4" d="M202.44,71c.81-1.31-1.62-4.23,1.15-4.49,3.35-.32,1.73,3,2,4.64.44,2.66.37,5.4.56,8.11.08,1,.58,2.19-1.18,2.39-1.93.22-1.79-1.06-1.88-2.29C202.9,76.68,202.67,74,202.44,71Z"/><path class="cls-1" d="M167,76.09c-1.34-.22-.95-1.55-1.17-2.5s0-1.89,1.39-1.82a1.9,1.9,0,0,1,2,2.09A2.19,2.19,0,0,1,167,76.09Z"/></svg>