<svg id="Layer_1" data-name="Layer 1" xmlns="http://www.w3.org/2000/svg" viewBox="0 0 262.53 262.52"><defs><style>.cls-1,.cls-4{fill:#fff;}.cls-1{stroke:#666;stroke-miterlimit:22.93;stroke-width:0.13px;fill-rule:evenodd;}.cls-2{fill:#009541;}.cls-3{fill:#a4c735;}</style></defs><path class="cls-1" d="M228.69,55.83A120.48,120.48,0,0,1,128.34,247.21,120.62,120.62,0,0,1,16.1,162.31,120.55,120.55,0,0,1,189.16,21a111,111,0,0,1,9.5,5.8,21.31,21.31,0,0,1,10.64-5.24,20.91,20.91,0,0,1,15,3.19,20.54,20.54,0,0,1,9,13.5,23.87,23.87,0,0,1,.09,7.16A19.88,19.88,0,0,1,228.69,55.83Z"/><path class="cls-2" d="M99.32,21.7A110.33,110.33,0,0,1,184,30.41a99.28,99.28,0,0,1,9.77,6.06,20.12,20.12,0,0,0,1.32,14.58,19.67,19.67,0,0,0,10.06,9.42,20.22,20.22,0,0,0,14,.54,110,110,0,0,1,6.64,121.6A109.8,109.8,0,1,1,99.32,21.7Z"/><path class="cls-3" d="M211.19,32.14a10,10,0,0,1,7.29,1.61,10.38,10.38,0,0,1,4.27,6.37,19.75,19.75,0,0,1,0,3.92A10.26,10.26,0,0,1,215,52c-.84.1-1.69.05-2.54.07-3.57.26-7-2.11-8.62-5.19a10.27,10.27,0,0,1,1.53-11.7A10.44,10.44,0,0,1,211.19,32.14Z"/><path class="cls-4" d="M212.85,149.1v-9.89a11.82,11.82,0,0,0,8.33-3.46,11.64,11.64,0,0,0,3.53-8.4,11.9,11.9,0,0,0-5.64-10.08,11.78,11.78,0,0,0-6.22-1.79v-9.89a21.6,21.6,0,0,1,12.48,4,22.12,22.12,0,0,1,7.8,9.94,21.64,21.64,0,0,1,.67,13.72,21.94,21.94,0,0,1-9.15,12.38A21.67,21.67,0,0,1,212.85,149.1Zm0-43.51v9.89a13.73,13.73,0,0,0-1.7.11,12,12,0,0,0-7,3.73,11.77,11.77,0,0,0-2.73,11.23,12,12,0,0,0,10,8.57,11.64,11.64,0,0,0,1.45.09v9.89h-.68A21.72,21.72,0,0,1,194,116.65a21.87,21.87,0,0,1,16.93-11h0c.65-.06,1.31-.09,2-.09ZM178,205.82v-2.93a3.76,3.76,0,0,0,2.94-1.42c1.47-1.68.74-4,.93-6.05-1.27,0-2.58-.16-3.87-.09v-2.79c1.29,0,2.58.08,3.86,0,0-1.76,0-3.52,0-5.27h0c.91,0,1.82,0,2.74,0,.05,4,0,8,0,12a6.77,6.77,0,0,1-6.19,6.51c-.15,0-.3,0-.45,0Zm0-57.51V138.19a4,4,0,0,0,1.2-4.37,4,4,0,0,0-1.2-1.74V120.91a3.42,3.42,0,0,0,.32-3.06,3.6,3.6,0,0,0-.32-.58V106.55c.32,0,.64.12,1,.2a12.65,12.65,0,0,1,7.11,4.54,10.72,10.72,0,0,1,1.31,10.41,9,9,0,0,1-3.73,3.91,12.14,12.14,0,0,1,5.07,6.31,12.32,12.32,0,0,1-.4,9.39A12.89,12.89,0,0,1,179.8,148,11.46,11.46,0,0,1,178,148.31Zm0-41.76v10.72a4.16,4.16,0,0,0-3.37-1.7h-1.87V106.3a29.55,29.55,0,0,1,5.24.25Zm0,14.36v11.17a4.22,4.22,0,0,0-2.75-1h-2.49v-8.5h1.62a4.71,4.71,0,0,0,3.14-1.08,3.16,3.16,0,0,0,.48-.56Zm0,17.28v10.12a45.79,45.79,0,0,1-5.24.14V139.2h2.78a3.82,3.82,0,0,0,2.46-1Zm0,54.35v2.79a8.4,8.4,0,0,0-2.23.38c-2.17,1.24-2.14,4.71-.28,6.23a3.57,3.57,0,0,0,2.51.95v2.93a6.65,6.65,0,0,1-5.24-2.63v-8.65a5.22,5.22,0,0,1,2.58-1.8A14.83,14.83,0,0,1,178,192.54Zm-20,.05h0c0,2.42-.06,4.85,0,7.27a6.34,6.34,0,0,0,4.8,5.75,6.43,6.43,0,0,0,6.22-1.78,6.29,6.29,0,0,0,1.75-4.27c0-2.32,0-4.64,0-7a28.21,28.21,0,0,0-3.05,0c0,2.32,0,4.65,0,7a3.35,3.35,0,0,1-6.7,0c0-2.33,0-4.66,0-7q-1.51-.06-3,0Zm14.76-86.29v9.26c-1.89,0-3.78,0-5.67,0a54.81,54.81,0,0,0,0,7c1.89,0,3.78,0,5.67,0v8.5c-1.91,0-3.82,0-5.73,0,0,2.71-.09,5.42,0,8.13,1.9,0,3.8,0,5.7,0v9.25h-.14c-3.6,0-7.19.05-10.78,0a5.06,5.06,0,0,1-4.73-5c0-10,0-20,0-30a11,11,0,0,1,.34-3.8h0a5,5,0,0,1,4.68-3.26c3.31,0,6.61,0,9.92,0,.24,0,.48,0,.72,0Zm0,88.24v8.65a6.58,6.58,0,0,1-1.35-3.05,7.22,7.22,0,0,1,1.35-5.6ZM137.37,206v-2.71l.26,0a4.26,4.26,0,0,0,4-4.63,4.3,4.3,0,0,0-4.23-3.84v-2.72a7,7,0,0,1,4.82,12,6.7,6.7,0,0,1-4.82,1.94Zm0-90V106a13.89,13.89,0,0,1,3.46.3,15,15,0,0,1,12,14.62c0,7.77,0,15.54,0,23.31a5,5,0,0,1-10-.29V122.69a12.19,12.19,0,0,0-.19-3.08,5.11,5.11,0,0,0-4.46-3.58,5.06,5.06,0,0,0-.87,0Zm9,77.34c1.16-.94,2.72-.84,4.13-.82,1.88,0,3.77,0,5.65,0,0,.91,0,1.82,0,2.74-2.44.07-4.89,0-7.33,0a1.21,1.21,0,0,0-1.1,1.73c.61.91,1.83.68,2.77.72,1.8.07,3.81-.36,5.39.74a4,4,0,0,1,.21,6.32,5.05,5.05,0,0,1-3.26,1c-2.33,0-4.65,0-7,0,0-.91,0-1.82,0-2.72,2.6-.1,5.21.08,7.8-.09a1.19,1.19,0,0,0,.34-2.27c-2.46-.51-5.26.53-7.52-.91a4,4,0,0,1-.1-6.42Zm-9-87.36v10a5.08,5.08,0,0,0-4.51,4.9q0,11.51,0,23a5,5,0,0,1-2.4,4.34V108a14.9,14.9,0,0,1,6.91-2Zm0,86.1v2.72a3.42,3.42,0,0,0-1.09.15,4.24,4.24,0,0,0,1.09,8.34V206a6.91,6.91,0,0,1-6.91-6.29v-1.38a7,7,0,0,1,5.25-6h0a5.91,5.91,0,0,1,1.66-.21Zm-6.91,10.71,0,0,0,0Zm0-94.82v40.28a4.5,4.5,0,0,1-2.11.71,5,5,0,0,1-5.46-4.76c0-7.77,0-15.54,0-23.31a5.11,5.11,0,0,0-4.72-4.9,4.94,4.94,0,0,0-5.22,4.61c0,7.77,0,15.55,0,23.32a5.11,5.11,0,0,1-5.25,5.06,5,5,0,0,1-4.74-4.77c0-7.77,0-15.54,0-23.31a14.74,14.74,0,0,1,4.55-10.69h0a14.86,14.86,0,0,1,12.39-4.1,15.88,15.88,0,0,1,8.12,3.7,14.43,14.43,0,0,1,2.49-1.84Zm0,90.36v1.38a6.77,6.77,0,0,1,0-.78c0-.2,0-.4,0-.6Zm0,4.41a20.08,20.08,0,0,0-1.85-1.84,5.84,5.84,0,0,1-2.66,2,4.27,4.27,0,0,1-5.4-4,4.23,4.23,0,0,1,4.57-4.35,5,5,0,0,1,3.49,2.19c.59-.63,1.4-1.13,1.76-1.93a6.4,6.4,0,0,0-5.82-3,7,7,0,0,0-6.45,4.95h0a7,7,0,0,0,1.29,6.41,6.89,6.89,0,0,0,6.33,2.48,6.72,6.72,0,0,0,4.74-2.91v-.05Zm-33.67,3V203a4.1,4.1,0,0,0,2.63-.22,5.9,5.9,0,0,0,2.21-1.94,20.91,20.91,0,0,1,1.92,2,7.39,7.39,0,0,1-3.64,2.71,6.63,6.63,0,0,1-3.12.28Zm0-4.47c1.6-1.24,3.28-2.39,4.88-3.64a10.45,10.45,0,0,0,2.24-1.88,6.64,6.64,0,0,0-6.14-3.85,6.37,6.37,0,0,0-1,0v2.77a4.88,4.88,0,0,1,3.3.53,35.59,35.59,0,0,1-3.3,2.57v3.45Zm0-60.45V107a5,5,0,0,1,2.51,4.37V128.8a29.35,29.35,0,0,1-.42,6.88,16.71,16.71,0,0,1-2.09,5.14Zm7.74,57.27h0c0,2.55,0,5.1,0,7.66a10.43,10.43,0,0,0,2.79,0c0-2.55,0-5.1,0-7.64a3.57,3.57,0,0,1,7.12.28c0,2.45,0,4.91,0,7.36a15,15,0,0,0,2.84,0c0-2.76.12-5.53-.05-8.28-.3-3.43-3.9-5.88-7.22-5.34A6.11,6.11,0,0,0,104.53,198.09ZM96.79,107v33.86a17.12,17.12,0,0,1-28.79.86,16.69,16.69,0,0,1-3.07-10q0-10.19,0-20.4a5,5,0,0,1,3.54-4.79h0A5,5,0,0,1,74.81,111c.09,7.19,0,14.38,0,21.57a7.29,7.29,0,0,0,14.53-.3c0-7.07,0-14.14,0-21.21a5,5,0,0,1,4.86-4.78,4.63,4.63,0,0,1,2.52.65Zm0,85v2.77a3.78,3.78,0,0,0-1.79.91,4.47,4.47,0,0,0-1.4,4.42,10.66,10.66,0,0,0,2.26-1.52l.93-.71v3.45c-.48.37-.94.75-1.4,1.14a5.28,5.28,0,0,0,1.4.54v2.79a6.88,6.88,0,0,1-4.69-2.85,7,7,0,0,1-.74-6.82h0A7,7,0,0,1,96.79,192ZM78,197.54h0a6.87,6.87,0,0,0,2.35,6.63,7,7,0,0,0,10.2-1.39,23.69,23.69,0,0,0-1.87-1.88,4.91,4.91,0,0,1-3.14,2.15,4.34,4.34,0,0,1-5-4.37A4.28,4.28,0,0,1,85,194.62a4.41,4.41,0,0,1,3.63,2.21,17,17,0,0,0,2-1.94,6.75,6.75,0,0,0-5.88-3A7,7,0,0,0,78,197.54Zm-39.8-90.42h0a5,5,0,0,0-1.3,6.83,5.15,5.15,0,0,0,4.37,2.19c3.36,0,6.73,0,10.09,0,.05,5.39,0,10.78,0,16.18a6.29,6.29,0,1,1-12.55.55,4.94,4.94,0,0,0-9.28-2.37c-1,1.88-.56,4.09-.18,6.07a16.3,16.3,0,0,0,10.77,11.75,16,16,0,0,0,12.32-1,16.28,16.28,0,0,0,8.8-14.15c0-7.29,0-14.57,0-21.85a5,5,0,0,0-4.86-5c-4.18,0-8.36,0-12.54,0C42,106.25,39.88,106,38.21,107.12Z"/></svg>