<svg id="Layer_1" data-name="Layer 1" xmlns="http://www.w3.org/2000/svg" viewBox="0 0 263.1 263.65"><defs><style>.cls-1{fill:#f2f2f2;}.cls-2{fill:#fefefe;}.cls-3{fill:#fd0101;}</style></defs><path class="cls-1" d="M131.52,8.19c-2.47.13-4.93,0-7.42.19-4,.31-7.93.66-11.87,1.28A122.34,122.34,0,0,0,39.75,48.94,125.34,125.34,0,0,0,29,62.62a119,119,0,0,0-10.11,18,116.17,116.17,0,0,0-5.47,14.31,126.87,126.87,0,0,0-4.08,17.78A109.19,109.19,0,0,0,8,125.8a137,137,0,0,0,.38,17.07,130.52,130.52,0,0,0,2.11,14.5A123.44,123.44,0,0,0,47.9,222.88a139,139,0,0,0,11.88,9.65,119.73,119.73,0,0,0,31.45,16.23,123.12,123.12,0,0,0,20,5.05,121,121,0,0,0,15,1.6,104.56,104.56,0,0,0,12.26-.13c4.06-.3,8.1-.68,12.13-1.27a118.79,118.79,0,0,0,18.71-4.39,122.09,122.09,0,0,0,25.45-11.48A127.93,127.93,0,0,0,217.7,220.6c2.51-2.39,4.82-5,7.11-7.58a117.06,117.06,0,0,0,8.64-11.1A121.66,121.66,0,0,0,245,181.06a125.51,125.51,0,0,0,6-17.26,123.32,123.32,0,0,0,3.24-16.93c.46-3.8.79-7.61.89-11.43.08-3.37.07-6.76-.15-10.15-.27-4.27-.68-8.51-1.27-12.75a115.23,115.23,0,0,0-5-20.72,119.75,119.75,0,0,0-16.37-31.91,2.73,2.73,0,0,1-.2-3.29c3.06-6.4,2.5-12.69-1.23-18.6a19.13,19.13,0,0,0-24.82-6.58,2.13,2.13,0,0,1-2.65-.12,112,112,0,0,0-15-9.31,123.77,123.77,0,0,0-44.6-13.29A83.4,83.4,0,0,0,131.52,8.19Z"/><path class="cls-2" d="M131.52,8.19a83.4,83.4,0,0,1,12.35.53A123.77,123.77,0,0,1,188.47,22a112,112,0,0,1,15,9.31,2.13,2.13,0,0,0,2.65.12A19.13,19.13,0,0,1,231,38c3.73,5.91,4.29,12.2,1.23,18.6a2.73,2.73,0,0,0,.2,3.29,119.75,119.75,0,0,1,16.37,31.91,115.23,115.23,0,0,1,5,20.72c.59,4.24,1,8.48,1.27,12.75.22,3.39.23,6.78.15,10.15-.1,3.82-.43,7.63-.89,11.43A123.32,123.32,0,0,1,251,163.8a125.51,125.51,0,0,1-6,17.26,121.66,121.66,0,0,1-11.57,20.86,117.06,117.06,0,0,1-8.64,11.1c-2.29,2.61-4.6,5.19-7.11,7.58a127.93,127.93,0,0,1-22.91,17.54,122.09,122.09,0,0,1-25.45,11.48A118.79,118.79,0,0,1,150.63,254c-4,.59-8.07,1-12.13,1.27a104.56,104.56,0,0,1-12.26.13,121,121,0,0,1-15-1.6,123.12,123.12,0,0,1-20-5.05,119.73,119.73,0,0,1-31.45-16.23,139,139,0,0,1-11.88-9.65,122.93,122.93,0,0,1-37.43-65.51,130.52,130.52,0,0,1-2.11-14.5A137,137,0,0,1,8,125.8a109.19,109.19,0,0,1,1.36-13.09,126.87,126.87,0,0,1,4.08-17.78,116.17,116.17,0,0,1,5.47-14.31A119,119,0,0,1,29,62.62a128.93,128.93,0,0,1,21.13-24,123.46,123.46,0,0,1,62.1-29c3.94-.62,7.9-1,11.87-1.28C126.59,8.18,129.05,8.32,131.52,8.19Zm1.76,12.44a115.53,115.53,0,0,0-26.66,2.82A109.1,109.1,0,0,0,53.29,52.86C33.77,72.33,22.92,95.92,20.65,123.4a106,106,0,0,0,2.17,31.81A109.57,109.57,0,0,0,61.36,218a111.24,111.24,0,0,0,95.84,21.95,109.48,109.48,0,0,0,63.08-41.34,111,111,0,0,0,20.27-88.28A111.13,111.13,0,0,0,222,67.21a1,1,0,0,0-1.42-.44,17.82,17.82,0,0,1-5.6,1,19.1,19.1,0,0,1-18.42-24.85,1.26,1.26,0,0,0-.59-1.69C176.59,27.59,155.07,20.81,133.28,20.63Zm81.55,17.26a10.48,10.48,0,1,0,10.55,10.42A10.5,10.5,0,0,0,214.83,37.89Z"/><path class="cls-3" d="M133.28,20.63c21.79.18,43.31,7,62.64,20.57a1.26,1.26,0,0,1,.59,1.69,19.1,19.1,0,0,0,18.42,24.85,17.82,17.82,0,0,0,5.6-1,1,1,0,0,1,1.42.44,111.13,111.13,0,0,1,18.6,43.11,111,111,0,0,1-20.27,88.28,110.9,110.9,0,0,1-102,43.54A108.52,108.52,0,0,1,61.36,218a109.57,109.57,0,0,1-38.54-62.78,106,106,0,0,1-2.17-31.81c2.27-27.48,13.12-51.07,32.64-70.54a109.1,109.1,0,0,1,53.33-29.41A115.53,115.53,0,0,1,133.28,20.63ZM42.69,132.32v26.44c0,.51-.09,1,.71,1,6.48-.1,13,.23,19.44-.8,7.43-1.19,12.45-5.13,14.71-12.41a48,48,0,0,0,1-25.82c-1.35-5.61-4.32-10.17-9.75-12.75a30.12,30.12,0,0,0-9-2.43c-5.27-.7-10.57-.45-15.86-.56-1.09,0-1.25.34-1.24,1.32C42.7,115,42.69,123.64,42.69,132.32Zm177.54.21c.07-9.75-2.16-16.52-6.27-21.63-7.05-8.77-20.39-10.12-28.21,0-8.88,11.45-9.31,29.94-.67,41.54,4.37,5.85,10.13,8.76,17.43,7.65,7.08-1.08,11.84-5.33,14.47-11.95A46.83,46.83,0,0,0,220.23,132.53Zm-82-12.41V107.47c0-.47-.26-.62-.66-.73-3.6-.93-7.18-1.93-11-1.71-6.38.37-10.81,3.67-13.35,9.35s-2.37,11.42,1.67,16.58c2.07,2.64,4.62,4.86,6.91,7.3a15.94,15.94,0,0,1,2.49,3.07c1.57,2.82.19,5.38-3,5.66a12.17,12.17,0,0,1-8.16-1.89c-.25-.18-.54-.52-.87-.35s-.15.59-.14.9c.09,3.47.21,6.94.27,10.42a1.29,1.29,0,0,0,.81,1.2,19.25,19.25,0,0,0,11,2.44c3.64-.14,7.15-.66,10.15-3,6.25-4.91,9.4-16.4,2.75-24.07-2-2.26-4.16-4.26-6.29-6.34a20,20,0,0,1-3.6-4.08,1.8,1.8,0,0,1,.36-2.64c2.29-1.66,6.27-3,9.38-.29A2.85,2.85,0,0,0,138.22,120.12Zm28.48,38.95a31,31,0,0,0,4.81-.46c.62-.13,1.15-.33,1.22-1.15.29-3.59.61-7.17.93-10.75.08-.89-.28-1.09-1-.6a3.82,3.82,0,0,1-2.32.72c-4.33,0-7.64-1.8-9.36-5.87A26.68,26.68,0,0,1,158.89,127a10.61,10.61,0,0,1,12.63-8.93c.72.15.85-.14,1-.68.76-3.51,1.51-7,2.31-10.52.18-.75,0-1-.72-1.18-1.62-.34-3.2-.87-4.83-1.09-5.32-.72-10.41-.25-14.79,3.28A20.14,20.14,0,0,0,148.9,115c-4.27,8.84-4.59,18-2.28,27.44A31,31,0,0,0,149.2,149C152.82,156.18,158.67,159.52,166.7,159.07Zm-64.15-26.69c0-8.68,0-17.37,0-26,0-1-.12-1.42-1.3-1.39-4,.09-8.11.06-12.16,0-1,0-1.24.22-1.23,1.21q0,26.19,0,52.37c0,1,.35,1.2,1.26,1.19,4.06-.05,8.11-.06,12.16,0,1,0,1.29-.26,1.29-1.29C102.53,149.76,102.55,141.07,102.55,132.38ZM84.9,80.77c0,.46,0,.91,0,1.36.27,5,3.6,9.09,8,9.74,6,.88,10.16-1.35,12-6.44,2.23-6-.56-13.09-7.07-14.08a18,18,0,0,0-4.08-.15C88.22,71.63,84.85,75.23,84.9,80.77ZM193.65,193.43h0V188.1c0-1.67,0-1.67-1.71-1.66a1,1,0,0,1-.25,0c-.67-.11-.84.2-.82.83,0,1.32,0,2.65,0,4,0,.64-.18.87-.84.85-1.24,0-2.48,0-3.72,0a7,7,0,1,0,7.3,7C193.68,197.24,193.65,195.34,193.65,193.43ZM153.24,206.1c1.15,0,2.31,0,3.47,0,2.67,0,4.51-1.78,4.49-4.24a4.22,4.22,0,0,0-4.45-4.18c-1.61,0-3.23,0-4.84,0-1,0-1.84-.21-1.94-1.39-.07-.91.64-1.42,1.9-1.42,2.35,0,4.71,0,7.07,0,.66,0,1-.13.92-.88a3.65,3.65,0,0,1,0-1c.12-.79-.24-1-1-.95-2.44,0-4.88,0-7.32,0a4.79,4.79,0,0,0-1.59.23,4.19,4.19,0,0,0-2.77,4.6,4.09,4.09,0,0,0,3.77,3.51c1.86.1,3.73,0,5.59.05a1.76,1.76,0,0,1,1.56.56,1.4,1.4,0,0,1,.13,1.53,1.47,1.47,0,0,1-1.45.77c-2.44,0-4.88,0-7.32,0-.77,0-1.07.21-1,1a3.17,3.17,0,0,1,0,.87c-.11.77.22,1,1,1C150.75,206.05,152,206.1,153.24,206.1Zm-64-3.15c2.48-2.48,4.81-4.83,7.16-7.15.4-.4.6-.64.1-1.18a7.11,7.11,0,0,0-10.11-.68,7,7,0,0,0-.51,9.91A7.1,7.1,0,0,0,96,204.2c1-.88.82-1.34,0-2.16s-1.11-.77-1.83,0A4.09,4.09,0,0,1,89.25,203Zm48.94,3.2a7,7,0,1,0-7-7A7,7,0,0,0,138.19,206.15Zm39.56-9.61v-2.71c0-1.81,0-1.78-1.87-1.77-.69,0-.93.18-.91.9,0,1.94,0,3.88,0,5.83a4.28,4.28,0,0,1-4.24,4.54c-2.47,0-4.2-1.82-4.22-4.51,0-1.94,0-3.89,0-5.83,0-.68-.16-1-.89-.92a7.34,7.34,0,0,1-1.24,0c-.54,0-.72.19-.71.72,0,2.36-.07,4.73.11,7.07a6.82,6.82,0,0,0,6.21,6.21,7,7,0,0,0,7.49-5.19A20.52,20.52,0,0,0,177.75,196.54Zm-78.21,5.17v2.59c0,1.85,0,1.79,1.8,1.84.88,0,1-.32,1-1.07,0-1.9,0-3.8,0-5.7a4.25,4.25,0,0,1,4.28-4.48,4.2,4.2,0,0,1,4.18,4.42c0,1.94,0,3.89,0,5.83,0,.74.18,1.08,1,1a6.42,6.42,0,0,1,1.24,0c.48,0,.65-.19.64-.66,0-2.4.08-4.81-.12-7.18a6.81,6.81,0,0,0-6.53-6.14,7,7,0,0,0-7.27,5.6A24.79,24.79,0,0,0,99.54,201.71ZM76,206.09a7.19,7.19,0,0,0,5.53-2.61c.13-.15.38-.33.24-.5a7.86,7.86,0,0,0-1.66-1.65c-.46-.28-.77.44-1.1.74a4.27,4.27,0,0,1-5.55.42A4.22,4.22,0,1,1,79,196.14c.83.82,1.34.85,2-.06a2.9,2.9,0,0,1,.52-.53c.34-.29.37-.5,0-.89a7.26,7.26,0,0,0-8.67-1.84A7,7,0,0,0,76,206.09Zm47.09,0a7.12,7.12,0,0,0,5.55-2.58c.19-.2.47-.4.15-.71-.53-.53-1-1.23-1.61-1.51-.39-.18-.78.6-1.2.93l-.09.08a4.1,4.1,0,0,1-4.63.57,4.22,4.22,0,0,1-2.36-4.16,4.15,4.15,0,0,1,2.93-3.63,4.06,4.06,0,0,1,4.5,1.23c.66.73,1.09.66,1.62-.06a4.21,4.21,0,0,1,.69-.71c.36-.32.31-.54,0-.9a7.21,7.21,0,0,0-8.67-1.8,7,7,0,0,0,3.12,13.25Z"/><path class="cls-3" d="M214.83,37.89a10.48,10.48,0,1,1-10.49,10.47A10.51,10.51,0,0,1,214.83,37.89Z"/><path class="cls-2" d="M42.69,132.32c0-8.68,0-17.37,0-26.06,0-1,.15-1.34,1.24-1.32,5.29.11,10.59-.14,15.86.56a30.12,30.12,0,0,1,9,2.43c5.43,2.58,8.4,7.14,9.75,12.75a48,48,0,0,1-1,25.82c-2.26,7.28-7.28,11.22-14.71,12.41-6.46,1-13,.7-19.44.8-.8,0-.72-.44-.71-1V132.32Zm14.19.05c.22,4.35.44,8.43.63,12.51,0,.66.09.9.91.73A7,7,0,0,0,64,140.47a33.92,33.92,0,0,0,1.07-13.11c-.35-4.3-2.61-6.88-6.71-8-1.34-.36-1.51-.28-1.59,1.11C56.58,124.54,56.86,128.58,56.88,132.37Z"/><path class="cls-2" d="M220.23,132.53A46.83,46.83,0,0,1,217,148.12c-2.63,6.62-7.39,10.87-14.47,11.95-7.3,1.11-13.06-1.8-17.43-7.65-8.64-11.6-8.21-30.09.67-41.54,7.82-10.1,21.16-8.75,28.21,0C218.07,116,220.3,122.78,220.23,132.53Zm-14.54.3c0-.7-.05-1.66-.15-2.6a24.24,24.24,0,0,0-3.14-10.34,3.56,3.56,0,0,0-5.55-.62A6.69,6.69,0,0,0,195.2,122a28.71,28.71,0,0,0-.52,17.56,11.33,11.33,0,0,0,4,6.25,1.43,1.43,0,0,0,1.8.12,9,9,0,0,0,3.82-4.71A22.65,22.65,0,0,0,205.69,132.83Z"/><path class="cls-2" d="M138.22,120.12a2.85,2.85,0,0,1-1.29-.84c-3.11-2.69-7.09-1.37-9.38.29a1.8,1.8,0,0,0-.36,2.64,20,20,0,0,0,3.6,4.08c2.13,2.08,4.33,4.08,6.29,6.34,6.65,7.67,3.5,19.16-2.75,24.07-3,2.35-6.51,2.87-10.15,3a19.25,19.25,0,0,1-11-2.44,1.29,1.29,0,0,1-.81-1.2c-.06-3.48-.18-6.95-.27-10.42,0-.31-.21-.72.14-.9s.62.17.87.35a12.17,12.17,0,0,0,8.16,1.89c3.19-.28,4.57-2.84,3-5.66a15.94,15.94,0,0,0-2.49-3.07c-2.29-2.44-4.84-4.66-6.91-7.3-4-5.16-4.23-10.83-1.67-16.58s7-9,13.35-9.35c3.79-.22,7.37.78,11,1.71.4.11.66.26.66.73Z"/><path class="cls-2" d="M166.7,159.07c-8,.45-13.88-2.89-17.5-10.09a31,31,0,0,1-2.58-6.55c-2.31-9.4-2-18.6,2.28-27.44a20.14,20.14,0,0,1,5.55-7.07c4.38-3.53,9.47-4,14.79-3.28,1.63.22,3.21.75,4.83,1.09.71.15.9.43.72,1.18-.8,3.5-1.55,7-2.31,10.52-.11.54-.24.83-1,.68A10.61,10.61,0,0,0,158.89,127,26.68,26.68,0,0,0,161,141c1.72,4.07,5,5.85,9.36,5.87a3.82,3.82,0,0,0,2.32-.72c.69-.49,1.05-.29,1,.6-.32,3.58-.64,7.16-.93,10.75-.07.82-.6,1-1.22,1.15A31,31,0,0,1,166.7,159.07Z"/><path class="cls-2" d="M102.55,132.38c0,8.69,0,17.38,0,26.06,0,1-.25,1.3-1.29,1.29-4.05-.07-8.1-.06-12.16,0-.91,0-1.26-.16-1.26-1.19q.06-26.19,0-52.37c0-1,.27-1.22,1.23-1.21,4,0,8.11.08,12.16,0,1.18,0,1.31.38,1.3,1.39C102.53,115,102.55,123.7,102.55,132.38Z"/><path class="cls-2" d="M84.9,80.77c-.05-5.54,3.32-9.14,8.87-9.57a18,18,0,0,1,4.08.15c6.51,1,9.3,8.09,7.07,14.08-1.88,5.09-6.09,7.32-12,6.44-4.37-.65-7.7-4.7-8-9.74C84.88,81.68,84.9,81.23,84.9,80.77Z"/><path class="cls-2" d="M193.65,193.43c0,1.91,0,3.81,0,5.71a7,7,0,1,1-7.3-7c1.24-.06,2.48-.05,3.72,0,.66,0,.86-.21.84-.85,0-1.32,0-2.65,0-4,0-.63.15-.94.82-.83a1,1,0,0,0,.25,0c1.71,0,1.71,0,1.71,1.66v5.33Zm-2.76,4.08a13.92,13.92,0,0,1,0-1.73c.1-.81-.27-1-1-.93-1.16.06-2.31,0-3.46,0a4.15,4.15,0,0,0-4,3.79,4.22,4.22,0,0,0,8.24,1.66A10.25,10.25,0,0,0,190.89,197.51Z"/><path class="cls-2" d="M153.24,206.1c-1.24,0-2.49,0-3.73,0-.75,0-1.08-.19-1-1a3.17,3.17,0,0,0,0-.87c-.11-.76.19-1,1-1,2.44.05,4.88,0,7.32,0a1.47,1.47,0,0,0,1.45-.77,1.4,1.4,0,0,0-.13-1.53,1.76,1.76,0,0,0-1.56-.56c-1.86,0-3.73.05-5.59-.05a4.09,4.09,0,0,1-3.77-3.51,4.19,4.19,0,0,1,2.77-4.6,4.79,4.79,0,0,1,1.59-.23c2.44,0,4.88,0,7.32,0,.73,0,1.09.16,1,.95a3.65,3.65,0,0,0,0,1c.11.75-.26.89-.92.88-2.36,0-4.72,0-7.07,0-1.26,0-2,.51-1.9,1.42.1,1.18.91,1.41,1.94,1.39,1.61,0,3.23,0,4.84,0a4.22,4.22,0,0,1,4.45,4.18c0,2.46-1.82,4.21-4.49,4.24C155.55,206.11,154.39,206.1,153.24,206.1Z"/><path class="cls-2" d="M89.25,203a4.09,4.09,0,0,0,4.91-.92c.72-.76,1.1-.7,1.83,0s1,1.28,0,2.16a7.1,7.1,0,0,1-10.11-.35,7,7,0,0,1,.51-9.91,7.11,7.11,0,0,1,10.11.68c.5.54.3.78-.1,1.18C94.06,198.12,91.73,200.47,89.25,203Zm3.45-7.67a4.1,4.1,0,0,0-4.84,1.09,3.78,3.78,0,0,0-.56,4.36Z"/><path class="cls-2" d="M138.19,206.15a7,7,0,1,1,7-7A6.94,6.94,0,0,1,138.19,206.15Zm0-2.79a4.2,4.2,0,0,0,4.26-4.21,4.29,4.29,0,0,0-4.26-4.24,4.19,4.19,0,0,0-4.22,4.24A4.13,4.13,0,0,0,138.2,203.36Z"/><path class="cls-2" d="M177.75,196.54a20.52,20.52,0,0,1-.25,4.34,7,7,0,0,1-7.49,5.19,6.82,6.82,0,0,1-6.21-6.21c-.18-2.34-.07-4.71-.11-7.07,0-.53.17-.76.71-.72a7.34,7.34,0,0,0,1.24,0c.73-.08.9.24.89.92,0,1.94,0,3.89,0,5.83,0,2.69,1.75,4.52,4.22,4.51a4.28,4.28,0,0,0,4.24-4.54c0-1.95,0-3.89,0-5.83,0-.72.22-.9.91-.9,1.87,0,1.87,0,1.87,1.77Z"/><path class="cls-2" d="M99.54,201.71a24.79,24.79,0,0,1,.14-4,7,7,0,0,1,7.27-5.6,6.81,6.81,0,0,1,6.53,6.14c.2,2.37.08,4.78.12,7.18,0,.47-.16.68-.64.66a6.42,6.42,0,0,0-1.24,0c-.78.1-1-.24-1-1,0-1.94,0-3.89,0-5.83a4.2,4.2,0,0,0-4.18-4.42,4.25,4.25,0,0,0-4.28,4.48c0,1.9,0,3.8,0,5.7,0,.75-.1,1.09-1,1.07-1.8,0-1.8,0-1.8-1.84Z"/><path class="cls-2" d="M76,206.09a7,7,0,0,1-3.15-13.27,7.26,7.26,0,0,1,8.67,1.84c.33.39.3.6,0,.89a2.9,2.9,0,0,0-.52.53c-.64.91-1.15.88-2,.06a4.22,4.22,0,1,0-5.52,6.35,4.27,4.27,0,0,0,5.55-.42c.33-.3.64-1,1.1-.74A7.86,7.86,0,0,1,81.77,203c.14.17-.11.35-.24.5A7.19,7.19,0,0,1,76,206.09Z"/><path class="cls-2" d="M123.09,206.09A7,7,0,0,1,120,192.84a7.21,7.21,0,0,1,8.67,1.8c.31.36.36.58,0,.9a4.21,4.21,0,0,0-.69.71c-.53.72-1,.79-1.62.06a4.06,4.06,0,0,0-4.5-1.23,4.15,4.15,0,0,0-2.93,3.63,4.22,4.22,0,0,0,2.36,4.16,4.1,4.1,0,0,0,4.63-.57l.09-.08c.42-.33.81-1.11,1.2-.93.64.28,1.08,1,1.61,1.51.32.31,0,.51-.15.71A7.12,7.12,0,0,1,123.09,206.09Z"/><path class="cls-3" d="M56.88,132.37c0-3.79-.3-7.83-.08-11.88.08-1.39.25-1.47,1.59-1.11,4.1,1.1,6.36,3.68,6.71,8A33.92,33.92,0,0,1,64,140.47a7,7,0,0,1-5.61,5.14c-.82.17-.88-.07-.91-.73C57.32,140.8,57.1,136.72,56.88,132.37Z"/><path class="cls-3" d="M205.69,132.83a22.65,22.65,0,0,1-1.38,8.39,9,9,0,0,1-3.82,4.71,1.43,1.43,0,0,1-1.8-.12,11.33,11.33,0,0,1-4-6.25A28.71,28.71,0,0,1,195.2,122a6.69,6.69,0,0,1,1.65-2.73,3.56,3.56,0,0,1,5.55.62,24.24,24.24,0,0,1,3.14,10.34C205.64,131.17,205.65,132.13,205.69,132.83Z"/><path class="cls-3" d="M190.89,197.51a10.25,10.25,0,0,1-.21,2.82,4.22,4.22,0,0,1-8.24-1.66,4.15,4.15,0,0,1,4-3.79c1.15,0,2.3,0,3.46,0,.71,0,1.08.12,1,.93A13.92,13.92,0,0,0,190.89,197.51Z"/><path class="cls-3" d="M92.7,195.28l-5.4,5.45a3.78,3.78,0,0,1,.56-4.36A4.1,4.1,0,0,1,92.7,195.28Z"/><path class="cls-3" d="M138.2,203.36a4.13,4.13,0,0,1-4.22-4.21,4.19,4.19,0,0,1,4.22-4.24,4.29,4.29,0,0,1,4.26,4.24A4.2,4.2,0,0,1,138.2,203.36Z"/></svg>