<?xml version="1.0" encoding="utf-8"?>
<!-- Generator: Adobe Illustrator 25.2.3, SVG Export Plug-In . SVG Version: 6.00 Build 0)  -->
<svg version="1.1" id="Layer_1" xmlns="http://www.w3.org/2000/svg" xmlns:xlink="http://www.w3.org/1999/xlink" x="0px" y="0px"
	 viewBox="0 0 119.2 133.1" style="enable-background:new 0 0 119.2 133.1;" xml:space="preserve">
<style type="text/css">
	.st0{fill:#1F140F;}
	.st1{fill:#F2BC00;}
	.st2{fill:#FB4E00;}
	.st3{fill:#FFFFFF;}
	.st4{fill:#DD0000;}
</style>
<g>
	<g>
		<path class="st0" d="M114.7,75c-1.8-4.9-5.5-7.3-10.6-7c-1.2,0.1-2.4,0.2-3.7,0.4c2.3-2.1,3.5-4.8,4.1-7.1
			c1.3,0.1,2.7,0.2,4.4,0.3c0,0,0.1,0,0.1,0c0.5,0,1-0.2,1.3-0.6c0.1-0.1,0.2-0.2,0.2-0.3c0.1-0.1,0.2-0.2,0.3-0.3
			c0.1-0.1,0.2-0.2,0.2-0.3c0.1-0.1,0.2-0.2,0.3-0.3c0.1-0.1,0.2-0.2,0.2-0.3c0.1-0.1,0.2-0.2,0.3-0.3c0.1-0.1,0.2-0.2,0.2-0.3
			c0.1-0.1,0.2-0.2,0.3-0.3c0.1-0.1,0.2-0.2,0.2-0.3c0.1-0.1,0.2-0.2,0.3-0.3c0.1-0.1,0.2-0.2,0.2-0.3c0.1-0.1,0.2-0.2,0.3-0.3
			c0.1-0.1,0.2-0.2,0.2-0.3c0.1-0.1,0.2-0.2,0.3-0.3c0.1-0.1,0.2-0.2,0.2-0.3c0.1-0.1,0.2-0.2,0.3-0.3c0.1-0.1,0.2-0.2,0.2-0.3
			c0.1-0.1,0.2-0.2,0.3-0.3c0.4-0.4,0.6-0.9,0.5-1.4c-0.3-2.4-0.7-4.6-1.1-7c-0.1-0.8-0.8-1.4-1.6-1.5c-2.4-0.2-4-0.4-5.4-0.5
			c0,0,0.1,0,0.1-0.1c0.1-0.1,0.2-0.2,0.3-0.3c0.1-0.1,0.2-0.1,0.3-0.2c0.1-0.1,0.2-0.2,0.3-0.3c0.1-0.1,0.2-0.1,0.3-0.2
			c0.1-0.1,0.2-0.2,0.3-0.3c0.1-0.1,0.2-0.1,0.3-0.2c0.1-0.1,0.2-0.2,0.3-0.3c0.1-0.1,0.2-0.1,0.3-0.2c0.1-0.1,0.2-0.2,0.3-0.3
			c0.1-0.1,0.2-0.1,0.3-0.2c0.1-0.1,0.2-0.2,0.3-0.3c0.1-0.1,0.2-0.1,0.3-0.2c0.1-0.1,0.2-0.2,0.3-0.3c0.1-0.1,0.2-0.1,0.3-0.2
			c0.1-0.1,0.2-0.2,0.3-0.3c0.1-0.1,0.2-0.1,0.3-0.2c0.4-0.4,0.6-0.9,0.5-1.5c-0.4-2.7-0.8-5.4-1.3-8.1c-0.1-0.8-0.8-1.4-1.6-1.4
			c0,0,0,0,0,0c0.1-0.1,0.2-0.2,0.2-0.3c0.1-0.1,0.2-0.2,0.3-0.3c0.4-0.4,0.6-1.1,0.4-1.7c-0.6-1.9-1.1-3.9-1.7-5.8
			c-0.2-0.6-0.7-1.1-1.4-1.2c-7.4-1.6-9.5-2-16.9-3.1c-0.6-0.1-1.2,0.1-1.6,0.5c-0.1,0.1-0.2,0.2-0.3,0.3c-0.1,0.1-0.2,0.1-0.3,0.2
			c-0.1,0.1-0.2,0.2-0.3,0.3c-0.1,0.1-0.2,0.1-0.3,0.2c-0.1,0.1-0.2,0.2-0.3,0.3c-0.1,0.1-0.2,0.1-0.3,0.2c-0.1,0.1-0.2,0.2-0.3,0.3
			c-0.1,0.1-0.2,0.1-0.3,0.2c-0.1,0.1-0.2,0.2-0.3,0.3c-0.1,0.1-0.2,0.1-0.3,0.2c-0.1,0.1-0.2,0.2-0.3,0.3c-0.1,0.1-0.2,0.1-0.3,0.2
			c-0.1,0.1-0.2,0.2-0.3,0.3c-0.1,0.1-0.2,0.1-0.3,0.2c0,0,0,0-0.1,0.1c-0.8-0.6-1.7-1.1-2.6-1.5c-2.4-1.2-7.6-1.9-15.4-2.1
			c-3.5-0.1-6.4,0-7.8,0c-3.8,0.1-4,0.2-4.4,0.4c-0.3,0.1-0.5,0.4-0.7,0.6c-0.2,0.1-0.4,0.3-0.6,0.6c-0.2,0.1-0.4,0.3-0.6,0.6
			c-0.2,0.1-0.4,0.3-0.6,0.6c-0.2,0.1-0.4,0.3-0.6,0.6c-0.2,0.1-0.4,0.3-0.6,0.6c-0.2,0.1-0.4,0.3-0.6,0.6c-0.2,0.1-0.4,0.3-0.6,0.6
			c-0.2,0.1-0.4,0.3-0.6,0.6c-0.5,0.3-0.8,0.8-0.8,1.3c0,0.2,0,0.3,0,0.5c0.4,2.2,0.8,4.5,1.2,6.8c-0.6,0-1.1,0-1.8,0.1
			c-0.5,0-0.9,0.2-1.2,0.5c0-0.5,0.1-1,0.1-1.5c0.1-1.3,0.2-2.6,0.1-3.9c-0.2-6.3-3.1-9.8-8.5-10.4c-5.8-0.6-11.6,0.8-17.7,4.4
			c-1.9,1.1-3.5,2.4-4.9,3.8c-0.2,0.2-0.4,0.4-0.6,0.6c-0.2,0.2-0.4,0.4-0.6,0.6c-0.2,0.2-0.4,0.4-0.6,0.6c-0.2,0.2-0.4,0.4-0.6,0.6
			c-0.2,0.2-0.4,0.4-0.6,0.6c-0.2,0.2-0.4,0.4-0.6,0.6c-0.2,0.2-0.4,0.4-0.6,0.6c-0.2,0.2-0.4,0.4-0.6,0.6c-2.7,2.6-4.5,5.6-5.2,9
			c-0.7,3.6-0.1,8.3,6.8,10.7c1.1,0.4,2.2,0.7,3.3,0.9c-2.1,0.1-4.2,0.3-6.2,0.5c-0.6,0.1-1.1,0.4-1.4,0.8c-0.2,0.1-0.4,0.3-0.6,0.6
			C8.4,52.8,8.2,53,8,53.2c-0.2,0.1-0.4,0.3-0.6,0.6c-0.2,0.1-0.4,0.3-0.6,0.6c-0.2,0.1-0.4,0.3-0.6,0.6c-0.2,0.1-0.4,0.3-0.6,0.6
			c-0.2,0.1-0.4,0.3-0.6,0.6c-0.2,0.1-0.4,0.3-0.6,0.6c-0.5,0.3-0.8,0.8-0.8,1.3c0,0.5-0.1,1.1-0.1,1.6c-0.3,3.2-0.5,6.2-0.4,9.2
			c0.1,2.4,0.6,4.9,1.5,7.5c0.6,1.8,1.6,3.5,2.9,4.9c0,0-0.1,0.1-0.1,0.1c-0.1,0.1-0.2,0.1-0.3,0.2c-0.1,0.1-0.2,0.2-0.3,0.3
			c-0.1,0.1-0.2,0.1-0.3,0.2c-0.1,0.1-0.2,0.2-0.3,0.3c-0.1,0.1-0.2,0.1-0.3,0.2c-0.1,0.1-0.2,0.2-0.3,0.3c-0.1,0.1-0.2,0.1-0.3,0.2
			c-0.1,0.1-0.2,0.2-0.3,0.3c-0.1,0.1-0.2,0.1-0.3,0.2c-0.1,0.1-0.2,0.2-0.3,0.3c-0.1,0.1-0.2,0.1-0.3,0.2c-0.1,0.1-0.2,0.2-0.3,0.3
			c-0.1,0.1-0.2,0.1-0.3,0.2c-0.4,0.4-0.6,0.8-0.5,1.3c1.1,15.1,1.9,20.4,5.1,35.4c0.1,0.7,0.7,1.2,1.4,1.4c2.4,0.5,4.7,1,7.1,1.5
			c0.6,0.1,1.2-0.1,1.7-0.5c0.1-0.1,0.2-0.2,0.3-0.3c0.1-0.1,0.2-0.1,0.3-0.2c0.1-0.1,0.2-0.2,0.3-0.3c0.1-0.1,0.2-0.1,0.3-0.2
			c0.1-0.1,0.2-0.2,0.3-0.3c0.1-0.1,0.2-0.1,0.3-0.2c0.1-0.1,0.2-0.2,0.3-0.3c0.1-0.1,0.2-0.1,0.3-0.2c0.1-0.1,0.2-0.2,0.3-0.3
			c0.1-0.1,0.2-0.1,0.3-0.2c0.1-0.1,0.2-0.2,0.3-0.3c0.1-0.1,0.2-0.1,0.3-0.2c0.1-0.1,0.2-0.2,0.3-0.3c0.1-0.1,0.2-0.1,0.3-0.2
			c0.1-0.1,0.2-0.2,0.3-0.3c0.1-0.1,0.2-0.1,0.3-0.2c0.1-0.1,0.2-0.2,0.3-0.3c0.1-0.1,0.2-0.1,0.3-0.2c0.4-0.4,0.6-1,0.5-1.6
			c-0.3-1.2-0.5-2.2-0.7-3.2c3.8,4.6,7.3,9.2,10.7,13.6l0,0c0.3,0.4,0.9,0.7,1.5,0.7c0.1,0,0.2,0,0.3,0c0.4-0.1,4.3-0.6,8.7-0.8
			c0.5,0,1-0.2,1.3-0.6c0.1-0.1,0.1-0.2,0.2-0.2c0.1-0.1,0.3-0.2,0.4-0.3c0.1-0.1,0.1-0.2,0.2-0.2c0.1,0,0.1-0.1,0.2-0.1
			c0,0.7,0.1,1.4,0.1,2c0.1,0.9,0.8,1.6,1.8,1.7c3.1,0.1,6.1,0.2,9.1,0.2c1.1,0,2.2,0,3.3,0c0.7,0,1.2-0.3,1.5-0.8c0,0,0,0,0.1,0
			c0.1,0.3,0.2,0.5,0.5,0.8c0.3,0.3,0.8,0.5,1.3,0.5c0,0,0,0,0.1,0c4-0.2,7.9-0.4,12-0.8c0.6-0.1,1.1-0.4,1.4-0.8
			c0.2-0.1,0.4-0.3,0.6-0.6c0.2-0.1,0.4-0.3,0.6-0.6c0.2-0.1,0.4-0.3,0.6-0.6c0.2-0.1,0.4-0.3,0.6-0.6c0.2-0.1,0.4-0.3,0.6-0.6
			c0.2-0.1,0.4-0.3,0.6-0.6c0.2-0.1,0.4-0.3,0.6-0.6c0,0,0,0,0,0c1.7,2.3,4,3,6,2.9c0.3,0,0.5,0,0.7,0c1.3-0.1,2.6-0.5,3.7-0.7
			c3.6-1,6.8-2.8,9.4-5.5c0.3-0.3,0.6-0.6,0.9-0.9c0.2-0.2,0.4-0.4,0.6-0.6c0.2-0.2,0.4-0.4,0.6-0.6c0.2-0.2,0.4-0.4,0.6-0.6
			c0.2-0.2,0.4-0.4,0.6-0.6c0.2-0.2,0.4-0.4,0.6-0.6c0.2-0.2,0.4-0.4,0.6-0.6c0.3-0.3,0.5-0.5,0.8-0.8c2.3-2.3,4.2-5.1,5.7-8.5
			c2.5-5.7,3.2-11.1,3.6-16.1c0,0,0,0,0,0c0-0.2,0-0.4,0.1-0.7c0.1-0.6,0.1-1.3,0.1-2C116.5,84.5,116.4,79.6,114.7,75z"/>
		<g>
			<path class="st1" d="M10.3,81c3.7,0.2,10.6,0.4,10.6,0.4c-0.1-0.3,20.7,27.1,21,27.9c-0.7-11.3-0.7-15.4-1-26.8
				c2.1,0,4,0.1,6.1,0.1c0.8,16.4,1.4,21.7,2.7,38.2c-4.8,0.3-8.9,0.8-8.9,0.8c-7.4-9.7-15.3-19.4-23.1-28.5c0,0-0.1,0-0.2,0
				c1.8,11.3,2.5,13.1,5,24.5c-2.4-0.5-4.7-0.9-7.1-1.5C12.2,101.4,11.4,96,10.3,81z"/>
			<path class="st2" d="M10.7,53c4.6-0.4,9.4-0.7,13.9-1c0,0.4-0.1,0.9-0.1,1.3c0.1,3.2,0.1,6.4,0.4,9.5c0.1,1,0.6,1.9,1.1,2.8
				c1.6,2.5,4.5,2.5,5.9-0.2c0.7-1.3,1.3-2.8,1.3-4.2c0.1-3.3,0.2-6.7-0.1-9.9c-0.3-3.5-2.5-5.6-6.2-6.3c-2.7-0.5-5.4-1-7.8-1.8
				c-4.3-1.5-6.6-4.1-5.6-8.7c0.9-4.5,4.1-8.3,8.7-11c5.7-3.4,11.1-4.7,16.5-4.1c4.6,0.5,6.7,3.4,6.9,8.7c0.1,1.8-0.2,3.7-0.3,5.8
				c-4.5,0.1-9,0.3-13.4,0.6c-0.1-1.8,0-3.4-0.3-5c-0.4-2.5-2.1-3.4-4.4-2.6c-1.7,0.5-3.1,2-3.8,4c-1.3,4.1-0.2,6.2,3.8,6.9
				c2.8,0.5,5.7,0.9,8.7,1.2c3.8,0.4,6.3,2.3,7.4,5.8c0.9,2.9,1.6,6,2,9.1c0.7,5.5,0.4,11.1-1.8,16.4c-2.6,6.3-7.9,9.9-15.1,9.8
				c-2.4,0-4.8-0.3-7.2-0.8c-5-1.2-8.3-4.2-9.7-8.3c-0.8-2.3-1.3-4.7-1.4-7C10.1,60.1,10.4,56.6,10.7,53z"/>
			<path class="st2" d="M77.6,50.7c-0.7,0.2,0.1,3.9,0.2,4.4c0.6,2.2,2,5.3,4.2,6.5c2.7,1.4,7,1,9.6-0.4c1-0.5,1.8-1.2,2.5-2.1
				c0.7-1,0.9-3.1,0.9-3.1c2.8,0.1,5.6,0.2,8.4,0.3c0,0,0.4,7.3-4.8,11.4c-5.2,4.2-15.6,5.1-20.2,1.8c-1.8-1.3-2.9-3.2-3.6-5.2
				c-1.2-3.7-1.3-7.7-1.2-11.5c0-0.8,0-1.6,0-2.5c-0.8-0.2-1.7-0.3-2.7-0.5c0.7,6.9,1.4,13.8,2,20.7c-2.5,0.1-4.8,0.2-7.3,0.4
				c0.4-13.5-0.9-26.8-1.2-40.2c0-0.5-6.7-1.4-6.7-1.4c-0.5-2.8-1.1-5.7-1.6-8.5c0-0.3,20.8-0.9,26,1.7c6,2.7,7.4,7.8,7.4,14.5
				c0,6-0.1,10.5-6.1,12.8C81.6,50.1,79.6,50.3,77.6,50.7z M72.4,38.4c3.3,0.4,4.1,0.8,7.3,0.1c2.1-0.5,3.1-1.6,3-3.5
				c0-1.6-1-3-3-3.8c-3.3-1.4-4.2-1.2-7.6-1.2C72.2,32.8,72.3,35.5,72.4,38.4z"/>
			<path class="st1" d="M61.9,45.3c0,3.2,0,6.4,0,9.7c-4.3-0.1-5-0.3-9.3-0.4c0,2.4,0,4.8,0,7.3c4.6,0,5.5,0,10-0.1
				c0.1,2.8,0.2,5.6,0.3,8.4c-6,0-8.3,0-14.4,0.1c-0.2-11.9-0.2-23.9,0-35.9c5.5-0.2,7.5-0.3,13-0.3c0.1,2.3,0.3,4.6,0.4,6.9
				c-4,0-4.4,0-8.4,0.1c0.2,1.8,0.3,3.6,0.5,5.4C57.9,46.1,58.1,45.7,61.9,45.3z"/>
			<path class="st1" d="M90.7,19.5c7.4,1.1,9.4,1.5,16.8,3c0.6,1.9,1.2,3.8,1.7,5.8c-5.4-1-5.3-1-10.7-1.8c0.5,1.6,1,3.2,1.4,4.8
				c5.1,0.4,4.7,0,9.8,0.5c0.5,2.7,0.9,5.3,1.3,8c-6-0.9-6.3-1.1-12.2-1.8c0.2,2.1,0.6,6.5,0.8,8.7c6.4,0.5,6.9,0.5,13.3,1.1
				c0.4,2.3,0.8,4.6,1.1,7c-8.5-0.5-11.1-0.7-19.6-1C93.8,43.2,92.4,30.2,90.7,19.5z"/>
			<path class="st2" d="M114.4,91.8c-0.4,5.1-1.1,10.1-3.5,15.5c-3,6.8-7.8,11.2-13.9,12.9c-1.1,0.3-2.3,0.6-3.3,0.7
				c-3.1,0.3-5-1.3-6.2-4.3c-1-2.6-1.4-5.5-1.6-8.4c-0.3-6.4-0.5-12.7,0.1-19.2c0.4-4,1.4-7.9,3.7-11.6c2-3.3,4.7-5.6,8.2-6.5
				c2.1-0.5,4.2-0.9,6.4-1c4.7-0.2,7.4,2.2,8.8,5.9c1.6,4.2,1.6,8.9,1.5,13.6C114.5,90,114.4,90.9,114.4,91.8z M93,95.7
				c0,2.7-0.1,5.4,0.1,8.1c0.1,1.9,0.5,3.8,1,5.6c0.5,1.7,1.9,2.2,3.8,1.8c3.8-0.8,6.4-3.4,7.8-7.9c1.4-4.4,1.7-8.7,1.6-12.8
				c0-2.2-0.3-4.3-0.8-6.4c-0.4-1.8-1.7-2.8-3.8-2.9c-3.9-0.1-6.5,1.8-8.1,5.8C93.4,89.9,93.1,92.8,93,95.7z"/>
			<path class="st1" d="M81.5,122.7c-4,0.4-7.9,0.7-11.9,0.8C70,109,70.2,94.5,70.2,80C68,80,50.3,80,47.9,80c0.1-2.1,0.1-4,0.2-5.9
				c0-0.7,0.6-0.6,1.1-0.6c4.8,0.1,25.3,0,30.1,0c2.6,0,5.2,0,7.8-0.1c0.1,1.8,0.2,3.4,0.3,5.2c-1.9,0-3.6,0.1-5.6,0.1
				C82.3,93.5,82.2,108,81.5,122.7z"/>
			<path class="st2" d="M53.9,123c-0.6-9.9-1-19.7-1.4-29.8c4.3-0.1,8.6-0.2,13-0.3c0.3,10.1,0.6,20.1,0.8,30.2
				C62.1,123.2,58.1,123.1,53.9,123z"/>
			<path class="st2" d="M61.1,90.3c-2,0.7-4.2,0.6-6.3-0.1c-0.2-0.1-0.4-0.1-0.5-0.2c-1.4-0.6-2.1-1.7-2.3-3.2
				c-0.3-2,0.8-3.4,2.9-3.7c2.1-0.3,4.2-0.1,6.3,0.6c1.4,0.4,2.4,1.2,2.5,2.7c0.1,1.6-0.5,3-2,3.7C61.4,90.2,61.3,90.2,61.1,90.3z"
				/>
		</g>
	</g>
	<g>
		<g id="XMLID_64_">
			<path class="st3" d="M50.9,15.6c-3.2,0-5.9-2.6-5.9-5.9c0-3.2,2.6-5.9,5.9-5.9h21.1c3.2,0,5.9,2.6,5.9,5.9c0,3.2-2.6,5.9-5.9,5.9
				H50.9z"/>
		</g>
		<g id="XMLID_63_">
			<path class="st4" d="M50.9,15c-2.9,0-5.3-2.4-5.3-5.3s2.4-5.3,5.3-5.3h21.1c2.9,0,5.3,2.4,5.3,5.3S75,15,72.1,15H50.9z"/>
		</g>
		<g id="XMLID_1_">
			<g id="XMLID_60_">
				<g id="XMLID_61_">
					<g id="XMLID_62_">
						<path class="st3" d="M52.2,12c-0.4,0-0.9-0.1-1.3-0.5c-0.1-0.1-0.2-0.3-0.1-0.5c0.1-0.1,0.3-0.2,0.5-0.1
							c0.6,0.5,1.3,0.4,1.8,0c0.2-0.1,0.6-0.5,0.3-1.2c-0.2-0.5-0.4-0.8-0.5-1.1c-0.2-0.5-0.4-0.8-0.4-1c0-0.3,0-0.6,0.2-0.9
							c0.2-0.3,0.6-0.4,1-0.4c0.2,0,0.3,0.1,0.3,0.3S54,7.1,53.8,7.1c-0.2,0-0.4,0.1-0.5,0.2c-0.1,0.1-0.1,0.2-0.1,0.3
							c0,0.2,0.1,0.4,0.3,0.9c0.1,0.3,0.3,0.6,0.5,1.1c0.3,0.7,0.1,1.5-0.5,2C53.2,11.8,52.7,12,52.2,12z"/>
					</g>
				</g>
			</g>
			<g id="XMLID_57_">
				<g id="XMLID_58_">
					<g id="XMLID_59_">
						<path class="st3" d="M48.2,11.7c-0.1,0-0.2,0-0.2-0.1c-0.1-0.1-0.1-0.3,0-0.5c0.2-0.2,1.4-1.9,1.2-4.2c0-0.2,0.1-0.3,0.3-0.4
							c0.2,0,0.3,0.1,0.4,0.3c0.1,2.3-0.9,4.2-1.4,4.7C48.4,11.7,48.3,11.7,48.2,11.7z"/>
					</g>
				</g>
			</g>
			<g id="XMLID_54_">
				<path class="st3" d="M51.9,10.7c0,0-0.1,0-0.1-0.1l-0.3-0.7h-1l-0.3,0.7c0,0-0.1,0.1-0.1,0.1h-0.4c0,0-0.1,0-0.1,0
					c0,0,0-0.1,0-0.1l1.2-3.1c0,0,0-0.1,0.1-0.1l0.3-0.1c0,0,0,0,0,0c0,0,0.1,0,0.1,0.1l0.9,2.6l0.2,0.5c0,0,0,0.1,0,0.1
					c0,0-0.1,0.1-0.1,0.1H51.9z M51.4,9.4l-0.3-0.8l-0.3,0.8H51.4z"/>
			</g>
			<g id="XMLID_52_">
				<g id="XMLID_53_">
					<path class="st3" d="M51,14.4c-2.6,0-4.7-2.1-4.7-4.7c0-2.6,2.1-4.7,4.7-4.7c0.7,0,1.4,0.1,2,0.4c0.1,0.1,0.2,0.2,0.1,0.4
						C53,6,52.8,6.1,52.7,6c-0.5-0.3-1.1-0.4-1.7-0.4c-2.3,0-4.1,1.9-4.1,4.1s1.9,4.1,4.1,4.1c1.6,0,3.1-0.9,3.7-2.4
						c0-0.1,0.1-0.2,0.3-0.2h20.7c0.2,0,0.3,0.1,0.3,0.3c0,0.2-0.1,0.3-0.3,0.3H55.1c-0.4,0.7-0.9,1.3-1.6,1.8
						C52.8,14.2,51.9,14.4,51,14.4z"/>
				</g>
			</g>
			<g id="XMLID_50_">
				<g id="XMLID_51_">
					<path class="st3" d="M48.5,7.9c-0.1,0-0.2,0-0.2-0.1c-0.1-0.1-0.2-0.3,0-0.5c0.5-0.6,1.3-1,2.1-1.1c0.2,0,0.4,0.1,0.4,0.3
						c0,0.2-0.1,0.4-0.3,0.4c-0.6,0.1-1.2,0.4-1.7,0.9C48.7,7.9,48.6,7.9,48.5,7.9z"/>
				</g>
			</g>
			<g id="XMLID_5_">
				<g id="XMLID_49_">
					<path class="st3" d="M54.8,10.7c-0.1,0-0.1,0-0.1-0.1V8l-0.1-0.4c0,0,0-0.1,0-0.1c0,0,0,0,0.1,0h1.5c0.1,0,0.1,0,0.1,0.1V8
						c0,0.1,0,0.1-0.1,0.1h-1v0.7h0.8c0,0,0.1,0,0.1,0c0,0,0,0.1,0,0.1l-0.1,0.3c0,0-0.1,0.1-0.1,0.1h-0.7v0.8h1c0,0,0.1,0,0.1,0
						c0,0,0,0.1,0,0.1l-0.1,0.3c0,0-0.1,0.1-0.1,0.1H54.8z"/>
				</g>
				<g id="XMLID_46_">
					<path class="st3" d="M58.5,10.7C58.5,10.7,58.5,10.7,58.5,10.7l-0.8-1.1c0,0,0,0-0.1,0h-0.2v0.7l0,0.3c0,0,0,0.1,0,0.1
						s0,0-0.1,0H57c-0.1,0-0.1,0-0.1-0.1V8l-0.1-0.4c0,0,0-0.1,0-0.1c0,0,0,0,0.1,0h0.8c0.1,0,0.3,0,0.4,0.1c0.1,0,0.2,0.1,0.3,0.2
						c0.1,0.1,0.2,0.2,0.2,0.3c0.1,0.1,0.1,0.3,0.1,0.5c0,0.2-0.1,0.4-0.2,0.6c-0.1,0.1-0.2,0.2-0.4,0.3l0.9,1.1c0,0,0,0.1,0,0.1
						c0,0-0.1,0.1-0.1,0.1H58.5z M57.7,9.1c0.1,0,0.1,0,0.2,0C57.9,9,58,9,58,8.9c0-0.1,0.1-0.1,0.1-0.2c0-0.1,0-0.1,0-0.2
						c0-0.1,0-0.1,0-0.2c0-0.1-0.1-0.1-0.1-0.1c0,0-0.1-0.1-0.2-0.1c-0.1,0-0.1,0-0.2,0h-0.2v1H57.7z"/>
				</g>
				<g id="XMLID_45_">
					<path class="st3" d="M59.6,10.7c-0.1,0-0.1,0-0.1-0.1V8l-0.1-0.4c0,0,0-0.1,0-0.1c0,0,0,0,0.1,0H61c0.1,0,0.1,0,0.1,0.1V8
						c0,0.1,0,0.1-0.1,0.1h-1v0.7h0.8c0,0,0.1,0,0.1,0c0,0,0,0.1,0,0.1l-0.1,0.3c0,0-0.1,0.1-0.1,0.1h-0.7v0.8h1c0,0,0.1,0,0.1,0
						c0,0,0,0.1,0,0.1l-0.1,0.3c0,0-0.1,0.1-0.1,0.1H59.6z"/>
				</g>
				<g id="XMLID_44_">
					<path class="st3" d="M64,10.7C63.9,10.7,63.9,10.7,64,10.7l-1.8-2c0,0,0,0,0,0v1.5l0,0.3c0,0,0,0.1,0,0.1s0,0-0.1,0h-0.4
						c-0.1,0-0.1,0-0.1-0.1V8l-0.1-0.4c0,0,0-0.1,0-0.1c0,0,0,0,0.1,0h0.3c0,0,0.1,0,0.1,0l1.7,1.9c0,0,0,0,0,0l0,0V8l-0.1-0.4
						c0,0,0-0.1,0-0.1c0,0,0,0,0.1,0h0.4c0.1,0,0.1,0,0.1,0.1v2.7l0,0.3c0,0,0,0.1,0,0.1c0,0,0,0-0.1,0H64z"/>
				</g>
				<g id="XMLID_43_">
					<path class="st3" d="M65.1,10.7c-0.1,0-0.1,0-0.1-0.1V8l-0.1-0.4c0,0,0-0.1,0-0.1c0,0,0,0,0.1,0h0.5c0.1,0,0.1,0,0.1,0.1v2.7
						l0,0.3c0,0,0,0.1,0,0.1c0,0,0,0-0.1,0H65.1z"/>
				</g>
				<g id="XMLID_42_">
					<path class="st3" d="M66.9,10.8c-0.1,0-0.3,0-0.4-0.1c-0.1,0-0.2-0.1-0.3-0.1c-0.1-0.1-0.2-0.1-0.2-0.2c0,0,0-0.1,0-0.1
						c0,0,0,0,0,0c0,0,0-0.1,0-0.1c0-0.1,0-0.1,0-0.2c0,0,0-0.1,0.1-0.1c0,0,0,0,0,0c0,0,0.1,0,0.1,0c0.1,0.1,0.1,0.1,0.2,0.2
						c0.1,0,0.1,0.1,0.2,0.1c0.1,0,0.2,0.1,0.3,0.1c0.1,0,0.2,0,0.3-0.1c0.1-0.1,0.1-0.2,0.1-0.3c0-0.1,0-0.1-0.1-0.2
						c-0.1-0.1-0.1-0.1-0.2-0.2c-0.1-0.1-0.2-0.1-0.3-0.2c-0.1-0.1-0.2-0.1-0.3-0.2c-0.1-0.1-0.2-0.2-0.3-0.3
						C66.1,8.7,66,8.6,66,8.4c0-0.1,0-0.3,0.1-0.4c0-0.1,0.1-0.2,0.2-0.3c0.1-0.1,0.2-0.2,0.3-0.2c0.1-0.1,0.3-0.1,0.4-0.1
						c0.2,0,0.4,0,0.5,0.1c0.1,0.1,0.2,0.1,0.3,0.1c0,0,0.1,0.1,0,0.1l-0.1,0.3c0,0-0.1,0.1-0.1,0.1c0,0,0,0,0,0c0,0-0.1,0-0.1,0
						c0,0,0,0,0,0c0,0-0.1,0-0.1-0.1c-0.1,0-0.1,0-0.2-0.1c-0.1,0-0.1,0-0.2,0c0,0-0.1,0-0.1,0c0,0-0.1,0-0.1,0.1
						c0,0-0.1,0.1-0.1,0.1c0,0,0,0.1,0,0.1c0,0.1,0,0.2,0.1,0.2c0.1,0.1,0.1,0.1,0.2,0.2c0.1,0.1,0.2,0.1,0.3,0.2
						c0.1,0.1,0.2,0.1,0.3,0.2c0.1,0.1,0.2,0.2,0.3,0.3C67.9,9.5,68,9.6,68,9.8c0,0.1,0,0.3-0.1,0.4c0,0.1-0.1,0.2-0.2,0.3
						c-0.1,0.1-0.2,0.2-0.3,0.2C67.2,10.8,67.1,10.8,66.9,10.8z"/>
				</g>
				<g id="XMLID_41_">
					<path class="st3" d="M68.5,10.7c-0.1,0-0.1,0-0.1-0.1V8l-0.1-0.4c0,0,0-0.1,0-0.1c0,0,0,0,0.1,0h0.5c0.1,0,0.1,0,0.1,0.1v2.7
						l0,0.3c0,0,0,0.1,0,0.1c0,0,0,0-0.1,0H68.5z"/>
				</g>
				<g id="XMLID_40_">
					<path class="st3" d="M72.5,10.7c-0.1,0-0.1,0-0.1-0.1V9l-0.9,1.4c0,0-0.1,0-0.1,0c0,0,0,0,0,0c0,0-0.1,0-0.1,0l-1-1.4v1.3
						l0,0.3c0,0,0,0.1,0,0.1c0,0,0,0-0.1,0h-0.4c-0.1,0-0.1,0-0.1-0.1V8l-0.1-0.4c0,0,0-0.1,0-0.1c0,0,0,0,0.1,0h0.3
						c0,0,0.1,0,0.1,0l1.3,1.8l1.1-1.8c0,0,0.1-0.1,0.1-0.1h0.3c0.1,0,0.1,0,0.1,0.1v2.7l0,0.3c0,0,0,0.1,0,0.1c0,0,0,0-0.1,0H72.5z
						"/>
				</g>
				<g id="XMLID_6_">
					<path class="st3" d="M75.4,10.7c0,0-0.1,0-0.1-0.1L75,10h-1l-0.3,0.7c0,0-0.1,0.1-0.1,0.1h-0.4c0,0-0.1,0-0.1,0
						c0,0,0-0.1,0-0.1l1.1-3c0,0,0-0.1,0.1-0.1l0.3-0.1c0,0,0,0,0,0c0,0,0.1,0,0.1,0.1l0.9,2.6l0.2,0.5c0,0,0,0.1,0,0.1
						c0,0-0.1,0-0.1,0H75.4z M74.8,9.4l-0.3-0.8l-0.3,0.8H74.8z"/>
				</g>
			</g>
			<g id="XMLID_3_">
				<g id="XMLID_4_">
					<path class="st3" d="M51,13.3c-0.1,0-0.2,0-0.2,0c-0.7,0-1.4-0.3-1.9-0.7c-0.1,0.1-0.2,0.1-0.2,0.1c-0.2,0-0.3-0.2-0.3-0.4l0,0
						l0,0c0-0.2,0.2-0.3,0.3-0.4c0.2-0.1,0.4,0,0.5,0.1c0.5,0.4,1.1,0.6,1.7,0.7c0.3,0,0.7,0,1-0.1c0-0.1,0-0.3,0.1-0.3
						c0.2-0.1,0.4-0.1,0.5,0.1c0.1,0.2,0.1,0.3,0.1,0.4c-0.1,0.2-0.2,0.3-0.3,0.3c0,0,0,0,0,0C51.8,13.3,51.4,13.3,51,13.3z"/>
				</g>
			</g>
		</g>
	</g>
</g>
</svg>
