<svg id="Layer_1" data-name="Layer 1" xmlns="http://www.w3.org/2000/svg" xmlns:xlink="http://www.w3.org/1999/xlink" viewBox="0 0 33 33"><defs><style>.cls-1{fill:none;}.cls-2{clip-path:url(#clip-path);}.cls-3{fill:url(#radial-gradient);}.cls-4{fill:#ffcd00;}</style><clipPath id="clip-path"><rect class="cls-1" x="-651.96" y="-776.24" width="1200" height="428.86"/></clipPath><radialGradient id="radial-gradient" cx="-649.93" cy="154.58" r="1" gradientTransform="matrix(600.58, -170.03, -182.5, -559.54, 418476.22, -24608.08)" gradientUnits="userSpaceOnUse"><stop offset="0" stop-color="#ffda00"/><stop offset="1" stop-color="#ffe186"/></radialGradient></defs><g class="cls-2"><polygon class="cls-3" points="-796.47 -735.32 446.6 -1087.25 692.55 -333.17 -550.52 18.76 -796.47 -735.32"/><path class="cls-4" d="M511.55-789.1A657.14,657.14,0,0,1,549.1-624.33a611.08,611.08,0,0,1,2.54,79.64,631.07,631.07,0,0,1-16.92,125.58,595.24,595.24,0,0,1-80.79,187.43A595.53,595.53,0,0,1,301.41-72.58,618.9,618.9,0,0,1,156.16,4.68Q43,46.94-80.56,46a679.81,679.81,0,0,1-91.06-6.72A714.26,714.26,0,0,1-294.75,10.85,726.83,726.83,0,0,1-483.91-83.26,724.87,724.87,0,0,1-643.66-234.38c-3.43-4.43-7.06-8.73-10.6-13.08q-.56-54.73-1.09-109.47a19.13,19.13,0,0,1,2.8,3.21,650.87,650.87,0,0,0,66,97.56A678.28,678.28,0,0,0-400.09-97.58,671.77,671.77,0,0,0-213.82-23.91,649.67,649.67,0,0,0-68.75-7.08a617.75,617.75,0,0,0,204.2-33.49,575.94,575.94,0,0,0,156.62-82.28Q397.39-201,456.58-316.3a557.93,557.93,0,0,0,56-175.56,580.63,580.63,0,0,0,3.62-138.61Q505.46-746.3,451.85-852.86A657.36,657.36,0,0,0,339.27-1012,677.66,677.66,0,0,0,140.8-1156,669.15,669.15,0,0,0-16.86-1208.8a647.94,647.94,0,0,0-103.71-12.49q-115.43-4.38-222.57,31.45a578.86,578.86,0,0,0-166.5,87.73,557.07,557.07,0,0,0-89.86,85.31,558.73,558.73,0,0,0-58.32,83.6,31.77,31.77,0,0,1-3.24,4q-.47-46.05-.92-92.12a47.41,47.41,0,0,0,4.5-4.34A599.1,599.1,0,0,1-543-1135.35a618.94,618.94,0,0,1,155.72-82.86q106.39-38.52,222-39.29a697.8,697.8,0,0,1,134.68,12.35,712.3,712.3,0,0,1,149.21,45.61,728.09,728.09,0,0,1,186.21,115.6,720.77,720.77,0,0,1,127,140.71A691.88,691.88,0,0,1,511.55-789.1M-520.38-261.37a616.57,616.57,0,0,1-89.13-125.9,595.38,595.38,0,0,1-44.8-108.48,41.92,41.92,0,0,0-2.48-5.32q-1.5-150.1-3-300.21a24.52,24.52,0,0,0,2.07-4.17,504.26,504.26,0,0,1,25.84-70.7,516.56,516.56,0,0,1,126.73-173.17q74.85-67.2,171-103.24,94-35.3,196.64-36.2a604.06,604.06,0,0,1,135.65,14.1A629.68,629.68,0,0,1,201.45-1091,625.73,625.73,0,0,1,367-939.08q66.87,88.3,97.72,192.21A561.39,561.39,0,0,1,487.29-619a540.62,540.62,0,0,1-6.47,121.62A524.47,524.47,0,0,1,436.52-357a514,514,0,0,1-99.81,141.27q-84,84.35-198.52,126A569.59,569.59,0,0,1-11.42-57.63a601.89,601.89,0,0,1-102.14-.65A608.21,608.21,0,0,1-239-83.14a631.07,631.07,0,0,1-135.71-60A632.87,632.87,0,0,1-520.38-261.37m30.13-38.72A586.67,586.67,0,0,0-374.68-198.94a589.33,589.33,0,0,0,180.05,80.86C-153-107.27-110.86-101.16-75.45-100c80,2.33,150.41-8.93,217.36-34.67Q280.79-188,366.7-304.9c43-58.51,71.17-123.78,85.13-195.39A502.8,502.8,0,0,0,460-629.23q-6.3-98.31-48.47-190.07-48.69-105.91-136.69-186.05A589.77,589.77,0,0,0,72.67-1126.12a579.51,579.51,0,0,0-105-26.46,569,569,0,0,0-86.54-6.59,537.89,537.89,0,0,0-177.86,29.66,504.72,504.72,0,0,0-143.63,77.43,485.53,485.53,0,0,0-84.69,83.51,483.82,483.82,0,0,0-84.14,160.93A494.08,494.08,0,0,0-628.16-712a516.6,516.6,0,0,0-.77,89.19,525.77,525.77,0,0,0,30.91,142q36.35,99.38,107.77,180.67M15.88-1718a1390,1390,0,0,0-153.28-34.6,1363.93,1363.93,0,0,0-191.51-18.35q-65-1.59-129.51,3.19A1305.49,1305.49,0,0,0-663.85-1736c-1.78.42-3.49,1.06-5.23,1.6q.55,56.89,1.13,113.8c31.52-10,63.68-18.12,96.22-25.05a1175.86,1175.86,0,0,1,233.06-25.73,1225.74,1225.74,0,0,1,133.83,5.85q44.43,4.38,88.55,11.91,56.42,9.62,111.91,24.53a1289.19,1289.19,0,0,1,233.14,87.42,1307.87,1307.87,0,0,1,222,137.69q49.07,37.66,94.18,79.7a59.47,59.47,0,0,0,5.3,4q-.56-56.34-1.12-112.71c-1.53-1-3.18-2-4.59-3.18a1453.92,1453.92,0,0,0-148-109.07,1441.45,1441.45,0,0,0-202.38-108.44A1420.3,1420.3,0,0,0,15.88-1718m163.27,235.06a1162,1162,0,0,0-193.59-67.88q-55.37-14.07-111.65-22.54a1117.55,1117.55,0,0,0-142.69-12.32c-30.93-.69-61.76,0-92.51,2a1065.75,1065.75,0,0,0-192.64,29.77,1018.37,1018.37,0,0,0-106.28,32.78c-2.24.82-4.49,1.6-6.73,2.4q.47,46.07.92,92.13a937.85,937.85,0,0,1,158.4-55.76A974.4,974.4,0,0,1-299.17-1512,1021,1021,0,0,1-193-1510.08a1039.1,1039.1,0,0,1,113.23,14.24,1052.43,1052.43,0,0,1,118,28.65,1057.43,1057.43,0,0,1,120.55,44.78,1087.37,1087.37,0,0,1,167,92.18,1095.73,1095.73,0,0,1,132,104.36,1060.42,1060.42,0,0,1,90.8,94.93c1.07,1.27,2.37,2.35,3.57,3.53l-.91-91c-14.06-14-27.92-28.2-42.23-42a1149.94,1149.94,0,0,0-101.2-86.24,1182.94,1182.94,0,0,0-228.69-136.26m274.06,1333a637.14,637.14,0,0,1-102,104,664.46,664.46,0,0,1-187.6,107A700.56,700.56,0,0,1,10.47,99.2a731.79,731.79,0,0,1-160.65,3.49A759.71,759.71,0,0,1-328.42,65.12,783.33,783.33,0,0,1-479.26-4.51c-46.69-27.92-90.15-60-129.7-97-14.09-13.19-27.5-27-41.23-40.58a29.57,29.57,0,0,0-3-2.37q.51,50.4,1,100.79a26.82,26.82,0,0,1,3.69,2.34A848.1,848.1,0,0,0-493.8,67.73a839.18,839.18,0,0,0,200.89,78.91A822.33,822.33,0,0,0-187.09,166,794.27,794.27,0,0,0-81.95,171,771.67,771.67,0,0,0,80.39,151.1a733.31,733.31,0,0,0,195.2-75.74A702.43,702.43,0,0,0,429-41.32a673.91,673.91,0,0,0,104.4-135.13c8.8-15,16.66-30.63,25-46,.83-1.52,1.87-2.92,2.82-4.38q-.63-62.86-1.26-125.72a39.12,39.12,0,0,0-2,4.27A639.49,639.49,0,0,1,453.21-149.92M396.91-1209.4A990.57,990.57,0,0,0,286-1292a993.67,993.67,0,0,0-170.64-87.74A982.61,982.61,0,0,0,1.91-1417Q-41-1428.26-84.6-1435.5a955.63,955.63,0,0,0-120.17-12.12,916.65,916.65,0,0,0-136.56,5,882.78,882.78,0,0,0-239.12,61.2,819.35,819.35,0,0,0-77.4,36.75c-2.4,1.29-4.87,2.43-7.32,3.65l.81,80.19a56.81,56.81,0,0,0,5.71-2.93A769.12,769.12,0,0,1-587.1-1305a796.27,796.27,0,0,1,179.68-65.4,828.6,828.6,0,0,1,173.33-21.69,865.38,865.38,0,0,1,169,13.17,903.48,903.48,0,0,1,113,27.6,910.69,910.69,0,0,1,190.62,85,916.25,916.25,0,0,1,212.33,172.74,890.19,890.19,0,0,1,99.28,131.61,45.8,45.8,0,0,0,3.74,4.67q-.4-41.72-.83-83.45c-2.93-3.64-6-7.18-8.78-10.92A977,977,0,0,0,396.91-1209.4m-105,27.77a845.28,845.28,0,0,0-177.44-98.75,833.76,833.76,0,0,0-138.85-43.17A806.52,806.52,0,0,0-187.52-1342a770.75,770.75,0,0,0-223.82,30.26,730.87,730.87,0,0,0-161.37,68.49,695.83,695.83,0,0,0-84.24,57c-2.11,1.64-4.42,3-6.63,4.57q.39,39,.78,78a24.29,24.29,0,0,0,3.44-2.41,653.66,653.66,0,0,1,159-114.73,687.36,687.36,0,0,1,199.12-66.45A723.76,723.76,0,0,1-142.37-1297a759.34,759.34,0,0,1,208,39.67,782.82,782.82,0,0,1,201.45,102.61,778.42,778.42,0,0,1,177,172.83,738.52,738.52,0,0,1,85.76,148.33c8.78,20.36,15.88,41.32,23.77,62,.64,1.69,1.42,3.34,2.15,5l-1-101.87q-5.91-11.34-11.8-22.68a825.43,825.43,0,0,0-102.08-152.2,840.44,840.44,0,0,0-149-138.37m-255.46-644a1590.36,1590.36,0,0,1,160.47,58,1599.62,1599.62,0,0,1,196.05,99.4,1641.92,1641.92,0,0,1,148.74,100.21c1.93,1.45,4.1,2.6,6.15,3.89l-1.53-153.9c-2.11-1.2-4.3-2.3-6.33-3.63-21.57-14.15-42.85-28.76-64.76-42.37-24.81-15.4-50.2-29.9-75.31-44.84a34.46,34.46,0,0,1-4.19-3.49L31-1828.37a34.65,34.65,0,0,0,5.44,2.74M412.74,59.3q-91.23,77.4-203.6,124.05A802.87,802.87,0,0,1,47.73,231.26,800.15,800.15,0,0,1-75.81,244.81c-7.84.23-15.72.06-23.58.18a48.74,48.74,0,0,0-5.36.67l331,14.48c16.38-7.48,32.95-14.6,49.09-22.5a807.28,807.28,0,0,0,142-89.13A808.91,808.91,0,0,0,553.91,13.34c3.09-3.88,6.35-7.63,9.53-11.44q-.57-56.91-1.13-113.8c-2.46,3.44-5,6.81-7.36,10.35A746.86,746.86,0,0,1,412.74,59.3M-345.85,212.07A904.83,904.83,0,0,1-580.08,108.52q-34.17-21.24-66.31-45.35a47.61,47.61,0,0,0-4.8-2.83l1.08,108.37,3.35,2.12q41.71,27,86,49.75c3.46,1.79,6.86,3.72,10.29,5.57l367,16.06a26.84,26.84,0,0,0-4.34-1c-53.48-3.91-106-14.53-158-29.1m906.58-85.28A894.47,894.47,0,0,1,403,263.2c-2.23,1.51-4.54,2.92-6.81,4.38L543.65,274c6-5.5,12.05-11,18.12-16.52a51.93,51.93,0,0,1,4.19-3.08q-.66-65.56-1.31-131.14a48.55,48.55,0,0,0-3.92,3.51M-284.38-197.15Q-394.91-252-471.27-347.27A527.87,527.87,0,0,1-549.65-481a498,498,0,0,1-36.49-177.73,464.3,464.3,0,0,1,6.57-86.47,456.76,456.76,0,0,1,37.14-119.14A450.77,450.77,0,0,1-421.14-1021q75.12-62.4,171.26-90.46a510.28,510.28,0,0,1,132.16-20.17,526.63,526.63,0,0,1,97.18,7.07,542.24,542.24,0,0,1,121,34.62A552.4,552.4,0,0,1,283.05-967a533.45,533.45,0,0,1,108,157A504.79,504.79,0,0,1,436-610.14q-.36,11.61-.7,23.23a439.89,439.89,0,0,1-11.21,86.3c-16.82,72.91-49.2,138-97.77,194.91q-64,74.92-154.79,118c-65.83,31.15-136.31,46.85-211.2,47.57A531.15,531.15,0,0,1-163-153.77a543.85,543.85,0,0,1-121.41-43.38M-245-222a505.67,505.67,0,0,0,136,39.73,488.51,488.51,0,0,0,155.9-1.9q91.46-16,167.74-64.87,105.49-67.75,157.93-179.71a425,425,0,0,0,37-128.58,446.73,446.73,0,0,0,.74-106.37,472.42,472.42,0,0,0-47.63-159.63A502.54,502.54,0,0,0,256.83-965.22,518.38,518.38,0,0,0,63.26-1080.87a496.8,496.8,0,0,0-162.45-25.94c-92.78.8-177.14,25.29-251.86,74.6C-443.61-971.14-503.52-886.94-531.77-781a405.76,405.76,0,0,0-13.42,89.68c-.32,8.46-.6,16.92-.82,23.11,2.19,101.83,32.63,193.91,93.33,277.76C-399-316.28-329.52-260.22-245-222m223.11,10.57A454.5,454.5,0,0,1-160.4-229.69q-155.44-45.57-253.54-172.82a452.41,452.41,0,0,1-67.27-122.38q-33.66-92.58-24.9-188.28a401.28,401.28,0,0,1,31-122.59A397.52,397.52,0,0,1-364.64-984.29a411.45,411.45,0,0,1,117.31-69.34q86.36-33.43,181.43-29.73c10.31.92,20.61,1.7,30.91,2.75A463.11,463.11,0,0,1,70.47-1056.8a486.08,486.08,0,0,1,159.34,92.17A472.81,472.81,0,0,1,339.09-828a444.73,444.73,0,0,1,50.32,163.32,414.23,414.23,0,0,1-2.88,109.95,399.62,399.62,0,0,1-54.62,147.47A395.46,395.46,0,0,1,226.58-293.39q-108.81,78.91-248.5,82m88.26-41q112-24.67,191.82-102C311.54-406.21,346.22-468.72,363-541a379,379,0,0,0,9-108.74Q365.71-754.55,309-846.86A447.36,447.36,0,0,0,188-976.24c-52-37.34-109.17-62.89-171.59-76.22a443,443,0,0,0-100.34-9.85A418.5,418.5,0,0,0-211-1040.54a391.06,391.06,0,0,0-113.54,60.2A374.61,374.61,0,0,0-429.7-856.17a370.57,370.57,0,0,0-39.39,121c-1.2,8.33-2.34,16.7-2.93,25.12-.86,12.19-1.2,24.44-1.59,32.91,2,93.61,30,176.37,85.89,251.27,52.82,70.82,121.39,122,204.85,154a439,439,0,0,0,105.57,26C-28.56-240,19.32-242,66.34-252.37m159.48-106C151.4-297.17,63.32-269.31-37-272.41a405.84,405.84,0,0,1-52.8-5.83,422.81,422.81,0,0,1-142-51.82q-116.52-68.22-172.35-187.65c-30.38-65.12-41.63-132.52-34.52-201.77A351.18,351.18,0,0,1-408-831.57c24-51.89,58.48-95.93,104.2-131.27,71.39-55.19,154.43-81.37,248.34-79.33,40.76.88,80.83,8.26,120,21.32a430.24,430.24,0,0,1,159,94.33,417.14,417.14,0,0,1,75.68,94.22q52.11,88.68,55.1,188.25A355.22,355.22,0,0,1,335.4-517.61C313.92-454.48,277.7-401,225.82-358.36m-54.63,7.73c60.21-35.45,104.55-84.92,133.63-147.14a326.68,326.68,0,0,0,29.35-109.12c1.12-12.15,1.28-24.43,1.69-32.73-1.68-81.84-26-153.58-74-218.75-40.24-54.57-91.82-96.2-154.1-125.07-48.28-22.37-98.81-34.8-151.26-36.2-101.28-2.69-187.94,28.76-258.73,94.81-50.95,47.54-83,106-97.37,174.11a331.53,331.53,0,0,0-6.31,93.39c5.74,77.7,34,148.18,85.36,210.78,46.7,56.93,105.37,97.77,175.29,122.92a379.64,379.64,0,0,0,85.43,20c83.93,9.65,161.14-5.88,231-47m26.07-46c-63.71,50.41-138.64,73-223.18,70.47a370.1,370.1,0,0,1-61.63-8.2,368.21,368.21,0,0,1-133.16-58.5,361.29,361.29,0,0,1-88.84-88.26Q-365.2-560-372.26-653a308.23,308.23,0,0,1,17-128.73c23.08-64.5,63.39-116.25,121.05-154.72,49.89-33.3,106.11-51.34,168.12-54.72a354.78,354.78,0,0,1,103.56,9.8,365.7,365.7,0,0,1,116.85,51Q245.11-870,287.42-772.57C314-711.21,321.64-648.37,310-584.72c-14,76.54-51.49,139.63-112.77,188.12m97.88-242.35C293.9-806.48,152.84-953-26.8-961.44-203.4-969.73-346-837.31-344.69-667.31c1.35,168.37,143,314.12,322.51,322.6,180.11,7.11,318.56-127.16,317.32-294.24M-19.95-358.41c-163.89-7.23-298-140.39-299.81-297.32-1.79-155.16,126-280.3,294-273.45S273.57-786.4,274.86-630.58C276.17-473.39,144-351.19-19.95-358.41m153.67-45.93c65.23-39,104.44-96.22,118-170.27,2.69-14.66,3.65-29.54,3.68-51.56-2.72-73.61-34.83-142.47-98.91-198C114.18-860.92,64.9-883.33,9.77-892.43c-95.94-15.84-191.91,17.27-251.5,88.35-31.7,37.81-50.59,81.44-55.75,130.89-7,66.77,10.1,128.94,51.55,185.42,43.68,59.52,102.57,97.81,175.22,114,73.65,16.46,142.46,6.39,204.43-30.62M96.09-392A227.5,227.5,0,0,1,61-379.83a57.33,57.33,0,0,0-.12-7.46,117.94,117.94,0,0,0-8.9-30.57C40.66-443.32,23-464-.39-480.17c-38.24-26.42-80-37.13-125-30-27.9,4.39-51.76,16.16-70.36,36.37-3.6,3.91-6.76,8.19-10.09,12.25l-2.26-.75c-.15.21-.28.42-.42.64l17.32,18.23c17.68-12.71,28.8-18.35,44.06-22.24,36.29-9.27,71.85-4.63,106.5,11.64,28.88,13.55,51.91,33.56,67.76,60.79,3.49,6,6.19,12.38,9.61,19.28l-37.8,3.51c-45.29-55.42-119.78-67.83-162.52-50.82l7.94,6.91a50.54,50.54,0,0,1-5.94-3.08C-184-432.31-204-449.63-220.79-470.19c-49.36-60.37-69.38-127.37-56.31-200.54,13.21-74,55.25-128.39,122.84-163.23C-106-858.85-53.33-866.37,2.55-858.13a277.83,277.83,0,0,1,99.76,35C189-772.83,240.26-681.44,235-588.71c-2.07,36.33-12,70.12-30.27,101.13C179.36-444.45,143-412.7,96.09-392m113.6-140.07c10.52-40.95,8.32-82.25-5.81-123.53C176.28-736.23,105-798.39,20.48-818.2c-72.77-17.06-139.25-5.83-197.71,34.84-47.53,33.07-76.63,78.66-86,135.59-10.83,65.89,7.16,126.19,50.55,180.94.58.72,1.29,1.36,1.93,2l.8-.44A16.19,16.19,0,0,0-212-468.3c-3.78-3.65-3.06-7.25-1.32-11.33a111.87,111.87,0,0,1,39.75-48.78c20.91-14.57,44.69-22.59,70.92-24.28,50-3.21,94.45,12,132.76,45.31,26.8,23.33,43.82,52,49.28,85.94,1.36,8.38.92,16.94,1.17,25.42.07,2.48-.29,5-.52,8.47L94-393.49c3.21-11.26,5.73-22.18,6.21-33.59,1.58-37.65-11.33-71.23-36.59-101-26.28-31-59.8-50.83-99.33-60.66-34-8.46-67.31-7.84-99.28,3.56-41.67,14.85-70.26,42.23-83.15,83.88-1.31,4.24-2,8.69-3,13-.23,1-.52,1.95-.94,3.5-2.66-2.65-3.52-4.91-3.46-8.07.27-13.76,1.56-27.32,5.55-40.37,11.65-38.05,36.1-65.82,72.3-83.65s75.32-21.55,116.33-13C9.32-621.35,44.47-602.34,73-572.11c32.87,34.82,49,75.16,45.82,121a124.31,124.31,0,0,1-13.61,48.15,7.31,7.31,0,0,0-1,4.4C110-402,116-405.36,121.56-409.12c44.95-30.2,74.78-71,88.13-123m-364.89,118-.5-.25.4.35Zm5.51,3.62.11-.11-5.62-3.51-.1.1,5.61,3.52m0,0,.29.13-.18-.24-.11.11m1.16,1.09a5.91,5.91,0,0,0,3.79,1.15l-4.66-2.11a3.84,3.84,0,0,0,.87,1M159.79-680.25C121.28-737,67.22-771.58-.61-784.41c-52.5-9.94-102.19-3.3-147.63,20.74-57.91,30.62-92.87,78.08-103.22,142.1-6.42,39.77.25,78.73,17.81,116.54.76,1.62,1.68,3.18,2.7,5.08l1.27-2.05v0h0v0a34.65,34.65,0,0,1-2.85-5.27C-253.91-570.6-246-628.54-205.91-679.59c32.48-41.37,77.25-64.29,131.57-70.13C-8-756.84,51.6-737.84,103.4-694.11c37,31.26,61,70.29,70,116.19,12,60.76-3.47,113.53-44.68,158-1.21,1.3-2.47,2.57-3.68,3.89a9.91,9.91,0,0,0-.62,2.1c5.32-4.73,10-8.54,14.25-12.73,32.72-32.21,52.07-71.16,56.68-117,4.89-48.59-7-94.48-35.56-136.6M-229.54-511.69c-2.85-47.37,13.18-87,47.59-118.68,27.81-25.57,62-39.31,101-42.73,45.84-4,89,6.35,128.75,31.19,46.45,29,76.95,69,87.76,121.06,8.26,39.75,1.06,76.45-20.18,109.84a14.31,14.31,0,0,0-2.4,5.29,28.5,28.5,0,0,0,2.15-1.94C139.36-434.57,154-465.84,157-502.3c3.56-42.34-7.8-81.73-33.23-117.74C91.16-666.28,46.13-695.19-9.36-707.51c-50.35-11.17-98-5.48-141.38,18.7-48.41,27-76.77,68-83.81,122.66a158.33,158.33,0,0,0,3.75,58.77c.45,1.77.75,3.56,1.12,5.36.06-3.23.33-6.45.14-9.67"/></g><path d="M21.41,6.31H11.58a5.05,5.05,0,0,0-5,5V21.81a5.05,5.05,0,0,0,5,5h9.83a5,5,0,0,0,5-5V11.34a5,5,0,0,0-5-5M16.54,23A6.47,6.47,0,1,1,23,16.48,6.47,6.47,0,0,1,16.54,23m6.57-11.51a1.53,1.53,0,1,1,1.53-1.53,1.53,1.53,0,0,1-1.53,1.53"/><path d="M16.5,12.25a4.24,4.24,0,1,0,4.24,4.24,4.23,4.23,0,0,0-4.24-4.24"/><path d="M27.17.5H5.83A5.35,5.35,0,0,0,.5,5.83V27.17A5.35,5.35,0,0,0,5.83,32.5H27.17a5.35,5.35,0,0,0,5.33-5.33V5.83A5.35,5.35,0,0,0,27.17.5m1.08,21.31a6.86,6.86,0,0,1-6.84,6.84H11.58a6.85,6.85,0,0,1-6.83-6.84V11.34A6.85,6.85,0,0,1,11.58,4.5h9.83a6.86,6.86,0,0,1,6.84,6.84Z"/></svg>