<?xml version="1.0" encoding="utf-8"?>
<!-- Generator: Adobe Illustrator 25.2.1, SVG Export Plug-In . SVG Version: 6.00 Build 0)  -->
<svg version="1.1" id="Layer_1" xmlns="http://www.w3.org/2000/svg" xmlns:xlink="http://www.w3.org/1999/xlink" x="0px" y="0px"
	 viewBox="0 0 1200 256.8" style="enable-background:new 0 0 1200 256.8;" xml:space="preserve">
<style type="text/css">
	.st0{clip-path:url(#SVGID_2_);}
	.st1{fill:#FFCD00;}
	.st2{fill:#FFE200;}
</style>
<g>
	<defs>
		<rect id="SVGID_1_" x="39.8" y="923.9" width="1200" height="428.9"/>
	</defs>
	<clipPath id="SVGID_2_">
		<use xlink:href="#SVGID_1_"  style="overflow:visible;"/>
	</clipPath>
	<g class="st0">
		<path class="st1" d="M1203.3,911c19.6,53.1,32.2,108.5,37.6,164.8c2.6,26.5,3.4,53.1,2.5,79.6c-1.4,42.3-7.1,84.4-16.9,125.6
			c-33.5,139.8-116.4,262.9-233.3,346.5c-44.8,32.1-93.6,58.1-145.2,77.3c-75.4,28.2-154.3,42-236.7,41.4
			c-30.5-0.2-60.9-2.4-91.1-6.7c-41.8-5.8-83-15.3-123.1-28.4c-138.1-45.2-259.6-130.6-349-245.3c-3.4-4.4-7.1-8.7-10.6-13.1
			c-0.4-36.5-0.7-73-1.1-109.5c1,1,2,2,2.8,3.2c19,34.5,41.1,67.1,66,97.6c95.2,116.4,226.2,198.1,372.7,232.2
			c47.6,11,96.3,16.7,145.1,16.8c69.5,0.4,138.5-10.9,204.2-33.5c56.1-19.2,109-46.9,156.6-82.3c70.2-52.1,125-116.6,164.5-193.5
			c28.3-55,47.2-114.3,56-175.6c6.7-45.9,7.9-92.4,3.6-138.6c-7.2-77.2-28.6-151.4-64.4-222.4c-29.4-58.4-67.3-112-112.6-159.2
			c-56.9-59.7-124.1-108.4-198.5-143.9c-50.2-24.1-103.1-41.8-157.7-52.8c-34.2-6.9-68.9-11.1-103.7-12.5
			c-76.9-2.9-151.1,7.6-222.6,31.5c-59.9,20-116.2,49.6-166.5,87.7C121.8,643.7,71.3,701.2,33.9,766.9c-1,1.4-2.1,2.8-3.2,4
			c-0.3-30.7-0.6-61.4-0.9-92.1c1.6-1.3,3.1-2.8,4.5-4.3c33.1-41.5,71.7-78.4,114.5-109.7c47.7-34.9,100.1-62.8,155.7-82.9
			c70.9-25.7,144.9-38.8,222-39.3c45.2-0.2,90.3,3.9,134.7,12.4c51.3,9.7,101.3,25,149.2,45.6c67.5,28.9,130.3,67.9,186.2,115.6
			c48.3,41.1,91,88.4,127,140.7C1156.5,804.7,1183.3,856.5,1203.3,911 M171.3,1438.8c-34.9-38.1-64.8-80.4-89.1-125.9
			c-18.5-34.6-33.5-70.9-44.8-108.5c-0.7-1.8-1.5-3.6-2.5-5.3c-1-100.1-2-200.1-3-300.2c0.8-1.3,1.5-2.7,2.1-4.2
			c6.8-24.2,15.5-47.8,25.8-70.7c29.7-66,72.8-125,126.7-173.2c49.9-44.8,106.9-79.2,171-103.2c62.7-23.5,128.2-35.6,196.6-36.2
			c45.6-0.4,91.1,4.3,135.7,14.1c147,32.3,277.7,115.7,368.9,235.5c44.6,58.9,77.2,122.9,97.7,192.2c12.4,41.6,20,84.5,22.6,127.9
			c2.4,40.7,0.3,81.5-6.5,121.6c-8.1,48.6-23,95.9-44.3,140.3c-25,52.4-58.8,100.2-99.8,141.3c-56,56.2-122.2,98.2-198.5,126
			c-48.2,17.4-98.5,28.2-149.6,32.2c-34,2.7-68.2,2.5-102.1-0.7c-42.6-3.9-84.6-12.2-125.4-24.9
			C344.7,1583.7,247.6,1522.1,171.3,1438.8 M201.5,1400c78.2,88.8,181.1,152.2,295.6,182c41.6,10.8,83.8,16.9,119.2,18.1
			c80,2.3,150.4-8.9,217.4-34.7c92.6-35.6,167.5-92.3,224.8-170.3c43-58.5,71.2-123.8,85.1-195.4c8.2-42.5,11-85.8,8.1-128.9
			c-4.2-65.6-20.4-128.9-48.5-190.1c-32.5-70.6-78-132.6-136.7-186.1c-58.6-53.4-127.3-94.5-202.1-120.7
			c-34.1-12.1-69.3-20.9-105-26.5c-28.6-4.4-57.6-6.6-86.6-6.5c-60.5-0.2-120.6,9.8-177.8,29.6c-51.8,17.9-100.3,44-143.6,77.4
			c-80.4,61.9-139.5,147.3-168.9,244.4c-9.5,31.2-15.8,63.2-19,95.7c-2.8,29.7-3.1,59.5-0.8,89.2c3.7,48.5,14.1,96.3,30.9,142
			C117.9,1285.6,153.8,1345.8,201.5,1400 M707.6-17.9c-50.4-14.4-101.6-26-153.3-34.6C491-63.1,427-69.2,362.8-70.8
			c-43.3-1.1-86.5,0-129.5,3.2C164.1-62.5,95.4-51.9,27.9-35.9c-1.8,0.4-3.5,1.1-5.2,1.6C23,3.6,23.4,41.6,23.8,79.5
			c31.5-10,63.7-18.1,96.2-25c76.6-16.3,154.7-25,233-25.8c44.7-0.5,89.4,1.5,133.8,5.8c29.6,3,59.2,6.9,88.6,11.9
			C613,52.9,650.3,61.1,687.3,71c80.4,21.5,158.4,50.8,233.1,87.4c78.4,38.4,152.8,84.5,222,137.7c32.7,25.1,64.1,51.7,94.2,79.7
			c1.7,1.4,3.5,2.8,5.3,4c-0.4-37.6-0.7-75.1-1.1-112.7c-1.5-1-3.2-2-4.6-3.2c-47-39.4-96.4-75.9-148-109.1
			c-64.5-41.5-132.2-77.7-202.4-108.4C827.9,21,768.4-0.4,707.6-17.9 M870.9,217.2c-62.4-28.3-127.2-51-193.6-67.9
			c-36.9-9.4-74.1-16.9-111.7-22.5c-47.3-7.2-94.9-11.3-142.7-12.3c-30.9-0.7-61.8,0-92.5,2c-65,4-129.5,14-192.6,29.8
			c-36,9-71.5,19.9-106.3,32.8c-2.2,0.8-4.5,1.6-6.7,2.4c0.3,30.7,0.6,61.4,0.9,92.1c51-23.3,104-41.9,158.4-55.8
			c68.2-17.4,138.1-27.3,208.4-29.6c35.4-1.2,70.9-0.6,106.2,1.9c78.5,5.5,156,19.9,231.2,42.9c41.1,12.5,81.3,27.4,120.5,44.8
			c109.8,48.6,210.8,115,299,196.5c32.2,29.7,62.5,61.4,90.8,94.9c1.1,1.3,2.4,2.3,3.6,3.5l-0.9-91c-14.1-14-27.9-28.2-42.2-42
			c-32-30.7-65.8-59.5-101.2-86.2C1028.7,299.6,952,253.9,870.9,217.2 M1144.9,1550.2c-29.9,38.5-64.1,73.3-102,104
			c-56.3,45.7-119.7,81.8-187.6,107c-49.5,18.4-100.8,31.1-153.1,38c-53.3,7.1-107.1,8.2-160.7,3.5c-60.7-5.3-120.5-17.9-178.2-37.6
			c-52.6-17.8-103.2-41.1-150.8-69.6c-46.7-27.9-90.2-60-129.7-97c-14.1-13.2-27.5-27.1-41.2-40.6c-1-0.8-2-1.6-3-2.4
			c0.3,33.6,0.7,67.2,1,100.8c1.3,0.7,2.5,1.5,3.7,2.3c47.3,42,99.3,78.6,154.7,109.1c63.3,34.8,130.8,61.4,200.9,78.9
			c34.8,8.8,70.2,15.2,105.8,19.3c34.9,4,70,5.7,105.1,5.1c54.7-0.9,109.1-7.6,162.3-19.9c68.4-15.8,134.1-41.3,195.2-75.7
			c56.2-31.7,107.9-70.9,153.4-116.7c40.4-40.4,75.5-85.8,104.4-135.1c8.8-15,16.7-30.6,25-46c0.8-1.5,1.9-2.9,2.8-4.4l-1.3-125.7
			c-0.8,1.4-1.4,2.8-2,4.3c-23,71.8-58.4,138.9-104.7,198.3 M1088.6,490.6c-114.2-98.3-249.3-169.3-395-207.6
			c-28.6-7.5-57.5-13.7-86.5-18.5c-39.8-6.5-79.9-10.5-120.1-12c-45.6-1.7-91.2-0.1-136.6,5c-82.2,9.1-162.7,29.7-239.1,61.2
			c-26.4,10.9-52.3,23.2-77.4,36.8c-2.4,1.3-4.9,2.4-7.3,3.6l0.8,80.2c2-0.9,3.9-1.9,5.7-2.9c23.1-15,47-28.8,71.6-41.2
			c57-28.9,117.4-50.9,179.7-65.4c56.9-13.3,115-20.6,173.3-21.7c56.6-1.1,113.2,3.3,169,13.2c107.2,19,210,57.1,303.6,112.6
			c79,46.6,150.6,104.9,212.3,172.7c37.1,40.7,70.3,84.8,99.3,131.6c1.2,1.6,2.4,3.2,3.8,4.7c-0.3-27.8-0.5-55.6-0.8-83.5
			c-2.9-3.6-6-7.2-8.8-10.9c-43.1-57.9-92.6-110.8-147.3-157.8 M983.6,518.5c-55-39.9-114.5-73.1-177.4-98.8
			c-44.9-18.4-91.4-32.8-138.9-43.2c-53.6-11.7-108.2-17.9-163.1-18.4c-75.7-1-151.1,9.2-223.9,30.3
			C224,404.7,169.8,427.7,119,456.9c-29.4,16.9-57.6,36-84.2,57c-2.1,1.7-4.4,3.1-6.6,4.6c0.3,26,0.5,52,0.8,78
			c1.2-0.7,2.4-1.5,3.4-2.4c46.9-46,100.5-84.7,159-114.7c62.6-32.2,129.7-54.6,199.1-66.4c52.4-9.1,105.7-12.3,158.9-9.7
			c70.8,3.4,140.9,16.8,208,39.7c151.2,51.3,283.2,147.3,378.4,275.4c34.2,46,63,95.7,85.8,148.3c8.8,20.4,15.9,41.3,23.8,62
			c0.6,1.7,1.4,3.3,2.2,5l-1-101.9c-3.9-7.6-7.9-15.1-11.8-22.7c-28.3-54.4-62.5-105.4-102.1-152.2
			C1088.7,604.9,1038.7,558.4,983.6,518.5 M728.1-125.5C853-87.9,972.7-35,1084.6,31.9c51.4,30.7,101,64.1,148.7,100.2
			c1.9,1.5,4.1,2.6,6.2,3.9L1238-18c-2.1-1.2-4.3-2.3-6.3-3.6c-21.6-14.1-42.8-28.8-64.8-42.4c-24.8-15.4-50.2-29.9-75.3-44.9
			c-1.5-1-2.9-2.2-4.2-3.5l-364.7-16C724.4-127.2,726.2-126.3,728.1-125.5 M1104.5,1759.4c-60.8,51.6-128.7,93-203.6,124.1
			c-90.5,37.4-187.1,58.2-285,61.5c-7.8,0.2-15.7,0.1-23.6,0.2c-1.8,0.1-3.6,0.3-5.4,0.7l331,14.5c16.4-7.5,33-14.6,49.1-22.5
			c108.2-53.4,203.4-130,278.6-224.3c3.1-3.9,6.3-7.6,9.5-11.4c-0.4-37.9-0.8-75.9-1.1-113.8c-2.5,3.4-5,6.8-7.4,10.3
			C1207.2,1658.7,1159.3,1712.9,1104.5,1759.4 M345.9,1912.2c-82.6-23.2-161.5-58.1-234.2-103.5c-22.8-14.2-44.9-29.3-66.3-45.3
			c-1.5-1-3.1-2-4.8-2.8l1.1,108.4c1.1,0.7,2.2,1.4,3.3,2.1c27.8,18,56.5,34.6,86,49.8c3.5,1.8,6.9,3.7,10.3,5.6l367,16
			c-1.4-0.4-2.9-0.8-4.3-1C450.4,1937.4,397.9,1926.8,345.9,1912.2 M1252.5,1826.9c-47.1,51.5-100,97.3-157.7,136.4
			c-2.2,1.5-4.5,2.9-6.8,4.4l147.5,6.4c6-5.5,12.1-11.1,18.1-16.5c1.3-1.1,2.7-2.1,4.2-3.1c-0.4-43.7-0.9-87.4-1.3-131.1
			C1255,1824.5,1253.7,1825.7,1252.5,1826.9 M407.3,1503c-73.7-36.6-136-86.6-186.9-150.1c-32.6-40.5-59-85.5-78.4-133.7
			c-22.9-56.5-35.3-116.8-36.5-177.7c-0.5-29,1.7-57.9,6.6-86.5c6.9-41.2,19.4-81.3,37.1-119.2c28.3-60.6,69.7-114.1,121.3-156.7
			c50.1-41.6,107.2-71.7,171.3-90.5c43-12.5,87.4-19.3,132.2-20.2c32.5-0.7,65.1,1.7,97.2,7.1c41.5,6.8,82.1,18.4,121,34.6
			c68.5,28.3,130.6,70.1,182.6,122.9c45.1,45.4,81.7,98.6,108,157c28.5,62.9,43.8,130.9,44.9,199.9c-0.2,7.7-0.5,15.5-0.7,23.2
			c-0.9,29.1-4.6,58-11.2,86.3c-16.8,72.9-49.2,138-97.8,194.9c-42.7,50-94.3,89.3-154.8,118c-65.8,31.1-136.2,47-211.2,47.6
			c-41.5,0.3-82.8-4.3-123.3-13.6C486.7,1536.8,445.9,1522.2,407.3,1503 M446.7,1478.2c43.2,19.6,89,32.9,136,39.7
			c51.7,7.7,104.4,7.1,155.9-1.9c61-10.7,116.9-32.3,167.7-64.9c70.3-45.2,123-105.1,157.9-179.7c19-40.6,31.5-84,37-128.6
			c4.5-35.3,4.7-71,0.7-106.4c-6.3-55.6-22.4-109.7-47.6-159.6c-26.6-53.2-62.4-101.3-105.8-141.9
			c-55.2-52.3-121.3-91.8-193.5-115.7c-52.3-17.6-107.2-26.4-162.5-25.9c-92.8,0.8-177.1,25.3-251.9,74.6
			C248.1,729,188.2,813.2,159.9,919.1c-7.8,29.3-12.3,59.4-13.4,89.7c-0.3,8.5-0.6,16.9-0.8,23.1c2.2,101.8,32.6,193.9,93.3,277.8
			C292.7,1383.8,362.2,1439.9,446.7,1478.2 M669.8,1488.7c-46.8,1.1-93.5-5.1-138.5-18.3c-103.6-30.4-188.1-88-253.5-172.8
			c-28.6-37.1-51.3-78.3-67.3-122.4c-22.4-61.7-30.7-124.5-24.9-188.2c9.5-105.5,60.3-203,141.5-271.2c35-29.5,74.6-52.9,117.3-69.3
			c57.6-22.3,118-32.2,181.4-29.7c10.3,0.9,20.6,1.7,30.9,2.8c36,3.8,71.4,11.8,105.5,23.8c58.5,20.3,112.6,51.6,159.3,92.2
			c44.6,38.3,81.7,84.7,109.3,136.6c27.2,50.7,44.3,106.1,50.3,163.3c3.9,36.6,3,73.6-2.9,110c-8.3,52.3-26.8,102.4-54.6,147.5
			c-27.3,44.5-63,83.2-105.3,113.9C845.8,1459.4,762.9,1486.7,669.8,1488.7 M758,1447.8c74.7-16.5,138.6-50.5,191.8-102
			c53.4-51.8,88.1-114.3,104.8-186.7c8.2-35.6,11.3-72.2,9-108.7c-4.2-69.8-25.2-135.5-63.1-197.1c-31.3-50.8-72.4-94.8-121-129.4
			c-52-37.3-109.2-62.7-171.6-76.2c-33-7.1-66.6-10.4-100.3-9.8c-43.2,0.6-86.1,8-127.1,21.8c-40.9,13.7-79.3,34-113.5,60.2
			C323.4,753,287.5,795.4,262,844c-20,37.8-33.3,78.7-39.4,121c-1.2,8.3-2.3,16.7-2.9,25.1c-0.9,12.2-1.2,24.4-1.6,32.9
			c2,93.6,30,176.4,85.9,251.3c52.8,70.8,121.4,122,204.9,154c34,13,69.4,21.7,105.6,26C663.1,1460.1,711,1458.1,758,1447.8
			 M917.5,1341.8c-74.4,61.2-162.5,89-262.8,86c-17.7-0.8-35.3-2.7-52.8-5.8c-50.1-8.6-98.2-26.2-142-51.8
			c-77.7-45.5-135.1-108-172.4-187.7c-30.4-65.1-41.6-132.5-34.5-201.8c3.9-38.8,14.3-76.7,30.6-112.1
			c24-51.9,58.5-95.9,104.2-131.3c71.4-55.2,154.5-81.4,248.4-79.3c40.8,0.9,80.8,8.3,120,21.3c59.2,19.5,113.5,51.7,159,94.3
			c29.7,27.6,55.2,59.3,75.7,94.2c34.7,59.1,53.1,121.9,55.1,188.2c1.4,42.9-5,85.8-18.8,126.4
			C1005.7,1245.7,969.4,1299.1,917.5,1341.8 M862.9,1349.5c60.2-35.4,104.5-84.9,133.6-147.1c16-34.4,26-71.3,29.4-109.1
			c1.1-12.1,1.3-24.4,1.7-32.7c-1.7-81.8-26-153.6-74-218.8c-40.2-54.6-91.8-96.2-154.1-125.1c-48.3-22.4-98.8-34.8-151.3-36.2
			c-101.3-2.7-187.9,28.8-258.7,94.8c-51,47.5-83,106-97.4,174.1c-6.5,30.7-8.6,62.1-6.3,93.4c5.7,77.7,34,148.2,85.4,210.8
			c46.7,56.9,105.4,97.8,175.3,122.9c27.6,9.9,56.3,16.7,85.4,20C715.8,1406.2,793,1390.7,862.9,1349.5 M889,1303.5
			c-63.7,50.4-138.6,73-223.2,70.5c-69.9-3.4-137.5-26.5-194.8-66.7c-34.5-24-64.6-53.9-88.8-88.3c-37.1-52.6-58-109.9-62.7-171.9
			c-3.5-43.6,2.3-87.5,17-128.7c23.1-64.5,63.4-116.2,121-154.7c49.9-33.3,106.1-51.3,168.1-54.7c34.8-1.8,69.7,1.5,103.6,9.8
			c41.6,10,81.2,27.3,116.8,51c60.5,40.2,104.9,92.8,133.1,157.8c26.5,61.4,34.2,124.2,22.6,187.9C987.8,1192,950.2,1255,889,1303.5
			 M986.9,1061.2c-1.2-167.5-142.3-314-321.9-322.5c-176.6-8.3-319.3,124.1-317.9,294.1c1.4,168.4,143,314.1,322.5,322.6
			C849.6,1362.5,988.1,1228.3,986.9,1061.2 M671.8,1341.7c-163.9-7.2-298-140.4-299.8-297.3c-1.8-155.2,126-280.3,294-273.5
			s299.4,142.8,300.6,298.6C967.9,1226.7,835.7,1348.9,671.8,1341.7 M825.5,1295.8c65.2-39,104.4-96.2,118-170.3
			c2.7-14.7,3.7-29.5,3.7-51.6c-2.7-73.6-34.8-142.5-98.9-198c-42.3-36.7-91.6-59.1-146.8-68.2C605.5,791.8,509.6,825,450,896
			c-31.7,37.8-50.6,81.4-55.8,130.9c-7,66.8,10.1,129,51.5,185.4c43.7,59.5,102.6,97.8,175.2,114.1
			C694.7,1342.9,763.5,1332.8,825.5,1295.8 M787.8,1308.1c-11.4,5-23.1,9.1-35.1,12.2c0.1-2.5,0.1-5-0.1-7.5
			c-1.6-10.5-4.6-20.8-8.9-30.6c-11.3-25.5-29-46.2-52.3-62.3c-38.2-26.4-80-37.1-125-30c-27.9,4.4-51.8,16.2-70.4,36.4
			c-3.6,3.9-6.8,8.2-10.1,12.2l-2.3-0.8c-0.1,0.2-0.3,0.4-0.4,0.6l17.3,18.2c17.7-12.7,28.8-18.3,44.1-22.2
			c36.3-9.3,71.8-4.6,106.5,11.6c28.9,13.6,51.9,33.6,67.8,60.8c3.5,6,6.2,12.4,9.6,19.3l-37.8,3.5
			c-45.3-55.4-119.8-67.8-162.5-50.8c2.7,2.3,5.3,4.6,7.9,6.9c-2-0.9-4-1.9-5.9-3.1c-22.3-14.8-42.3-32.2-59.1-52.7
			c-49.4-60.4-69.4-127.4-56.3-200.5c13.2-74,55.2-128.4,122.8-163.2c48.3-24.9,100.9-32.4,156.8-24.2c35.2,5.2,69,17,99.7,35
			c86.6,50.3,138,141.7,132.7,234.4c-2.1,36.3-12,70.1-30.3,101.1C871,1255.7,834.7,1287.4,787.8,1308.1 M901.4,1168
			c10.5-40.9,8.3-82.2-5.8-123.5c-27.6-80.6-98.9-142.7-183.4-162.5c-72.8-17.1-139.2-5.8-197.7,34.8c-47.5,33.1-76.6,78.7-86,135.6
			c-10.8,65.9,7.2,126.2,50.5,180.9c0.6,0.7,1.3,1.3,1.9,2l0.8-0.4c-0.5-1.1-1.2-2.1-2-3.1c-3.8-3.6-3.1-7.2-1.3-11.3
			c8.3-19.7,22.1-36.6,39.8-48.8c20.9-14.6,44.7-22.6,70.9-24.3c50-3.2,94.5,12,132.8,45.3c26.8,23.3,43.8,52,49.3,85.9
			c1.4,8.4,0.9,16.9,1.2,25.4c0.1,2.5-0.3,5-0.5,8.5l13.9-5.9c3.2-11.2,5.7-22.2,6.2-33.6c1.6-37.7-11.3-71.2-36.6-101
			c-26.3-31-59.8-50.8-99.3-60.7c-34-8.5-67.3-7.8-99.3,3.6c-41.7,14.8-70.3,42.2-83.1,83.9c-1.3,4.2-2,8.7-3,13
			c-0.2,1-0.5,1.9-0.9,3.5c-2.7-2.7-3.5-4.9-3.5-8.1c0.3-13.8,1.6-27.3,5.5-40.4c11.6-38,36.1-65.8,72.3-83.7s75.3-21.6,116.3-13
			c40.7,8.5,75.9,27.5,104.4,57.7c32.9,34.8,49,75.2,45.8,121c-1.2,16.8-5.9,33.2-13.6,48.1c-0.8,1.3-1.1,2.9-1,4.4
			c5.8-3.5,11.8-6.8,17.4-10.6c45-30.2,74.8-71,88.1-123 M536.5,1286l-0.5-0.2l0.4,0.3L536.5,1286z M542,1289.6l0.1-0.1l-5.6-3.5
			l-0.1,0.1L542,1289.6 M542,1289.6l0.3,0.1l-0.2-0.2L542,1289.6 M543.2,1290.7c1.1,0.8,2.4,1.2,3.8,1.2l-4.7-2.1
			C542.5,1290.1,542.8,1290.5,543.2,1290.7 M851.5,1019.9c-38.5-56.8-92.6-91.3-160.4-104.2c-52.5-9.9-102.2-3.3-147.6,20.7
			c-57.9,30.6-92.9,78.1-103.2,142.1c-6.4,39.8,0.2,78.7,17.8,116.5c0.8,1.6,1.7,3.2,2.7,5.1l1.3-2.1l0,0l0,0l0,0l0,0
			c-1.1-1.7-2.1-3.4-2.9-5.3c-21.4-63.3-13.5-121.3,26.6-172.3c32.5-41.4,77.2-64.3,131.6-70.1c66.3-7.1,125.9,11.9,177.7,55.6
			c37,31.3,61,70.3,70,116.2c12,60.8-3.5,113.5-44.7,158c-1.2,1.3-2.5,2.6-3.7,3.9c-0.3,0.7-0.5,1.4-0.6,2.1
			c5.3-4.7,10-8.5,14.2-12.7c32.7-32.2,52.1-71.2,56.7-117C892,1107.9,880.1,1062,851.5,1019.9 M462.2,1188.4
			c-2.9-47.4,13.2-87,47.6-118.7c27.8-25.6,62-39.3,101-42.7c45.8-4,89,6.3,128.8,31.2c46.5,29,77,69,87.8,121.1
			c8.3,39.8,1.1,76.4-20.2,109.8c-1.2,1.6-2,3.4-2.4,5.3c0.8-0.6,1.5-1.3,2.2-1.9c24.2-26.9,38.8-58.2,41.8-94.6
			c3.6-42.3-7.8-81.7-33.2-117.8c-32.6-46.2-77.7-75.1-133.2-87.5c-50.3-11.2-98-5.5-141.3,18.7c-48.4,27-76.8,68-83.8,122.7
			c-2.4,19.7-1.2,39.6,3.8,58.8c0.5,1.8,0.8,3.6,1.1,5.3C462.1,1194.9,462.4,1191.7,462.2,1188.4"/>
	</g>
</g>
<g>
	<path class="st2" d="M1101,127.5c-54.6,0.6-103.9,12.3-141.9,31.4c-23.8,12-42,32-78,36.5c-36.1,4.4-58-15.7-81.8-25.1
		c-12.2-4.8-27.9-7.3-42-2.7c-8.5,2.8-129.8,36.5-137.8,39.6c-76.4,22.1-68.5-30.4-181.7-2c-31.5,7.9-62.6,16.8-96.7,20.7
		c-21.2,2.4-40.1,0.3-48.4-10.6c-8.5-11.1-7.6-23.7-6.1-35.3c1.4-11.3,4.6-22.6,5.1-34c0.3-6.7,1.3-17.9-12.4-21.9
		c-6.9-2-15.5-1.4-22.9-0.4c-5,0.7-10.9,1.6-15.2,3.1c-4.3,1.5-7.9,3.7-12,5.3c-29.7,11.7-65.7,19.7-100.7,26.6
		C86.8,167,43.3,173.6-1,178.2v8.5c42.4-6.2,83.9-14.1,123.8-23.1c33.6-7.6,67.4-16,97.5-26.7c11.9-4.2,34-13.1,49.8-7.7
		c12,4.1,8.6,14.9,7.2,20.9c-2.5,11.4-7.4,22.6-10.4,33.9c-3,11.4-5,23.4,0.9,34.7c2.9,5.6,7.9,11.3,18.2,14.4
		c6.4,2,13.8,2.7,21.3,2.7c4.4,0,8.7-0.2,12.9-0.6c37-3.1,71.5-11.2,105.2-20.5c119.7-33,140.2,22.3,194.1,5.1
		c7.7-3.2,128.5-36.8,136-39.7c14-5.4,29.7-5.2,44.3-0.6c26.3,8.3,49.8,27.8,86,22.6c34.8-5,53.8-25,76.5-37.1
		c39.8-21.3,94.1-34.4,153.1-34.2c28.7,0.1,56.5,2.4,83.5,6.4v-2.5c-29.9-4.5-60.6-7.2-92.1-7.2C1104.9,127.5,1103,127.5,1101,127.5
		z"/>
	<path class="st2" d="M1078.6,122.3c-49.8,2-96.3,12.4-130.5,30.7c-20.2,10.8-38.3,27.8-71.7,29.7c-35.9,2-53.7-20.8-72.2-32
		c-8.8-5.3-23.3-11.8-38.5-8.5c-9,2-130.7,36.3-139.4,38.7c-2.3,0.6-4.6,1.3-6.9,1.9c-43.2,13.3-55.6-21-90.6-13.3
		c-34.7,7.5-69.2,15-70.2,15.3c-26.6,5.8-51.3,13.8-78.9,18.5c-15.1,2.5-35.4,4.5-45.7-3.3c-11.4-8.6-12.7-20.7-14.1-30.6
		c-1.6-11.3-1.4-22.7-4.2-33.9c-1.8-7.2-4.8-17.4-19.2-21.2c-8.1-2.2-17.8-1.5-26.2-0.2c-5.4,0.8-12.1,1.9-16.4,3.9
		c-5,2.2-9.1,5.1-14.2,7.3c-27.7,12.2-63.6,19.5-98.5,24.9C95.4,157.2,47.4,161.3-1,162.7v8.2c46.2-3.2,91.7-8.6,135.2-16.3
		c34.6-6.1,70.2-13.6,98.9-25.3c4.8-1.9,8.7-4.2,13.3-6.2c4.7-2,11.3-3.1,17.3-3.9c7.5-1,16.1-1.6,23.3,0.3
		c14.1,3.8,15.4,14.2,16.2,21.1c1.3,11.6-0.6,23.2-0.7,34.7c-0.1,11.1,0,23.7,10.1,34c6.1,6.2,16.6,8.3,28.2,8.3
		c6.6,0,13.5-0.7,20.1-1.7c30.4-4.5,57.7-13.3,86.4-19.7c2.8-0.6,43.5-9.5,82.1-17.9c34.7-7.5,37.8,31.5,90.1,18.1
		c9.2-3,130.9-37.2,140.3-40c14.3-4.2,29.4-0.3,40.2,4.8c21.8,10.2,41.9,31.8,78.2,28.3c34.9-3.4,52.8-21.8,75-33.4
		c35.7-18.6,82.8-29.6,134.5-31.2c37.7-1.2,75.2,2.2,111.3,7.7v-3.1c-32.3-4.6-65.8-7.7-99.4-7.7
		C1092.6,121.9,1085.6,122.1,1078.6,122.3z"/>
	<path class="st2" d="M1062.4,117.8c-43.7,3-85,12-116,27.8c-13.2,6.8-22,14.6-38.5,19.6c-9.2,2.8-19.8,5.1-30.8,4.7
		c-16.7-0.6-27.7-7.7-35.3-14.4c-9.4-8.2-15.7-17.1-24.3-25.5c-5.3-5.2-16.2-15.6-30.6-15.6c-0.4,0-0.7,0-1.1,0
		c-7.1,0.3-16,3.4-22.6,4.8c-7.8,1.7-129.2,33.8-137.2,35.3c-2.1,0.4-4.3,0.8-6.6,1.3c-56.6,13.1-57-12.9-91.7-5.2
		c-47.6,10.6-102.3,22.7-111.9,24.7c-11.7,2.4-33,7-45.2,3.1c-14.5-4.6-18.9-18.3-22.1-25.8c-4.4-10.3-7-20.7-12.8-30.8
		c-4.2-7.3-10.9-16.7-27.2-19.3c-9.1-1.4-18.9-0.2-27.5,1.5c-6,1.2-12.7,2.7-17.3,5c-5.9,3-10.6,6.6-16.8,9.5
		c-27.9,13.2-65,20.8-102.1,25.1c-47.3,5.5-96.8,6.8-146,4.9v7.3c48.7,0.1,97.3-2.6,143.7-8.8c36.4-4.9,73.5-12.4,101.5-25.3
		c5.5-2.5,9.8-5.8,15.5-8.2c4.7-2,10.8-3.3,16.7-4.2c8.3-1.4,17.7-2.2,26.1-0.5c15.5,3.3,20.2,13.2,23.1,20.5
		c4.3,11,5.5,22.2,8.5,33.3c2.3,8.6,4.8,21.1,17.4,27.9c4.8,2.6,11.2,3.5,18,3.5c10,0,21-1.9,28.9-3.5c14-2.7,77.9-17.2,130.6-29.1
		c33.5-7.6,41.9,23,90.6,9c5.5-1.1,124.4-32.7,129.6-34.1c7.9-2,17.1-6,25.6-7c14.6-1.8,27.4,6.4,34.3,11.5
		c15.9,11.8,31.4,36.5,67,35.9c33-0.6,51.1-16.9,70.8-27.3c32.3-17.1,76.7-26.8,123.4-29.3c43.1-2.3,86.9,0.8,128.8,6.3v-4.3
		C1154.3,117.2,1107.9,114.6,1062.4,117.8z"/>
	<path class="st2" d="M1123.6,134c-57.8,0-109.8,12.8-150.4,33c-18.7,9.3-32,20.7-50.3,30.1c-8.8,4.5-19.1,8.7-31.4,10.7
		c-36.4,5.7-61.2-13.7-89.1-21.2c-16-4.3-31.7-3.2-45.5,2.7c-7.7,3.3-129.1,37.4-137.4,41c-94.6,31.9-55.5-42.4-204.6-8.4
		c-36.5,8.3-74.4,17.8-114.3,19.7c-64.6,3.1-59.8-35.5-51.2-56.8c4.4-11,10.9-21.8,15.1-32.9c1.9-5,7.2-15.3-3.5-18.8
		c-13.7-4.6-36.3,4-46.9,7.5c-32.8,10.8-67.5,20.3-102.8,29C75,178.4,37.5,186.7-1,193.7v7.9c34.2-7.7,67.7-16.2,100.2-25.2
		c35.3-9.7,69.5-20.1,103.9-30.5c9.2-2.8,18.4-5.6,28.3-7.7c4.9-1,13.7-3,18.9-1.3c9,2.9,0.7,12.7-1.6,16.4
		c-6.5,10.2-14.5,20.2-20.5,30.4c-6.8,11.6-12.1,23.9-8,35.9c5.3,15.6,23.6,26.9,56.7,26.9c0.3,0,0.7,0,1,0
		c43.6-0.3,86.3-9.5,126.5-18.2c159.6-34.3,121.9,33.5,215.1,13.3c10.4-4.5,133.4-39.6,142.3-43.7c13.7-6.3,29.2-8.5,46.6-4.5
		c29.3,6.8,55,26.3,91.6,20.6c12.5-2,22.8-6.4,31.5-11.1c18-9.7,31.7-21.1,50.4-30.5c44.3-22.4,103.1-36.2,167.2-34.1
		c17,0.6,33.6,2,49.9,4.1v-3c-22.6-3.1-45.8-5.1-69.7-5.4C1127.4,134,1125.5,134,1123.6,134z"/>
	<path class="st2" d="M977.8,117.4c-11.9,4.2-34,13.1-49.8,7.7c-12-4.1-8.6-14.9-7.2-20.9c2.5-11.4,7.4-22.6,10.4-33.9
		c3-11.4,5-23.4-0.9-34.7c-2.9-5.6-7.9-11.3-18.2-14.4c-6.4-2-13.8-2.7-21.3-2.7c-4.4,0-8.7,0.2-12.9,0.6
		c-37,3.1-71,13.4-105.2,20.5C760.8,42,633.4,75.1,619.5,76.6c-60.7,16.1-58.8-31.1-95.4-22.4c-38.5,9.2-77.8,18.5-81.6,20
		c-14,5.4-29.7,5.2-44.3,0.6c-26.3-8.3-49.8-27.8-86-22.6c-34.8,5-53.8,25-76.5,37.1c-39.8,21.3-94.1,34.4-153.1,34.2
		c-28.7-0.1-56.5-2.4-83.5-6.4v2.5c29.9,4.5,60.6,7.2,92.1,7.2c1.9,0,3.9,0,5.8,0c54.6-0.6,103.9-12.3,141.9-31.4
		c23.8-12,42-32,78-36.5c36.1-4.4,58,15.7,81.8,25.1c12.2,4.8,27.9,7.3,42,2.7c4.3-1.4,43.6-10.6,82.2-19.7
		c37.1-8.8,31.4,31.5,96.6,17.7c9.7-1.4,132.6-33.8,140.7-35.5c31.7-6.9,62.6-16.8,96.7-20.7C878.2,26,897,28.2,905.3,39
		c8.5,11.1,7.6,23.7,6.1,35.3c-1.4,11.3-4.6,22.6-5.1,34c-0.3,6.7-1.3,17.9,12.4,21.9c6.9,2,15.5,1.4,22.9,0.4
		c5-0.7,10.9-1.6,15.2-3.1c4.3-1.5,7.9-3.7,12-5.3c29.7-11.7,65.7-19.7,100.7-26.6c41.7-8.2,85.2-14.8,129.5-19.4v-8.5
		c-42.4,6.2-83.9,14.1-123.8,23.1C1041.6,98.3,1007.9,106.7,977.8,117.4z"/>
	<path class="st2" d="M964.9,124.9c-4.8,1.9-8.7,4.2-13.3,6.2c-4.7,2-11.3,3.1-17.3,3.9c-7.5,1-16.1,1.6-23.3-0.3
		c-14.1-3.8-15.4-14.2-16.2-21.1c-1.3-11.6,0.6-23.2,0.7-34.7c0.1-11.1,0-23.7-10.1-34c-6.1-6.2-16.6-8.3-28.2-8.3
		c-6.6,0-13.5,0.7-20.1,1.7c-30.4,4.5-57.7,13.3-86.4,19.7c-5.4,1.2-124.9,32.8-131.2,33.9c-66.5,14.3-59.6-23.3-96.6-14.5
		c-39.4,9.3-79.9,18.9-84.7,20.3c-14.3,4.2-29.4,0.3-40.2-4.8c-21.8-10.2-41.9-31.8-78.2-28.3c-34.9,3.4-52.8,21.8-75,33.4
		c-35.7,18.6-82.8,29.6-134.5,31.2c-37.7,1.2-75.2-2.2-111.3-7.7v3.1c32.3,4.6,65.8,7.7,99.4,7.7c7,0,14-0.1,21-0.4
		c49.8-2,96.3-12.4,130.5-30.7c20.2-10.8,38.3-27.8,71.7-29.7c35.9-2,53.7,20.8,72.2,32c8.8,5.3,23.3,11.8,38.5,8.5
		c9-2,17.2-6,25.8-8.4c1.1-0.3,32.8-7.3,66-14.5c36.6-8,32.2,23.7,95.5,12.1c2.2-0.4,4.3-0.9,6.3-1.3
		c26.6-5.8,164.8-44.1,192.4-48.8c15.1-2.5,35.4-4.5,45.7,3.3C875.3,63,876.6,75.1,878,85c1.6,11.3,1.4,22.7,4.2,33.9
		c1.8,7.2,4.8,17.4,19.2,21.2c8.1,2.2,17.8,1.5,26.2,0.2c5.4-0.8,12.1-1.9,16.4-3.9c5-2.2,9.1-5.1,14.2-7.3
		c27.7-12.2,63.6-19.5,98.5-24.9c45.7-7.1,93.7-11.2,142.2-12.6v-8.2c-46.2,3.2-91.7,8.6-135.2,16.3
		C1029.2,105.7,993.5,113.3,964.9,124.9z"/>
	<path class="st2" d="M1098.8,77.9c-35.3,9.7-69.5,20.1-103.9,30.5c-9.2,2.8-18.4,5.6-28.3,7.7c-4.9,1-13.7,3-18.9,1.3
		c-9-2.9-0.7-12.7,1.6-16.4c6.5-10.2,14.5-20.2,20.5-30.4c6.8-11.6,12.1-23.9,8-35.9c-5.3-15.6-23.6-26.9-56.7-26.9
		c-0.3,0-0.7,0-1,0c-43.6,0.3-86,11.4-126.5,18.2C774.9,29.1,640,62.7,619.5,63.1c-68.6,15.6-60.8-38.2-98.2-28.9
		c-39.8,9.9-80.5,20.1-85.1,22.1c-13.7,6.3-29.2,8.5-46.6,4.5c-29.3-6.8-55-26.3-91.6-20.6c-12.5,2-22.8,6.4-31.5,11.1
		c-18,9.7-31.7,21.1-50.4,30.5c-44.3,22.4-103.1,36.2-167.2,34.1c-17-0.6-33.6-2-49.9-4.1v3c22.6,3.1,45.8,5.1,69.7,5.4
		c1.9,0,3.8,0,5.7,0c57.8,0,109.8-12.8,150.4-33c18.7-9.3,32-20.7,50.3-30.1c8.8-4.5,19.1-8.7,31.4-10.7
		c36.4-5.7,61.2,13.7,89.1,21.2c16,4.3,31.7,3.2,45.5-2.7c3.9-1.7,43.3-11.2,81.9-20.5c36.9-9,28.7,39.9,96.5,25.6
		c17.3-1.2,148.5-34.8,163.6-37.6c36.8-7,74.4-17.8,114.3-19.7c64.6-3.1,59.8,35.5,51.2,56.8c-4.4,11-10.9,21.8-15.1,32.9
		c-1.9,5-7.2,15.3,3.5,18.8c13.7,4.6,36.3-4,46.9-7.5c32.8-10.8,67.5-20.3,102.8-29c36.3-9,73.9-17.2,112.3-24.3v-7.9
		C1164.8,60.5,1131.3,69,1098.8,77.9z"/>
	<path class="st2" d="M1054,113c-38.7,3.9-76.9,11.8-105.4,25.7c-6.7,3.3-11.8,7.2-18.1,10.6c-4.6,2.5-11.3,4.2-17.5,5.6
		c-8.7,2-18.7,3.5-28.3,2.4c-16.7-1.9-24.9-10.6-30.2-17.9c-7-9.5-10.8-19.5-16.5-29.2c-3.8-6.5-10.5-20.1-25.5-22.8
		c-1.5-0.3-3.2-0.4-5-0.4c-5.1,0-11.1,0.9-15.3,1.5c-8.5,1.1-16.8,2.7-24.9,4.4c-8,1.7-134.3,35.4-147.9,38.1
		c-49,12.7-57.7-11.3-93.8-3.5c-37.4,8.1-75.4,16.3-78.3,16.9c-8.5,1.7-17,3.5-25.6,5.1c-5.7,1.1-15.2,3.6-21.4,3.1
		c-14.4-1.1-23.7-13-28.2-18.5c-7.5-9.2-12.7-18.8-21.2-27.8c-6.6-6.9-16.4-14.9-33.2-16c-10.1-0.7-20.1,1.2-28.8,3.5
		c-6.4,1.7-12.5,3.6-17.5,6.2c-7,3.6-12.4,8-19.6,11.6c-30.1,15.3-70.6,23.8-112.7,27.3C93,142.5,45.7,141.3-1,137.1v5.9
		c48.6,3.1,97.7,3.1,145-1.7c38.7-3.9,76.9-11.8,105.4-25.7c6.7-3.3,11.8-7.2,18.1-10.6c4.6-2.5,11.3-4.2,17.5-5.6
		c8.7-2,18.7-3.5,28.3-2.4c16.7,1.9,24.9,10.6,30.2,17.9c7,9.5,10.8,19.5,16.5,29.2c3.8,6.5,10.5,20.1,25.5,22.8
		c1.5,0.3,3.2,0.4,5,0.4c5.1,0,11.1-0.9,15.3-1.5c8.5-1.1,16.7-2.9,24.9-4.4c57.4-10.5,53.7-15.8,97.5-25.4
		c35.2-7.7,29.4,20.7,91.4,7.8c6-1.2,125.4-32.8,131.2-33.9c8.5-1.7,17-3.5,25.6-5.1c5.7-1.1,15.2-3.6,21.4-3.1
		c14.4,1.1,23.7,13,28.2,18.5c7.5,9.2,12.7,18.8,21.2,27.8c6.6,6.9,16.4,14.9,33.2,16c10.1,0.7,20.1-1.2,28.8-3.5
		c6.4-1.7,12.5-3.6,17.5-6.2c7-3.6,12.4-8,19.6-11.6c30.1-15.3,70.6-23.8,112.7-27.3c46.1-3.7,93.5-2.6,140.2,1.7v-5.9
		C1150.4,108.2,1101.3,108.3,1054,113z"/>
	<path class="st2" d="M953.8,132.5c-5.5,2.5-9.8,5.8-15.5,8.2c-4.7,2-10.8,3.3-16.7,4.2c-8.3,1.4-17.7,2.2-26.1,0.5
		c-15.5-3.3-20.2-13.2-23.1-20.5c-4.3-11-5.5-22.2-8.5-33.3c-2.3-8.6-4.8-21.1-17.4-27.9c-4.8-2.6-11.2-3.5-18-3.5
		c-10,0-21,1.9-28.9,3.5c-22.9,4.4-157.5,41.2-180.2,46c-66.5,13.1-59.7-16.2-96.8-8.1c-35.9,7.9-71.3,15.6-73.9,16.3
		c-7.9,2-17.1,6-25.6,7c-14.6,1.8-27.4-6.4-34.3-11.5c-15.9-11.8-31.4-36.5-67-35.9c-33,0.6-51.1,16.9-70.8,27.3
		c-32.3,17.1-76.7,26.8-123.4,29.3c-43.1,2.3-86.9-0.8-128.8-6.3v4.3c44.7,4.9,91.1,7.5,136.6,4.4c43.7-3,85-12,116-27.8
		c13.2-6.8,22-14.6,38.5-19.6c9.2-2.8,19.8-5.1,30.8-4.7c16.7,0.6,27.7,7.7,35.3,14.4c9.4,8.2,15.7,17.1,24.3,25.5
		c5.3,5.2,16.2,15.6,30.6,15.6c0.4,0,0.7,0,1.1,0c7.1-0.3,16-3.4,22.6-4.8c7.8-1.7,15.7-3.5,23.7-5c1-0.2,31.3-6.8,63.7-13.8
		c37.1-8.1,46.2,16.2,97.4,4.3c16.6-3.5,145.9-38.2,162.6-41.5c11.7-2.4,33-7,45.2-3.1c14.5,4.6,18.9,18.3,22.1,25.8
		c4.4,10.3,7,20.7,12.8,30.8c4.2,7.3,10.9,16.7,27.2,19.3c9.1,1.4,18.9,0.2,27.5-1.5c6-1.2,12.7-2.7,17.3-5c5.9-3,10.6-6.6,16.8-9.5
		c27.9-13.2,65-20.8,102.1-25.1c47.3-5.5,96.8-6.8,146-4.9v-7.3c-48.7-0.1-97.3,2.6-143.7,8.8C1018.9,112.1,981.7,119.6,953.8,132.5
		z"/>
</g>
</svg>
