<?xml version="1.0" encoding="utf-8"?>
<!-- Generator: Adobe Illustrator 25.2.1, SVG Export Plug-In . SVG Version: 6.00 Build 0)  -->
<svg version="1.1" id="Layer_1" xmlns="http://www.w3.org/2000/svg" xmlns:xlink="http://www.w3.org/1999/xlink" x="0px" y="0px"
	 viewBox="0 0 103.2 52" style="enable-background:new 0 0 103.2 52;" xml:space="preserve">
<style type="text/css">
	.st0{fill:#1F140F;}
</style>
<g>
	<g>
		<path class="st0" d="M28.4,8.5h3.4v1.1h-4.5V1.8h1.2V8.5z"/>
		<path class="st0" d="M33.7,8.5h3.4v1.1h-4.5V1.8h1.2V8.5z"/>
		<path class="st0" d="M42.5,8.5v1.1H38V1.8h4.5v1.1h-3.3v1.8h3v1.1h-3v2.7H42.5z"/>
		<path class="st0" d="M51.4,5.3v0.5c0,2-1.3,4-3.9,4c-2.4,0-4.1-1.6-4.1-4c0-2.4,1.7-4.1,4.1-4.1c1.3,0,2.3,0.5,3,1l-0.8,1
			c-0.5-0.5-1.3-0.8-2.3-0.8c-1.7,0-2.8,1.2-2.8,2.9c0,1.7,1.1,2.9,2.9,2.9c1.7,0,2.6-1.2,2.6-2.2h-2.5V5.3H51.4z"/>
		<path class="st0" d="M60.2,5.7c0,2.4-1.7,4.1-4.1,4.1c-2.3,0-4.1-1.7-4.1-4.1c0-2.4,1.7-4.1,4.1-4.1C58.5,1.6,60.2,3.3,60.2,5.7z
			 M53.3,5.7c0,1.7,1.1,2.9,2.8,2.9c1.6,0,2.8-1.2,2.8-2.9s-1.1-2.9-2.8-2.9C54.5,2.8,53.3,4,53.3,5.7z M56.5,1.3h-0.8L56.7,0h1.4
			L56.5,1.3z"/>
		<path class="st0" d="M65.8,8.5h3.4v1.1h-4.5V1.8h1.2V8.5z"/>
		<path class="st0" d="M74.7,7.7h-3.4l-0.7,1.9h-1.3l3.2-7.8h1.1l3.2,7.8h-1.3L74.7,7.7z M74.3,6.6L73,3.3l-1.3,3.3H74.3z"/>
		<path class="st0" d="M7.6,19.5H6.1l-3.7-4.8h0v4.8H0.7v-7.8h1.5l3.7,4.8h0v-4.8h1.7V19.5z"/>
		<path class="st0" d="M15.5,16.4c0,2-1.1,3.3-3.3,3.3c-2.2,0-3.3-1.3-3.3-3.3v-4.6h1.8v4.5c0,1,0.5,1.7,1.5,1.7
			c1,0,1.5-0.7,1.5-1.7v-4.5h1.8V16.4z"/>
		<path class="st0" d="M21.7,17.9v1.6h-4.9v-7.8h4.8v1.6h-3.1v1.2h2.8v1.6h-2.8v1.8H21.7z"/>
		<path class="st0" d="M26.9,19.5H25l-3-7.8h2.1l1.8,5.6h0l1.8-5.6h2.1L26.9,19.5z"/>
		<path class="st0" d="M35.3,17.9h-3l-0.6,1.6h-1.9l3.1-7.8h1.8l3.1,7.8h-1.9L35.3,17.9z M34.8,16.4l-1-2.8l-1,2.8H34.8z"/>
		<path class="st0" d="M40.9,15.6c0-2.5,1.8-4.1,4.3-4.1c1.2,0,2.1,0.4,2.8,0.9l-0.9,1.5c-0.5-0.3-1.1-0.6-1.9-0.6
			c-1.4,0-2.4,0.9-2.4,2.3c0,1.4,1,2.3,2.4,2.3c0.8,0,1.4-0.3,1.9-0.6l0.9,1.5c-0.7,0.5-1.6,0.9-2.8,0.9
			C42.8,19.7,40.9,18.1,40.9,15.6z"/>
		<path class="st0" d="M56.6,15.6c0,2.4-1.8,4.1-4.1,4.1c-2.3,0-4.1-1.6-4.1-4.1s1.8-4.1,4.1-4.1C54.8,11.5,56.6,13.2,56.6,15.6z
			 M50.3,15.6c0,1.4,1,2.3,2.2,2.3c1.2,0,2.2-0.9,2.2-2.3c0-1.4-1-2.3-2.2-2.3C51.2,13.3,50.3,14.2,50.3,15.6z"/>
		<path class="st0" d="M59.2,17.9h3.1v1.6h-4.8v-7.8h1.7V17.9z"/>
		<path class="st0" d="M67.9,17.9v1.6H63v-7.8h4.8v1.6h-3.1v1.2h2.8v1.6h-2.8v1.8H67.9z"/>
		<path class="st0" d="M68.5,15.6c0-2.5,1.8-4.1,4.3-4.1c1.2,0,2.1,0.4,2.8,0.9l-0.9,1.5c-0.5-0.3-1.1-0.6-1.9-0.6
			c-1.4,0-2.4,0.9-2.4,2.3c0,1.4,1,2.3,2.4,2.3c0.8,0,1.4-0.3,1.9-0.6l0.9,1.5c-0.7,0.5-1.6,0.9-2.8,0.9
			C70.3,19.7,68.5,18.1,68.5,15.6z"/>
		<path class="st0" d="M75.9,15.6c0-2.5,1.8-4.1,4.3-4.1c1.2,0,2.1,0.4,2.8,0.9l-0.9,1.5c-0.5-0.3-1.1-0.6-1.9-0.6
			c-1.4,0-2.4,0.9-2.4,2.3c0,1.4,1,2.3,2.4,2.3c0.8,0,1.4-0.3,1.9-0.6l0.9,1.5c-0.7,0.5-1.6,0.9-2.8,0.9
			C77.7,19.7,75.9,18.1,75.9,15.6z"/>
		<path class="st0" d="M85.5,19.5h-1.7v-7.8h1.7V19.5z"/>
		<path class="st0" d="M94.7,15.6c0,2.4-1.8,4.1-4.1,4.1c-2.3,0-4.1-1.6-4.1-4.1s1.8-4.1,4.1-4.1C92.9,11.5,94.7,13.2,94.7,15.6z
			 M88.3,15.6c0,1.4,1,2.3,2.2,2.3c1.2,0,2.2-0.9,2.2-2.3c0-1.4-1-2.3-2.2-2.3C89.3,13.3,88.3,14.2,88.3,15.6z M91.1,11.2h-1.2
			l1.3-1.3H93L91.1,11.2z"/>
		<path class="st0" d="M102.5,19.5H101l-3.7-4.8h0v4.8h-1.7v-7.8H97l3.7,4.8h0v-4.8h1.7V19.5z"/>
		<path class="st0" d="M23.5,24c0,1.3-0.9,2.4-2.4,2.4h-1.5v3.1h-1.2v-7.8h2.7C22.6,21.6,23.5,22.6,23.5,24z M22.2,24
			c0-0.8-0.5-1.3-1.3-1.3h-1.3v2.5h1.3C21.7,25.2,22.2,24.8,22.2,24z"/>
		<path class="st0" d="M29.1,27.5h-3.4L25,29.4h-1.3l3.2-7.8H28l3.2,7.8h-1.3L29.1,27.5z M28.7,26.4l-1.3-3.3l-1.3,3.3H28.7z"/>
		<path class="st0" d="M33.8,26.2h-0.7v3.2H32v-7.8h2.7c1.4,0,2.4,0.9,2.4,2.3c0,1.2-0.7,2-1.8,2.2l2.4,3.3h-1.5L33.8,26.2z
			 M33.1,25.1h1.3c0.9,0,1.3-0.5,1.3-1.2c0-0.7-0.4-1.2-1.3-1.2h-1.3V25.1z"/>
		<path class="st0" d="M43.2,27.5h-3.4L39,29.4h-1.3l3.2-7.8H42l3.2,7.8h-1.3L43.2,27.5z M42.8,26.4l-1.3-3.3l-1.3,3.3H42.8z"/>
		<path class="st0" d="M55.7,29.4l-0.5-0.5c-0.6,0.4-1.4,0.6-2.3,0.6c-2.3,0-4.1-1.7-4.1-4.1c0-2.4,1.7-4.1,4.1-4.1
			c2.3,0,4.1,1.7,4.1,4.1c0,1.1-0.4,2-1,2.7l1.1,1.2H55.7z M54.3,28l-1.7-1.7h1.5l1,1c0.4-0.5,0.6-1.1,0.6-1.8
			c0-1.7-1.1-2.9-2.8-2.9c-1.6,0-2.8,1.2-2.8,2.9s1.1,2.9,2.8,2.9C53.5,28.4,53.9,28.3,54.3,28z"/>
		<path class="st0" d="M64.3,26.4c0,1.9-1.2,3.2-3.1,3.2c-1.9,0-3.1-1.2-3.1-3.2v-4.8h1.2v4.8c0,1.3,0.8,2,1.9,2
			c1.1,0,1.9-0.7,1.9-2v-4.8h1.2V26.4z"/>
		<path class="st0" d="M70.3,28.3v1.1h-4.5v-7.8h4.5v1.1h-3.3v1.8h3v1.1h-3v2.7H70.3z"/>
		<path class="st0" d="M79.6,22.7h-2.2v6.7h-1.2v-6.7h-2.2v-1.1h5.5V22.7z"/>
		<path class="st0" d="M85,28.3v1.1h-4.5v-7.8H85v1.1h-3.3v1.8h3v1.1h-3v2.7H85z"/>
		<path class="st0" d="M26.4,35.4c0,2.4-1.7,3.9-4.2,3.9h-2.5v-7.8h2.5C24.6,31.5,26.4,33,26.4,35.4z M21.4,33.1v4.7h0.9
			c1.3,0,2.2-0.8,2.2-2.3c0-1.5-0.9-2.3-2.2-2.3H21.4z"/>
		<path class="st0" d="M29,39.3h-1.7v-7.8H29V39.3z"/>
		<path class="st0" d="M34.5,39.3h-1.8l-3-7.8h2.1l1.8,5.6h0l1.8-5.6h2.1L34.5,39.3z"/>
		<path class="st0" d="M39.8,39.3h-1.7v-7.8h1.7V39.3z"/>
		<path class="st0" d="M46.1,37.7v1.6h-4.9v-7.8H46v1.6h-3.1v1.2h2.8v1.6h-2.8v1.8H46.1z"/>
		<path class="st0" d="M49.2,36.4h-0.3v3h-1.7v-7.8h3.1c1.7,0,2.7,1.1,2.7,2.4c0,1.1-0.6,2-1.8,2.3l2.2,3h-2.2L49.2,36.4z
			 M48.8,34.9H50c0.7,0,1.1-0.3,1.1-0.9c0-0.6-0.4-0.9-1.1-0.9h-1.1V34.9z"/>
		<path class="st0" d="M59.2,33.1h-2v6.2h-1.7v-6.2h-2.1v-1.6h5.8V33.1z"/>
		<path class="st0" d="M64.7,37.7h-3l-0.6,1.6h-1.9l3.1-7.8h1.8l3.1,7.8h-1.9L64.7,37.7z M64.2,36.2l-1-2.8l-1,2.8H64.2z"/>
		<path class="st0" d="M72.9,31.9l-0.7,1.5c-0.7-0.3-1.2-0.5-1.8-0.5c-0.5,0-0.7,0.2-0.7,0.5c0,0.2,0.1,0.4,0.6,0.7l1.3,0.8
			c0.9,0.6,1.5,1.2,1.5,2.3c0,1.5-1,2.3-2.8,2.3c-1,0-2-0.3-2.9-0.8l0.8-1.5c0.7,0.5,1.5,0.7,2.2,0.7c0.6,0,1-0.2,1-0.6
			c0-0.4-0.3-0.6-0.7-0.8l-1.2-0.7c-1-0.6-1.4-1.3-1.4-2.2c0-1.3,0.8-2.1,2.5-2.1C71.1,31.3,71.9,31.5,72.9,31.9z"/>
		<path class="st0" d="M81.7,37.7h-3l-0.6,1.6h-1.9l3.1-7.8h1.8l3.1,7.8h-1.9L81.7,37.7z M81.2,36.2l-1-2.8l-1,2.8H81.2z"/>
		<path class="st0" d="M10.3,45.3c0-2.5,1.8-4.1,4.3-4.1c1.2,0,2.1,0.4,2.8,0.9l-0.9,1.5C16,43.3,15.4,43,14.6,43
			c-1.4,0-2.4,0.9-2.4,2.3c0,1.4,1,2.3,2.4,2.3c0.8,0,1.4-0.3,1.9-0.6l0.9,1.5c-0.7,0.5-1.6,0.9-2.8,0.9
			C12.1,49.4,10.3,47.8,10.3,45.3z"/>
		<path class="st0" d="M24.8,46.1c0,2-1.1,3.3-3.3,3.3c-2.2,0-3.3-1.3-3.3-3.3v-4.6H20v4.5c0,1,0.5,1.7,1.5,1.7c1,0,1.5-0.7,1.5-1.7
			v-4.5h1.8V46.1z"/>
		<path class="st0" d="M25.6,45.3c0-2.5,1.8-4.1,4.3-4.1c1.2,0,2.1,0.4,2.8,0.9l-0.9,1.5c-0.5-0.3-1.1-0.6-1.9-0.6
			c-1.4,0-2.4,0.9-2.4,2.3c0,1.4,1,2.3,2.4,2.3c0.8,0,1.4-0.3,1.9-0.6l0.9,1.5c-0.7,0.5-1.6,0.9-2.8,0.9
			C27.4,49.4,25.6,47.8,25.6,45.3z"/>
		<path class="st0" d="M40.2,41.4v7.8h-1.7v-3.3h-3.2v3.3h-1.7v-7.8h1.7v2.9h3.2v-2.9H40.2z"/>
		<path class="st0" d="M46.4,47.6h-3l-0.6,1.6h-1.9l3.1-7.8h1.8l3.1,7.8h-1.9L46.4,47.6z M45.8,46.1l-1-2.8l-1,2.8H45.8z"/>
		<path class="st0" d="M51.6,46.3h-0.3v3h-1.7v-7.8h3.1c1.7,0,2.7,1.1,2.7,2.4c0,1.1-0.6,2-1.8,2.3l2.2,3h-2.2L51.6,46.3z
			 M51.2,44.8h1.1c0.7,0,1.1-0.3,1.1-0.9c0-0.6-0.4-0.9-1.1-0.9h-1.1V44.8z"/>
		<path class="st0" d="M61.2,47.6h-3l-0.6,1.6h-1.9l3.1-7.8h1.8l3.1,7.8h-1.9L61.2,47.6z M60.7,46.1l-1-2.8l-1,2.8H60.7z"/>
		<path class="st0" d="M71.1,45.3c0,2.4-1.7,3.9-4.2,3.9h-2.5v-7.8h2.5C69.3,41.4,71.1,42.9,71.1,45.3z M66.1,43v4.7H67
			c1.3,0,2.2-0.8,2.2-2.3c0-1.5-0.9-2.3-2.2-2.3H66.1z"/>
		<path class="st0" d="M76.8,47.6h-3l-0.6,1.6h-1.9l3.1-7.8h1.8l3.1,7.8h-1.9L76.8,47.6z M76.2,46.1l-1-2.8l-1,2.8H76.2z"/>
		<path class="st0" d="M84.9,41.8l-0.7,1.5c-0.7-0.3-1.2-0.5-1.8-0.5c-0.5,0-0.7,0.2-0.7,0.5c0,0.2,0.1,0.4,0.6,0.7l1.3,0.8
			c0.9,0.6,1.5,1.2,1.5,2.3c0,1.5-1,2.3-2.8,2.3c-1,0-2-0.3-2.9-0.8l0.8-1.5c0.7,0.5,1.5,0.7,2.2,0.7c0.6,0,1-0.2,1-0.6
			c0-0.4-0.3-0.6-0.7-0.8l-1.2-0.7c-1-0.6-1.4-1.3-1.4-2.2c0-1.3,0.8-2.1,2.5-2.1C83.1,41.2,84,41.4,84.9,41.8z"/>
		<path class="st0" d="M86.2,41.4h1.9l-0.4,5.2h-1.2L86.2,41.4z M88,49.2h-1.8v-1.8H88V49.2z"/>
		<path class="st0" d="M89.2,41.2h1.6v1.6l-0.9,1.7h-0.6l0.6-1.7h-0.6V41.2z M92.8,41.2v1.6l-0.9,1.7h-0.6l0.6-1.7h-0.6v-1.6H92.8z"
			/>
	</g>
</g>
</svg>
