<?xml version="1.0" encoding="utf-8"?>
<!-- Generator: Adobe Illustrator 25.2.1, SVG Export Plug-In . SVG Version: 6.00 Build 0)  -->
<svg version="1.1" id="Layer_1" xmlns="http://www.w3.org/2000/svg" xmlns:xlink="http://www.w3.org/1999/xlink" x="0px" y="0px"
	 viewBox="0 0 1200.8 692.4" style="enable-background:new 0 0 1200.8 692.4;" xml:space="preserve">
<style type="text/css">
	.st0{clip-path:url(#SVGID_3_);fill:#FFE200;}
</style>
<g>
	<defs>
		<rect id="SVGID_1_" width="1200.8" height="692.4"/>
	</defs>
	
		<radialGradient id="SVGID_2_" cx="1392.2834" cy="462.6441" r="412.0323" gradientTransform="matrix(1.754 0 0 0.7342 -1841.6997 6.5482)" gradientUnits="userSpaceOnUse">
		<stop  offset="0.2223" style="stop-color:#FFF593"/>
		<stop  offset="1" style="stop-color:#FFEF00"/>
	</radialGradient>
	<use xlink:href="#SVGID_1_"  style="overflow:visible;fill:url(#SVGID_2_);"/>
	<clipPath id="SVGID_3_">
		<use xlink:href="#SVGID_1_"  style="overflow:visible;"/>
	</clipPath>
	<path class="st0" d="M1164.3,159.2c19.7,57.7,32.2,116.7,37.5,176.8c2.5,28.5,3.5,57,2.5,85.5c-1.5,45.7-7,90.6-16.9,134.8
		c-16.2,72.2-43.1,139.2-80.8,201.2c-40.6,66.8-91.5,123.7-152.5,170.8c-44.6,34.4-93,62-145.2,82.9
		c-75.4,30.2-154.4,44.9-236.7,44.4c-30.4-0.2-60.7-2.6-91.1-7.2c-41.8-6.3-82.8-16.4-123.1-30.6c-67.6-23.8-130.7-57.4-189.1-101
		C107.7,871.1,54.4,817,9.2,754.5c-3.4-4.7-7.1-9.4-10.6-14c-0.4-39.2-0.7-78.3-1.1-117.5c0.9,1.1,2.1,2.1,2.8,3.4
		c19,36.9,40.9,71.8,66,104.7c52.2,68.5,114.3,125.4,186.4,170.2c58.6,36.4,120.7,62.8,186.3,79.1c48,11.9,96.3,17.9,145.1,18.1
		c70.7,0.2,138.8-11.8,204.2-36c56.9-21,109.1-50.5,156.6-88.3c70.2-55.9,125-125.2,164.5-207.6c28.4-59.2,46.9-122.1,56-188.4
		c6.7-49.2,8-98.8,3.6-148.8c-7.2-82.9-28.6-162.5-64.4-238.7C1075.3,28.3,1037.8-28.7,992-80.1c-57.2-64.3-123.3-115.8-198.5-154.5
		c-50.5-26-103.1-44.8-157.7-56.7c-34.4-7.5-68.9-12-103.7-13.4c-76.9-3.1-151.2,8-222.5,33.8c-60.8,21.9-116.3,53.4-166.5,94.2
		c-33.2,27.1-63.2,57.6-89.8,91.6C31.3-57.1,11.9-27.3-5,4.5c-0.8,1.6-2.1,2.9-3.2,4.3c-0.3-33-0.6-65.9-0.9-98.9
		c1.5-1.5,3.2-2.9,4.5-4.7c33.1-44.5,71.3-83.8,114.5-117.8c47.5-37.3,99.4-67,155.7-88.9c70.9-27.6,144.9-41.6,222-42.2
		c45.1-0.3,89.9,4.2,134.7,13.3c51.3,10.4,101,26.7,149.2,49c68,31.3,130,72.7,186.2,124.1c48.8,44.6,91.1,95,127,151
		C1117.9,45.7,1144.4,100.9,1164.3,159.2 M132.4,725.6c-35.2-41.3-64.9-86.4-89.1-135.1C24.7,553,9.8,514.1-1.5,474
		c-0.6-2-1.6-3.8-2.5-5.7c-1-107.4-2-214.8-3-322.2c0.7-1.5,1.7-2.9,2.1-4.5C2,115.6,10.6,90.3,21,65.8
		C51-5.4,93.1-67.5,147.7-120.1c49.9-48.1,106.9-85,171-110.8c62.6-25.3,128.3-38.1,196.6-38.9c45.4-0.5,90.7,4.5,135.6,15.1
		c72.5,17.1,140.3,47,203.3,89.8c64.7,43.9,119.9,98.4,165.6,163.1c44.6,63.2,77.1,132,97.7,206.3c12.5,45.1,20.1,90.9,22.5,137.2
		c2.4,44,0.3,87.5-6.5,130.5c-8.3,52.6-22.9,102.8-44.3,150.6c-25.2,56.4-58.4,107-99.8,151.6C933.5,834.9,867.3,880,791,909.7
		c-47.9,18.7-97.8,30.1-149.6,34.5c-33.9,2.9-68,2.6-102.1-0.7c-42.5-4.1-84.3-13.1-125.4-26.7c-47.5-15.8-92.8-37.2-135.7-64.4
		C223.5,817.7,174.9,775.5,132.4,725.6 M162.6,684c33.9,41.5,72.5,77.7,115.6,108.6c55.6,39.8,115.6,68.8,180,86.8
		c41.6,11.6,83.8,18.2,119.2,19.4c80,2.5,150.4-9.6,217.4-37.2c92.6-38.2,167.6-99.2,224.8-182.7c43-62.8,71.2-132.8,85.1-209.7
		c8.3-45.5,10.9-91.6,8.1-138.4c-4.2-70.3-20.4-138.4-48.5-204c-32.5-75.8-78-142.4-136.7-199.7C868.5-130.6,801-173.8,725.4-202.5
		c-34.3-13-69.3-22.5-105-28.4c-28.8-4.8-57.6-7.1-86.5-7.1c-61.6,0-120.9,10.6-177.9,31.8c-52.5,19.6-100.4,47.3-143.6,83.1
		c-31.8,26.3-60,56.2-84.7,89.6C89.5,18.4,61.5,76,43.6,139.3c-9.5,33.4-15.7,67.7-18.9,102.7c-2.9,31.7-3,63.6-0.8,95.7
		c3.6,51.9,14,102.7,30.9,152.4C79,561.2,115,625.9,162.6,684 M668.7-837.7c-50.5-15.5-101.6-27.9-153.3-37.1
		c-63.6-11.4-127.5-18-191.5-19.7c-43.3-1.1-86.5,0.1-129.5,3.4c-69.7,5.4-138.1,17-205.4,34c-1.8,0.4-3.5,1.1-5.2,1.7
		c0.4,40.7,0.7,81.4,1.1,122.1c31.5-10.7,63.7-19.4,96.2-26.9c76.3-17.5,154-26.7,233.1-27.6c44.6-0.5,89.2,1.5,133.8,6.3
		c29.6,3.1,59.1,7.4,88.5,12.8c37.6,6.9,74.9,15.7,111.9,26.3c80.4,23.2,158.1,54.4,233.1,93.8c78.7,41.3,152.7,90.6,222,147.8
		c32.7,26.9,64.1,55.5,94.2,85.5c1.6,1.6,3.5,2.9,5.3,4.3c-0.4-40.3-0.7-80.6-1.1-121c-1.5-1.1-3.2-2.1-4.6-3.4
		c-47-42.3-96.3-81.4-148-117.1c-64.6-44.5-132-83.4-202.4-116.4C788.8-796,729.4-819.1,668.7-837.7 M831.9-585.5
		c-62.6-30.5-127.2-54.8-193.6-72.9c-36.9-10.1-74.1-18.1-111.6-24.2c-47.5-7.7-95-12.1-142.7-13.2c-30.9-0.7-61.8,0-92.5,2.1
		c-65.5,4.4-129.7,15.1-192.6,31.9C62.7-652,27.3-640.3-7.4-626.5c-2.2,0.9-4.5,1.7-6.7,2.6c0.3,33,0.6,65.9,0.9,98.9
		c50.8-24.9,103.6-44.8,158.4-59.8c67.9-18.6,137.4-29.2,208.4-31.8c35.3-1.3,70.7-0.6,106.2,2.1c37.9,2.8,75.7,8,113.2,15.3
		c39.8,7.7,79.1,18.1,118,30.7c41,13.4,81.2,29.4,120.5,48.1c58.4,27.7,114,60.7,167,98.9c46.8,33.8,90.7,71.1,132,112
		c32.3,32,62.5,66,90.8,101.9c1.1,1.4,2.4,2.5,3.6,3.8l-0.9-97.7c-14.1-15-27.9-30.3-42.2-45c-31.9-33-65.8-63.7-101.2-92.6
		C989.6-497.2,913.3-545.9,831.9-585.5 M1106,845.2c-29.9,41.3-63.9,78.5-102,111.6c-56.1,48.9-118.6,87.2-187.6,114.9
		c-49.2,19.7-100.3,33.3-153.1,40.8c-53.1,7.6-106.6,8.8-160.6,3.7c-60.6-5.7-120-19.1-178.2-40.3c-52.7-19.2-103-44-150.8-74.7
		c-46.7-30-90.1-64.4-129.7-104.1c-14.1-14.2-27.5-29-41.2-43.6c-0.9-1-2-1.7-3-2.5c0.3,36.1,0.7,72.1,1,108.2
		c1.2,0.8,2.6,1.5,3.7,2.5c47.4,45.1,99,84.2,154.7,117.1c63.7,37.5,130.6,65.8,200.9,84.7c35,9.4,70.2,16.4,105.8,20.8
		c35,4.3,70.1,6.1,105.1,5.4c55.2-1,109.3-8.1,162.3-21.4c69.3-17.3,134.4-44.4,195.2-81.3c56.8-34.5,108-76.2,153.4-125.2
		c40.5-43.8,75.5-92,104.4-145c8.8-16.1,16.7-32.9,25-49.3c0.8-1.6,1.9-3.1,2.8-4.7c-0.4-45-0.8-90-1.3-134.9c-0.7,1.5-1.5,3-2,4.6
		C1187.5,709.9,1152.5,780.9,1106,845.2 M1049.7-291.9c-35-32.3-72-61.8-110.9-88.7c-54.1-37.3-110.9-68.7-170.6-94.2
		c-37.1-15.8-74.9-29.1-113.5-40c-28.6-8.1-57.4-14.7-86.5-19.9c-39.9-7.1-80-11.4-120.2-13c-45.8-1.8-91.4-0.1-136.5,5.4
		c-83.3,10.1-163,32-239.1,65.7C45.9-464.8,20-451.6-5-437.1c-2.4,1.4-4.9,2.6-7.3,3.9c0.3,28.7,0.5,57.4,0.8,86.1
		c1.9-1,3.9-1.9,5.7-3.1c23-16.1,46.9-30.8,71.5-44.3c56.8-31,116.7-54.3,179.7-70.2c56.6-14.2,114.4-22,173.3-23.3
		c56.5-1.2,112.8,3.4,169,14.1c38.2,7.3,75.8,17.1,113,29.6c66.7,22.5,130.3,52.9,190.6,91.2c79.7,50.6,150.5,112.5,212.3,185.4
		c37.3,44,70.4,91.1,99.3,141.3c1,1.8,2.5,3.3,3.8,5c-0.3-29.9-0.6-59.7-0.8-89.6c-2.9-3.9-6-7.7-8.8-11.7
		C1154-184.7,1104.8-241,1049.7-291.9 M944.6-262.1c-55.1-42.9-114.3-78.3-177.4-106c-45.1-19.8-91.4-35.3-138.8-46.3
		c-54-12.6-108.4-19.2-163.1-19.8c-76.8-0.9-151.4,10-223.8,32.5c-57,17.7-110.7,42.3-161.4,73.5C50.5-310,22.5-289.6-4.1-267.1
		c-2.1,1.8-4.4,3.3-6.6,4.9c0.3,27.9,0.5,55.8,0.8,83.7c1.2-0.9,2.5-1.6,3.4-2.6c46.8-49.3,99.8-90.4,159-123.1
		c62.3-34.5,128.6-58.3,199.1-71.3c52.3-9.7,105.2-13.2,158.9-10.4c70.8,3.7,140.1,17.9,208,42.6c72.1,26.2,139.2,63,201.4,110.1
		c68.6,52,127.5,113.9,177,185.5c34.5,49.9,63.2,103,85.8,159.2c8.8,21.9,15.9,44.4,23.8,66.6c0.6,1.8,1.4,3.6,2.1,5.4
		c-0.3-36.4-0.7-72.9-1-109.3c-3.9-8.1-7.9-16.2-11.8-24.3c-28.2-58.2-62.2-112.6-102.1-163.4
		C1049.8-169.4,1000.1-218.9,944.6-262.1 M689.2-953.3c54.5,17.7,108,38.3,160.5,62.2c67.6,30.7,133,66.3,196,106.7
		c51.5,33,101,68.8,148.7,107.5c1.9,1.6,4.1,2.8,6.2,4.2c-0.5-55.1-1-110.1-1.5-165.2c-2.1-1.3-4.3-2.5-6.3-3.9
		c-21.6-15.2-42.8-30.9-64.8-45.5c-24.8-16.5-50.2-32.1-75.3-48.1c-1.5-1-2.8-2.5-4.2-3.7l-364.7-17.1
		C685.6-955.2,687.3-953.9,689.2-953.3 M1065.5,1069.7c-60.8,55.4-128.7,99.7-203.6,133.1c-51.8,23.1-105.6,40.2-161.4,51.4
		c-40.6,8.1-81.8,13.2-123.5,14.5c-7.8,0.2-15.7,0.1-23.6,0.2c-1.8,0-3.6,0.5-5.4,0.7c110.3,5.2,220.6,10.4,330.9,15.5
		c16.4-8,32.9-15.7,49.1-24.1c50.8-26.7,98-58.8,142-95.7c51.1-42.8,96.6-91.1,136.6-145.1c3.1-4.2,6.3-8.2,9.5-12.3
		c-0.4-40.7-0.8-81.4-1.1-122.1c-2.5,3.7-5,7.3-7.4,11.1C1168.2,961.8,1120.9,1019.3,1065.5,1069.7 M307,1233.7
		c-82.9-25-160.9-62.2-234.2-111.1c-22.8-15.2-44.9-31.5-66.3-48.7c-1.5-1.2-3.2-2-4.8-3c0.4,38.8,0.7,77.5,1.1,116.3
		c1.1,0.8,2.2,1.5,3.4,2.3c27.8,19.3,56.5,37.1,85.9,53.4c3.5,1.9,6.9,4,10.3,6c122.3,5.7,244.6,11.5,366.9,17.2
		c-1.4-0.4-2.9-1-4.3-1.1C411.4,1260.7,358.9,1249.4,307,1233.7 M1213.5,1142.2c-47,55.2-99.6,103.9-157.7,146.4
		c-2.2,1.6-4.5,3.1-6.8,4.7l147.5,6.9c6-5.9,12-11.9,18.1-17.7c1.3-1.2,2.8-2.2,4.2-3.3c-0.4-46.9-0.9-93.8-1.3-140.7
		C1216.1,1139.7,1214.6,1140.8,1213.5,1142.2 M368.4,794.5c-73.7-39.3-136-93-186.9-161.1c-33-44.1-59-92-78.4-143.5
		c-23.3-61.9-35.3-125.6-36.5-190.7c-0.6-31.3,1.8-62.2,6.6-92.8c7-44.6,19.3-87.2,37.1-127.9c28.7-65.4,69-121.5,121.3-168.1
		c50.1-44.6,107.2-77,171.3-97.1c42.8-13.4,86.9-20.5,132.1-21.6c32.4-0.8,64.8,1.9,97.2,7.6c41.6,7.3,81.9,19.7,121,37.2
		c69.3,30.9,130.1,74.9,182.6,131.9c45.8,49.8,81.8,106,108,168.5c29,69.1,43.6,140.7,44.9,214.5c-0.2,8.3-0.5,16.6-0.7,24.9
		c-0.9,31.4-4.7,62.3-11.2,92.6C1060,547.1,1027.6,617,979,678c-42.6,53.6-94.3,95.9-154.8,126.6C758.4,838,688,854.9,613.1,855.7
		c-41.4,0.4-82.5-4.6-123.2-14.6C447.8,830.8,407.3,815.2,368.4,794.5 M407.8,767.9c43.6,21.2,88.9,35.3,135.9,42.6
		c52.6,8.3,104.5,7.6,155.9-2c61-11.5,117-34.6,167.7-69.6c70.3-48.5,122.9-113,157.9-192.9c19.1-43.7,31.4-89.7,37-138
		c4.5-37.8,4.8-75.9,0.7-114.2c-6.2-59.4-22.1-116.6-47.6-171.3c-26.6-57-61.8-107.8-105.8-152.3C853.7-86.3,789.2-127.8,716-154
		c-53.1-19-107.3-28.4-162.4-27.8c-92.8,0.9-177.1,27.1-251.8,80.1C209.2-36.2,149.3,54.2,121,167.9c-7.8,31.4-12.3,63.5-13.4,96.2
		c-0.3,9.1-0.6,18.2-0.8,24.8C109,398.2,139.4,497,200.1,587C253.8,666.6,323.3,726.8,407.8,767.9 M630.9,779.2
		c-46.7,1.1-93-5.3-138.5-19.6C388.8,727,304.2,665.1,238.9,574.1c-29-40.4-51.3-84.3-67.3-131.3c-22.4-66.2-30.8-133.6-24.9-202.1
		c3.9-45.8,14.2-89.7,31-131.6c25-62.2,61.7-115.4,110.4-159.4c34.9-31.5,74-56.4,117.3-74.4c57.6-23.9,118.1-34.4,181.4-31.9
		c10.3,1,20.6,1.8,30.9,3c35.9,4,71.1,12.7,105.4,25.6c59,22.1,112.1,55.1,159.3,98.9c45.3,42,81.7,91,109.3,146.6
		c27.6,55.6,44.3,114.1,50.3,175.3c3.9,39.8,3,79.1-2.9,118c-8.5,56.8-26.7,109.6-54.6,158.3c-27.5,47.9-62.4,88.8-105.3,122.2
		C806.8,747.7,723.8,777,630.9,779.2 M719.1,735.2c74.7-17.7,138.7-54.1,191.8-109.5c53.4-55.6,88.1-122.7,104.8-200.4
		c8.2-38.1,11.3-77.1,9-116.7c-4.2-75-25.1-145.6-63.1-211.5C930.4,42.7,890-3.7,840.8-41.7c-52-40.1-109.2-67.5-171.6-81.8
		c-33.3-7.6-66.7-11.2-100.3-10.6c-44,0.8-86.3,8.6-127.1,23.4c-41.5,15-79.4,36.6-113.5,64.6C283.9-9.7,248.9,34.8,223.1,87.2
		c-20,40.7-33.2,83.9-39.4,129.8c-1.2,8.9-2.3,17.9-2.9,27c-0.9,13.1-1.2,26.2-1.6,35.3c2,100.5,30,189.3,85.9,269.7
		c52.8,76,121.4,131,204.8,165.3c34.2,14.1,69.4,23.3,105.6,27.9C624.2,748.5,672.1,746.4,719.1,735.2 M878.6,621.5
		c-74.4,65.7-162.5,95.6-262.8,92.2c-17.7-0.8-35.3-3-52.8-6.3c-50.2-9.4-97.7-27.8-142-55.6C343.3,603,285.8,535.8,248.7,450.5
		c-30.4-69.9-41.6-142.2-34.5-216.6c4-42.1,14.2-82.2,30.6-120.3c24-55.7,58.5-103,104.2-140.9c71.4-59.2,154.4-87.3,248.3-85.1
		c40.8,0.9,80.8,8.9,120,22.9c59.9,21.4,112.9,55.2,159,101.2c30,30,55.2,63.7,75.7,101.1c34.7,63.5,53,130.9,55.1,202
		c1.4,46.7-5,92-18.8,135.7C966.7,518.3,930.5,575.7,878.6,621.5 M824,629.8c60.2-38,104.5-91.1,133.6-157.9
		c16.1-37,25.8-76.1,29.3-117.1c1.1-13,1.3-26.2,1.7-35.1c-1.7-87.8-26-164.8-74-234.8C874.4,26.3,822.8-18.4,760.5-49.4
		c-48.3-24-98.8-37.4-151.3-38.9C508-91.1,421.3-57.4,350.6,13.5c-50.9,51-83,113.8-97.4,186.9c-6.5,32.9-8.7,66.3-6.3,100.2
		c5.7,83.4,34,159,85.4,226.2c46.7,61.1,105.4,104.9,175.3,131.9c27.8,10.7,56.3,17.9,85.4,21.5C676.9,690.6,754.1,673.9,824,629.8
		 M850,580.4c-63.7,54.1-138.6,78.4-223.2,75.6c-19.3-1-40.5-3.8-61.6-8.8c-48.2-11.4-92.6-32.3-133.1-62.8
		c-34.9-26.2-64.6-57.8-88.8-94.7c-37.1-56.4-57.9-118.1-62.7-184.5c-3.4-47.7,2.2-93.8,17-138.2C320.6,97.8,361,42.3,418.6,1
		c49.9-35.7,106.1-55.1,168.1-58.7c34.8-2,69.3,1.6,103.6,10.5c41.8,10.9,80.8,29.1,116.8,54.8c60.5,43.2,105,99.7,133.1,169.3
		c26.5,65.9,34.2,133.3,22.6,201.6C948.8,460.7,911.3,528.4,850,580.4 M947.9,320.3C946.7,140.5,805.6-16.7,626-25.8
		c-176.6-8.9-319.2,133.2-317.9,315.7c1.4,180.7,143,337.1,322.5,346.2C810.7,643.8,949.1,499.7,947.9,320.3 M632.8,621.4
		C469,613.7,334.9,470.8,333,302.3C331.3,135.8,459.1,1.5,627,8.8c168.1,7.4,299.3,153.2,300.6,320.5
		C928.9,498,796.7,629.2,632.8,621.4 M786.5,572.1c65.2-41.8,104.4-103.3,118-182.7c2.7-15.7,3.6-31.7,3.7-55.3
		c-2.7-79-34.8-152.9-98.9-212.5c-42.3-39.4-91.6-63.5-146.8-73.2c-95.9-17-191.9,18.5-251.5,94.8c-31.7,40.6-50.6,87.4-55.7,140.5
		c-7,71.7,10.1,138.4,51.5,199c43.7,63.9,102.6,105,175.2,122.4C655.7,622.7,724.5,611.9,786.5,572.1 M748.9,585.3
		c-11.3,5.4-23.1,9.8-35.1,13.1c0-2.8,0.2-5.4-0.1-8c-1.6-11.3-4.5-22.2-8.9-32.8c-11.3-27.3-29-49.5-52.3-66.9
		c-38.2-28.4-80-39.8-125-32.2c-27.9,4.7-51.8,17.3-70.4,39c-3.6,4.2-6.8,8.8-10.1,13.1c-0.9-0.3-1.6-0.6-2.3-0.8
		c-0.1,0.2-0.3,0.5-0.4,0.7c5.8,6.5,11.6,13.1,17.3,19.6c17.7-13.6,28.8-19.7,44.1-23.9c36.3-9.9,71.8-5,106.5,12.5
		c28.9,14.5,51.9,36,67.7,65.3c3.5,6.4,6.2,13.3,9.6,20.7c-13,1.3-25.6,2.6-37.8,3.8c-45.3-59.5-119.8-72.8-162.5-54.5
		c2.7,2.5,5.3,5,7.9,7.4c-2-1.1-4.1-2-5.9-3.3c-22.3-15.9-42.3-34.5-59.1-56.6c-49.4-64.8-69.4-136.7-56.3-215.2
		C388.9,206.8,431,148.4,498.5,111c48.3-26.7,100.9-34.8,156.8-25.9c35.4,5.6,68.6,18.2,99.8,37.6c86.6,54,137.9,152.1,132.7,251.6
		c-2.1,39-12,75.3-30.3,108.5C832.1,529.1,795.8,563.2,748.9,585.3 M862.5,435c10.5-43.9,8.3-88.3-5.8-132.6
		C829,215.9,757.8,149.2,673.3,128c-72.8-18.3-139.2-6.3-197.7,37.4c-47.5,35.5-76.6,84.4-86,145.5c-10.8,70.7,7.2,135.4,50.5,194.2
		c0.6,0.8,1.3,1.5,1.9,2.2c0.3-0.2,0.5-0.3,0.8-0.5c-0.7-1.1-1.2-2.4-2-3.3c-3.8-3.9-3.1-7.8-1.3-12.2c8.5-21.4,21.8-38.9,39.8-52.3
		c20.9-15.6,44.7-24.3,70.9-26.1c50-3.4,94.4,12.8,132.7,48.6c26.8,25,43.8,55.8,49.3,92.2c1.4,9,0.9,18.2,1.2,27.3
		c0.1,2.7-0.3,5.3-0.5,9.1c5.3-2.4,9.8-4.5,13.9-6.4c3.2-12.1,5.7-23.8,6.2-36c1.6-40.4-11.3-76.5-36.6-108.4
		c-26.3-33.2-59.8-54.6-99.3-65.1c-34-9.1-67.3-8.4-99.3,3.8c-41.7,15.9-70.3,45.3-83.1,90c-1.3,4.6-2,9.3-3,14
		c-0.2,1.1-0.5,2.1-0.9,3.8c-2.7-2.8-3.5-5.3-3.5-8.7c0.3-14.8,1.6-29.3,5.5-43.3c11.7-40.8,36.1-70.6,72.3-89.8
		c36.3-19.2,75.3-23.1,116.3-14c40.7,9.1,75.9,29.5,104.4,62c32.9,37.4,49,80.7,45.8,129.9c-1.2,18.3-5.9,35.5-13.6,51.7
		c-0.6,1.3-1.2,2.6-1,4.7c5.8-3.8,11.8-7.3,17.4-11.4C819.3,534.6,849.1,490.8,862.5,435 M497.6,561.6c-0.2-0.1-0.3-0.2-0.5-0.3
		c0.1,0.1,0.3,0.3,0.4,0.4L497.6,561.6z M503.1,565.5l0.1-0.1c-1.9-1.3-3.7-2.5-5.6-3.8l-0.1,0.1C499.4,563,501.2,564.2,503.1,565.5
		 M503.1,565.5l0.3,0.1c-0.1-0.1-0.1-0.2-0.2-0.3L503.1,565.5 M504.3,566.7c1.1,0.7,2.3,1.4,3.8,1.2c-1.6-0.8-3.1-1.5-4.6-2.3
		C503.7,566,503.9,566.4,504.3,566.7 M812.6,276c-38.5-61-92.6-98-160.4-111.8c-52.5-10.7-102.2-3.5-147.6,22.3
		c-57.9,32.9-92.9,83.8-103.2,152.5c-6.4,42.7,0.2,84.5,17.8,125.1c0.8,1.7,1.7,3.4,2.7,5.5c0.6-1,0.9-1.6,1.3-2.2l0,0c0,0,0,0,0,0
		c0,0,0,0,0,0c0,0,0,0,0,0v0c-1-1.9-2.2-3.7-2.9-5.7c-21.4-68-13.4-130.2,26.6-184.9c32.5-44.4,77.2-69,131.6-75.3
		c66.3-7.6,125.9,12.7,177.7,59.7c37,33.5,61,75.4,70,124.7c12,65.2-3.5,121.8-44.7,169.6c-1.2,1.4-2.5,2.8-3.7,4.2
		c-0.2,0.2-0.2,0.6-0.6,2.3c5.3-5.1,10-9.2,14.2-13.7c32.7-34.6,52.1-76.4,56.7-125.6C853,370.5,841.1,321.2,812.6,276 M423.3,456.9
		c-2.8-50.8,13.2-93.4,47.6-127.4c27.8-27.4,62-42.2,101-45.9c45.8-4.3,89,6.8,128.7,33.5c46.4,31.2,76.9,74.1,87.8,129.9
		c8.3,42.7,1.1,82-20.2,117.9c-1,1.7-2,3.4-2.4,5.7c0.7-0.7,1.5-1.3,2.1-2.1c24.2-28.9,38.8-62.4,41.8-101.6
		c3.6-45.4-7.8-87.7-33.2-126.4c-32.6-49.6-77.7-80.7-133.1-93.9c-50.3-12-98.1-5.9-141.4,20.1c-48.4,29-76.8,73-83.8,131.7
		c-2.5,21-1.1,42.1,3.8,63.1c0.4,1.9,0.7,3.8,1.1,5.7C423.2,463.8,423.5,460.4,423.3,456.9"/>
</g>
</svg>
