<?xml version="1.0" encoding="utf-8"?>
<!-- Generator: Adobe Illustrator 25.2.1, SVG Export Plug-In . SVG Version: 6.00 Build 0)  -->
<svg version="1.1" id="Layer_1" xmlns="http://www.w3.org/2000/svg" xmlns:xlink="http://www.w3.org/1999/xlink" x="0px" y="0px"
	 viewBox="0 0 1200.6 160.6" style="enable-background:new 0 0 1200.6 160.6;" xml:space="preserve">
<style type="text/css">
	.st0{fill:url(#SVGID_1_);}
	.st1{fill:#1F140F;}
	.st2{fill-rule:evenodd;clip-rule:evenodd;fill:#1F140F;}
	.st3{fill:#FFFFFF;}
	.st4{fill:#FFE200;}
</style>
<radialGradient id="SVGID_1_" cx="554.8534" cy="80.3197" r="378.3228" gradientTransform="matrix(1.1348 0 0 1 -29.3777 0)" gradientUnits="userSpaceOnUse">
	<stop  offset="0.131" style="stop-color:#FFFFFF;stop-opacity:0.7"/>
	<stop  offset="0.8772" style="stop-color:#FFFFFF;stop-opacity:0.2277"/>
	<stop  offset="1" style="stop-color:#FFFFFF;stop-opacity:0.15"/>
</radialGradient>
<rect class="st0" width="1200.6" height="160.6"/>
<g>
	<g>
		<path class="st1" d="M650.9,112.9c-1.3,0-1.9-0.8-1.9-2.3v-3.5c0,0,0-0.1,0.1-0.1l1.1-0.1c0,0,0,0,0.1,0c0,0,0,0,0,0.1v3.4
			c0,0.8,0.3,1.1,0.9,1.1c0,0,0.1,0,0.1,0c0.7-0.1,1-0.5,1-1.3v-3.4c0,0,0-0.1,0.1-0.1l1.1-0.1c0,0,0,0,0.1,0c0,0,0,0,0,0.1v3.5
			c0,0.9-0.3,2.5-2.2,2.7C651.1,112.9,651,112.9,650.9,112.9"/>
		<path class="st1" d="M654.6,112.4C654.6,112.4,654.6,112.4,654.6,112.4C654.5,112.3,654.5,112.3,654.6,112.4l-0.1-5.8
			c0,0,0-0.1,0.1-0.1l1.2-0.1c0,0,0.1,0,0.1,0l2.4,3.2v-3.4c0,0,0-0.1,0.1-0.1l0.9-0.1c0,0,0,0,0.1,0c0,0,0,0,0,0.1v5.7
			c0,0,0,0.1-0.1,0.1l-1,0.1c0,0-0.1,0-0.1,0l-2.6-3.5v3.7c0,0,0,0.1-0.1,0.1L654.6,112.4z"/>
		<path class="st1" d="M660.7,112C660.7,112,660.7,112,660.7,112C660.7,111.9,660.6,111.9,660.7,112l-0.1-5.8c0,0,0-0.1,0.1-0.1
			l1.2-0.1c0,0,0,0,0.1,0c0,0,0,0,0,0.1v5.7c0,0,0,0.1-0.1,0.1L660.7,112z"/>
		<path class="st1" d="M665.3,111.8C665.3,111.8,665.3,111.8,665.3,111.8l-2.5-5.7c0,0,0-0.1,0-0.1c0,0,0,0,0.1,0l1.4,0
			c0,0,0.1,0,0.1,0l1.6,3.7l1.6-3.8c0,0,0,0,0.1,0l1.1,0c0,0,0,0,0.1,0c0,0,0,0,0,0.1l-2.5,5.8c0,0,0,0-0.1,0L665.3,111.8z"/>
		<path class="st1" d="M669.7,111.7C669.7,111.7,669.7,111.6,669.7,111.7l-0.1-5.8c0,0,0,0,0-0.1c0,0,0,0,0,0h4.6c0,0,0.1,0,0.1,0.1
			v1.1c0,0,0,0,0,0.1c0,0,0,0-0.1,0h-3.2v1h2.2c0,0,0.1,0,0.1,0.1v1.1c0,0,0,0,0,0.1c0,0,0,0-0.1,0h-2.1l0,1.1h3.2
			c0,0,0.1,0,0.1,0.1v1.1c0,0,0,0,0,0.1c0,0,0,0,0,0H669.7z"/>
		<path class="st1" d="M680.8,111.8l-1.5,0c0,0,0,0-0.1,0l-1.3-2.2l-0.8,0v2.1c0,0,0,0,0,0.1c0,0,0,0-0.1,0l-1.3,0
			c0,0-0.1,0-0.1-0.1v-5.7c0,0,0,0,0-0.1c0,0,0,0,0.1,0l3.2,0.1c1,0,1.6,0.7,1.6,1.8c0,1.1-0.6,1.5-1.1,1.7l1.3,2.3
			C680.9,111.8,680.9,111.8,680.8,111.8C680.9,111.8,680.8,111.8,680.8,111.8 M677.2,108.3c0,0,1.1,0,1.2,0c0.4,0,0.6-0.1,0.7-0.2
			c0.1-0.1,0.1-0.2,0.1-0.5c0-0.3-0.1-0.5-0.7-0.5l-1.3,0V108.3z"/>
		<path class="st1" d="M684.1,112.2c-0.1,0-0.2,0-0.2,0c-0.9,0-1.8-0.6-2.1-0.8c0,0,0,0,0-0.1V110c0,0,0-0.1,0-0.1c0,0,0.1,0,0.1,0
			c0.8,0.5,1.6,0.9,2,0.9c0.4,0,0.7,0,0.8-0.2c0.1-0.1,0.1-0.2,0.1-0.3c0-0.1-0.1-0.3-0.4-0.4c-0.2-0.1-0.4-0.2-0.6-0.2
			c-0.9-0.4-2.1-0.9-2.1-2.2c0-0.4,0.1-0.8,0.4-1.1c0.4-0.4,1-0.6,1.6-0.5c0.8,0,1.7,0.4,2.1,0.7c0,0,0,0,0,0.1v1.3c0,0,0,0.1,0,0.1
			c0,0-0.1,0-0.1,0c-0.3-0.2-1.2-0.7-2-0.8c-0.3,0-0.5,0.1-0.5,0.1c-0.1,0.1-0.1,0.1-0.1,0.2c0,0.1,0.1,0.3,0.4,0.4
			c0.2,0.1,0.4,0.2,0.6,0.3c0.9,0.4,2.1,0.9,2.1,2.1c0,0.5-0.2,1-0.5,1.3C685.4,112,684.8,112.2,684.1,112.2"/>
		<path class="st1" d="M691.9,112.5l-1.2-0.1c0,0-0.1,0-0.1-0.1l-0.4-1.2l-2-0.1l-0.4,1.1c0,0,0,0.1-0.1,0.1l-1-0.1c0,0,0,0-0.1,0
			c0,0,0,0,0-0.1l2.2-5.6c0,0,0-0.1,0.1-0.1l0.9,0.1c0,0,0.1,0,0.1,0L691.9,112.5C692,112.5,692,112.5,691.9,112.5
			C691.9,112.5,691.9,112.5,691.9,112.5 M688.7,109.9l1,0.1l-0.5-1.4L688.7,109.9z"/>
		<path class="st1" d="M696.3,113l-3.6-0.3c0,0-0.1,0-0.1-0.1v-5.8c0,0,0,0,0-0.1c0,0,0,0,0.1,0l1.1,0.1c0,0,0.1,0,0.1,0.1v4.6
			l2.4,0.2c0,0,0.1,0,0.1,0.1L696.3,113C696.4,112.9,696.4,112.9,696.3,113C696.4,113,696.4,113,696.3,113"/>
		<path class="st2" d="M673.7,97.7c0.1,0,0.2,0.1,0.3,0v0c0,0-0.1,0-0.1-0.1h0c0.1,0,0.2,0,0.2,0.1c0,0,0,0,0,0c0,0,0,0,0,0.1
			c-0.1,0-0.3-0.1-0.3,0.1c0,0,0,0,0,0c0,0,0,0,0,0c0,0,0,0,0,0c0.1,0.1,0.1,0.1,0.2,0.1c0,0,0,0.1,0,0.1c0,0,0,0,0,0
			c0,0,0,0.1,0,0.1c0,0.1,0.2,0.1,0.2,0.2c0,0,0,0,0,0.1c0.1,0,0.1,0.1,0.2,0.1c0,0,0,0,0,0c0.1,0.1,0.3,0,0.4,0.1c0,0,0,0,0,0
			c0.1,0,0.2,0,0.3,0.1l0,0c0,0,0,0,0,0c0.1,0,0.1-0.1,0.1-0.1c0,0,0,0,0-0.1c0.1,0,0.1,0,0.2-0.1c0,0,0,0,0-0.1c0,0,0,0,0,0
			c0,0,0,0,0,0c0,0,0,0-0.1-0.1h0c0,0,0.1,0,0.1,0c0,0,0,0,0,0c0,0,0,0,0,0c0.1,0,0.1,0,0.2,0c0,0,0,0,0,0c0,0,0,0,0,0
			c0,0,0,0,0,0.1l0,0c0.2,0,0.3,0,0.4,0v0c0.2,0,0.4,0.1,0.6,0.1c0.1,0-0.7-0.5-1.4-0.6c-0.6-0.1-1.3,0-1.2,0
			C673.9,97.7,673.8,97.6,673.7,97.7C673.7,97.6,673.7,97.6,673.7,97.7C673.7,97.6,673.7,97.6,673.7,97.7
			C673.7,97.7,673.7,97.6,673.7,97.7C673.7,97.7,673.7,97.7,673.7,97.7L673.7,97.7z M675.3,98.4C675.3,98.4,675.3,98.4,675.3,98.4
			C675.3,98.4,675.3,98.4,675.3,98.4 M667.1,112.8c0.1,0.1,0.2,0.3,0.3,0.4c0.2,0.2,0.6,0.4,0.7,0.6c0.1,0.1,0.1,0.1,0.2,0.2
			c0,0,0,0.1,0,0.1c0,0.1,0.1,0.2,0,0.3c0,0,0,0.1,0,0.1c0,0,0,0.1,0,0.1c0,0.1-0.1,0.2-0.1,0.3c0,0,0,0,0,0c0,0,0,0.1,0,0.1h0
			c0,0.1,0,0.1,0,0.2c0,0.1,0,0.1,0,0.2c0,0,0,0-0.1,0.1c0,0,0,0,0,0.1c0,0.1,0,0.2-0.1,0.3c0,0.1,0,0.2-0.1,0.2c0,0.1,0,0.1,0,0.3
			c0,0,0,0,0,0c0,0.2,0.1,0.4,0,0.5c0,0,0,0.1,0,0.1c-0.1,0.2-0.1,0.3-0.1,0.5c0,0,0,0,0,0v0.1c0,0,0,0-0.1,0l0,0
			c0,0.1,0.1,0.3,0.1,0.4c0,0.1-0.1,0.2,0,0.4v0c0,0,0,0,0,0c0,0.1,0,0.1,0,0.2c0,0,0,0,0.1,0c0,0,0,0,0,0c0-0.1,0-0.2,0-0.2
			c0,0,0,0,0,0c0,0,0,0,0,0c0,0,0,0,0,0c0,0,0,0,0,0c0,0,0,0,0,0c0,0,0,0,0,0c0,0,0.1,0.1,0,0.1c0,0,0,0,0,0c0,0.1,0,0.2,0,0.3h0
			c0,0,0-0.1,0-0.2c0,0-0.1-0.1-0.1-0.1c0,0,0,0.1,0,0.1c0,0,0,0,0.1,0.1c0,0,0,0.1,0,0.1H668c0,0,0,0,0,0c0,0,0,0-0.1,0v0
			c0,0,0,0,0,0c0,0,0,0,0,0c0,0,0.1,0,0.1,0.1c0,0,0,0,0,0c0,0,0,0,0,0c0,0,0,0,0,0.1c0,0,0,0-0.1,0v0c0,0,0,0,0,0c0,0,0,0,0,0
			c0,0.1,0,0.2,0.1,0.2c0,0,0.1,0,0.1,0.1c0,0,0,0,0,0c0,0,0,0.1,0,0.1c0,0,0,0,0,0c0,0,0,0,0-0.1c0,0,0,0,0,0.1h0c0,0,0,0.1,0,0.1
			c0,0,0.1,0,0.1,0c0,0,0,0,0,0l0,0c0,0-0.1,0-0.1,0c0,0,0,0,0,0c0,0,0.1,0.1,0.1,0.1c0,0,0,0,0,0c0,0,0.1,0.1,0.1,0.1
			c0,0-0.1,0-0.1,0c0,0.1,0.1,0.1,0.1,0.1c0,0,0,0,0,0c0.1,0.1,0.3,0.2,0.3,0.2c0,0,0,0,0,0c0.1,0.1,0.3,0.1,0.4,0.2c0,0,0,0,0-0.1
			c0,0,0.1,0,0.1,0v0c0,0,0,0,0,0c0,0,0,0,0,0v0c0,0,0.1,0,0.1,0c0,0,0,0,0,0v0c-0.2,0-0.3-0.2-0.4-0.2c0,0,0,0,0,0
			c0,0-0.1,0-0.1-0.1c0,0,0,0,0,0l0,0c0,0,0.1,0,0.1,0c-0.1-0.1-0.1-0.1-0.2-0.2c0,0,0,0,0,0c0,0,0.1,0,0.1,0c0,0,0-0.1,0-0.1
			c0,0,0.1,0,0.2-0.1c0,0,0-0.1,0-0.1c-0.1-0.1-0.3-0.1-0.2-0.3c0.1,0,0.1-0.1,0.2,0h0c0,0,0,0,0,0c0,0,0,0,0,0c0,0,0-0.1,0-0.1
			c0,0,0.1-0.1,0.1-0.1c0,0-0.1,0-0.1-0.1l0,0c0,0,0,0,0.1,0c0,0,0,0,0.1,0.1c0,0,0,0,0.1,0c0,0,0,0,0,0c0,0,0-0.1,0-0.1
			c0,0,0,0,0,0c0,0,0,0-0.1,0c0,0,0,0,0,0v0c0,0,0,0,0,0c0,0,0,0-0.1,0c0,0,0-0.1,0-0.2c0.1-0.1,0.2,0.1,0.2,0.1c0.1,0,0.1,0,0.2,0
			c0,0,0-0.1,0-0.1c0,0,0,0,0,0c0,0,0,0,0,0c0,0,0.1-0.1,0.1-0.2c0,0,0,0,0,0c0,0,0,0,0,0c0.1,0,0.5,0.1,0.7,0c0,0,0.1-0.1,0.2-0.2
			V118c-0.1,0-0.1,0-0.1-0.1c0,0,0,0,0.1,0c0-0.1-0.2-0.1-0.2-0.2c0,0,0,0,0,0c0,0,0,0,0,0c0,0,0,0,0.1,0.1c0,0,0.1,0,0.1,0
			c0,0,0.1,0.1,0.1,0.1c0,0,0.1,0,0.1,0c0,0,0.1,0.1,0.1,0.1c0.1,0,0.2-0.1,0.2-0.1c0,0,0.1,0,0.1-0.1c0,0,0.1-0.1,0.1-0.1
			c0.1,0,0.2-0.1,0.3-0.1c0.1-0.1,0.2-0.2,0.3-0.3c0.1-0.1,0.3-0.1,0.3-0.3c0,0,0,0,0,0c0-0.1,0-0.2,0.1-0.2c0-0.1,0.5-0.3,0.6-0.3
			c0,0,0.1,0,0.1,0.1c0,0,0,0,0,0c0,0,0,0,0,0c0.1,0,0.1-0.1,0.2-0.1c0,0,0,0,0,0v0c0.1,0,0.4,0.1,0.5,0.1c0,0,0,0,0,0
			c0-0.1,0.1-0.1,0.2-0.1c0.1,0,0.1-0.2,0.1-0.2c0.1-0.1,0.1-0.1,0.2-0.2c0,0,0.1,0,0.1-0.1c0.1-0.1,0-0.2,0.2-0.3
			c0-0.1,0.1-0.2,0.1-0.3c0,0,0.1-0.1,0.1-0.1c0-0.1,0-0.2,0.1-0.3c0-0.1,0.1-0.1,0.1-0.3c0.1,0,0.2,0,0.2-0.1l0.4-0.3
			c0,0,0.1,0,0.1,0c0.1,0,0.1-0.1,0.2-0.1c0.2-0.1,0.3-0.2,0.4-0.5c0-0.1,0-0.1,0-0.1c0-0.1,0.1-0.7,0.1-0.7
			C671,112.8,667.1,112.8,667.1,112.8 M668.7,119.9L668.7,119.9C668.7,119.9,668.7,119.9,668.7,119.9
			C668.7,119.9,668.7,119.9,668.7,119.9C668.7,119.9,668.7,119.9,668.7,119.9 M668.8,119.9C668.8,119.9,668.8,119.9,668.8,119.9
			C668.8,119.9,668.8,119.9,668.8,119.9L668.8,119.9C668.8,120,668.8,119.9,668.8,119.9 M668.9,120.1L668.9,120.1L668.9,120.1z
			 M669,120C669,120,669,120,669,120C669,120.1,669,120.1,669,120C669,120.1,669,120.1,669,120c-0.1,0-0.1,0-0.1,0l0,0
			c0,0,0-0.1,0-0.1c0,0,0,0,0,0.1C669,120,669,120,669,120 M669,119.9C669,119.9,669,119.9,669,119.9C669,119.9,669,119.9,669,119.9
			C669,119.9,668.9,119.9,669,119.9L669,119.9C668.9,119.9,668.9,119.9,669,119.9C669,119.9,669,119.9,669,119.9 M669.7,118.3
			C669.6,118.3,669.6,118.3,669.7,118.3C669.7,118.3,669.6,118.3,669.7,118.3L669.7,118.3z M671.7,117.4c0,0-0.1,0-0.1,0v0
			c0,0-0.1,0-0.1,0.1c0,0,0,0,0,0C671.5,117.4,671.5,117.4,671.7,117.4C671.6,117.3,671.6,117.3,671.7,117.4L671.7,117.4z
			 M672.2,116.9C672.2,116.9,672.2,116.9,672.2,116.9C672.2,116.9,672.2,116.9,672.2,116.9C672.2,116.9,672.2,116.9,672.2,116.9
			 M672.2,116.9C672.2,116.9,672.2,116.9,672.2,116.9C672.2,116.9,672.2,116.9,672.2,116.9 M673.4,116.2L673.4,116.2L673.4,116.2
			L673.4,116.2z M663,103.9L663,103.9c0.1-0.1,0.1-0.1,0.1-0.3c0,0,0,0,0,0c0,0,0,0,0,0c0-0.1,0.1-0.4,0.1-0.5c0-0.1,0-0.2,0-0.3
			c0-0.2,0.1-0.6,0.2-0.8c0,0,0,0,0,0c0,0,0,0,0,0c0,0.1-0.1,0.3-0.1,0.4c0,0-0.1,0.1-0.1,0.1c0,0,0,0,0,0c0,0,0,0,0,0
			c0,0,0,0.2,0,0.2c0,0,0,0,0,0c0,0,0,0,0,0c0,0,0,0.1,0,0.1c0,0,0,0,0,0c0,0,0,0.1,0,0.1h0c0,0.1,0,0.1-0.1,0.2
			c0,0.1,0.1,0.1,0.1,0.2c0,0,0,0,0,0.1c0.1,0.1,0.2,0.7,0,0.8c0,0,0,0,0,0.1c0,0,0,0-0.1,0c-0.1,0.2,0.1,0.3,0.1,0.5c0,0,0,0,0,0
			c0,0,0.8,0,1.2,0c0,0,0,0-0.1,0c0,0-0.1-0.5-0.1-0.5c0,0,0-0.1,0-0.1c-0.1-0.2,0-0.3,0.1-0.4c0-0.1,0.1-0.2,0.1-0.3
			c0,0,0.1,0,0.2-0.1c0-0.1,0-0.1,0-0.2c0-0.1,0.1-0.1,0.1-0.2c0,0,0.1,0,0.1-0.1c0,0,0,0,0,0c0,0,0,0,0,0c0,0,0,0,0,0c0,0,0,0,0,0
			c0,0,0,0,0,0c0.1,0,0.2,0,0.3-0.1c0.1,0,0,0,0-0.1c0,0,0,0,0.1,0l0,0c0,0,0,0,0,0c0,0,0,0,0,0c0,0,0.1,0,0.2,0
			c0.1,0,0.2,0.1,0.3,0.1h0l0,0c0,0,0,0,0,0c0,0,0,0,0,0c0,0,0,0,0.1,0c0,0,0,0.1,0.1,0.1c0,0,0,0,0,0l0,0c0,0,0,0,0.1,0.1
			c0,0,0.1,0,0.1,0c0,0,0,0,0,0c0,0,0.1,0,0.1-0.1c0,0,0,0.1,0.1,0.1c0,0,0,0,0,0c0,0,0,0,0,0c0,0,0,0-0.1-0.1l0,0c0,0,0,0,0.1,0
			c0,0,0,0,0-0.1c0,0,0,0-0.1,0c0,0,0,0,0,0c0.1-0.1,0.2-0.1,0.3,0c0,0,0,0,0-0.1l0,0v0.1c0.2,0,0.3,0,0.4,0.1c0,0,0,0.1,0,0.1
			c0,0,0.2,0,0.3,0c0,0,0.1,0.2,0.1,0.2c0.1,0.1-0.1,0.2-0.1,0.3c0,0,0,0,0,0c0,0,0,0,0-0.1l0,0c0,0,0,0,0,0c0,0-0.1,0-0.1,0.1
			c0,0,0,0.1,0,0.2c0,0,0,0,0,0c0,0,0,0,0,0c0,0,0,0.1,0,0.1c0,0,0,0,0,0c0,0,0,0,0,0.1c0,0.1,0.1,0.1,0.1,0.2c0,0.1,0.2,0,0.2,0
			c0-0.1,0.1-0.2,0.1-0.3c0-0.1,0-0.3,0-0.4c0,0,0,0,0,0c0-0.1,0-0.2-0.1-0.3c0-0.4,0.3-0.5,0.6-0.6c0.1,0,0.1-0.2,0.3-0.1
			c0.1-0.1,0.3-0.1,0.4-0.1c0,0,0,0,0,0c0,0,0,0,0,0v0c0,0,0.1,0,0.2,0c0,0,0,0,0,0c0,0-0.1-0.1-0.1-0.1c0,0,0.1,0,0.1,0v0.1
			c0,0,0-0.1,0-0.2c0,0,0,0,0,0c0,0,0,0,0,0c0,0,0.1-0.1,0.1-0.1c0,0,0-0.1,0-0.2c0,0,0.1-0.1,0.1-0.1c-0.1,0.1,0,0.1-0.1,0.2
			c0,0,0,0,0.1,0c0,0-0.1,0.1-0.1,0.1l0,0c0,0,0,0,0,0c0-0.1,0.2-0.1,0.3-0.3c-0.1,0,0-0.1,0-0.1c0,0,0,0.1,0.1,0.1c0,0,0,0,0,0
			c0.1,0,0.3-0.1,0.3-0.2c0,0,0,0,0,0l0,0c0.1,0,0.3,0,0.4,0c0,0,0,0,0,0c-0.1,0-0.2,0-0.3,0c0.1-0.1,0.5,0,0.7,0c0,0,0.1,0,0.1,0
			c0,0,0,0,0,0c0,0,0,0,0,0c0,0,0,0,0,0c0,0,0,0-0.1,0c0,0,0-0.1-0.1-0.1v0c0,0,0.1,0,0.1,0c0,0,0,0,0,0c0-0.1,0.1-0.1,0.2-0.1
			c0.1,0,0.2,0,0.3,0c0,0,0,0,0,0c0.1,0,0.3,0,0.4,0c0,0,0,0,0,0c0,0,0.1,0,0.1,0c0.1,0,0.3,0,0.4,0l0,0c0,0-0.1,0-0.1,0l0,0
			c0,0,0.1,0,0.1,0c-0.1,0-0.3,0-0.4,0.1l0,0c0,0,0,0,0.1,0c0,0,0,0,0,0c0,0,0,0,0,0.1h0c0,0,0,0.1,0.1,0.1c0.1,0,0.2-0.1,0.3-0.1
			c0,0,0,0,0,0c0,0,0,0,0,0c0,0,0,0,0,0c0,0,0,0,0.1,0.1c0.1-0.1,0.4,0,0.5,0h0c0,0,0,0-0.1,0c0,0,0,0,0,0c0.1,0,0.2,0,0.3,0v0
			c0,0-0.1-0.1-0.1-0.1v0c0,0,0,0,0.1-0.1c0,0,0,0,0,0c0,0,0,0,0,0c-0.1,0-0.2,0.1-0.2,0.2c-0.1,0-0.1,0-0.1-0.1
			c-0.2,0-0.2-0.1-0.4-0.1c0,0,0,0,0,0h0l0,0c0,0-0.1,0-0.1,0c0,0,0-0.1-0.1-0.1c0,0,0,0,0,0c0,0,0,0-0.1,0v0c0.1,0,0.1,0,0.2-0.1
			c0,0,0,0,0,0c-0.1,0-0.1,0-0.2,0c0,0-0.1-0.1-0.1-0.1l0,0c0.1,0,0.1,0.1,0.2,0.1c0.1,0,0.1,0,0.2,0v0c0,0,0,0,0,0c0,0,0,0,0,0
			c-0.2-0.2-0.8-0.2-1-0.1c-0.1,0-0.2,0.1-0.3,0.1c0.1-0.1,0.4-0.2,0.5-0.2c0,0,0.2,0,0.2,0c0,0,0,0,0.1-0.1c0.1-0.1,0.2,0,0.4,0
			c0.2,0,0.3,0.1,0.5,0.1c0.1,0,0.4,0.1,0.5,0.1c0.1,0,0.2,0,0.2-0.1c0.2-0.1,0.5,0.1,0.6,0c0,0,0,0,0,0c0,0,0,0,0,0
			c0,0,0-0.1,0-0.2c0,0-0.1,0-0.1,0c0,0,0,0,0,0c-0.1,0-0.1,0-0.1,0c0-0.1-0.1-0.1-0.2-0.1c0.1,0,0.1,0,0.2,0c0,0-0.1-0.1-0.1-0.1
			c-0.1,0-0.1,0-0.2,0c0,0,0,0,0,0c0,0-0.1,0-0.1,0c0,0,0-0.1-0.1-0.1c0,0,0,0,0,0c0,0-0.1-0.1-0.2-0.1c0,0,0,0,0,0c0,0,0-0.1,0-0.1
			c0,0,0,0,0,0c0,0,0,0,0-0.1c-0.1,0-0.1-0.1-0.1-0.1h0c-0.1-0.1-0.2-0.3-0.2-0.3c-0.2,0-0.4,0.3-0.6,0.1c0,0-0.1-0.1-0.1-0.1
			c0,0,0,0,0-0.1c0,0,0,0,0,0c0-0.1,0-0.1,0-0.1c0,0,0,0,0.1,0c0,0,0,0,0,0c0,0,0,0-0.1,0c0-0.1-0.1-0.1-0.2-0.1c0,0,0,0,0,0
			c0,0,0,0,0,0c0,0-0.2-0.1-0.2-0.2c-0.1,0-0.1,0-0.2,0c-0.1,0-0.3-0.1-0.4-0.1c0,0,0,0,0,0c0,0,0,0,0,0c0,0,0,0,0,0
			c0,0-0.1,0.1-0.1,0.1c0.1,0.1,0,0.1,0,0.1c0,0-0.2,0.1-0.2,0.1c0,0,0,0,0,0c0.1,0,0.2,0.1,0.2,0.2c-0.1,0.2-0.2,0.2-0.4,0.2
			c-0.1,0-0.1,0-0.2,0h0c0,0,0,0.1,0,0.1c0,0.1-0.1,0.2-0.1,0.2c0,0-0.1,0.1-0.1,0.1v0.1l0,0c0,0,0,0,0,0c-0.1,0-0.1,0-0.1,0
			c0,0,0,0-0.1,0c0-0.1-0.1-0.2-0.1-0.3c0,0,0.1-0.1,0.1-0.1c0,0,0,0,0-0.1c0,0,0.1-0.1,0.1-0.1c-0.1,0-0.6-0.1-0.6-0.2
			c0,0,0-0.1-0.1-0.1c-0.1,0-0.1-0.1-0.2-0.1c-0.1,0-0.1,0-0.2,0h0c0.1-0.1,0.1-0.1,0.1-0.2c0,0-0.1,0-0.1,0v0
			c0.1-0.2,0.6-0.3,0.8-0.3c0,0,0,0,0,0c0.1,0,0.1,0,0.2,0c0,0,0,0,0-0.1h0c0.1,0,0.5,0,0.6-0.1c0,0,0,0,0,0c0.1,0,0.1,0,0.2,0h0v0
			c0,0,0,0,0,0l0,0l0.1,0c0,0,0.1,0.1,0.1,0.1c0,0,0,0,0,0l0,0c0,0,0,0,0,0c0,0,0,0,0,0v0c0,0,0,0,0.1,0c0,0,0,0,0-0.1
			c0,0,0.1,0,0.1,0.1v0c0.1,0,0.2,0,0.3,0c0,0,0,0-0.1-0.1c0,0-0.6-0.4-1.4-0.3c-0.5,0-2.2,0.6-3.6,1.3c-1.1,0.5-1.9,1.2-1.9,1.2
			c-0.4,0.4-0.8,0.8-1,1.4c0,0-0.1,0.1-0.1,0.1c0,0-0.1,0.3-0.1,0.4c0,0,0,0,0.1,0c0,0.1,0.1,0.1,0,0.2c0,0.2-0.2,0.4-0.2,0.5
			c0,0,0,0.1,0,0.2c0,0.1,0,0.1,0,0.2c0,0-0.1,0.1-0.1,0.1c0,0,0,0-0.1,0c0,0.1,0,0.1,0,0.2c0,0,0,0,0,0c0.1,0.1,0,0.3-0.1,0.4
			C662.9,103.6,663,103.7,663,103.9 M670.7,101.2L670.7,101.2L670.7,101.2C670.7,101.2,670.7,101.2,670.7,101.2 M673.2,100.9
			L673.2,100.9C673.3,100.9,673.3,100.9,673.2,100.9L673.2,100.9z M673.2,100.9C673.2,100.9,673.2,100.9,673.2,100.9
			C673.2,100.9,673.2,101,673.2,100.9C673.2,101,673.2,101,673.2,100.9C673.2,101,673.2,100.9,673.2,100.9 M672.7,100.9
			c0,0-0.1,0-0.1,0c0,0,0,0,0,0c0,0,0,0,0,0C672.6,100.9,672.6,100.9,672.7,100.9 M674.2,99.9C674.2,99.9,674.2,99.9,674.2,99.9
			L674.2,99.9C674.1,99.9,674.2,99.9,674.2,99.9 M673.7,99.8C673.7,99.8,673.7,99.8,673.7,99.8c0.1,0,0.2,0,0.2,0
			C673.8,99.8,673.7,99.8,673.7,99.8C673.7,99.8,673.7,99.8,673.7,99.8 M670.9,101.2C670.9,101.2,670.9,101.2,670.9,101.2
			C670.9,101.2,670.9,101.2,670.9,101.2 M666.5,102.6C666.5,102.6,666.5,102.6,666.5,102.6C666.5,102.6,666.5,102.7,666.5,102.6
			C666.4,102.6,666.5,102.6,666.5,102.6 M664.5,104.2C664.5,104.3,664.5,104.3,664.5,104.2C664.6,104.3,664.5,104.3,664.5,104.2
			L664.5,104.2z M663.5,101.7c0,0.1,0,0.1-0.1,0.2h0C663.4,101.9,663.4,101.8,663.5,101.7 M663.4,102C663.4,102,663.4,102,663.4,102
			C663.4,102,663.4,102,663.4,102 M671.8,98c0.1,0,0.2,0,0.3,0.1c0.1,0,0.1,0.1,0.2,0.1c0,0,0,0-0.1,0c0,0,0,0.1,0.1,0.1
			c0,0,0,0,0,0c0,0,0,0,0.1,0.1h0c0,0,0,0,0,0c0.2,0.1,0.4,0.2,0.6,0.2c0,0,0,0,0,0c-0.1-0.1-0.2-0.2-0.3-0.2c0,0,0,0,0,0
			c0,0,0.1,0,0.1,0.1v0c0.1,0.1,0.3,0.2,0.4,0.2c0,0,0,0,0,0h0c0,0-0.1,0-0.1-0.1c0,0,0,0,0.1,0c0,0,0,0,0-0.1l0,0c0,0,0,0,0,0
			c0,0,0,0,0,0c0,0,0,0,0,0c0,0,0,0,0,0h0c0,0-0.1-0.1-0.1-0.1c0,0,0,0,0,0c0,0,0,0,0,0v0c0,0-0.2-0.1-0.2-0.1c0,0,0-0.1-0.1-0.1
			c0,0,0,0,0,0l0,0c0,0,0,0,0,0c0.1,0,0.2,0.1,0.2,0.1c0,0.1,0.2,0.1,0.2,0.2c0,0,0,0,0.1,0c0,0,0,0,0,0c0,0,0,0,0,0
			c0,0,0.1,0,0.1,0v0c0,0,0,0,0,0c0,0,0,0,0,0c0,0,0,0,0,0c0,0,0,0,0,0c0,0,0,0,0,0c0.1,0,0.1,0,0.1,0c0-0.1-0.1-0.1-0.2-0.1
			c0,0,0,0,0,0h-0.1c0,0,0-0.1-0.1-0.1c0,0,0,0,0,0c0,0-0.1-0.1-0.1-0.1l0,0c0,0,0,0,0,0c-0.1,0-0.1,0-0.1,0c0,0,0,0-0.1-0.1l0,0
			c-0.1,0-0.1,0-0.2,0c0,0,0,0,0,0c0,0,0,0,0,0c0.1,0,0.1,0,0.1,0l0,0c0,0-0.1,0-0.1,0l0,0c0,0,0.1,0,0.1,0l0,0c-0.1,0-0.1,0-0.2,0
			c0,0,0,0,0.1,0c-0.1-0.1-0.2,0-0.2-0.1c0,0-0.1-0.1-0.1-0.1c-0.1,0-0.2-0.1-0.3-0.1c0,0,0,0,0,0c-0.1,0-0.1-0.1-0.2-0.1h0.1
			c0-0.1-0.3,0.1-0.4,0.1c0,0,0.1,0.1,0.1,0.1c0,0,0,0,0,0h0c0,0,0.2,0,0.2,0c0,0,0,0,0,0c0,0,0,0-0.1,0h0c0,0,0.1,0,0.1,0
			c0,0,0,0,0,0.1c0,0-0.1,0-0.1,0c0,0,0.1,0.1,0.2,0.1l0,0c0,0,0,0-0.1,0c0,0,0,0,0,0c0,0,0.1,0,0.1,0c0,0,0,0.1,0,0.1
			c-0.1,0-0.2,0-0.3,0c0,0,0,0,0,0c0,0,0,0,0.1,0.1c-0.1,0-0.2,0-0.2,0c-0.2,0-0.3-0.1-0.4,0c0,0,0,0,0,0
			C671.6,98,671.7,98,671.8,98 M672.8,98C672.7,98,672.8,98,672.8,98C672.7,98,672.8,98,672.8,98 M672.3,97.7
			C672.4,97.7,672.4,97.7,672.3,97.7C672.3,97.7,672.4,97.7,672.3,97.7 M672.5,97.9C672.5,97.9,672.6,97.9,672.5,97.9
			c0.1,0,0.1,0,0.2,0c0,0,0,0,0,0c0,0,0,0,0,0C672.6,98,672.6,98,672.5,97.9C672.5,98,672.5,97.9,672.5,97.9 M672.4,98
			c0,0,0.1,0,0.1,0.1c0,0,0,0,0,0C672.5,98.1,672.4,98.1,672.4,98L672.4,98L672.4,98C672.4,98.1,672.4,98,672.4,98 M672.1,97.8
			C672.2,97.7,672.2,97.7,672.1,97.8L672.1,97.8c0-0.1-0.1-0.1-0.2-0.1c0,0-0.1,0-0.1,0l0,0C671.9,97.8,672.1,97.8,672.1,97.8
			 M671.2,98c0,0-0.1,0-0.1,0C671.1,97.9,671.1,97.9,671.2,98c-0.2-0.1-0.3-0.1-0.3-0.2c0,0,0-0.1,0-0.1c0,0,0,0,0,0
			c-0.1,0-0.3,0.1-0.3,0.1c-0.1,0-0.1,0-0.2,0c0,0,0.1,0,0.2,0c0,0,0,0,0,0c0,0,0,0,0,0c0.1,0,0.3,0,0.3,0c0,0,0.1,0,0.1,0
			c0,0,0,0,0,0C671,98,671.1,98,671.2,98C671.2,98,671.2,98,671.2,98 M670.8,97.8C670.8,97.8,670.8,97.7,670.8,97.8
			C670.9,97.7,670.9,97.7,670.8,97.8L670.8,97.8C670.9,97.8,670.9,97.8,670.8,97.8 M673.3,97.9C673.3,97.9,673.3,97.9,673.3,97.9
			C673.3,97.9,673.3,97.9,673.3,97.9 M670.7,98C670.7,98,670.7,98.1,670.7,98c0.1,0,0.2,0,0.3,0l0,0c-0.1,0-0.1,0-0.2,0
			C670.7,98,670.7,98,670.7,98 M671.6,98C671.6,98,671.6,98,671.6,98L671.6,98C671.6,98,671.6,98,671.6,98 M671.4,98
			C671.4,98.1,671.4,98.1,671.4,98c0.1,0,0.1,0,0.1,0c0,0,0,0,0,0L671.4,98z M671.6,98.1L671.6,98.1L671.6,98.1
			C671.7,98.1,671.7,98.1,671.6,98.1C671.6,98.1,671.6,98,671.6,98.1C671.6,98.1,671.6,98.1,671.6,98.1 M671.1,98.1
			C671.1,98.1,671.1,98.1,671.1,98.1C671.1,98.2,671.1,98.2,671.1,98.1C671.1,98.2,671.1,98.2,671.1,98.1
			C671.1,98.2,671.2,98.2,671.1,98.1C671.2,98.2,671.2,98.2,671.1,98.1C671.2,98.1,671.2,98.1,671.1,98.1 M672.2,98.2L672.2,98.2
			L672.2,98.2L672.2,98.2z M672,98.2C671.9,98.2,671.9,98.2,672,98.2C671.9,98.2,671.9,98.2,672,98.2L672,98.2z M671.2,98.3
			L671.2,98.3C671.2,98.3,671.2,98.3,671.2,98.3C671.2,98.3,671.2,98.3,671.2,98.3L671.2,98.3z M677.1,98.8L677.1,98.8
			c0.1,0,0.2,0.1,0.3,0.1l0,0c0,0,0,0-0.1,0c0,0,0,0,0,0c0.2,0,0.6,0.3,0.8,0.1c-0.1-0.1-0.2-0.1-0.3-0.2c0,0-0.1,0-0.1,0h0
			c0,0,0,0,0,0c-0.1,0-0.2,0-0.2-0.1c0,0,0,0,0,0c0,0-0.1,0-0.1-0.1c0,0,0,0,0,0.1c0,0,0,0-0.1,0c-0.1-0.1-0.1-0.1-0.3-0.2
			c0,0,0,0,0,0c0,0,0,0-0.1,0C677.1,98.7,677.1,98.7,677.1,98.8c0-0.1,0.1,0,0.2,0C677.3,98.8,677.2,98.8,677.1,98.8 M672.4,98.5
			L672.4,98.5L672.4,98.5C672.4,98.5,672.4,98.5,672.4,98.5 M673.1,98.6L673.1,98.6C673.1,98.6,673.1,98.6,673.1,98.6
			C673.1,98.6,673,98.6,673.1,98.6 M673.1,98.6C673.1,98.6,673.2,98.6,673.1,98.6c0.1,0.1,0.1,0,0.1,0
			C673.2,98.6,673.2,98.6,673.1,98.6C673.2,98.6,673.2,98.6,673.1,98.6C673.1,98.6,673.1,98.6,673.1,98.6 M672.6,98.6
			C672.6,98.6,672.6,98.6,672.6,98.6C672.6,98.7,672.7,98.7,672.6,98.6L672.6,98.6C672.7,98.6,672.7,98.6,672.6,98.6
			C672.7,98.6,672.6,98.6,672.6,98.6L672.6,98.6z M679.5,100C679.5,100.1,679.5,100.1,679.5,100c0.1,0.2,0.2,0.2,0.3,0.3
			c0,0,0,0,0,0c0,0,0,0.1,0,0.1c0,0,0.2,0.1,0.3,0.1c0,0,0-0.1,0-0.1c0,0,0,0,0,0c0,0,0,0,0,0c0.2,0.1,0.3,0.3,0.5,0.4
			c0,0,0,0,0,0.1c0,0,0,0-0.1,0.1c0,0,0.1,0.1,0.1,0.1c0,0,0,0-0.1,0c0,0,0,0,0.1,0c0,0,0,0,0,0v0c0,0,0-0.1-0.1-0.1c0,0,0,0,0,0
			c0,0,0,0,0,0c0,0,0.1,0.1,0.1,0.1c0,0,0.1,0,0.1,0v0l0-0.1c0,0,0,0,0,0c0,0,0,0,0.1,0c0,0,0,0,0-0.1c0,0,0.3,0.3,0.3,0.3
			c0,0,0,0,0,0.1c0,0,0,0,0,0c0,0.1-0.1,0-0.1,0c0,0,0,0,0,0c0,0,0,0-0.1-0.1v0c0,0,0,0,0,0c0,0,0,0,0,0.1c0,0,0,0,0,0
			c0,0,0-0.1,0-0.1c0,0,0,0,0,0c0,0,0,0,0,0c-0.1,0-0.1,0-0.1-0.1c0,0,0,0,0,0c0,0,0,0-0.1,0v0c0,0,0.1,0.1,0.1,0.1
			c0-0.1-0.1-0.1-0.2-0.1c0,0,0-0.1,0-0.1c0,0,0,0,0,0c0,0,0,0,0,0c-0.1-0.1-0.2-0.1-0.2-0.2c0,0,0,0,0,0c0,0,0,0,0,0.1h0
			c0,0,0,0,0,0c0,0.1,0.3,0.3,0.3,0.4c0,0,0,0,0,0c0,0,0.1,0.1,0.1,0.1c0,0,0,0,0,0c0,0,0,0-0.1,0v0c0,0-0.1,0-0.1,0c0,0,0,0,0,0
			c0,0,0,0,0,0c0,0,0,0,0,0c0,0,0,0.1,0,0.1c0,0,0,0,0,0c0,0.1,0,0.1,0,0.1c0,0,0,0,0,0c0-0.1-0.1-0.1-0.1-0.2l0,0h0
			c0,0.1,0.1,0.2,0,0.3c0,0-0.1,0-0.1,0.1c0,0,0,0.1,0.1,0.1c0,0,0,0-0.1,0c0,0,0,0,0,0.1c0,0,0,0,0,0c-0.1,0-0.2-0.1-0.2-0.1
			c0,0,0,0,0,0c0,0.1,0.1,0.1,0.1,0.2l0,0c-0.1,0-0.1,0-0.1,0c0,0-0.1,0-0.1-0.1c0,0-0.1,0-0.2,0.1h0c0,0,0.1,0,0.1,0.1c0,0,0,0,0,0
			c0.1,0.1,0.2,0.1,0.3,0.1c0,0,0.3,0.3,0.3,0.3c0,0,0,0,0,0c0.1,0.1,0.2,0.3,0.2,0.5c-0.1,0.1-0.4,0-0.6-0.1c0,0-0.1,0-0.2,0
			c0,0,0,0-0.1,0c0,0-0.1,0,0,0.1c0,0-0.1,0-0.1,0l0,0c0,0.1,0,0.1,0.1,0.1c0,0,0,0,0,0c0,0.1,0.1,0.2,0.1,0.3c0,0.1,0,0.4,0,0.5
			c0,0,0,0,0.1,0.1c0,0,0,0,0,0c0,0.1,0.1,0.2,0.1,0.3c0.1,0,0.1,0,0.2,0c0,0,0,0,0.1,0c0.1-0.1,0.2,0.2,0.3,0.2
			c0,0,0.1-0.1,0.1-0.1c0.1,0,0.2,0,0.2,0c0,0,0,0,0,0c0,0,0,0,0.1,0c0,0,0-0.1,0.1-0.2c0,0,0,0,0.1,0c0,0,0-0.1,0-0.2
			c0,0,0,0,0.1-0.1c-0.2-0.1,0-0.3-0.1-0.4c0-0.1,0.1,0,0.1-0.1c0,0,0.1-0.1,0.1-0.1c0-0.1-0.1-0.2-0.1-0.3c0,0,0,0,0-0.1
			c0.1,0,0.2,0.1,0.3,0.1c0,0,0-0.1,0.1-0.1c0,0,0-0.1,0-0.1v0c0.2,0,0.3,0.3,0.4,0.4c0,0,0.3,0.2,0.3,0.3c0,0,0,0,0.1,0
			c0,0,0,0.1,0,0.1c0.2,0.2,0.3,0.2,0.3,0.5c0,0-0.1,0-0.1,0.1c-0.1,0-0.1,0-0.1,0c0,0,0,0,0,0c0,0,0,0,0,0h0c0,0,0,0.1,0,0.1
			c0,0,0.3,0.2,0.3,0.2c0-0.1-0.1-0.2-0.1-0.3c0,0,0,0,0,0c0-0.1,0-0.1,0-0.2c0,0,0,0,0,0c0-0.1-0.1-0.1-0.1-0.1c0-0.1,0-0.1,0-0.2
			c0,0,0,0,0,0c0,0,0.1,0.1,0.1,0.1c0-0.1-0.2-0.3-0.3-0.3c0,0,0,0,0-0.1c0,0-0.1,0-0.1,0c-0.1-0.1-0.1-0.2-0.2-0.3
			c-0.1-0.1-0.2-0.1-0.2-0.2c0,0,0,0,0,0c0,0-0.1,0-0.1-0.1c0,0,0,0,0.1,0c0,0,0,0,0,0c0,0,0.1,0.1,0.1,0.2c0,0,0,0,0,0c0,0,0,0,0,0
			c0,0,0,0,0,0.1l0,0c0,0,0,0,0-0.1c0.1,0,0.1,0.1,0.1,0.2c0.1,0.1,0.1,0.1,0.2,0.1c0,0,0,0,0,0c0,0,0,0,0,0.1l0,0c0,0,0,0,0,0
			c0,0,0,0,0,0c0,0,0,0,0,0c0,0,0,0,0,0c0,0,0,0,0.1,0c0.1,0,0.2,0.2,0.2,0.2c0,0.1,0.1,0.2,0.1,0.3c0,0.1,0.1,0.2,0.2,0.3
			c0,0,0,0,0,0c0,0,0,0,0,0.1c0,0,0.1,0.1,0.1,0.1c0,0,0,0,0,0.1c0,0.1,0.1,0.1,0.1,0.2c0,0,0,0,0,0h0c0,0,0,0,0-0.1c0,0,0,0,0,0
			c0,0,0,0.1,0,0.1l0,0c0,0,0,0,0-0.1c0,0,0,0,0,0c0-0.1-0.1-0.1-0.1-0.2c0,0,0,0,0,0l0,0v0c0,0,0-0.1-0.1-0.1c0,0,0,0,0.1,0
			c0,0,0-0.1,0-0.1c0,0,0.1,0,0.1,0.1c0-0.1-0.1-0.2-0.2-0.3c0,0,0,0,0,0c0-0.1-0.2-0.2-0.2-0.3c0,0.1,0.1,0,0.1,0.1h0
			c0,0-0.1-0.1-0.1-0.1c0,0,0,0,0,0c0,0,0.1,0,0.1,0c0,0,0,0,0,0.1c0-0.1,0-0.2,0-0.2c0,0-0.1-0.1-0.1-0.2c-0.1-0.2-0.2-0.3-0.3-0.5
			c0,0-0.7-1-1.4-1.8c-0.8-0.8-1.8-1.3-1.8-1.3c0,0,0,0-0.1,0.1c0,0,0,0,0,0.1C679.5,99.9,679.5,99.9,679.5,100
			C679.5,100,679.5,100,679.5,100 M680.5,101.3C680.5,101.3,680.5,101.3,680.5,101.3C680.5,101.3,680.5,101.3,680.5,101.3
			L680.5,101.3z M679.9,104C679.9,103.9,679.9,103.9,679.9,104L679.9,104C679.9,103.9,679.9,103.9,679.9,104 M680.6,101.3
			L680.6,101.3C680.6,101.3,680.6,101.3,680.6,101.3 M681.1,101.2C681.1,101.2,681.1,101.2,681.1,101.2
			C681.1,101.2,681.1,101.2,681.1,101.2 M683.2,104.2C683.2,104.2,683.2,104.2,683.2,104.2C683.2,104.2,683.2,104.2,683.2,104.2
			C683.2,104.2,683.2,104.2,683.2,104.2C683.1,104.2,683.2,104.2,683.2,104.2 M682,102.7L682,102.7C682,102.7,682,102.7,682,102.7
			C682,102.7,682,102.7,682,102.7 M670,99.1c0,0,0.1,0.1,0.2,0.1c0,0,0,0,0-0.1C670.2,99.1,670.1,99.1,670,99.1
			C670,99.1,670,99.1,670,99.1 M673.6,99.4L673.6,99.4C673.6,99.3,673.6,99.3,673.6,99.4C673.6,99.4,673.6,99.3,673.6,99.4
			 M674,99.7L674,99.7C674,99.7,673.9,99.7,674,99.7C673.9,99.7,673.9,99.7,674,99.7 M672.7,100.2c0.2,0.1,0.3,0.2,0.5,0.2l0,0v0
			C673.1,100.3,672.9,100.2,672.7,100.2L672.7,100.2z M674.5,100.3C674.5,100.3,674.5,100.3,674.5,100.3
			C674.5,100.3,674.5,100.3,674.5,100.3 M678.9,100.7C678.9,100.7,678.9,100.7,678.9,100.7C678.9,100.7,678.9,100.7,678.9,100.7
			C678.9,100.8,679,100.8,678.9,100.7C679,100.7,679,100.7,678.9,100.7L678.9,100.7L678.9,100.7c0.1,0.1,0.1,0.2,0.1,0.2h0l0,0
			c0,0,0,0,0,0c0,0,0,0,0,0c0,0,0,0,0-0.1c0,0,0,0,0.1,0c0,0,0,0.1,0,0.1c0,0,0,0,0.1,0.1c0,0,0,0,0,0c0,0,0,0,0.1,0v0
			c0,0,0.1,0,0.1,0c0,0.1,0,0.1,0.1,0.1c0,0.1,0,0.1,0,0.1c-0.1,0-0.1,0-0.2,0c0,0,0,0,0,0.1c0,0,0,0,0,0l0,0l0.1,0l0.1,0.1
			c0,0,0,0.1-0.1,0.1l0,0c0,0,0,0,0.1,0.1c0.1,0,0.1,0,0.2,0c0,0,0,0,0.1,0c0,0,0,0,0,0h-0.1c0,0.1,0,0.1-0.1,0.2v0c0,0,0,0,0.1,0
			c0,0,0,0,0.1-0.1c0,0,0.1,0,0.1,0c0,0,0-0.1,0-0.1c0,0,0.2,0,0.2,0h0c0,0,0,0,0,0c0.1,0,0.2,0,0.2,0l0,0c0,0,0,0,0,0
			c0,0-0.1,0-0.1,0c0,0,0-0.1,0-0.1c0-0.1-0.1-0.2-0.2-0.1c0,0,0,0,0,0c0-0.1-0.1-0.2-0.2-0.3l-0.1-0.1c-0.1-0.1-0.2-0.2-0.3-0.2
			c0,0,0,0,0.1,0c0,0,0,0,0,0c0-0.1,0-0.1,0-0.1c-0.1-0.1-0.2,0-0.3,0c0,0,0,0,0,0c0,0,0,0,0-0.1c0,0,0,0,0,0c-0.1,0-0.1,0-0.2,0
			c0,0,0,0,0,0c0,0,0,0,0,0.1c0,0,0,0,0,0C678.9,100.5,678.9,100.6,678.9,100.7c-0.1-0.1-0.1-0.1-0.1-0.1c0,0,0,0,0,0
			C678.8,100.6,678.9,100.6,678.9,100.7C678.9,100.6,678.9,100.7,678.9,100.7 M679.1,100.8L679.1,100.8
			C679.1,100.8,679.1,100.8,679.1,100.8L679.1,100.8L679.1,100.8z M673.6,100.8c0.1,0,0.6,0.1,0.6,0.2h0c0,0,0.1,0,0.1,0
			c0,0,0,0,0,0c0,0,0.1,0,0.1,0c-0.1,0-0.1,0-0.2,0c0,0,0,0,0,0c0.1,0.1,0.3,0,0.4,0c0,0,0,0,0,0c0,0.1,0,0.1-0.1,0.1c0,0,0,0,0,0
			c0,0,0.1,0,0.1,0c0,0,0,0,0,0.1c0,0,0.1,0,0.1,0c0,0,0.1-0.1,0.1-0.1c0,0,0,0,0-0.1c0,0,0,0-0.1,0l0,0c0,0,0,0,0.1-0.1
			c0,0,0,0,0,0c-0.1,0-0.1,0-0.2,0.1l0,0c0,0,0,0,0,0c0,0,0.2-0.1,0.2-0.1c0,0,0,0,0,0c0,0-0.1,0-0.2,0c0,0,0,0,0-0.1
			c0,0,0.1,0,0.1,0c-0.1,0-0.1-0.1-0.2-0.1c0,0,0,0-0.1-0.1c0,0,0,0,0,0c0,0,0,0,0,0c0,0,0,0,0,0c0,0,0,0,0,0c0,0,0,0,0,0
			c0,0,0,0-0.1,0l0,0c0,0,0,0,0,0c0,0,0,0,0,0v0c0,0,0.1,0,0.1,0v0c0,0-0.1,0-0.1-0.1c0,0-0.1,0-0.1,0c0-0.1,0.1-0.1,0.2-0.1
			c0,0,0,0,0,0c0,0,0,0-0.1,0v0c0,0,0.1,0,0.1,0c0,0,0,0,0,0v0c0,0-0.1,0-0.1,0h-0.1c0,0-0.1,0-0.1,0.1c-0.1,0-0.1,0.1-0.2,0.2
			c0,0,0,0,0,0c0,0,0,0,0,0c0,0-0.1,0-0.1,0.1c0,0,0,0,0,0C673.7,100.6,673.6,100.7,673.6,100.8
			C673.6,100.7,673.6,100.7,673.6,100.8 M678.7,100.5C678.7,100.5,678.8,100.5,678.7,100.5c0-0.1,0-0.1,0-0.1h0
			C678.7,100.4,678.7,100.5,678.7,100.5C678.7,100.5,678.7,100.5,678.7,100.5C678.7,100.5,678.7,100.5,678.7,100.5 M674.4,100.4
			L674.4,100.4L674.4,100.4z M678.7,100.5C678.7,100.5,678.7,100.5,678.7,100.5C678.7,100.5,678.7,100.5,678.7,100.5
			C678.7,100.6,678.7,100.6,678.7,100.5L678.7,100.5C678.7,100.6,678.7,100.6,678.7,100.5 M674.4,100.5
			C674.4,100.5,674.4,100.5,674.4,100.5C674.4,100.4,674.4,100.4,674.4,100.5C674.4,100.4,674.4,100.4,674.4,100.5 M680.5,100.7
			C680.5,100.6,680.5,100.7,680.5,100.7C680.5,100.7,680.5,100.7,680.5,100.7 M678.9,100.6C678.9,100.6,678.9,100.6,678.9,100.6
			C678.9,100.6,678.9,100.6,678.9,100.6L678.9,100.6z M678.7,100.7C678.7,100.6,678.8,100.6,678.7,100.7L678.7,100.7L678.7,100.7
			L678.7,100.7z M678.9,100.7C678.9,100.7,678.9,100.7,678.9,100.7L678.9,100.7C678.9,100.7,678.9,100.7,678.9,100.7
			C678.9,100.7,678.9,100.7,678.9,100.7 M678.8,100.7L678.8,100.7L678.8,100.7C678.8,100.7,678.9,100.7,678.8,100.7 M673.7,100.6
			L673.7,100.6C673.7,100.6,673.7,100.6,673.7,100.6L673.7,100.6L673.7,100.6z M674.6,100.7C674.6,100.7,674.6,100.7,674.6,100.7
			C674.6,100.7,674.6,100.7,674.6,100.7C674.6,100.7,674.6,100.7,674.6,100.7 M679,100.9c0,0,0-0.1,0-0.1
			C679,100.8,679,100.8,679,100.9C679,100.9,679,100.8,679,100.9 M679,100.8L679,100.8L679,100.8z M672.7,100.6
			C672.6,100.6,672.6,100.6,672.7,100.6L672.7,100.6c0,0.1,0.1,0.2,0.2,0.2c0,0,0,0,0,0c0,0,0,0,0.1,0c0.1,0,0.1,0,0.2,0v0
			c0,0-0.3-0.1-0.3-0.1C672.7,100.7,672.7,100.7,672.7,100.6C672.6,100.6,672.7,100.7,672.7,100.6L672.7,100.6z M678.7,101.1
			L678.7,101.1C678.7,101.2,678.7,101.2,678.7,101.1C678.7,101.2,678.7,101.2,678.7,101.1c0.1,0.2,0.1,0.1,0.2,0.1c0,0,0,0,0,0.1
			c0,0,0,0,0,0c0,0,0,0,0,0.1c0,0,0,0-0.1,0c0,0,0,0,0,0c0,0,0,0,0.1,0c0,0,0,0-0.1,0c0.1,0.2,0.4-0.1,0.5-0.1c0-0.1,0-0.2-0.1-0.3
			l0,0c0,0,0,0,0.1-0.1v0c-0.1-0.1-0.1-0.1-0.1-0.1c-0.1,0-0.1,0-0.1,0c0,0,0,0,0,0c0,0,0,0-0.1,0c0,0-0.1,0-0.1,0c0,0,0,0,0,0.1
			c0,0,0.1,0,0.1,0c0,0,0,0,0,0.1C678.8,101.1,678.7,101.1,678.7,101.1C678.6,101.1,678.6,101.1,678.7,101.1 M674.7,100.8
			C674.7,100.8,674.7,100.8,674.7,100.8C674.7,100.8,674.7,100.8,674.7,100.8C674.7,100.8,674.7,100.8,674.7,100.8 M680.9,101
			C681,101,681,101,680.9,101C681,101,681,101,680.9,101C681,101,681,101,680.9,101 M672,100.8L672,100.8
			C672,100.8,672,100.9,672,100.8C672,100.9,672,100.9,672,100.8C672,100.9,672,100.9,672,100.8 M679.3,101.1
			C679.3,101.1,679.3,101.1,679.3,101.1C679.3,101.1,679.3,101.1,679.3,101.1L679.3,101.1C679.3,101.1,679.3,101,679.3,101.1
			C679.3,101.1,679.3,101.1,679.3,101.1 M671.6,100.8C671.6,100.9,671.6,100.9,671.6,100.8L671.6,100.8L671.6,100.8z M671.6,100.9
			L671.6,100.9L671.6,100.9z M674.1,101C674.1,101,674.1,101,674.1,101C674.1,101,674.1,101,674.1,101
			C674.1,101,674.1,101,674.1,101 M674.6,101L674.6,101C674.6,101,674.6,101,674.6,101C674.5,101,674.5,101,674.6,101L674.6,101
			C674.6,101,674.6,101,674.6,101L674.6,101z M674.1,101C674.1,101,674.1,101,674.1,101C674.1,101,674.1,101,674.1,101
			C674.1,101,674.1,101,674.1,101L674.1,101z M674.2,101L674.2,101L674.2,101L674.2,101z M680.5,101.3L680.5,101.3L680.5,101.3
			C680.5,101.3,680.5,101.4,680.5,101.3 M671.2,101.1L671.2,101.1L671.2,101.1L671.2,101.1z M671.1,101.2
			C671,101.2,671,101.2,671.1,101.2L671.1,101.2C671,101.2,671.1,101.2,671.1,101.2C671.1,101.2,671.1,101.2,671.1,101.2
			 M670.8,101.2C670.8,101.2,670.8,101.2,670.8,101.2L670.8,101.2C670.8,101.2,670.8,101.2,670.8,101.2 M671.2,101.3
			C671.2,101.3,671.2,101.3,671.2,101.3L671.2,101.3C671.1,101.3,671.2,101.3,671.2,101.3C671.2,101.3,671.2,101.3,671.2,101.3
			 M669.6,102.1L669.6,102.1L669.6,102.1C669.6,102.1,669.6,102.1,669.6,102.1 M663.2,102.6C663.2,102.6,663.2,102.6,663.2,102.6
			c0-0.1,0-0.1,0-0.1C663.2,102.6,663.2,102.6,663.2,102.6 M665.6,102.7L665.6,102.7L665.6,102.7L665.6,102.7z M682.4,103.2
			C682.3,103.2,682.4,103.2,682.4,103.2L682.4,103.2L682.4,103.2z M681.9,103.4C681.9,103.5,681.9,103.5,681.9,103.4
			c0-0.1,0-0.3-0.1-0.3c0,0,0,0,0,0c0,0,0,0,0,0C681.8,103.3,681.8,103.4,681.9,103.4 M681.9,103.2L681.9,103.2L681.9,103.2
			C681.9,103.2,681.9,103.2,681.9,103.2 M662.9,103.6C662.9,103.6,662.9,103.6,662.9,103.6C662.9,103.6,662.9,103.6,662.9,103.6
			C662.9,103.6,662.9,103.6,662.9,103.6 M681.9,103.5C681.9,103.5,681.9,103.5,681.9,103.5C681.9,103.6,681.9,103.6,681.9,103.5
			c-0.1,0.1,0,0.2,0,0.3c0,0.1,0,0.1,0,0.2c0,0,0,0,0.1,0c0,0,0,0,0-0.1c0,0,0,0,0,0C682.1,103.8,682,103.6,681.9,103.5L681.9,103.5
			z M683,103.7C683,103.7,683.1,103.7,683,103.7C683.1,103.7,683.1,103.7,683,103.7L683,103.7z M683.1,103.7
			C683.1,103.7,683.1,103.7,683.1,103.7L683.1,103.7z M683.1,103.8C683.1,103.8,683.1,103.8,683.1,103.8
			C683.1,103.8,683.1,103.8,683.1,103.8C683.1,103.8,683.1,103.8,683.1,103.8C683.1,103.8,683.1,103.8,683.1,103.8
			C683.1,103.8,683.1,103.8,683.1,103.8 M683.1,103.8C683.1,103.8,683.2,103.8,683.1,103.8L683.1,103.8
			C683.2,103.8,683.1,103.8,683.1,103.8L683.1,103.8z M683.2,104L683.2,104C683.2,104,683.2,104.1,683.2,104
			C683.2,104.1,683.2,104,683.2,104 M683,104.1L683,104.1C683,104.2,683.1,104.2,683,104.1C683.1,104.2,683.1,104.2,683,104.1
			L683,104.1C683.1,104.2,683.1,104.1,683,104.1 M683.1,104.3C683.1,104.3,683.1,104.3,683.1,104.3L683.1,104.3
			C683.1,104.3,683.1,104.2,683.1,104.3C683.1,104.2,683.1,104.3,683.1,104.3 M683.4,104.6C683.4,104.6,683.4,104.6,683.4,104.6
			L683.4,104.6C683.3,104.6,683.4,104.6,683.4,104.6 M673.2,116.2C673.2,116.2,673.2,116.2,673.2,116.2L673.2,116.2
			C673.2,116.2,673.2,116.2,673.2,116.2C673.2,116.2,673.2,116.2,673.2,116.2 M673.3,116.2C673.3,116.2,673.3,116.2,673.3,116.2
			L673.3,116.2L673.3,116.2z M667.9,117.8L667.9,117.8L667.9,117.8L667.9,117.8z M668.1,118.4L668.1,118.4
			C668.1,118.4,668.1,118.4,668.1,118.4L668.1,118.4z M668,118.6C668,118.6,668,118.6,668,118.6L668,118.6L668,118.6
			C668,118.6,668,118.6,668,118.6 M668,118.7L668,118.7C668,118.7,668,118.7,668,118.7L668,118.7z M668.1,118.8L668.1,118.8
			L668.1,118.8z M669.4,120.3L669.4,120.3C669.4,120.3,669.4,120.3,669.4,120.3 M669.6,120.3L669.6,120.3
			C669.6,120.3,669.6,120.3,669.6,120.3C669.6,120.3,669.6,120.3,669.6,120.3"/>
		<path class="st2" d="M672.3,97.6c5.5,0,9.5,3.3,11.5,6.9c-1.9-4.5-6.3-7.6-11.5-7.6c-5.2,0-9.6,3.1-11.5,7.6
			C662.5,101.4,666.3,97.6,672.3,97.6"/>
		<path class="st2" d="M684.2,113.2c-1.6,5-6.2,8.8-12,8.8c-6.1,0-10.2-3.8-11.9-8.7c1.7,4.6,6.4,7.8,11.9,7.8
			C677.8,121.1,682.5,117.8,684.2,113.2"/>
		<path class="st1" d="M697.7,111.6c0.4,0,0.8,0.3,0.8,0.8s-0.4,0.8-0.8,0.8c-0.4,0-0.8-0.3-0.8-0.8S697.3,111.6,697.7,111.6
			 M697.7,113.1c0.3,0,0.6-0.3,0.6-0.7c0-0.4-0.3-0.7-0.6-0.7c-0.4,0-0.6,0.3-0.6,0.7C697.1,112.8,697.4,113.1,697.7,113.1
			 M698.1,112.6c0,0.2-0.2,0.3-0.4,0.3c-0.3,0-0.5-0.2-0.5-0.5c0-0.3,0.2-0.5,0.5-0.5c0.2,0,0.3,0.1,0.4,0.3H698
			c0-0.1-0.1-0.2-0.3-0.2c-0.2,0-0.3,0.2-0.3,0.4c0,0.2,0.1,0.4,0.3,0.4c0.1,0,0.2-0.1,0.2-0.2H698.1z"/>
		<path class="st1" d="M743.7,111.9c-0.1-0.7-0.1-1.6-0.1-2.4c0-1.6,0.1-2.5,0.4-3.2c0.3-0.7,0.8-1.1,1.6-1.1c0.7,0,1.3,0.4,1.6,1
			c0.4,0.8,0.5,1.8,0.5,3.7c0,1.6-0.1,2.6-0.4,3.3c-0.3,0.7-0.8,1-1.5,1h0c-0.6,0-1-0.2-1.3-0.6C744,113.2,743.8,112.7,743.7,111.9
			 M744.9,109.7c0,1.5,0,2.2,0.2,2.6c0.1,0.3,0.3,0.5,0.5,0.5c0.2,0,0.3-0.1,0.4-0.2c0.1-0.2,0.2-0.4,0.2-0.8c0.1-0.6,0.1-1,0.1-1.8
			v-0.2c0-2-0.1-2.7-0.3-3.1c-0.1-0.2-0.2-0.3-0.5-0.3c-0.2,0-0.3,0.1-0.4,0.2c-0.1,0.1-0.2,0.3-0.2,0.6
			C744.9,107.7,744.9,108.3,744.9,109.7"/>
		<polygon class="st1" points="708,105.2 707,105.2 706.9,105.4 706.9,114 707,114.1 708,114.1 708.1,113.9 708.1,105.4 		"/>
		<polygon class="st1" points="727.7,105.2 726.7,105.2 726.6,105.4 726.6,114 726.7,114.1 727.7,114.1 727.8,113.9 727.8,105.4 		
			"/>
		<path class="st1" d="M725.8,113.9l-0.7-8.7H724l-0.7,4.2l-0.1,1.1c-0.1-0.7-0.2-1.1-0.3-1.7l-0.6-3.6h-1.1l-0.6,8.7l0.2,0.2h1
			l0.2-4.5c0.1,0.6,0.8,4.5,0.8,4.5h0.8l0.8-4.5l0.2,4.5h1L725.8,113.9z"/>
		<polygon class="st1" points="712,112.8 710.5,112.8 710.5,105.4 710.3,105.2 709.4,105.2 709.3,105.4 709.3,113.9 709.4,114.1 
			711.9,114.1 712.1,114 712.1,112.9 		"/>
		<polygon class="st1" points="715.4,112.8 713.9,112.8 713.9,105.4 713.8,105.2 712.9,105.2 712.7,105.4 712.7,113.9 712.9,114.1 
			715.4,114.1 715.5,114 715.5,112.9 		"/>
		<path class="st1" d="M718,114.2L718,114.2L718,114.2L718,114.2z M719.6,105.2h-0.9l-0.1,0.1v6.2c0,0.6,0,0.9-0.1,1.1
			c-0.1,0.2-0.2,0.2-0.5,0.2c-0.3,0-0.4-0.1-0.5-0.3c-0.1-0.2-0.1-0.6-0.1-1.2v-6l-0.1-0.1h-0.9l-0.1,0.1v6.1c0,0.7,0,1.1,0.1,1.4
			c0.2,0.8,0.8,1.3,1.7,1.3c0.5,0,0.8-0.1,1.1-0.3c0.2-0.2,0.4-0.4,0.5-0.8c0.1-0.3,0.1-0.8,0.1-1.4v-6.2L719.6,105.2z"/>
		<path class="st1" d="M737.5,113.9L737.5,113.9l-1.6-8.7h-1l-1.6,8.7l0.1,0.2h1l0.3-1.7h1.2l0.3,1.7h1L737.5,113.9z M735,111.2
			c0,0,0.4-2.9,0.4-3c0.1,0.7,0.4,3,0.4,3H735z"/>
		<path class="st1" d="M732.6,113.9v-8.6l-0.1-0.1h-1l-0.1,0.1c0,3.6,0,3.6,0,3.9c0,0.5,0,0.4,0,0.7c0,0,0,0,0,0
			c-0.2-0.7-1.3-4.7-1.3-4.7h-1l-0.1,0.1v8.6l0.1,0.1h0.9l0.1-0.1l0-4.2l0-0.6c0.1,0.4,0.1,0.6,0.3,1.1l1.1,3.8h1L732.6,113.9z"/>
		<path class="st1" d="M752.2,113.9v-8.6l-0.1-0.1h-1l-0.1,0.1c0,3.6,0,3.6,0,3.9c0,0.5,0,0.4,0,0.7c0,0,0,0,0,0
			c-0.2-0.7-1.3-4.7-1.3-4.7h-1l-0.1,0.1v8.6l0.1,0.1h0.9l0.1-0.1l-0.1-4.8c0.1,0.4,0.1,0.6,0.3,1.1l1.1,3.8h1L752.2,113.9z"/>
		<polygon class="st1" points="742.6,105.2 741.6,105.2 741.5,105.4 741.5,113.9 741.6,114.1 742.6,114.1 742.7,113.9 742.7,105.4 
					"/>
		<polygon class="st1" points="740.6,105.2 737.5,105.2 737.3,105.4 737.3,106.4 737.5,106.5 738.5,106.5 738.5,113.9 738.6,114.1 
			739.5,114.1 739.7,114 739.7,106.5 740.6,106.5 740.8,106.3 740.8,105.4 		"/>
		<path class="st1" d="M657.9,129.4c0,1.4-1.1,2.5-2.4,2.5c-1.4,0-2.4-1.1-2.4-2.5c0-1.4,1.1-2.5,2.4-2.5
			C656.8,127,657.9,128.1,657.9,129.4 M653.4,129.5c0,1.2,0.9,2.1,2,2.1c1.1,0,2-0.9,2-2.2c0-1.2-0.9-2.1-2-2.1
			C654.3,127.3,653.4,128.3,653.4,129.5 M656.5,128.5c-0.1-0.1-0.4-0.2-0.8-0.2c-0.8,0-1.1,0.5-1.1,1.1c0,0.6,0.4,1.1,1.1,1.1
			c0.3,0,0.6-0.1,0.8-0.2l0.1,0.3c-0.3,0.2-0.6,0.2-1,0.2c-0.9,0-1.5-0.6-1.5-1.4c0-0.9,0.7-1.5,1.5-1.5c0.4,0,0.8,0.1,0.9,0.2
			L656.5,128.5z"/>
		<path class="st1" d="M661.3,126.8v3.2c0,1.2,0.5,1.7,1.3,1.7c0.8,0,1.3-0.5,1.3-1.7v-3.2h0.7v3.1c0,1.7-0.9,2.3-2,2.3
			c-1.1,0-1.9-0.6-1.9-2.3v-3.2H661.3z"/>
		<path class="st1" d="M665.8,129.3c0-0.4,0-0.7,0-1h0.6l0,0.6h0c0.2-0.4,0.6-0.7,1.3-0.7c0.5,0,1.4,0.3,1.4,1.6v2.3h-0.7v-2.2
			c0-0.6-0.2-1.1-0.9-1.1c-0.5,0-0.8,0.3-0.9,0.7c0,0.1,0,0.2,0,0.3v2.3h-0.7V129.3z"/>
		<path class="st1" d="M671,127.2c0,0.2-0.2,0.4-0.4,0.4c-0.2,0-0.4-0.2-0.4-0.4c0-0.2,0.2-0.4,0.4-0.4
			C670.9,126.8,671,127,671,127.2 M670.2,128.3h0.7v3.9h-0.7V128.3z"/>
		<path class="st1" d="M672.4,128.3l0.8,2.2c0.1,0.4,0.2,0.7,0.3,1h0c0.1-0.3,0.2-0.6,0.3-1l0.8-2.2h0.7l-1.5,3.9h-0.7l-1.5-3.9
			H672.4z"/>
		<path class="st1" d="M676.4,130.4c0,1,0.6,1.3,1.3,1.3c0.5,0,0.8-0.1,1.1-0.2l0.1,0.5c-0.2,0.1-0.7,0.2-1.3,0.2
			c-1.2,0-1.9-0.8-1.9-2c0-1.2,0.7-2.1,1.8-2.1c1.3,0,1.6,1.1,1.6,1.8c0,0.1,0,0.3,0,0.3H676.4z M678.4,129.9c0-0.4-0.2-1.1-1-1.1
			c-0.7,0-1,0.7-1.1,1.1H678.4z"/>
		<path class="st1" d="M680,129.5c0-0.5,0-0.8,0-1.2h0.6l0,0.8h0c0.2-0.5,0.6-0.8,1.1-0.8c0.1,0,0.1,0,0.2,0v0.7c-0.1,0-0.1,0-0.2,0
			c-0.5,0-0.8,0.4-0.9,0.9c0,0.1,0,0.2,0,0.3v2.1H680V129.5z"/>
		<path class="st1" d="M682.6,131.5c0.2,0.1,0.6,0.3,0.9,0.3c0.5,0,0.8-0.3,0.8-0.6c0-0.3-0.2-0.5-0.7-0.7c-0.7-0.2-1-0.6-1-1.1
			c0-0.6,0.5-1.1,1.3-1.1c0.4,0,0.7,0.1,1,0.2l-0.2,0.5c-0.2-0.1-0.4-0.2-0.8-0.2c-0.4,0-0.6,0.2-0.6,0.5c0,0.3,0.2,0.5,0.7,0.7
			c0.7,0.3,1,0.6,1,1.2c0,0.7-0.5,1.2-1.4,1.2c-0.4,0-0.8-0.1-1.1-0.3L682.6,131.5z"/>
		<path class="st1" d="M688,132.2l-0.1-0.5h0c-0.2,0.3-0.6,0.6-1.2,0.6c-0.8,0-1.2-0.6-1.2-1.1c0-0.9,0.8-1.4,2.3-1.4v-0.1
			c0-0.3-0.1-0.9-0.9-0.9c-0.4,0-0.7,0.1-1,0.3l-0.2-0.5c0.3-0.2,0.8-0.3,1.3-0.3c1.2,0,1.5,0.8,1.5,1.6v1.4c0,0.3,0,0.7,0.1,0.9
			H688z M687.9,130.2c-0.8,0-1.6,0.1-1.6,0.9c0,0.5,0.3,0.7,0.7,0.7c0.5,0,0.8-0.3,0.9-0.7c0-0.1,0-0.2,0-0.2V130.2z"/>
		<rect x="689.8" y="126.5" class="st1" width="0.7" height="5.7"/>
		<path class="st1" d="M697.2,132c-0.3,0.1-0.8,0.3-1.4,0.3c-1.5,0-2.7-1-2.7-2.7c0-1.7,1.1-2.8,2.8-2.8c0.7,0,1.1,0.1,1.3,0.2
			l-0.2,0.6c-0.3-0.1-0.6-0.2-1.1-0.2c-1.3,0-2.1,0.8-2.1,2.2c0,1.3,0.8,2.2,2.1,2.2c0.4,0,0.9-0.1,1.1-0.2L697.2,132z"/>
		<path class="st1" d="M698.9,127.2c0,0.2-0.2,0.4-0.4,0.4c-0.2,0-0.4-0.2-0.4-0.4c0-0.2,0.2-0.4,0.4-0.4
			C698.7,126.8,698.9,127,698.9,127.2 M698.1,128.3h0.7v3.9h-0.7V128.3z"/>
		<path class="st1" d="M700.9,127.2v1.1h1v0.5h-1v2.1c0,0.5,0.1,0.8,0.5,0.8c0.2,0,0.3,0,0.4,0l0,0.5c-0.1,0.1-0.4,0.1-0.6,0.1
			c-0.3,0-0.6-0.1-0.8-0.3c-0.2-0.2-0.3-0.6-0.3-1v-2.1h-0.6v-0.5h0.6v-0.9L700.9,127.2z"/>
		<path class="st1" d="M703,128.3l0.8,2.3c0.1,0.3,0.2,0.6,0.2,0.8h0c0.1-0.2,0.2-0.5,0.2-0.8l0.8-2.3h0.7l-1.1,2.8
			c-0.5,1.3-0.8,2-1.3,2.4c-0.3,0.3-0.7,0.4-0.9,0.5l-0.2-0.6c0.2-0.1,0.4-0.2,0.6-0.3c0.2-0.2,0.4-0.4,0.6-0.8
			c0-0.1,0.1-0.1,0.1-0.2c0,0,0-0.1,0-0.2l-1.4-3.6H703z"/>
		<path class="st1" d="M708.3,131.3c0.3,0.2,0.8,0.4,1.2,0.4c0.7,0,1.1-0.4,1.1-0.9c0-0.5-0.3-0.8-1-1.1c-0.9-0.3-1.4-0.8-1.4-1.5
			c0-0.8,0.7-1.5,1.7-1.5c0.6,0,1,0.1,1.2,0.3l-0.2,0.6c-0.2-0.1-0.5-0.3-1-0.3c-0.7,0-1,0.4-1,0.8c0,0.5,0.3,0.8,1.1,1
			c0.9,0.4,1.4,0.8,1.4,1.6c0,0.8-0.6,1.6-1.9,1.6c-0.5,0-1.1-0.2-1.4-0.3L708.3,131.3z"/>
		<path class="st1" d="M713.1,127.2v1.1h1v0.5h-1v2.1c0,0.5,0.1,0.8,0.5,0.8c0.2,0,0.3,0,0.4,0l0,0.5c-0.1,0.1-0.4,0.1-0.6,0.1
			c-0.3,0-0.6-0.1-0.8-0.3c-0.2-0.2-0.3-0.6-0.3-1v-2.1h-0.6v-0.5h0.6v-0.9L713.1,127.2z"/>
		<path class="st1" d="M718.2,131.1c0,0.4,0,0.8,0,1.1h-0.6l0-0.6h0c-0.2,0.3-0.6,0.7-1.3,0.7c-0.6,0-1.3-0.3-1.3-1.7v-2.3h0.7v2.1
			c0,0.7,0.2,1.2,0.9,1.2c0.5,0,0.8-0.3,0.9-0.6c0-0.1,0.1-0.2,0.1-0.4v-2.4h0.7V131.1z"/>
		<path class="st1" d="M722.8,126.5v4.7c0,0.3,0,0.7,0,1h-0.6l0-0.7h0c-0.2,0.4-0.7,0.8-1.3,0.8c-0.9,0-1.7-0.8-1.7-2
			c0-1.3,0.8-2.1,1.7-2.1c0.6,0,1,0.3,1.2,0.6h0v-2.3H722.8z M722.1,129.9c0-0.1,0-0.2,0-0.3c-0.1-0.4-0.5-0.8-1-0.8
			c-0.7,0-1.2,0.6-1.2,1.5c0,0.8,0.4,1.4,1.1,1.4c0.5,0,0.9-0.3,1-0.8c0-0.1,0-0.2,0-0.3V129.9z"/>
		<path class="st1" d="M724.8,127.2c0,0.2-0.2,0.4-0.4,0.4c-0.2,0-0.4-0.2-0.4-0.4c0-0.2,0.2-0.4,0.4-0.4
			C724.6,126.8,724.8,127,724.8,127.2 M724,128.3h0.7v3.9H724V128.3z"/>
		<path class="st1" d="M729.4,130.2c0,1.4-1,2.1-1.9,2.1c-1,0-1.9-0.8-1.9-2c0-1.3,0.8-2.1,1.9-2.1
			C728.7,128.2,729.4,129,729.4,130.2 M726.3,130.2c0,0.8,0.5,1.5,1.2,1.5c0.7,0,1.2-0.6,1.2-1.5c0-0.7-0.3-1.5-1.2-1.5
			C726.7,128.7,726.3,129.5,726.3,130.2"/>
		<path class="st1" d="M730.2,131.5c0.2,0.1,0.6,0.3,0.9,0.3c0.5,0,0.8-0.3,0.8-0.6c0-0.3-0.2-0.5-0.7-0.7c-0.7-0.2-1-0.6-1-1.1
			c0-0.6,0.5-1.1,1.3-1.1c0.4,0,0.7,0.1,1,0.2l-0.2,0.5c-0.2-0.1-0.4-0.2-0.8-0.2c-0.4,0-0.6,0.2-0.6,0.5c0,0.3,0.2,0.5,0.7,0.7
			c0.7,0.3,1,0.6,1,1.2c0,0.7-0.5,1.2-1.4,1.2c-0.4,0-0.8-0.1-1.1-0.3L730.2,131.5z"/>
		<polygon class="st1" points="735.3,126.8 736,126.8 736,131.6 738.3,131.6 738.3,132.2 735.3,132.2 		"/>
		<polygon class="st1" points="739.1,126.8 739.8,126.8 739.8,131.6 742.1,131.6 742.1,132.2 739.1,132.2 		"/>
		<path class="st1" d="M746.4,132c-0.3,0.1-0.8,0.3-1.4,0.3c-1.5,0-2.7-1-2.7-2.7c0-1.7,1.1-2.8,2.8-2.8c0.7,0,1.1,0.1,1.3,0.2
			l-0.2,0.6c-0.3-0.1-0.6-0.2-1.1-0.2c-1.3,0-2.1,0.8-2.1,2.2c0,1.3,0.8,2.2,2.1,2.2c0.4,0,0.9-0.1,1.1-0.2L746.4,132z"/>
		<path class="st1" d="M747.1,131.8c0-0.3,0.2-0.5,0.5-0.5c0.3,0,0.5,0.2,0.5,0.5c0,0.3-0.2,0.5-0.5,0.5
			C747.3,132.3,747.1,132,747.1,131.8"/>
		<path class="st1" d="M669.1,139.8l-0.6,1.7h-0.7l1.8-5.4h0.8l1.8,5.4h-0.7l-0.6-1.7H669.1z M670.9,139.3l-0.5-1.6
			c-0.1-0.4-0.2-0.7-0.3-1h0c-0.1,0.3-0.2,0.6-0.3,1l-0.5,1.6H670.9z"/>
		<rect x="673.1" y="135.8" class="st1" width="0.7" height="5.7"/>
		<rect x="675" y="135.8" class="st1" width="0.7" height="5.7"/>
		<path class="st1" d="M678.7,136.2c0.4-0.1,0.9-0.1,1.3-0.1c0.7,0,1.2,0.1,1.6,0.4c0.3,0.2,0.4,0.6,0.4,1c0,0.7-0.4,1.2-1,1.4v0
			c0.4,0.1,0.7,0.5,0.8,1.1c0.2,0.8,0.3,1.3,0.4,1.5h-0.7c-0.1-0.2-0.2-0.6-0.4-1.3c-0.2-0.7-0.4-1-1.1-1h-0.7v2.3h-0.7V136.2z
			 M679.4,138.6h0.7c0.7,0,1.2-0.4,1.2-1c0-0.7-0.5-1-1.2-1c-0.3,0-0.6,0-0.7,0.1V138.6z"/>
		<path class="st1" d="M683.9,136.5c0,0.2-0.2,0.4-0.4,0.4c-0.2,0-0.4-0.2-0.4-0.4c0-0.2,0.2-0.4,0.4-0.4
			C683.8,136.1,683.9,136.3,683.9,136.5 M683.1,137.6h0.7v3.9h-0.7V137.6z"/>
		<path class="st1" d="M688.4,137.6c0,0.3,0,0.6,0,1.1v2.2c0,0.9-0.2,1.4-0.6,1.8c-0.4,0.4-0.9,0.5-1.4,0.5c-0.5,0-1-0.1-1.3-0.3
			l0.2-0.5c0.3,0.2,0.7,0.3,1.1,0.3c0.7,0,1.2-0.4,1.2-1.4v-0.4h0c-0.2,0.4-0.6,0.6-1.2,0.6c-1,0-1.6-0.8-1.6-1.9
			c0-1.3,0.9-2.1,1.7-2.1c0.7,0,1,0.4,1.2,0.7h0l0-0.6H688.4z M687.7,139.2c0-0.1,0-0.2,0-0.3c-0.1-0.4-0.5-0.7-1-0.7
			c-0.7,0-1.2,0.6-1.2,1.5c0,0.8,0.4,1.4,1.1,1.4c0.4,0,0.8-0.3,1-0.7c0-0.1,0.1-0.3,0.1-0.4V139.2z"/>
		<path class="st1" d="M689.6,135.8h0.7v2.4h0c0.1-0.2,0.3-0.4,0.5-0.5c0.2-0.1,0.5-0.2,0.7-0.2c0.5,0,1.4,0.3,1.4,1.7v2.3h-0.7
			v-2.2c0-0.6-0.2-1.2-0.9-1.2c-0.5,0-0.8,0.3-0.9,0.7c0,0.1,0,0.2,0,0.3v2.3h-0.7V135.8z"/>
		<path class="st1" d="M694.9,136.5v1.1h1v0.5h-1v2.1c0,0.5,0.1,0.8,0.5,0.8c0.2,0,0.3,0,0.4,0l0,0.5c-0.1,0.1-0.4,0.1-0.6,0.1
			c-0.3,0-0.6-0.1-0.8-0.3c-0.2-0.2-0.3-0.6-0.3-1v-2.1h-0.6v-0.5h0.6v-0.9L694.9,136.5z"/>
		<path class="st1" d="M696.6,140.8c0.2,0.1,0.6,0.3,0.9,0.3c0.5,0,0.8-0.3,0.8-0.6c0-0.3-0.2-0.5-0.7-0.7c-0.7-0.2-1-0.6-1-1.1
			c0-0.6,0.5-1.1,1.3-1.1c0.4,0,0.7,0.1,1,0.2l-0.2,0.5c-0.2-0.1-0.4-0.2-0.8-0.2c-0.4,0-0.6,0.2-0.6,0.5c0,0.3,0.2,0.5,0.7,0.7
			c0.7,0.3,1,0.6,1,1.2c0,0.7-0.5,1.2-1.5,1.2c-0.4,0-0.8-0.1-1.1-0.3L696.6,140.8z"/>
		<path class="st1" d="M701.7,136.2c0.4-0.1,0.9-0.1,1.3-0.1c0.7,0,1.2,0.1,1.6,0.4c0.3,0.2,0.4,0.6,0.4,1c0,0.7-0.4,1.2-1,1.4v0
			c0.4,0.1,0.7,0.5,0.8,1.1c0.2,0.8,0.3,1.3,0.4,1.5h-0.7c-0.1-0.2-0.2-0.6-0.4-1.3c-0.2-0.7-0.4-1-1.1-1h-0.7v2.3h-0.7V136.2z
			 M702.4,138.6h0.7c0.7,0,1.2-0.4,1.2-1c0-0.7-0.5-1-1.2-1c-0.3,0-0.6,0-0.7,0.1V138.6z"/>
		<path class="st1" d="M706.4,139.7c0,1,0.6,1.3,1.3,1.3c0.5,0,0.8-0.1,1.1-0.2l0.1,0.5c-0.3,0.1-0.7,0.2-1.3,0.2
			c-1.2,0-1.9-0.8-1.9-2c0-1.2,0.7-2.1,1.8-2.1c1.3,0,1.6,1.1,1.6,1.8c0,0.1,0,0.3,0,0.3H706.4z M708.5,139.2c0-0.4-0.2-1.1-1-1.1
			c-0.7,0-1,0.7-1.1,1.1H708.5z"/>
		<path class="st1" d="M710,140.8c0.2,0.1,0.6,0.3,0.9,0.3c0.5,0,0.8-0.3,0.8-0.6c0-0.3-0.2-0.5-0.7-0.7c-0.7-0.2-1-0.6-1-1.1
			c0-0.6,0.5-1.1,1.3-1.1c0.4,0,0.7,0.1,1,0.2l-0.2,0.5c-0.2-0.1-0.4-0.2-0.8-0.2c-0.4,0-0.6,0.2-0.6,0.5c0,0.3,0.2,0.5,0.7,0.7
			c0.7,0.3,1,0.6,1,1.2c0,0.7-0.5,1.2-1.5,1.2c-0.4,0-0.8-0.1-1.1-0.3L710,140.8z"/>
		<path class="st1" d="M713.7,139.7c0,1,0.6,1.3,1.3,1.3c0.5,0,0.8-0.1,1.1-0.2l0.1,0.5c-0.2,0.1-0.7,0.2-1.3,0.2
			c-1.2,0-1.9-0.8-1.9-2c0-1.2,0.7-2.1,1.8-2.1c1.3,0,1.6,1.1,1.6,1.8c0,0.1,0,0.3,0,0.3H713.7z M715.8,139.2c0-0.4-0.2-1.1-1-1.1
			c-0.7,0-1,0.7-1.1,1.1H715.8z"/>
		<path class="st1" d="M717.3,138.8c0-0.5,0-0.8,0-1.2h0.6l0,0.8h0c0.2-0.5,0.6-0.8,1.1-0.8c0.1,0,0.1,0,0.2,0v0.7
			c-0.1,0-0.1,0-0.2,0c-0.5,0-0.8,0.4-0.9,0.9c0,0.1,0,0.2,0,0.3v2.1h-0.7V138.8z"/>
		<path class="st1" d="M720.5,137.6l0.8,2.2c0.1,0.4,0.2,0.7,0.3,1h0c0.1-0.3,0.2-0.6,0.3-1l0.8-2.2h0.7l-1.5,3.9h-0.7l-1.5-3.9
			H720.5z"/>
		<path class="st1" d="M724.4,139.7c0,1,0.6,1.3,1.3,1.3c0.5,0,0.8-0.1,1.1-0.2l0.1,0.5c-0.2,0.1-0.7,0.2-1.3,0.2
			c-1.2,0-1.9-0.8-1.9-2c0-1.2,0.7-2.1,1.8-2.1c1.3,0,1.6,1.1,1.6,1.8c0,0.1,0,0.3,0,0.3H724.4z M726.5,139.2c0-0.4-0.2-1.1-1-1.1
			c-0.7,0-1,0.7-1.1,1.1H726.5z"/>
		<path class="st1" d="M731.4,135.8v4.7c0,0.3,0,0.7,0,1h-0.6l0-0.7h0c-0.2,0.4-0.7,0.8-1.3,0.8c-0.9,0-1.7-0.8-1.7-2
			c0-1.3,0.8-2.1,1.7-2.1c0.6,0,1,0.3,1.2,0.6h0v-2.3H731.4z M730.7,139.2c0-0.1,0-0.2,0-0.3c-0.1-0.4-0.5-0.8-1-0.8
			c-0.7,0-1.2,0.6-1.2,1.5c0,0.8,0.4,1.4,1.1,1.4c0.5,0,0.9-0.3,1-0.8c0-0.1,0-0.2,0-0.3V139.2z"/>
		<path class="st1" d="M732.4,141.1c0-0.3,0.2-0.5,0.5-0.5c0.3,0,0.5,0.2,0.5,0.5c0,0.3-0.2,0.5-0.5,0.5
			C732.6,141.6,732.4,141.4,732.4,141.1"/>
		<path class="st3" d="M623.3,159.1L623.3,159.1l0-0.2V103v-0.2h0c-0.1-10.9-8.9-19.7-19.8-19.7H467.6c-10.9,0-19.7,8.8-19.8,19.7h0
			v0.2v55.9v0.2h0"/>
		<path class="st1" d="M553.7,140c-0.7,0-1.5-0.1-2.2-0.2c-0.9-0.2-6.3-1.7-8.3-2.3v2h-21.5v-1.3c-0.4,0.3-1.4,1.3-1.4,1.3h-31.4
			v-0.8l-1.5,0.8h-11v-0.7c-0.3,0.2-1.5,0.7-1.5,0.7h-10.8c0,0,0.1-4.8,0.1-6.1l0.1-3.8l0.1-4.6c0-1.6,0.3-3.1,0.9-4.5
			c0.6-1.3,1.4-2.5,2.4-3.5c1-1,2.3-1.7,3.7-2.2c1.4-0.5,3-0.8,4.7-0.8c0.6,0,1.1,0,1.6,0.1c0.4,0,0.8,0.1,1.2,0.2l0,0l0,0l3.7,0.8
			c0.2-0.1,0.4-0.2,0.6-0.3c0.5-0.2,1-0.3,1.5-0.5s1.1-0.2,1.6-0.3c0.6-0.1,1.1-0.1,1.7-0.1c1.3,0,2.5,0.2,3.6,0.5
			c1.1,0.3,4.8,1.8,7.2,2.8v-2.8h11c0,0,2.3,1.6,3.1,2.2c0.1-0.1,0.2-0.2,0.4-0.3c1.1-0.8,2.2-1.4,3.4-1.7c1.3-0.4,2.7-0.6,4.2-0.6
			c1.5,0,2.9,0.2,4.3,0.6c1.3,0.4,2.5,1,3.5,1.8c1,0.8,2,1.7,2.4,2.4c0.2,0.4,0.7,1,0.8,1.2v-5.5h11.2v3.3c1-0.5,3.2-1.7,4.1-2.1
			c1.1-0.6,2.1-1,3.1-1.3c1.1-0.3,2.3-0.5,3.4-0.5c1.3,0,2.5,0.2,3.7,0.5c1.2,0.3,2.3,0.8,3.3,1.5c0.7,0.5,1.4,1,2,1.6
			c1-0.3,8.7-2.8,8.8-2.9c0.2-0.1,0.4-0.1,0.6-0.2c1.2-0.3,2.5-0.5,3.9-0.5c1.2,0,2.4,0.1,3.5,0.4c1.1,0.3,2.1,0.7,3,1.2
			c0.2,0.1,0.3,0.2,0.5,0.3c0,0,9.2-2.1,10.2-2.2s2.2-0.3,2.9-0.3c0.8,0,1.6,0.1,2.4,0.2c0.8,0.1,1.6,0.3,2.4,0.5
			c0.8,0.2,1.5,0.5,2.3,0.8c0.7,0.3,1.4,0.7,2.1,1.1l1.8,1.1l-3.9,7.1c0.5,0.3,0.9,0.7,1.2,1c0.5,0.5,0.9,1,1.2,1.5
			c0.3,0.6,0.6,1.2,0.8,1.8c0.2,0.7,0.3,1.4,0.3,2.2c0,1.4-0.3,2.7-0.7,3.8c-0.5,1.1-1.2,2.1-2.1,2.9c-0.9,0.8-2,1.4-3.3,1.9
			c-1.3,0.4-2.7,0.6-4.3,0.6c-0.6,0-1.2,0-1.8-0.1c-0.7-0.1-1.3-0.2-2.1-0.3c-0.8-0.2-4.1-0.9-4.1-0.9l0,0.9h-10.8l-1.7-0.9
			c0,0.3-0.1,0.9-0.1,0.9h-11c0,0-3.1-0.9-4.2-1.2c-1,0.5-2,1-3,1.2C556,139.9,554.9,140,553.7,140"/>
		<path class="st1" d="M571.7,115C571.8,115,571.8,115,571.7,115C571.7,115,571.7,115,571.7,115"/>
		<path class="st4" d="M500.9,116.3h7.5v21.3h-7.5V116.3z M533.8,137.7h7.5v-21.3h-7.5V137.7z M597.7,123.6
			c-1.8-0.7-2.9-1.2-2.9-1.7v-0.1c0-0.4,0.5-0.7,1.3-0.7c1.4,0,3.4,0.7,5.2,1.8l0.4,0.2l3-5.4l-0.3-0.2c-2.4-1.5-5.3-2.3-8.2-2.3
			c-5.2,0-8.5,2.8-8.5,7.2v0.1c0,4.3,3.3,5.8,6.9,7.1c2,0.8,2.9,1.1,2.9,1.7v0.1c0,0.7-1,0.8-1.4,0.8c-1.8,0-4-0.8-6.1-2.3l-0.4-0.2
			l-3.1,5.3l0.3,0.2c3.4,2.4,6.9,3,9.3,3c5.3,0,8.6-2.8,8.6-7.3v-0.1C604.7,127,602,125.2,597.7,123.6 M530.9,124.7
			c-0.1-5.2-3.9-8.9-9.8-8.9c-5.9,0-9.9,3.6-9.9,8.9c0,0-0.1,6.3-0.2,12.9h7.6c0-3,0.1-11.8,0.1-11.9c0-1.3,0.9-2.1,2.3-2.1
			c1.4,0,2.3,0.9,2.4,2.1c0,0,0.1,10.1,0.1,11.9h7.6C531,131,530.9,124.8,530.9,124.7 M585.8,124.7c-0.1-5.2-3.9-8.9-9.8-8.9
			c-5.9,0-9.9,3.6-9.9,8.9c0,0-0.1,6.3-0.2,12.9h7.6c0-3,0.1-11.8,0.1-11.9c0-1.3,0.9-2.1,2.4-2.1c1.3,0,2.3,0.9,2.3,2.1
			c0,0,0.1,10.1,0.1,11.9h7.6C586,131,585.8,124.8,585.8,124.7 M497.9,124.7c-0.1-5.2-4.1-8.9-9.7-8.9c-2.4,0-4.5,0.6-6.1,1.7
			c-1.6-1.1-3.7-1.7-6-1.7c-5.9,0-9.9,3.6-9.9,8.9c0,0-0.1,6.3-0.2,12.9h7.3c0-3,0.1-11.8,0.1-11.9c0-1.3,0.9-2.1,2.4-2.1
			c1.3,0,2.3,0.9,2.3,2.1c0,0,0.1,6.1,0.1,6.7l0,0c0,0,0,0,0,0c0,0,0,3.4,0,5.2h7.5c0-3,0.1-11.8,0.1-11.9c0-1.3,0.9-2.1,2.4-2.1
			c1.3,0,2.3,0.9,2.3,2.1c0,0,0.1,6.1,0.1,6.7v0v0v5.2h7.4C498,131,497.9,124.8,497.9,124.7"/>
		<path class="st3" d="M557.9,127c0,2.3-1.9,4.2-4.2,4.2c-2.3,0-4.2-1.9-4.2-4.2c0-0.5,0.1-1,0.2-1.4h-7.1c-0.1,0.5-0.1,0.9-0.1,1.4
			c0,6.2,5,11.2,11.2,11.2c6.2,0,11.2-5,11.2-11.2c0-0.5,0-0.9-0.1-1.4h-7.1C557.8,126,557.9,126.5,557.9,127"/>
		<path class="st1" d="M535.9,108.9c0.5,0.6,1,0.9,1.9,0.9h0c1.1,0,1.8-0.5,2.2-1.5c0.5-1,0.6-2.5,0.6-4.8c0-2.8-0.2-4.3-0.7-5.4
			c-0.4-0.9-1.2-1.4-2.3-1.4c-1.1,0-1.8,0.6-2.2,1.6c-0.4,1.1-0.6,2.3-0.6,4.7c0,1.2,0.1,2.4,0.2,3.5
			C535.2,107.6,535.5,108.3,535.9,108.9 M536.9,99.6c0.1-0.4,0.2-0.6,0.3-0.8c0.2-0.2,0.3-0.3,0.5-0.3c0.3,0,0.5,0.1,0.7,0.4
			c0.3,0.5,0.4,1.6,0.4,4.5v0.3c0,1.1,0,1.7-0.1,2.6c-0.1,0.6-0.2,0.9-0.3,1.2c-0.2,0.2-0.3,0.3-0.6,0.3c-0.4,0-0.6-0.2-0.7-0.7
			c-0.2-0.7-0.3-1.6-0.3-3.8C536.7,101.3,536.7,100.5,536.9,99.6"/>
		<polygon class="st1" points="483.8,109.6 484,109.4 484,97.1 483.8,96.9 482.4,96.9 482.2,97 482.2,109.4 482.4,109.6 		"/>
		<polygon class="st1" points="512,109.6 512.2,109.4 512.2,97.1 512,96.9 510.7,96.9 510.5,97 510.5,109.4 510.7,109.6 		"/>
		<path class="st1" d="M507.4,109.6h1.5l0.2-0.2l-1-12.5h-1.5l-0.9,5.1l-0.1,0.9l-0.2,1.7c-0.1-1-0.2-1.5-0.4-2.5l-0.9-5.2h-1.5
			l-0.9,12.5l0.2,0.2h1.4l0.3-6.5c0.1,0.8,1.2,6.5,1.2,6.5h1.2l1.1-6.5L507.4,109.6z"/>
		<polygon class="st1" points="489.6,109.6 489.8,109.4 489.8,108 489.6,107.8 487.5,107.8 487.5,97.1 487.3,96.9 486,96.9 
			485.7,97.1 485.7,109.4 485.9,109.6 		"/>
		<polygon class="st1" points="494.5,109.6 494.7,109.4 494.7,108 494.5,107.8 492.4,107.8 492.4,97.1 492.2,96.9 490.8,96.9 
			490.6,97.1 490.6,109.4 490.8,109.6 		"/>
		<path class="st1" d="M497.7,109.7c0.7,0,1.2-0.2,1.6-0.5c0.3-0.3,0.6-0.6,0.7-1.1c0.1-0.5,0.2-1.2,0.2-2.1v-9l-0.2-0.2h-1.3
			l-0.2,0.2v9c0,0.8-0.1,1.3-0.2,1.5c-0.1,0.2-0.2,0.3-0.7,0.3c-0.4,0-0.5-0.1-0.7-0.4c-0.1-0.3-0.2-0.9-0.2-1.8V97l-0.2-0.2h-1.3
			l-0.2,0.2v8.8c0,1,0,1.5,0.1,2C495.5,109.1,496.5,109.7,497.7,109.7"/>
		<path class="st1" d="M526.3,109.3L526.3,109.3L524,96.9h-1.4l-2.3,12.5l0.2,0.2h1.5l0.4-2.4h1.7l0.4,2.4h1.5L526.3,109.3z
			 M522.7,105.5c0,0,0.6-4.2,0.6-4.3c0.1,1,0.6,4.3,0.6,4.3H522.7z"/>
		<path class="st1" d="M517.9,96.9l-0.2,0.2c0,5.2,0,5.2,0,5.6c0,0.7,0,0.6,0,1.1c0,0,0,0,0-0.1c-0.2-1-1.9-6.8-1.9-6.8h-1.4
			l-0.2,0.2v12.4l0.2,0.2h1.4l0.2-0.2l0-5.4l0-0.7l0-0.8c0.1,0.6,0.2,0.8,0.4,1.6l1.6,5.5h1.4l0.2-0.2V97.1l-0.2-0.2H517.9z"/>
		<path class="st1" d="M543.9,109.4l0-5.4l0-0.7l0-0.8c0.1,0.6,0.2,0.8,0.4,1.6l1.6,5.5h1.4l0.2-0.2V97.1l-0.2-0.2h-1.4l-0.2,0.2
			c0,5.2,0,5.2,0,5.6c0,0.7,0,0.6,0,1.1c0,0,0,0,0-0.1c-0.2-1-1.9-6.8-1.9-6.8h-1.4l-0.2,0.2v12.4l0.2,0.2h1.4L543.9,109.4z"/>
		<polygon class="st1" points="533.3,109.4 533.3,97.1 533.1,96.9 531.8,96.9 531.5,97.1 531.5,109.4 531.8,109.6 533.1,109.6 		"/>
		<polygon class="st1" points="527.5,98.7 527.5,109.4 527.7,109.6 529,109.6 529.2,109.4 529.2,98.7 530.6,98.7 530.8,98.5 
			530.8,97.1 530.6,96.9 526.1,96.9 525.8,97.1 525.8,98.5 526.1,98.7 		"/>
		<path class="st1" d="M550.4,104.2h1.8c1.1,0,1.8,0.6,1.8,1.7v0c0,1.2-0.8,1.8-1.9,1.8h-1.1v1.9h-0.5V104.2z M552.1,107.2
			c0.8,0,1.3-0.5,1.3-1.2v0c0-0.8-0.5-1.2-1.3-1.2h-1.2v2.4H552.1z"/>
		<path class="st1" d="M554.9,104.2h2c0.6,0,1,0.2,1.3,0.5c0.2,0.3,0.4,0.6,0.4,1.1v0c0,0.9-0.5,1.4-1.3,1.6l1.4,2.2h-0.7l-1.4-2.1
			h-1.3v2.1h-0.5V104.2z M556.9,107c0.7,0,1.2-0.4,1.2-1.1v0c0-0.7-0.4-1.1-1.2-1.1h-1.5v2.2H556.9z"/>
		<polygon class="st1" points="559.8,104.2 563.2,104.2 563.2,104.8 560.3,104.8 560.3,106.6 562.9,106.6 562.9,107.2 560.3,107.2 
			560.3,109 563.2,109 563.2,109.6 559.8,109.6 		"/>
		<path class="st1" d="M564,108.8l0.3-0.4c0.5,0.5,1,0.8,1.6,0.8c0.6,0,1.1-0.4,1.1-0.9v0c0-0.5-0.2-0.8-1.2-1
			c-1.1-0.3-1.6-0.7-1.6-1.5v0c0-0.8,0.7-1.5,1.5-1.5c0.7,0,1.2,0.2,1.7,0.7l-0.3,0.5c-0.4-0.4-0.9-0.6-1.4-0.6c-0.6,0-1,0.4-1,0.9
			v0c0,0.5,0.2,0.8,1.3,1c1.1,0.3,1.5,0.7,1.5,1.5v0c0,0.9-0.7,1.5-1.6,1.5C565.1,109.7,564.5,109.4,564,108.8"/>
		<polygon class="st1" points="568.6,104.2 572,104.2 572,104.8 569.1,104.8 569.1,106.6 571.7,106.6 571.7,107.2 569.1,107.2 
			569.1,109 572,109 572,109.6 568.6,109.6 		"/>
		<polygon class="st1" points="573.1,104.2 573.6,104.2 576.6,108.5 576.6,104.2 577.1,104.2 577.1,109.6 576.7,109.6 573.6,105.2 
			573.6,109.6 573.1,109.6 		"/>
		<polygon class="st1" points="579.7,104.8 578.1,104.8 578.1,104.2 581.8,104.2 581.8,104.8 580.2,104.8 580.2,109.6 579.7,109.6 
					"/>
		<path class="st1" d="M583.9,104.2h0.5l2.1,5.4H586l-0.6-1.4h-2.6l-0.6,1.4h-0.5L583.9,104.2z M585.2,107.6l-1.1-2.7l-1.1,2.7
			H585.2z"/>
		<path class="st4" d="M564.4,123.7c-1.4-4.6-5.6-7.9-10.7-7.9c-5,0-9.3,3.3-10.7,7.9h5.2v0h11.3v0H564.4z"/>
		<path class="st3" d="M557.7,125.6c0.2,0.4,0.2,0.9,0.2,1.4c0,2.3-1.9,4.2-4.2,4.2s-4.2-1.9-4.2-4.2c0-0.5,0.1-1,0.2-1.4h-7.1
			c-0.1,0.5-0.1,0.9-0.1,1.4c0,6.2,5,11.2,11.2,11.2c6.2,0,11.2-5,11.2-11.2c0-0.5,0-0.9-0.1-1.4H557.7z"/>
	</g>
</g>
</svg>
