<?xml version="1.0" encoding="utf-8"?>
<!-- Generator: Adobe Illustrator 25.2.1, SVG Export Plug-In . SVG Version: 6.00 Build 0)  -->
<svg version="1.1" id="Layer_1" xmlns="http://www.w3.org/2000/svg" xmlns:xlink="http://www.w3.org/1999/xlink" x="0px" y="0px"
	 viewBox="0 0 206.5 39.3" style="enable-background:new 0 0 206.5 39.3;" xml:space="preserve">
<style type="text/css">
	.st0{fill:#1F140F;}
</style>
<g>
	<g>
		<path class="st0" d="M1.5,11.3H6v1.5H0V2.4h1.5V11.3z"/>
		<path class="st0" d="M8.7,11.3h4.5v1.5h-6V2.4h1.5V11.3z"/>
		<path class="st0" d="M20.3,11.3v1.5h-6V2.4h5.9v1.5h-4.4v2.5h4v1.5h-4v3.6H20.3z"/>
		<path class="st0" d="M32.2,7.1v0.6c0,2.7-1.7,5.3-5.2,5.3c-3.1,0-5.5-2.1-5.5-5.4c0-3.2,2.2-5.4,5.5-5.4c1.8,0,3.1,0.6,4,1.4
			l-1.1,1.3c-0.7-0.6-1.7-1.1-3-1.1c-2.3,0-3.7,1.7-3.7,3.9c0,2.2,1.5,3.8,3.8,3.8c2.3,0,3.4-1.6,3.5-2.9h-3.3V7.1H32.2z"/>
		<path class="st0" d="M43.9,7.6c0,3.2-2.3,5.4-5.4,5.4s-5.4-2.2-5.4-5.4s2.3-5.4,5.4-5.4S43.9,4.4,43.9,7.6z M34.8,7.6
			c0,2.2,1.5,3.8,3.7,3.8c2.2,0,3.7-1.6,3.7-3.8c0-2.2-1.5-3.8-3.7-3.8C36.3,3.8,34.8,5.4,34.8,7.6z M39,1.8h-1.1L39.3,0h1.9L39,1.8
			z"/>
		<path class="st0" d="M51.3,11.3h4.5v1.5h-6V2.4h1.5V11.3z"/>
		<path class="st0" d="M63.1,10.2h-4.5l-1,2.6h-1.7l4.2-10.4h1.4l4.2,10.4h-1.7L63.1,10.2z M62.6,8.8l-1.7-4.4l-1.7,4.4H62.6z"/>
		<path class="st0" d="M80.3,12.8h-2l-4.9-6.4h0v6.4h-2.3V2.4H73l5,6.4h0V2.4h2.3V12.8z"/>
		<path class="st0" d="M90.9,8.6c0,2.7-1.5,4.4-4.4,4.4c-2.9,0-4.4-1.7-4.4-4.4V2.4h2.4v6c0,1.3,0.7,2.2,2,2.2s2-0.9,2-2.2v-6h2.4
			V8.6z"/>
		<path class="st0" d="M99.1,10.6v2.1h-6.5V2.4H99v2.1h-4.1v1.6h3.7v2.1h-3.7v2.4H99.1z"/>
		<path class="st0" d="M105.9,12.8h-2.5L99.5,2.4h2.7l2.4,7.4h0l2.4-7.4h2.7L105.9,12.8z"/>
		<path class="st0" d="M117.1,10.7h-4l-0.7,2.1h-2.6l4.1-10.4h2.4l4.1,10.4h-2.6L117.1,10.7z M116.4,8.6L115.1,5l-1.3,3.7H116.4z"/>
		<path class="st0" d="M124.7,7.6c0-3.3,2.4-5.4,5.7-5.4c1.6,0,2.8,0.5,3.7,1.2l-1.2,2c-0.7-0.4-1.5-0.8-2.5-0.8
			c-1.8,0-3.2,1.2-3.2,3c0,1.9,1.3,3,3.2,3c1,0,1.8-0.4,2.5-0.8l1.2,2c-0.9,0.6-2.1,1.2-3.7,1.2C127.1,13,124.7,10.9,124.7,7.6z"/>
		<path class="st0" d="M145.5,7.6c0,3.2-2.4,5.4-5.5,5.4s-5.5-2.2-5.5-5.4c0-3.2,2.4-5.4,5.5-5.4S145.5,4.4,145.5,7.6z M137.1,7.6
			c0,1.9,1.3,3,2.9,3s2.9-1.2,2.9-3c0-1.9-1.3-3-2.9-3S137.1,5.7,137.1,7.6z"/>
		<path class="st0" d="M149,10.6h4.1v2.2h-6.4V2.4h2.3V10.6z"/>
		<path class="st0" d="M160.5,10.6v2.1H154V2.4h6.4v2.1h-4.1v1.6h3.7v2.1h-3.7v2.4H160.5z"/>
		<path class="st0" d="M161.3,7.6c0-3.3,2.4-5.4,5.7-5.4c1.6,0,2.8,0.5,3.7,1.2l-1.2,2c-0.7-0.4-1.5-0.8-2.5-0.8
			c-1.8,0-3.2,1.2-3.2,3c0,1.9,1.3,3,3.2,3c1,0,1.8-0.4,2.5-0.8l1.2,2c-0.9,0.6-2.1,1.2-3.7,1.2C163.7,13,161.3,10.9,161.3,7.6z"/>
		<path class="st0" d="M171.2,7.6c0-3.3,2.4-5.4,5.7-5.4c1.6,0,2.8,0.5,3.7,1.2l-1.2,2c-0.7-0.4-1.5-0.8-2.5-0.8
			c-1.8,0-3.2,1.2-3.2,3c0,1.9,1.3,3,3.2,3c1,0,1.8-0.4,2.5-0.8l1.2,2c-0.9,0.6-2.1,1.2-3.7,1.2C173.6,13,171.2,10.9,171.2,7.6z"/>
		<path class="st0" d="M183.9,12.8h-2.3V2.4h2.3V12.8z"/>
		<path class="st0" d="M196.1,7.6c0,3.2-2.4,5.4-5.5,5.4s-5.5-2.2-5.5-5.4c0-3.2,2.4-5.4,5.5-5.4S196.1,4.4,196.1,7.6z M187.7,7.6
			c0,1.9,1.3,3,2.9,3s2.9-1.2,2.9-3c0-1.9-1.3-3-2.9-3S187.7,5.7,187.7,7.6z M191.4,1.8h-1.6l1.7-1.8h2.4L191.4,1.8z"/>
		<path class="st0" d="M206.5,12.8h-2l-4.9-6.4h0v6.4h-2.3V2.4h1.9l5,6.4h0V2.4h2.3V12.8z"/>
		<path class="st0" d="M65.8,18.7c0,1.8-1.2,3.1-3.2,3.1h-2V26h-1.5V15.6h3.5C64.7,15.6,65.8,16.9,65.8,18.7z M64.2,18.7
			c0-1.1-0.7-1.7-1.8-1.7h-1.8v3.4h1.8C63.5,20.4,64.2,19.8,64.2,18.7z"/>
		<path class="st0" d="M73.3,23.4h-4.5l-1,2.6h-1.7l4.2-10.4h1.4L76,26h-1.7L73.3,23.4z M72.8,22l-1.7-4.4L69.3,22H72.8z"/>
		<path class="st0" d="M79.6,21.6h-0.9V26h-1.5V15.6h3.5c1.8,0,3.2,1.1,3.2,3.1c0,1.6-1,2.7-2.4,2.9l3.1,4.4h-1.9L79.6,21.6z
			 M78.7,20.2h1.7c1.2,0,1.8-0.7,1.8-1.6c0-0.9-0.5-1.6-1.8-1.6h-1.7V20.2z"/>
		<path class="st0" d="M92,23.4h-4.5l-1,2.6h-1.7L89,15.6h1.4L94.7,26H93L92,23.4z M91.4,22l-1.7-4.4L88,22H91.4z"/>
		<path class="st0" d="M108.6,26l-0.6-0.6c-0.9,0.5-1.9,0.9-3,0.9c-3.1,0-5.4-2.2-5.4-5.4s2.3-5.4,5.4-5.4c3.1,0,5.4,2.2,5.4,5.4
			c0,1.5-0.5,2.7-1.3,3.6l1.5,1.6H108.6z M106.8,24.1l-2.2-2.3h2l1.3,1.3c0.5-0.7,0.8-1.5,0.8-2.4c0-2.2-1.5-3.8-3.7-3.8
			c-2.2,0-3.7,1.6-3.7,3.8c0,2.2,1.5,3.8,3.7,3.8C105.7,24.6,106.3,24.4,106.8,24.1z"/>
		<path class="st0" d="M120.1,22c0,2.6-1.6,4.2-4.2,4.2c-2.5,0-4.2-1.6-4.2-4.2v-6.4h1.6v6.3c0,1.7,1.1,2.7,2.5,2.7
			c1.5,0,2.5-1,2.5-2.7v-6.3h1.6V22z"/>
		<path class="st0" d="M128,24.5V26h-6V15.6h5.9V17h-4.4v2.5h4v1.5h-4v3.6H128z"/>
		<path class="st0" d="M140.5,17h-2.9V26H136V17h-2.9v-1.5h7.4V17z"/>
		<path class="st0" d="M147.7,24.5V26h-6V15.6h5.9V17h-4.4v2.5h4v1.5h-4v3.6H147.7z"/>
		<path class="st0" d="M12.5,33.9c0,3.2-2.3,5.2-5.6,5.2H3.6V28.7h3.3C10.2,28.7,12.5,30.7,12.5,33.9z M5.9,30.8V37h1.2
			c1.7,0,2.9-1.1,2.9-3.1c0-2-1.3-3.1-2.9-3.1H5.9z"/>
		<path class="st0" d="M16,39.1h-2.3V28.7H16V39.1z"/>
		<path class="st0" d="M23.3,39.1h-2.5l-3.9-10.4h2.7l2.4,7.4h0l2.4-7.4h2.7L23.3,39.1z"/>
		<path class="st0" d="M30.4,39.1h-2.3V28.7h2.3V39.1z"/>
		<path class="st0" d="M38.7,37v2.1h-6.5V28.7h6.4v2.1h-4.1v1.6h3.7v2.1h-3.7V37H38.7z"/>
		<path class="st0" d="M42.8,35.2h-0.4v3.9h-2.3V28.7h4.1c2.3,0,3.5,1.4,3.5,3.2c0,1.5-0.8,2.7-2.4,3.1l3,4h-2.9L42.8,35.2z
			 M42.4,33.3h1.5c0.9,0,1.4-0.4,1.4-1.2c0-0.8-0.5-1.2-1.4-1.2h-1.5V33.3z"/>
		<path class="st0" d="M56.2,30.9h-2.7v8.2h-2.3v-8.2h-2.7v-2.1h7.8V30.9z"/>
		<path class="st0" d="M63.5,37h-4l-0.7,2.1h-2.6l4.1-10.4h2.4l4.1,10.4h-2.6L63.5,37z M62.8,35l-1.3-3.7L60.3,35H62.8z"/>
		<path class="st0" d="M74.4,29.3l-1,2c-0.9-0.4-1.7-0.7-2.3-0.7c-0.7,0-0.9,0.3-0.9,0.6c0,0.3,0.2,0.5,0.8,0.9l1.7,1.1
			c1.2,0.8,2,1.6,2,3c0,2-1.4,3.1-3.8,3.1c-1.4,0-2.7-0.4-3.9-1l1-2.1c1,0.6,2,0.9,2.9,0.9c0.8,0,1.3-0.3,1.3-0.8
			c0-0.5-0.4-0.8-1-1.1l-1.6-1c-1.3-0.8-1.9-1.8-1.9-3c0-1.7,1.1-2.8,3.3-2.8C72,28.5,73.1,28.7,74.4,29.3z"/>
		<path class="st0" d="M86.1,37h-4l-0.7,2.1h-2.6l4.1-10.4h2.4l4.1,10.4h-2.6L86.1,37z M85.4,35l-1.3-3.7L82.8,35H85.4z"/>
		<path class="st0" d="M93.6,33.9c0-3.3,2.4-5.4,5.7-5.4c1.6,0,2.8,0.5,3.7,1.2l-1.2,2c-0.7-0.4-1.5-0.8-2.5-0.8
			c-1.8,0-3.2,1.2-3.2,3c0,1.9,1.3,3,3.2,3c1,0,1.8-0.4,2.5-0.8l1.2,2c-0.9,0.6-2.1,1.2-3.7,1.2C96,39.3,93.6,37.2,93.6,33.9z"/>
		<path class="st0" d="M112.8,34.9c0,2.7-1.5,4.4-4.4,4.4c-2.9,0-4.4-1.7-4.4-4.4v-6.2h2.4v6c0,1.3,0.7,2.2,2,2.2s2-0.9,2-2.2v-6
			h2.4V34.9z"/>
		<path class="st0" d="M113.9,33.9c0-3.3,2.4-5.4,5.7-5.4c1.6,0,2.8,0.5,3.7,1.2l-1.2,2c-0.7-0.4-1.5-0.8-2.5-0.8
			c-1.8,0-3.2,1.2-3.2,3c0,1.9,1.3,3,3.2,3c1,0,1.8-0.4,2.5-0.8l1.2,2c-0.9,0.6-2.1,1.2-3.7,1.2C116.4,39.3,113.9,37.2,113.9,33.9z"
			/>
		<path class="st0" d="M133.3,28.7v10.4H131v-4.4h-4.3v4.4h-2.3V28.7h2.3v3.9h4.3v-3.9H133.3z"/>
		<path class="st0" d="M141.5,37h-4l-0.7,2.1h-2.6l4.1-10.4h2.4l4.1,10.4h-2.6L141.5,37z M140.8,35l-1.3-3.7l-1.3,3.7H140.8z"/>
		<path class="st0" d="M148.5,35.2H148v3.9h-2.3V28.7h4.1c2.3,0,3.5,1.4,3.5,3.2c0,1.5-0.8,2.7-2.4,3.1l3,4h-2.9L148.5,35.2z
			 M148,33.3h1.5c0.9,0,1.4-0.4,1.4-1.2c0-0.8-0.5-1.2-1.4-1.2H148V33.3z"/>
		<path class="st0" d="M161.3,37h-4l-0.7,2.1H154l4.1-10.4h2.4l4.1,10.4H162L161.3,37z M160.6,35l-1.3-3.7L158,35H160.6z"/>
		<path class="st0" d="M174.4,33.9c0,3.2-2.3,5.2-5.6,5.2h-3.3V28.7h3.3C172.1,28.7,174.4,30.7,174.4,33.9z M167.8,30.8V37h1.2
			c1.7,0,2.9-1.1,2.9-3.1c0-2-1.3-3.1-2.9-3.1H167.8z"/>
		<path class="st0" d="M182,37h-4l-0.7,2.1h-2.6l4.1-10.4h2.4l4.1,10.4h-2.6L182,37z M181.3,35l-1.3-3.7l-1.3,3.7H181.3z"/>
		<path class="st0" d="M192.8,29.3l-1,2c-0.9-0.4-1.7-0.7-2.3-0.7c-0.7,0-0.9,0.3-0.9,0.6c0,0.3,0.2,0.5,0.8,0.9l1.7,1.1
			c1.2,0.8,2,1.6,2,3c0,2-1.4,3.1-3.8,3.1c-1.4,0-2.7-0.4-3.9-1l1-2.1c1,0.6,2,0.9,2.9,0.9c0.8,0,1.3-0.3,1.3-0.8
			c0-0.5-0.4-0.8-1-1.1l-1.6-1c-1.3-0.8-1.9-1.8-1.9-3c0-1.7,1.1-2.8,3.3-2.8C190.4,28.5,191.6,28.7,192.8,29.3z"/>
		<path class="st0" d="M194.5,28.7h2.6l-0.5,7H195L194.5,28.7z M197,39.1h-2.4v-2.4h2.4V39.1z"/>
		<path class="st0" d="M198.5,28.5h2.1v2.1l-1.2,2.3h-0.8l0.8-2.3h-0.8V28.5z M203.3,28.5v2.1l-1.2,2.3h-0.8l0.8-2.3h-0.8v-2.1
			H203.3z"/>
	</g>
</g>
</svg>
