<svg id="Layer_1" data-name="Layer 1" xmlns="http://www.w3.org/2000/svg" xmlns:xlink="http://www.w3.org/1999/xlink" viewBox="0 0 33 33"><defs><style>.cls-1{fill:none;}.cls-2{clip-path:url(#clip-path);}.cls-3{fill:url(#radial-gradient);}.cls-4{fill:#ffcd00;}</style><clipPath id="clip-path"><rect class="cls-1" x="-797.69" y="-776.24" width="1200" height="428.86"/></clipPath><radialGradient id="radial-gradient" cx="-795.66" cy="154.59" r="1" gradientTransform="matrix(600.58, -170.03, -182.5, -559.54, 505856.84, -49387.55)" gradientUnits="userSpaceOnUse"><stop offset="0" stop-color="#ffda00"/><stop offset="1" stop-color="#ffe186"/></radialGradient></defs><g class="cls-2"><polygon class="cls-3" points="-942.21 -735.32 300.86 -1087.25 546.82 -333.17 -696.25 18.76 -942.21 -735.32"/><path class="cls-4" d="M365.82-789.1a656.69,656.69,0,0,1,37.54,164.77,611.08,611.08,0,0,1,2.54,79.64A630.33,630.33,0,0,1,389-419.11a595,595,0,0,1-80.8,187.43A595.64,595.64,0,0,1,155.68-72.58,619.29,619.29,0,0,1,10.43,4.68Q-102.71,46.94-226.29,46a679.81,679.81,0,0,1-91.06-6.72A714.59,714.59,0,0,1-440.49,10.85,727,727,0,0,1-629.65-83.26,724.6,724.6,0,0,1-789.39-234.38c-3.44-4.43-7.07-8.73-10.61-13.08l-1.08-109.47a19.59,19.59,0,0,1,2.8,3.21,650.87,650.87,0,0,0,66,97.56A678,678,0,0,0-545.82-97.58,671.65,671.65,0,0,0-359.55-23.91,649.53,649.53,0,0,0-214.48-7.08,617.8,617.8,0,0,0-10.28-40.57a576,576,0,0,0,156.61-82.28Q251.66-201,310.85-316.3a557.93,557.93,0,0,0,56-175.56,581.15,581.15,0,0,0,3.62-138.61Q359.72-746.3,306.12-852.86A657.63,657.63,0,0,0,193.54-1012,677.83,677.83,0,0,0-4.94-1156,668.84,668.84,0,0,0-162.6-1208.8a647.66,647.66,0,0,0-103.71-12.49q-115.43-4.38-222.56,31.45a578.92,578.92,0,0,0-166.51,87.73,556.6,556.6,0,0,0-89.85,85.31,558.8,558.8,0,0,0-58.33,83.6,30.91,30.91,0,0,1-3.24,4q-.45-46.05-.91-92.12a47.41,47.41,0,0,0,4.5-4.34A599,599,0,0,1-688.7-1135.35,619.11,619.11,0,0,1-533-1218.21q106.39-38.52,222-39.29a697.77,697.77,0,0,1,134.67,12.35,712.57,712.57,0,0,1,149.22,45.61,728.26,728.26,0,0,1,186.21,115.6,721.09,721.09,0,0,1,127,140.71A692.3,692.3,0,0,1,365.82-789.1M-666.11-261.37a616.61,616.61,0,0,1-89.14-125.9A596.8,596.8,0,0,1-800-495.75a41.85,41.85,0,0,0-2.47-5.32l-3-300.21a23.8,23.8,0,0,0,2.07-4.17,504.31,504.31,0,0,1,25.85-70.7,516.42,516.42,0,0,1,126.73-173.17q74.83-67.2,171-103.24,94-35.3,196.65-36.2a604,604,0,0,1,135.64,14.1A629.68,629.68,0,0,1,55.71-1091a625.58,625.58,0,0,1,165.57,152q66.89,88.3,97.72,192.21A560.3,560.3,0,0,1,341.55-619a540.62,540.62,0,0,1-6.46,121.62A524.49,524.49,0,0,1,290.78-357,513.79,513.79,0,0,1,191-215.77Q107-131.42-7.55-89.8a569.43,569.43,0,0,1-149.6,32.17,602,602,0,0,1-102.15-.65A608.12,608.12,0,0,1-384.74-83.14a630.93,630.93,0,0,1-135.72-60A632.82,632.82,0,0,1-666.11-261.37M-636-300.09A587,587,0,0,0-520.42-198.94a589.33,589.33,0,0,0,180,80.86c41.59,10.81,83.77,16.92,119.18,18.11,80,2.33,150.41-8.93,217.37-34.67Q135.05-188,221-304.9c43-58.51,71.17-123.78,85.13-195.39a502.81,502.81,0,0,0,8.15-128.94q-6.3-98.31-48.48-190.07-48.69-105.91-136.68-186.05A589.71,589.71,0,0,0-73.07-1126.12a579.3,579.3,0,0,0-105-26.46,568.75,568.75,0,0,0-86.53-6.59,537.85,537.85,0,0,0-177.86,29.66,504.59,504.59,0,0,0-143.63,77.43,485.53,485.53,0,0,0-84.69,83.51,483.66,483.66,0,0,0-84.15,160.93A495.58,495.58,0,0,0-773.9-712a515.61,515.61,0,0,0-.76,89.19,525,525,0,0,0,30.91,142Q-707.42-381.38-636-300.09M-129.86-1718a1390.36,1390.36,0,0,0-153.27-34.6,1363.93,1363.93,0,0,0-191.52-18.35q-65-1.59-129.5,3.19A1305.31,1305.31,0,0,0-809.58-1736c-1.79.42-3.5,1.06-5.24,1.6q.57,56.89,1.13,113.8c31.52-10,63.69-18.12,96.22-25.05A1176,1176,0,0,1-484.4-1671.4a1225.85,1225.85,0,0,1,133.83,5.85q44.43,4.38,88.54,11.91,56.43,9.62,111.92,24.53A1289.75,1289.75,0,0,1,83-1541.69,1308.27,1308.27,0,0,1,305-1404q49.05,37.66,94.18,79.7a59.47,59.47,0,0,0,5.3,4Q404-1376.67,403.4-1433a55,55,0,0,1-4.59-3.18,1454,1454,0,0,0-148-109.07A1440.9,1440.9,0,0,0,48.39-1653.73,1419.73,1419.73,0,0,0-129.86-1718M33.42-1482.91a1162.08,1162.08,0,0,0-193.6-67.88q-55.37-14.07-111.65-22.54a1117.4,1117.4,0,0,0-142.68-12.32c-30.93-.69-61.77,0-92.52,2a1065.75,1065.75,0,0,0-192.64,29.77,1019.85,1019.85,0,0,0-106.28,32.78c-2.23.82-4.48,1.6-6.72,2.4q.46,46.07.92,92.13a937.24,937.24,0,0,1,158.4-55.76A974.31,974.31,0,0,1-444.9-1512a1021,1021,0,0,1,106.21,1.94,1039.4,1039.4,0,0,1,113.23,14.24,1053,1053,0,0,1,118,28.65,1058,1058,0,0,1,120.54,44.78,1087,1087,0,0,1,167,92.18,1097.3,1097.3,0,0,1,132,104.36,1060.31,1060.31,0,0,1,90.79,94.93c1.07,1.27,2.38,2.35,3.57,3.53l-.9-91c-14.07-14-27.92-28.2-42.24-42a1149.81,1149.81,0,0,0-101.19-86.24A1183.54,1183.54,0,0,0,33.42-1482.91m274.05,1333a637.48,637.48,0,0,1-102,104,664.73,664.73,0,0,1-187.6,107A700.56,700.56,0,0,1-135.26,99.2a731.8,731.8,0,0,1-160.65,3.49A759.69,759.69,0,0,1-474.16,65.12,783.61,783.61,0,0,1-625-4.51c-46.69-27.92-90.14-60-129.7-97-14.08-13.19-27.49-27-41.23-40.58a29.44,29.44,0,0,0-3-2.37q.51,50.4,1,100.79a27.43,27.43,0,0,1,3.69,2.34A848.37,848.37,0,0,0-639.54,67.73a839.34,839.34,0,0,0,200.89,78.91A822.64,822.64,0,0,0-332.83,166,794.42,794.42,0,0,0-227.68,171,771.75,771.75,0,0,0-65.34,151.1,733.24,733.24,0,0,0,129.85,75.36,702.19,702.19,0,0,0,283.22-41.32,674,674,0,0,0,387.63-176.45c8.8-15,16.65-30.63,25-46,.83-1.52,1.88-2.92,2.82-4.38q-.62-62.86-1.25-125.72a39.12,39.12,0,0,0-2,4.27A639.3,639.3,0,0,1,307.47-149.92M251.17-1209.4A988.74,988.74,0,0,0,140.27-1292a993.58,993.58,0,0,0-170.63-87.74A982.76,982.76,0,0,0-143.83-1417q-42.9-11.26-86.51-18.5a955.63,955.63,0,0,0-120.17-12.12,916.47,916.47,0,0,0-136.55,5,882.68,882.68,0,0,0-239.12,61.2,820.7,820.7,0,0,0-77.41,36.75c-2.39,1.29-4.87,2.43-7.31,3.65q.4,40.1.8,80.19a57,57,0,0,0,5.72-2.93A769,769,0,0,1-732.84-1305a796.53,796.53,0,0,1,179.69-65.4,828.6,828.6,0,0,1,173.33-21.69,865.28,865.28,0,0,1,169,13.17,903.06,903.06,0,0,1,113,27.6,910.23,910.23,0,0,1,190.62,85,916,916,0,0,1,212.33,172.74,890.19,890.19,0,0,1,99.28,131.61,45.91,45.91,0,0,0,3.75,4.67q-.42-41.72-.83-83.45c-2.94-3.64-6-7.18-8.79-10.92A976.11,976.11,0,0,0,251.17-1209.4m-105,27.77A845.46,845.46,0,0,0-31.3-1280.38a833.87,833.87,0,0,0-138.86-43.17A806.44,806.44,0,0,0-333.26-1342a770.64,770.64,0,0,0-223.81,30.26,731,731,0,0,0-161.38,68.49,696.61,696.61,0,0,0-84.24,57c-2.1,1.64-4.41,3-6.62,4.57l.78,78a24.78,24.78,0,0,0,3.43-2.41,653.52,653.52,0,0,1,159-114.73A687.15,687.15,0,0,1-447-1287.25,723.73,723.73,0,0,1-288.1-1297a759.34,759.34,0,0,1,208,39.67,783,783,0,0,1,201.45,102.61,778.37,778.37,0,0,1,177,172.83,738.57,738.57,0,0,1,85.77,148.33c8.77,20.36,15.88,41.32,23.76,62,.65,1.69,1.43,3.34,2.15,5q-.51-50.94-1-101.87-5.91-11.34-11.81-22.68a825.43,825.43,0,0,0-102.08-152.2,840.09,840.09,0,0,0-149-138.37m-255.46-644a1590.36,1590.36,0,0,1,160.47,58,1599.75,1599.75,0,0,1,196.06,99.4,1643.32,1643.32,0,0,1,148.74,100.21c1.92,1.45,4.1,2.6,6.15,3.89q-.76-77-1.54-153.9c-2.11-1.2-4.29-2.3-6.32-3.63-21.58-14.15-42.85-28.76-64.76-42.37-24.81-15.4-50.21-29.9-75.31-44.84a33.71,33.71,0,0,1-4.19-3.49l-364.73-16a35,35,0,0,0,5.43,2.74M267,59.3Q175.79,136.7,63.4,183.35A802.68,802.68,0,0,1-98,231.26a800.15,800.15,0,0,1-123.54,13.55c-7.84.23-15.71.06-23.57.18a48.74,48.74,0,0,0-5.36.67l331,14.48c16.37-7.48,33-14.6,49.08-22.5a807.36,807.36,0,0,0,142-89.13A808.91,808.91,0,0,0,408.18,13.34c3.08-3.88,6.34-7.63,9.52-11.44q-.56-56.91-1.13-113.8c-2.46,3.44-5,6.81-7.35,10.35A746.63,746.63,0,0,1,267,59.3M-491.59,212.07A904.77,904.77,0,0,1-725.81,108.52Q-760,87.28-792.12,63.17a48.91,48.91,0,0,0-4.81-2.83l1.08,108.37,3.35,2.12q41.73,27,86,49.75c3.47,1.79,6.86,3.72,10.3,5.57l367,16.06a27.35,27.35,0,0,0-4.34-1c-53.49-3.91-106-14.53-158-29.1M415,126.79A894.83,894.83,0,0,1,257.26,263.2c-2.23,1.51-4.54,2.92-6.82,4.38L397.91,274c6-5.5,12-11,18.12-16.52,1.28-1.14,2.79-2.06,4.19-3.08q-.66-65.56-1.3-131.14a46.9,46.9,0,0,0-3.92,3.51M-430.11-197.15Q-540.66-252-617-347.27A527.91,527.91,0,0,1-695.39-481a498,498,0,0,1-36.48-177.73,464.3,464.3,0,0,1,6.56-86.47,456.4,456.4,0,0,1,37.15-119.14A450.65,450.65,0,0,1-566.87-1021q75.12-62.4,171.26-90.46a510.13,510.13,0,0,1,132.15-20.17,526.63,526.63,0,0,1,97.18,7.07,541.94,541.94,0,0,1,121,34.62A552.45,552.45,0,0,1,137.32-967a533.83,533.83,0,0,1,108,157,505,505,0,0,1,44.9,199.86q-.35,11.61-.69,23.23a440.66,440.66,0,0,1-11.22,86.3c-16.82,72.91-49.19,138-97.76,194.91q-64,74.92-154.8,118c-65.83,31.15-136.31,46.85-211.2,47.57a531.21,531.21,0,0,1-123.26-13.61,543.78,543.78,0,0,1-121.4-43.38M-390.76-222a505.67,505.67,0,0,0,136,39.73,488.45,488.45,0,0,0,155.89-1.9q91.46-16,167.74-64.87,105.51-67.75,157.94-179.71a425,425,0,0,0,37-128.58,447.26,447.26,0,0,0,.74-106.37A472.66,472.66,0,0,0,216.9-823.31,502.32,502.32,0,0,0,111.1-965.22,518.34,518.34,0,0,0-82.48-1080.87a496.78,496.78,0,0,0-162.44-25.94c-92.79.8-177.14,25.29-251.86,74.6C-589.35-971.14-649.25-886.94-677.51-781a406.35,406.35,0,0,0-13.42,89.68c-.32,8.46-.6,16.92-.82,23.11,2.19,101.83,32.64,193.91,93.34,277.76C-544.73-316.28-475.26-260.22-390.76-222m223.1,10.57a454.43,454.43,0,0,1-138.47-18.28q-155.46-45.57-253.55-172.82a452.41,452.41,0,0,1-67.27-122.38q-33.66-92.58-24.89-188.28a401,401,0,0,1,31-122.59A397.41,397.41,0,0,1-510.37-984.29a411.26,411.26,0,0,1,117.3-69.34q86.35-33.43,181.44-29.73c10.3.92,20.61,1.7,30.9,2.75A462.87,462.87,0,0,1-75.27-1056.8,486,486,0,0,1,84.07-964.63,472.84,472.84,0,0,1,193.36-828a444.72,444.72,0,0,1,50.31,163.32,414.23,414.23,0,0,1-2.88,109.95,399.6,399.6,0,0,1-54.61,147.47A395.5,395.5,0,0,1,80.84-293.39q-108.79,78.91-248.5,82m88.27-41q112-24.67,191.82-102C165.8-406.21,200.49-468.72,217.24-541a379,379,0,0,0,9-108.74Q220-754.55,163.22-846.86a447.22,447.22,0,0,0-121-129.38c-52-37.34-109.17-62.89-171.59-76.22a443,443,0,0,0-100.33-9.85,418.4,418.4,0,0,0-127.11,21.77,390.93,390.93,0,0,0-113.54,60.2A374.49,374.49,0,0,0-575.43-856.17a370.82,370.82,0,0,0-39.4,121c-1.2,8.33-2.33,16.7-2.93,25.12-.86,12.19-1.2,24.44-1.59,32.91,2,93.61,30,176.37,85.89,251.27,52.83,70.82,121.39,122,204.85,154a439.1,439.1,0,0,0,105.57,26c48.74,5.83,96.63,3.84,143.65-6.52m159.48-106c-74.42,61.19-162.5,89.05-262.86,85.95a406,406,0,0,1-52.8-5.83,422.89,422.89,0,0,1-142-51.82Q-494-398.28-549.88-517.71c-30.39-65.12-41.64-132.52-34.52-201.77a351.18,351.18,0,0,1,30.62-112.09c24-51.89,58.47-95.93,104.19-131.27,71.39-55.19,154.43-81.37,248.34-79.33,40.76.88,80.83,8.26,120,21.32a430.24,430.24,0,0,1,159,94.33,417.19,417.19,0,0,1,75.69,94.22Q205.51-743.62,208.5-644a355.22,355.22,0,0,1-18.84,126.44C168.19-454.48,132-401,80.09-358.36m-54.64,7.73C85.66-386.08,130-435.55,159.09-497.77a326.67,326.67,0,0,0,29.34-109.12c1.12-12.15,1.28-24.43,1.69-32.73-1.67-81.84-26-153.58-74-218.75C75.87-912.94,24.3-954.57-38-983.44c-48.27-22.37-98.81-34.8-151.26-36.2-101.27-2.69-187.93,28.76-258.72,94.81-50.95,47.54-83,106-97.37,174.11a331.17,331.17,0,0,0-6.32,93.39c5.75,77.7,34,148.18,85.36,210.78,46.71,56.93,105.38,97.77,175.29,122.92a379.9,379.9,0,0,0,85.43,20c83.94,9.65,161.14-5.88,231-47m26.07-46c-63.7,50.41-138.63,73-223.18,70.47a370.24,370.24,0,0,1-61.63-8.2,368.09,368.09,0,0,1-133.15-58.5,361.16,361.16,0,0,1-88.85-88.26Q-510.92-560-518-653a308.07,308.07,0,0,1,17-128.73c23.08-64.5,63.39-116.25,121-154.72,49.89-33.3,106.11-51.34,168.12-54.72a354.75,354.75,0,0,1,103.56,9.8,365.61,365.61,0,0,1,116.85,51Q99.38-870,141.68-772.57c26.55,61.36,34.23,124.2,22.61,187.85-14,76.54-51.48,139.63-112.77,188.12m97.89-242.35C148.16-806.48,7.11-953-172.53-961.44c-176.61-8.29-319.25,124.13-317.89,294.13,1.35,168.37,143,314.12,322.5,322.6C12.19-337.6,150.65-471.87,149.41-638.95m-315.1,280.54c-163.88-7.23-298-140.39-299.8-297.32-1.8-155.16,126-280.3,294-273.45S127.83-786.4,129.13-630.58c1.3,157.19-130.92,279.39-294.82,272.17M-12-404.34c65.22-39,104.44-96.22,118-170.27,2.68-14.66,3.64-29.54,3.68-51.56-2.72-73.61-34.83-142.47-98.92-198C-31.56-860.92-80.83-883.33-136-892.43c-95.93-15.84-191.91,17.27-251.49,88.35-31.71,37.81-50.59,81.44-55.76,130.89-7,66.77,10.11,128.94,51.55,185.42C-348-428.25-289.1-390-216.45-373.72-142.8-357.26-74-367.33-12-404.34M-49.65-392a227.5,227.5,0,0,1-35.14,12.21,54,54,0,0,0-.12-7.46,118.31,118.31,0,0,0-8.89-30.57c-11.28-25.46-29-46.17-52.32-62.31-38.24-26.42-80-37.13-125.06-30-27.9,4.39-51.75,16.16-70.36,36.37-3.59,3.91-6.76,8.19-10.09,12.25l-2.26-.75c-.14.21-.28.42-.41.64L-337-443.47c17.68-12.71,28.79-18.35,44.05-22.24,36.3-9.27,71.86-4.63,106.51,11.64,28.87,13.55,51.9,33.56,67.75,60.79,3.49,6,6.2,12.38,9.61,19.28-13,1.22-25.6,2.38-37.8,3.51-45.29-55.42-119.78-67.83-162.51-50.82l7.94,6.91a49.77,49.77,0,0,1-5.94-3.08c-22.32-14.83-42.34-32.15-59.16-52.71-49.36-60.37-69.38-127.37-56.31-200.54,13.22-74,55.26-128.39,122.85-163.23,48.28-24.89,100.93-32.41,156.81-24.17a277.9,277.9,0,0,1,99.76,35c86.64,50.28,138,141.67,132.68,234.4-2.06,36.33-12,70.12-30.27,101.13C33.62-444.45-2.75-412.7-49.65-392M64-532.11c10.52-40.95,8.33-82.25-5.81-123.53-27.6-80.59-98.86-142.75-183.4-162.56C-198-835.26-264.5-824-323-783.36c-47.53,33.07-76.63,78.66-86,135.59-10.83,65.89,7.15,126.19,50.54,180.94.58.72,1.29,1.36,1.94,2l.8-.44a17.2,17.2,0,0,0-2.05-3.06c-3.78-3.65-3.07-7.25-1.33-11.33a111.89,111.89,0,0,1,39.76-48.78c20.9-14.57,44.68-22.59,70.92-24.28,50-3.21,94.45,12,132.76,45.31,26.79,23.33,43.81,52,49.28,85.94,1.35,8.38.91,16.94,1.17,25.42.07,2.48-.29,5-.53,8.47l13.93-5.94c3.2-11.26,5.73-22.18,6.21-33.59,1.57-37.65-11.34-71.23-36.59-101-26.29-31-59.81-50.83-99.33-60.66-34-8.46-67.32-7.84-99.29,3.56-41.66,14.85-70.26,42.23-83.15,83.88-1.31,4.24-2,8.69-3,13-.23,1-.52,1.95-.94,3.5-2.66-2.65-3.51-4.91-3.45-8.07.27-13.76,1.55-27.32,5.54-40.37,11.66-38.05,36.11-65.82,72.31-83.65s75.32-21.55,116.33-13c40.73,8.49,75.89,27.5,104.41,57.73,32.88,34.82,49,75.16,45.82,121a124.14,124.14,0,0,1-13.61,48.15,7.31,7.31,0,0,0-1,4.4c5.8-3.52,11.75-6.83,17.36-10.59,45-30.2,74.78-71,88.13-123m-364.88,118-.5-.25c.13.12.26.24.4.35Zm5.5,3.62.11-.11-5.61-3.51-.1.1,5.6,3.52m0,0,.3.13c-.07-.08-.12-.17-.19-.24l-.11.11m1.17,1.09a5.87,5.87,0,0,0,3.78,1.15l-4.65-2.11a3.66,3.66,0,0,0,.87,1M14.06-680.25C-24.46-737-78.51-771.58-146.35-784.41c-52.49-9.94-102.19-3.3-147.63,20.74-57.91,30.62-92.86,78.08-103.21,142.1-6.42,39.77.24,78.73,17.81,116.54.75,1.62,1.68,3.18,2.69,5.08.59-.95.93-1.5,1.28-2.05v0h0v0a34.72,34.72,0,0,1-2.86-5.27c-21.37-63.33-13.44-121.27,26.63-172.32,32.47-41.37,77.24-64.29,131.57-70.13,66.32-7.12,125.94,11.88,177.74,55.61,37,31.26,61,70.29,70,116.19,12,60.76-3.47,113.53-44.68,158-1.21,1.3-2.47,2.57-3.67,3.89-.19.2-.18.57-.62,2.1,5.32-4.73,10-8.54,14.24-12.73,32.72-32.21,52.07-71.16,56.68-117,4.9-48.59-7-94.48-35.55-136.6M-375.28-511.69c-2.84-47.37,13.19-87,47.6-118.68,27.81-25.57,62-39.31,101-42.73,45.85-4,89,6.35,128.76,31.19,46.45,29,76.95,69,87.75,121.06C-1.87-481.1-9.06-444.4-30.31-411a14.46,14.46,0,0,0-2.39,5.29c.71-.65,1.51-1.23,2.15-1.94C-6.38-434.57,8.24-465.84,11.3-502.3,14.85-544.64,3.49-584-21.94-620c-32.64-46.24-77.66-75.15-133.15-87.47-50.35-11.17-98.06-5.48-141.39,18.7-48.41,27-76.77,68-83.8,122.66a157.91,157.91,0,0,0,3.75,58.77c.44,1.77.75,3.56,1.12,5.36.05-3.23.33-6.45.13-9.67"/></g><path d="M27.17.5H5.83A5.35,5.35,0,0,0,.5,5.83V27.17A5.35,5.35,0,0,0,5.83,32.5H27.17a5.35,5.35,0,0,0,5.33-5.33V5.83A5.35,5.35,0,0,0,27.17.5m-.48,10.68c0,.23,0,.46,0,.69,0,7.07-5.28,15.23-14.95,15.23a14.67,14.67,0,0,1-8.06-2.41,10.36,10.36,0,0,0,1.25.08,10.47,10.47,0,0,0,6.53-2.29,5.28,5.28,0,0,1-4.91-3.72,5.36,5.36,0,0,0,1,.1,5.22,5.22,0,0,0,1.38-.19,5.33,5.33,0,0,1-4.21-5.25v-.06A5.21,5.21,0,0,0,7.1,14,5.43,5.43,0,0,1,5.47,6.88a14.82,14.82,0,0,0,10.84,5.59,5.43,5.43,0,0,1-.14-1.22A5.31,5.31,0,0,1,21.43,5.9a5.22,5.22,0,0,1,3.84,1.69A10.44,10.44,0,0,0,28.6,6.3a5.38,5.38,0,0,1-2.31,3,10.19,10.19,0,0,0,3-.85,10.47,10.47,0,0,1-2.62,2.77"/></svg>