<svg id="Layer_1" data-name="Layer 1" xmlns="http://www.w3.org/2000/svg" xmlns:xlink="http://www.w3.org/1999/xlink" viewBox="0 0 249 39.11"><defs><style>.cls-1{fill:none;}.cls-2{fill:#d15500;}.cls-3{clip-path:url(#clip-path);}.cls-4{fill:#ffcd00;}</style><clipPath id="clip-path"><rect class="cls-1" x="-435.75" y="487.89" width="1200" height="428.86"/></clipPath></defs><path class="cls-2" d="M240.46,39.11V21.69a14.8,14.8,0,0,0-14.8-14.8H23.34a14.8,14.8,0,0,0-14.8,14.8V39.11Z"/><g class="cls-3"><path class="cls-4" d="M727.76,475A657.14,657.14,0,0,1,765.31,639.8a611,611,0,0,1,2.54,79.64A631,631,0,0,1,750.93,845a597.13,597.13,0,0,1-233.31,346.53,618.16,618.16,0,0,1-145.25,77.26q-113.14,42.27-236.72,41.37a679.81,679.81,0,0,1-91.06-6.72A715.22,715.22,0,0,1-78.54,1275a726.2,726.2,0,0,1-189.16-94.11,724.41,724.41,0,0,1-159.75-151.12c-3.43-4.42-7.06-8.72-10.6-13.08q-.56-54.72-1.09-109.46a19.47,19.47,0,0,1,2.8,3.2,651,651,0,0,0,66,97.57,678.28,678.28,0,0,0,186.42,158.58A671.74,671.74,0,0,0,2.39,1240.21a650.27,650.27,0,0,0,145.07,16.84,618,618,0,0,0,204.2-33.5,575.91,575.91,0,0,0,156.62-82.27q105.32-78.1,164.51-193.46a557.85,557.85,0,0,0,56-175.56,581.07,581.07,0,0,0,3.62-138.6q-10.77-115.85-64.38-222.4A657.5,657.5,0,0,0,555.48,252.08,677.48,677.48,0,0,0,357,108.14,669.63,669.63,0,0,0,199.35,55.32,646.78,646.78,0,0,0,95.64,42.84q-115.43-4.4-222.57,31.45A578.62,578.62,0,0,0-293.43,162a556.2,556.2,0,0,0-89.86,85.31,558.22,558.22,0,0,0-58.32,83.6,32.49,32.49,0,0,1-3.24,4q-.47-46.06-.92-92.12a47.51,47.51,0,0,0,4.5-4.35A599.05,599.05,0,0,1-326.75,128.78,618.62,618.62,0,0,1-171,45.92Q-64.63,7.38,51,6.62A697.81,697.81,0,0,1,185.66,19,711.71,711.71,0,0,1,334.87,64.59,727.78,727.78,0,0,1,521.08,180.18a720.82,720.82,0,0,1,127,140.72A691.88,691.88,0,0,1,727.76,475M-304.17,1002.76a616.84,616.84,0,0,1-89.13-125.9,595.18,595.18,0,0,1-44.8-108.49,42.45,42.45,0,0,0-2.48-5.31q-1.5-150.1-3-300.22a24.43,24.43,0,0,0,2.07-4.16A503.35,503.35,0,0,1-415.66,388,516.46,516.46,0,0,1-288.93,214.81q74.85-67.2,171-103.24,94-35.29,196.65-36.2a602.91,602.91,0,0,1,135.65,14.1,629.24,629.24,0,0,1,203.3,83.62A625.86,625.86,0,0,1,583.23,325q66.87,88.31,97.71,192.22A560.68,560.68,0,0,1,703.5,645.13,540.68,540.68,0,0,1,697,766.76a524.4,524.4,0,0,1-44.3,140.32,513.74,513.74,0,0,1-99.81,141.27q-84,84.36-198.52,126a569.6,569.6,0,0,1-149.61,32.18,601.89,601.89,0,0,1-102.14-.65A609.54,609.54,0,0,1-22.8,1181a635.4,635.4,0,0,1-281.37-178.23M-274,964a586.4,586.4,0,0,0,115.57,101.16,589.33,589.33,0,0,0,180.05,80.86c41.59,10.8,83.77,16.91,119.18,18.1,80,2.34,150.41-8.93,217.36-34.66Q497,1076.11,582.91,959.22c43-58.5,71.17-123.77,85.13-195.38a502.83,502.83,0,0,0,8.14-128.94q-6.3-98.32-48.47-190.07Q579,338.92,491,258.77A589.9,589.9,0,0,0,288.88,138a579.54,579.54,0,0,0-105-26.47A567.69,567.69,0,0,0,97.32,105,538.14,538.14,0,0,0-80.54,134.61a505,505,0,0,0-143.63,77.44,485.18,485.18,0,0,0-84.69,83.51A483.73,483.73,0,0,0-393,456.49a493.93,493.93,0,0,0-18.95,95.65,516.59,516.59,0,0,0-.77,89.19,525.85,525.85,0,0,0,30.91,142Q-345.46,882.75-274,964M232.09-453.85A1390,1390,0,0,0,78.81-488.44,1363.93,1363.93,0,0,0-112.7-506.79q-65-1.59-129.51,3.18a1305.5,1305.5,0,0,0-205.43,31.72c-1.78.42-3.49,1.06-5.23,1.6q.56,56.9,1.13,113.79c31.52-10,63.68-18.11,96.22-25.05a1175.85,1175.85,0,0,1,233.06-25.72,1225.73,1225.73,0,0,1,133.83,5.84Q55.8-397,99.92-389.52q56.42,9.63,111.91,24.54A1288.44,1288.44,0,0,1,445-277.56,1307.24,1307.24,0,0,1,667-139.87Q716-102.21,761.16-60.18a57.7,57.7,0,0,0,5.3,4q-.56-56.35-1.12-112.71c-1.53-1.05-3.18-2-4.59-3.18a1454,1454,0,0,0-148-109.08A1441.39,1441.39,0,0,0,410.34-389.6a1421.93,1421.93,0,0,0-178.25-64.25M395.36-218.78a1162,1162,0,0,0-193.59-67.89Q146.41-300.73,90.12-309.2A1117.55,1117.55,0,0,0-52.57-321.52c-30.93-.69-61.76,0-92.51,1.95a1066,1066,0,0,0-192.65,29.76A1019,1019,0,0,0-444-257c-2.24.82-4.49,1.6-6.73,2.4q.47,46.07.92,92.12a939.61,939.61,0,0,1,158.4-55.76A974.39,974.39,0,0,1-83-247.89,1023.74,1023.74,0,0,1,23.25-246a1041.59,1041.59,0,0,1,113.23,14.25,1050.25,1050.25,0,0,1,118,28.65A1055.53,1055.53,0,0,1,375-158.28,1087.37,1087.37,0,0,1,542-66.1,1094.74,1094.74,0,0,1,674,38.26a1060.42,1060.42,0,0,1,90.8,94.93c1.07,1.26,2.37,2.35,3.57,3.52l-.91-91c-14.06-14-27.92-28.21-42.23-42a1149.94,1149.94,0,0,0-101.2-86.24A1182.94,1182.94,0,0,0,395.36-218.78m274.06,1333a636.68,636.68,0,0,1-102,104,664.49,664.49,0,0,1-187.6,107,700,700,0,0,1-153.14,38A730.56,730.56,0,0,1,66,1366.81a759.7,759.7,0,0,1-178.24-37.56A782.77,782.77,0,0,1-263,1259.61c-46.69-27.91-90.15-60-129.7-97-14.09-13.19-27.5-27.06-41.23-40.59a32.62,32.62,0,0,0-3-2.37q.51,50.4,1,100.8a26.82,26.82,0,0,1,3.69,2.34,848.59,848.59,0,0,0,154.74,109.1,839.15,839.15,0,0,0,200.89,78.9A820.65,820.65,0,0,0,29.12,1430.1a796,796,0,0,0,105.14,5.06,771,771,0,0,0,162.34-19.94,733,733,0,0,0,195.2-75.73A702.47,702.47,0,0,0,645.17,1222.8a673.85,673.85,0,0,0,104.4-135.12c8.8-15,16.66-30.63,25-46,.83-1.53,1.87-2.93,2.82-4.39l-1.26-125.71a38.27,38.27,0,0,0-2,4.27,639.71,639.71,0,0,1-104.72,198.31M613.12,54.73A990.65,990.65,0,0,0,502.22-27.9a994.34,994.34,0,0,0-170.64-87.73,982.61,982.61,0,0,0-113.46-37.24q-42.92-11.26-86.51-18.5A957.52,957.52,0,0,0,11.44-183.5a918,918,0,0,0-136.56,5,883.16,883.16,0,0,0-239.12,61.21,819.35,819.35,0,0,0-77.4,36.75c-2.4,1.29-4.88,2.43-7.32,3.64l.81,80.2A61.32,61.32,0,0,0-442.44.39a766.87,766.87,0,0,1,71.55-41.23,795.79,795.79,0,0,1,179.68-65.4,829.28,829.28,0,0,1,173.33-21.7,865.39,865.39,0,0,1,169,13.18,901.73,901.73,0,0,1,113,27.6,910.18,910.18,0,0,1,190.62,85A916.25,916.25,0,0,1,667.06,170.59,888.91,888.91,0,0,1,766.33,302.2a48.52,48.52,0,0,0,3.75,4.67q-.41-41.73-.83-83.45c-2.93-3.64-6-7.18-8.78-10.92A976.58,976.58,0,0,0,613.12,54.73m-105,27.77A845.77,845.77,0,0,0,330.64-16.26,834.66,834.66,0,0,0,191.79-59.42,806.53,806.53,0,0,0,28.69-77.86,771.43,771.43,0,0,0-195.13-47.6,730.9,730.9,0,0,0-356.5,20.9a694.6,694.6,0,0,0-84.24,57c-2.11,1.65-4.42,3.06-6.63,4.58q.39,39,.78,78a26,26,0,0,0,3.44-2.41,653.66,653.66,0,0,1,159-114.73A687.06,687.06,0,0,1-85-23.12,723.76,723.76,0,0,1,73.84-32.84a759.7,759.7,0,0,1,208,39.66A782.54,782.54,0,0,1,483.32,109.44a778.58,778.58,0,0,1,177,172.82,739.08,739.08,0,0,1,85.76,148.33c8.78,20.37,15.88,41.33,23.77,62,.64,1.7,1.42,3.34,2.15,5l-1-101.88q-5.91-11.34-11.8-22.68a825.76,825.76,0,0,0-102.08-152.2,840.38,840.38,0,0,0-149-138.36m-255.46-644a1592.87,1592.87,0,0,1,160.47,58,1598.21,1598.21,0,0,1,196.05,99.4,1643.22,1643.22,0,0,1,148.74,100.2c1.93,1.46,4.1,2.6,6.15,3.9l-1.53-153.9c-2.11-1.21-4.3-2.31-6.33-3.64-21.57-14.14-42.85-28.75-64.76-42.36-24.81-15.4-50.2-29.9-75.31-44.85a33.57,33.57,0,0,1-4.19-3.49l-364.73-16a34.65,34.65,0,0,0,5.44,2.74M629,1323.42q-91.23,77.4-203.6,124.06a803.52,803.52,0,0,1-161.41,47.91,801.38,801.38,0,0,1-123.54,13.55c-7.84.23-15.72.06-23.58.18a44.34,44.34,0,0,0-5.36.67l331,14.48c16.38-7.49,32.95-14.61,49.09-22.5a820.45,820.45,0,0,0,278.62-224.3c3.09-3.89,6.35-7.63,9.53-11.45q-.57-56.89-1.13-113.79c-2.46,3.44-5,6.81-7.36,10.35A746.8,746.8,0,0,1,629,1323.42m-758.59,152.77a904.66,904.66,0,0,1-234.23-103.54q-34.17-21.24-66.31-45.35a49.65,49.65,0,0,0-4.8-2.84l1.08,108.38c1.11.71,2.24,1.4,3.35,2.11q41.71,27,85.95,49.76c3.46,1.79,6.86,3.71,10.29,5.57l367,16a27.93,27.93,0,0,0-4.34-1c-53.48-3.9-106-14.52-158-29.1m906.58-85.28A893.64,893.64,0,0,1,619.2,1527.32c-2.23,1.51-4.54,2.92-6.81,4.38l147.47,6.45c6-5.51,12-11.05,18.12-16.52a49.63,49.63,0,0,1,4.19-3.08q-.66-65.57-1.31-131.14a50.4,50.4,0,0,0-3.92,3.5M-68.17,1067q-110.54-54.88-186.89-150.12a528,528,0,0,1-78.38-133.72A498,498,0,0,1-369.93,605.4a464.24,464.24,0,0,1,6.57-86.47,456.83,456.83,0,0,1,37.14-119.15A451,451,0,0,1-204.93,243.15q75.12-62.39,171.26-90.46A509.84,509.84,0,0,1,98.49,132.53a524.9,524.9,0,0,1,97.18,7.07,541.71,541.71,0,0,1,121,34.62,552.25,552.25,0,0,1,182.57,122.9,533.19,533.19,0,0,1,108,157A504.79,504.79,0,0,1,652.17,654q-.36,11.61-.7,23.23a440.09,440.09,0,0,1-11.21,86.3c-16.82,72.91-49.2,138-97.77,194.9q-64,74.94-154.79,118Q289,1123.11,176.5,1124a530.07,530.07,0,0,1-123.26-13.61A543.85,543.85,0,0,1-68.17,1067m39.35-24.83a505.33,505.33,0,0,0,136,39.74A488.51,488.51,0,0,0,263,1080q91.46-16,167.74-64.87,105.5-67.75,157.93-179.72a424.89,424.89,0,0,0,37-128.57,446.74,446.74,0,0,0,.74-106.37,472.29,472.29,0,0,0-47.63-159.63A502.4,502.4,0,0,0,473,298.91,518.54,518.54,0,0,0,279.47,183.25,496.8,496.8,0,0,0,117,157.31c-92.78.81-177.14,25.3-251.86,74.61C-227.4,293-287.31,377.19-315.56,483.12A405.85,405.85,0,0,0-329,572.8c-.32,8.47-.6,16.92-.82,23.12,2.19,101.83,32.63,193.9,93.33,277.75,53.68,74.17,123.16,130.23,207.65,168.47m223.11,10.58a454.5,454.5,0,0,1-138.48-18.28Q-99.63,988.85-197.73,861.61A452.36,452.36,0,0,1-265,739.24Q-298.66,646.66-289.9,551a401.14,401.14,0,0,1,31-122.58A397.55,397.55,0,0,1-148.43,279.83,411.65,411.65,0,0,1-31.12,210.5Q55.24,177,150.31,180.77c10.31.91,20.61,1.7,30.91,2.75a462.58,462.58,0,0,1,105.46,23.81A485.91,485.91,0,0,1,446,299.5,472.67,472.67,0,0,1,555.3,436.13a444.63,444.63,0,0,1,50.32,163.31,414.31,414.31,0,0,1-2.88,110,399.62,399.62,0,0,1-54.62,147.47A395.59,395.59,0,0,1,442.79,970.74q-108.81,78.91-248.5,82m88.26-41q112-24.68,191.82-102c53.38-51.84,88.06-114.35,104.82-186.69a378.91,378.91,0,0,0,9-108.73q-6.32-104.76-63.06-197.07a447.39,447.39,0,0,0-121-129.39q-78-56-171.59-76.21a442.44,442.44,0,0,0-100.34-9.85A418.5,418.5,0,0,0,5.17,223.58a390.85,390.85,0,0,0-113.54,60.21A374.67,374.67,0,0,0-213.49,408a370.65,370.65,0,0,0-39.39,121c-1.2,8.34-2.34,16.7-2.93,25.13-.86,12.18-1.2,24.44-1.59,32.91,2,93.61,30,176.36,85.89,251.26,52.82,70.82,121.39,122,204.85,154a439.92,439.92,0,0,0,105.57,26c48.74,5.82,96.62,3.83,143.64-6.53M442,905.77c-74.42,61.18-162.5,89.05-262.85,86a405.85,405.85,0,0,1-52.8-5.84,422.8,422.8,0,0,1-142-51.81q-116.52-68.24-172.35-187.65c-30.39-65.13-41.63-132.52-34.52-201.78a351.25,351.25,0,0,1,30.62-112.09c24-51.88,58.48-95.92,104.2-131.26C-16.25,246.1,66.79,219.92,160.7,222c40.76.88,80.83,8.26,120,21.32a430.08,430.08,0,0,1,159,94.32,417.42,417.42,0,0,1,75.68,94.23q52.11,88.68,55.1,188.24a355.28,355.28,0,0,1-18.84,126.45C530.13,809.65,493.91,863.11,442,905.77M387.4,913.5C447.61,878.05,492,828.58,521,766.36a326.74,326.74,0,0,0,29.35-109.13c1.12-12.14,1.28-24.42,1.69-32.72-1.68-81.84-26-153.59-74-218.75-40.24-54.57-91.82-96.2-154.1-125.07-48.28-22.37-98.81-34.81-151.26-36.2C71.42,241.8-15.24,273.25-86,339.3c-50.95,47.53-83,106-97.37,174.11a331.53,331.53,0,0,0-6.31,93.39c5.74,77.69,34,148.18,85.36,210.77C-57.65,874.5,1,915.35,70.94,940.5a379.64,379.64,0,0,0,85.43,20c83.93,9.65,161.14-5.88,231-47m26.07-46c-63.71,50.4-138.64,73-223.18,70.47A370.37,370.37,0,0,1-4.5,871.3,361.47,361.47,0,0,1-93.34,783Q-149,704.16-156,611.11a308.28,308.28,0,0,1,17-128.74C-115.95,417.88-75.64,366.13-18,327.66c49.89-33.3,106.11-51.34,168.11-54.72a354.48,354.48,0,0,1,103.57,9.8,365.26,365.26,0,0,1,116.85,51.05q90.76,60.33,133.08,157.76c26.54,61.36,34.22,124.21,22.61,187.85C512.26,756,474.75,819,413.47,867.53m97.88-242.36c-1.24-167.52-142.3-314-321.94-322.48C12.81,294.4-129.84,426.81-128.48,596.81c1.35,168.38,143,314.13,322.51,322.61,180.11,7.1,318.56-127.16,317.32-294.25M196.26,905.71c-163.89-7.22-298-140.38-299.81-297.31-1.79-155.17,126-280.3,294-273.46S489.78,477.72,491.07,633.55c1.31,157.19-130.91,279.38-294.81,272.16m153.67-45.92c65.23-39,104.44-96.22,118-170.28,2.69-14.65,3.65-29.53,3.68-51.56-2.72-73.6-34.83-142.47-98.91-198C330.39,403.21,281.11,380.8,226,371.69,130,355.85,34.07,389-25.52,460.05c-31.7,37.8-50.59,81.44-55.75,130.88-7,66.77,10.1,129,51.55,185.42C14,835.88,72.85,874.17,145.5,890.41c73.65,16.46,142.46,6.39,204.43-30.62m-37.63,12.3a227.5,227.5,0,0,1-35.14,12.21,57.49,57.49,0,0,0-.12-7.47,118.17,118.17,0,0,0-8.9-30.57c-11.27-25.46-29-46.16-52.32-62.3-38.24-26.42-80-37.13-125-30C62.87,758.3,39,770.08,20.41,790.29c-3.6,3.91-6.76,8.18-10.09,12.25l-2.26-.75c-.15.21-.28.42-.42.63L25,820.66c17.68-12.72,28.8-18.35,44.06-22.25,36.29-9.26,71.85-4.63,106.5,11.64,28.88,13.56,51.91,33.57,67.76,60.8,3.49,6,6.19,12.37,9.61,19.28l-37.8,3.51C169.8,838.21,95.31,825.8,52.57,842.82c2.69,2.33,5.32,4.62,7.94,6.91a52.1,52.1,0,0,1-5.94-3.08C32.25,831.82,12.24,814.5-4.58,793.93-53.94,733.57-74,666.56-60.89,593.39-47.68,519.38-5.64,465,62,430.17c48.28-24.89,100.93-32.41,156.81-24.18a277.83,277.83,0,0,1,99.76,35c86.64,50.28,138,141.68,132.69,234.4-2.07,36.33-12,70.13-30.27,101.14-25.37,43.13-61.74,74.88-108.64,95.54M425.9,732c10.52-40.94,8.32-82.24-5.81-123.53-27.6-80.59-98.86-142.74-183.4-162.55C163.92,428.87,97.44,440.09,39,480.77c-47.53,33.07-76.63,78.66-86,135.59C-57.84,682.25-39.85,742.54,3.54,797.3c.58.72,1.29,1.35,1.93,2l.8-.45a16.19,16.19,0,0,0-2-3.06c-3.78-3.64-3.06-7.24-1.32-11.33a111.9,111.9,0,0,1,39.75-48.77c20.91-14.57,44.69-22.6,70.92-24.28,50-3.21,94.45,12,132.76,45.31,26.8,23.32,43.82,52,49.28,85.94,1.36,8.38.92,16.93,1.17,25.41.07,2.49-.29,5-.52,8.47l13.92-5.94c3.21-11.25,5.73-22.17,6.21-33.58,1.58-37.66-11.33-71.23-36.59-101-26.28-31-59.8-50.82-99.33-60.66-34-8.46-67.32-7.83-99.28,3.56C39.52,693.82,10.93,721.2-2,762.86c-1.31,4.24-2,8.68-3,13-.23,1-.52,2-.94,3.51-2.66-2.66-3.52-4.91-3.46-8.07C-9.12,757.56-7.83,744-3.84,731c11.65-38.05,36.1-65.83,72.3-83.66s75.32-21.55,116.33-13c40.74,8.49,75.89,27.5,104.42,57.72,32.87,34.83,49,75.16,45.82,121a124.27,124.27,0,0,1-13.61,48.14,7.36,7.36,0,0,0-1,4.41c5.79-3.52,11.75-6.83,17.36-10.6,45-30.19,74.78-71,88.13-123M61,850l-.5-.24.4.35Zm5.51,3.62.11-.11L61,850l-.1.11,5.61,3.51m0,0,.29.14-.18-.25-.11.11m1.16,1.1a6,6,0,0,0,3.79,1.15l-4.66-2.11a4,4,0,0,0,.87,1M376,583.88c-38.51-56.79-92.57-91.33-160.4-104.17-52.5-9.94-102.19-3.3-147.63,20.74C10.05,531.08-24.9,578.53-35.25,642.55c-6.42,39.78.25,78.74,17.81,116.54.76,1.62,1.68,3.19,2.7,5.09l1.27-2.06v0h0v0a34.09,34.09,0,0,1-2.85-5.26C-37.7,693.53-29.77,635.59,10.3,584.54c32.48-41.38,77.25-64.29,131.57-70.13,66.33-7.13,125.94,11.87,177.74,55.61,37,31.26,61,70.28,70,116.19,12,60.76-3.47,113.52-44.68,158-1.21,1.31-2.47,2.58-3.68,3.9a9.91,9.91,0,0,0-.62,2.1c5.32-4.73,10-8.54,14.25-12.73,32.72-32.21,52.07-71.17,56.68-117,4.89-48.59-7-94.48-35.56-136.6M-13.33,752.43c-2.85-47.36,13.18-87,47.59-118.67,27.81-25.57,62-39.31,101.05-42.74,45.84-4,89,6.35,128.75,31.19,46.45,29,76.95,69,87.76,121.07,8.26,39.75,1.06,76.44-20.18,109.84a14.34,14.34,0,0,0-2.4,5.28,24.76,24.76,0,0,0,2.15-1.94c24.18-26.9,38.79-58.17,41.85-94.63,3.56-42.34-7.8-81.73-33.23-117.75-32.64-46.24-77.67-75.14-133.16-87.47-50.35-11.17-98-5.47-141.38,18.7-48.41,27-76.77,68-83.81,122.67a158.35,158.35,0,0,0,3.75,58.77c.45,1.77.75,3.55,1.12,5.35.06-3.22.33-6.44.14-9.67"/></g></svg>