<svg id="Layer_1" data-name="Layer 1" xmlns="http://www.w3.org/2000/svg" xmlns:xlink="http://www.w3.org/1999/xlink" viewBox="0 0 33 33"><defs><style>.cls-1{fill:none;}.cls-2{clip-path:url(#clip-path);}.cls-3{fill:url(#radial-gradient);}.cls-4{fill:#ffcd00;}</style><clipPath id="clip-path"><rect class="cls-1" x="-724.83" y="-776.24" width="1200" height="428.86"/></clipPath><radialGradient id="radial-gradient" cx="-722.8" cy="154.59" r="1" gradientTransform="matrix(600.58, -170.03, -182.5, -559.54, 462167.2, -36997.93)" gradientUnits="userSpaceOnUse"><stop offset="0" stop-color="#ffda00"/><stop offset="1" stop-color="#ffe186"/></radialGradient></defs><g class="cls-2"><polygon class="cls-3" points="-869.34 -735.32 373.73 -1087.25 619.68 -333.17 -623.38 18.76 -869.34 -735.32"/><path class="cls-4" d="M438.69-789.1a657.56,657.56,0,0,1,37.54,164.77,611.08,611.08,0,0,1,2.54,79.64,631.79,631.79,0,0,1-16.91,125.58,595.49,595.49,0,0,1-80.8,187.43A595.64,595.64,0,0,1,228.55-72.58,619.16,619.16,0,0,1,83.29,4.68Q-29.84,46.94-153.43,46a679.93,679.93,0,0,1-91.06-6.72A714.69,714.69,0,0,1-367.62,10.85,726.83,726.83,0,0,1-556.78-83.26,724.6,724.6,0,0,1-716.52-234.38c-3.44-4.43-7.07-8.73-10.61-13.08q-.55-54.73-1.09-109.47a19.13,19.13,0,0,1,2.8,3.21,650.87,650.87,0,0,0,66,97.56A678.28,678.28,0,0,0-473-97.58,671.89,671.89,0,0,0-286.69-23.91,649.67,649.67,0,0,0-141.62-7.08,617.81,617.81,0,0,0,62.59-40.57,576,576,0,0,0,219.2-122.85Q324.52-201,383.71-316.3a557.93,557.93,0,0,0,56-175.56,580.11,580.11,0,0,0,3.62-138.61Q432.59-746.3,379-852.86A657.36,657.36,0,0,0,266.4-1012,677.66,677.66,0,0,0,67.93-1156,669.15,669.15,0,0,0-89.73-1208.8a647.94,647.94,0,0,0-103.71-12.49q-115.43-4.38-222.57,31.45a578.86,578.86,0,0,0-166.5,87.73,557.07,557.07,0,0,0-89.86,85.31,559.47,559.47,0,0,0-58.32,83.6,31.77,31.77,0,0,1-3.24,4q-.47-46.05-.92-92.12a46.25,46.25,0,0,0,4.5-4.34,599.1,599.1,0,0,1,114.52-109.72,619.11,619.11,0,0,1,155.72-82.86q106.39-38.52,222-39.29a697.77,697.77,0,0,1,134.67,12.35A712.57,712.57,0,0,1,45.8-1199.54,728.43,728.43,0,0,1,232-1083.94,721,721,0,0,1,359-943.23,691.92,691.92,0,0,1,438.69-789.1M-593.25-261.37a616.57,616.57,0,0,1-89.13-125.9,595.38,595.38,0,0,1-44.8-108.48,40.58,40.58,0,0,0-2.48-5.32q-1.5-150.1-3-300.21a24.52,24.52,0,0,0,2.07-4.17,503.05,503.05,0,0,1,25.85-70.7A516.39,516.39,0,0,1-578-1049.32q74.85-67.2,171-103.24,94-35.3,196.64-36.2a604.06,604.06,0,0,1,135.65,14.1A629.68,629.68,0,0,1,128.58-1091a625.73,625.73,0,0,1,165.57,152q66.87,88.3,97.72,192.21A561.39,561.39,0,0,1,414.42-619,541.21,541.21,0,0,1,408-497.37,524.85,524.85,0,0,1,363.65-357a514,514,0,0,1-99.8,141.27q-84,84.35-198.53,126A569.52,569.52,0,0,1-84.28-57.63a602,602,0,0,1-102.15-.65A608.34,608.34,0,0,1-311.88-83.14a631.07,631.07,0,0,1-135.71-60A632.87,632.87,0,0,1-593.25-261.37m30.13-38.72A586.67,586.67,0,0,0-447.55-198.94,589.33,589.33,0,0,0-267.5-118.08c41.59,10.81,83.77,16.92,119.18,18.11,80,2.33,150.41-8.93,217.37-34.67Q207.92-188,293.83-304.9c43-58.51,71.17-123.78,85.13-195.39a502.8,502.8,0,0,0,8.14-128.94q-6.3-98.31-48.47-190.07-48.69-105.91-136.69-186.05A589.77,589.77,0,0,0-.2-1126.12a579.51,579.51,0,0,0-105-26.46,569,569,0,0,0-86.54-6.59,537.89,537.89,0,0,0-177.86,29.66,504.53,504.53,0,0,0-143.62,77.43,485.24,485.24,0,0,0-84.7,83.51,483.82,483.82,0,0,0-84.14,160.93A494.83,494.83,0,0,0-701-712a516.6,516.6,0,0,0-.77,89.19,525.77,525.77,0,0,0,30.91,142q36.35,99.38,107.77,180.67M-57-1718a1390.36,1390.36,0,0,0-153.27-34.6,1364.07,1364.07,0,0,0-191.52-18.35q-65-1.59-129.5,3.19A1305.61,1305.61,0,0,0-736.72-1736c-1.78.42-3.49,1.06-5.23,1.6q.56,56.89,1.13,113.8c31.52-10,63.68-18.12,96.22-25.05a1175.88,1175.88,0,0,1,233.07-25.73,1226,1226,0,0,1,133.83,5.85q44.43,4.38,88.54,11.91,56.41,9.62,111.91,24.53a1289.19,1289.19,0,0,1,233.14,87.42,1308.35,1308.35,0,0,1,222,137.69q49.05,37.66,94.17,79.7a58.2,58.2,0,0,0,5.31,4q-.57-56.34-1.13-112.71c-1.53-1-3.17-2-4.59-3.18a1453.92,1453.92,0,0,0-148-109.07,1440.9,1440.9,0,0,0-202.38-108.44A1420.3,1420.3,0,0,0-57-1718m163.27,235.06a1162,1162,0,0,0-193.59-67.88q-55.37-14.07-111.65-22.54a1117.55,1117.55,0,0,0-142.69-12.32c-30.93-.69-61.76,0-92.51,2a1065.75,1065.75,0,0,0-192.64,29.77,1019.11,1019.11,0,0,0-106.28,32.78c-2.23.82-4.49,1.6-6.73,2.4q.46,46.07.92,92.13a937.85,937.85,0,0,1,158.4-55.76A974.4,974.4,0,0,1-372-1512a1021,1021,0,0,1,106.21,1.94,1038.79,1038.79,0,0,1,113.23,14.24,1051.9,1051.9,0,0,1,118,28.65,1057.43,1057.43,0,0,1,120.55,44.78,1086.9,1086.9,0,0,1,167,92.18,1095.73,1095.73,0,0,1,132,104.36,1060.42,1060.42,0,0,1,90.8,94.93c1.07,1.27,2.37,2.35,3.57,3.53l-.91-91c-14.06-14-27.91-28.2-42.23-42A1151.26,1151.26,0,0,0,335-1346.65a1183.32,1183.32,0,0,0-228.7-136.26m274.06,1333a637.48,637.48,0,0,1-102,104,664.65,664.65,0,0,1-187.61,107A700.56,700.56,0,0,1-62.4,99.2,731.79,731.79,0,0,1-223,102.69,759.71,759.71,0,0,1-401.29,65.12,783.61,783.61,0,0,1-552.13-4.51c-46.69-27.92-90.14-60-129.7-97-14.08-13.19-27.5-27-41.23-40.58a29.57,29.57,0,0,0-3.05-2.37q.51,50.4,1,100.79a26.23,26.23,0,0,1,3.69,2.34A848.44,848.44,0,0,0-566.67,67.73a839.34,839.34,0,0,0,200.89,78.91A822.64,822.64,0,0,0-260,166,794.27,794.27,0,0,0-154.82,171,771.59,771.59,0,0,0,7.52,151.1a733.31,733.31,0,0,0,195.2-75.74A702.19,702.19,0,0,0,356.09-41.32a673.91,673.91,0,0,0,104.4-135.13c8.8-15,16.66-30.63,25-46,.83-1.52,1.87-2.92,2.82-4.38q-.62-62.86-1.25-125.72a37.41,37.41,0,0,0-2,4.27A639.07,639.07,0,0,1,380.34-149.92M324-1209.4A990.57,990.57,0,0,0,213.14-1292,993.31,993.31,0,0,0,42.5-1379.76,982.61,982.61,0,0,0-71-1417q-42.92-11.26-86.51-18.5a955.63,955.63,0,0,0-120.17-12.12,916.65,916.65,0,0,0-136.56,5,882.61,882.61,0,0,0-239.11,61.2,818.35,818.35,0,0,0-77.41,36.75c-2.4,1.29-4.87,2.43-7.32,3.65l.81,80.19a58.07,58.07,0,0,0,5.72-2.93A767.66,767.66,0,0,1-660-1305a796.35,796.35,0,0,1,179.69-65.4A828.43,828.43,0,0,1-307-1392.06a865.38,865.38,0,0,1,169,13.17,903.48,903.48,0,0,1,113,27.6,910.69,910.69,0,0,1,190.62,85A916.25,916.25,0,0,1,378-1093.54a890.19,890.19,0,0,1,99.28,131.61,44.58,44.58,0,0,0,3.75,4.67q-.42-41.72-.83-83.45c-2.94-3.64-6-7.18-8.79-10.92A976.55,976.55,0,0,0,324-1209.4m-105,27.77a845.46,845.46,0,0,0-177.43-98.75,833.87,833.87,0,0,0-138.86-43.17A806.52,806.52,0,0,0-260.39-1342a770.75,770.75,0,0,0-223.82,30.26,730.87,730.87,0,0,0-161.37,68.49,695.83,695.83,0,0,0-84.24,57c-2.1,1.64-4.42,3-6.63,4.57q.39,39,.79,78a24.78,24.78,0,0,0,3.43-2.41,653.66,653.66,0,0,1,159-114.73,687.36,687.36,0,0,1,199.12-66.45A723.76,723.76,0,0,1-215.24-1297a759.49,759.49,0,0,1,208,39.67,782.92,782.92,0,0,1,201.44,102.61,778.42,778.42,0,0,1,177,172.83A738.57,738.57,0,0,1,457-833.53c8.77,20.36,15.87,41.32,23.76,62,.64,1.69,1.43,3.34,2.15,5q-.51-50.94-1-101.87-5.91-11.34-11.81-22.68A825.43,825.43,0,0,0,368-1043.26a840.09,840.09,0,0,0-149-138.37m-255.46-644a1590.36,1590.36,0,0,1,160.47,58,1599.75,1599.75,0,0,1,196.06,99.4A1641.77,1641.77,0,0,1,468.8-1568.07c1.93,1.45,4.1,2.6,6.16,3.89q-.78-77-1.54-153.9c-2.11-1.2-4.3-2.3-6.33-3.63-21.57-14.15-42.85-28.76-64.75-42.37-24.82-15.4-50.21-29.9-75.32-44.84a34.46,34.46,0,0,1-4.19-3.49l-364.72-16a35,35,0,0,0,5.43,2.74M339.87,59.3q-91.21,77.4-203.6,124.05A802.68,802.68,0,0,1-25.14,231.26a800.15,800.15,0,0,1-123.54,13.55c-7.84.23-15.72.06-23.57.18a48.92,48.92,0,0,0-5.37.67l331,14.48c16.37-7.48,32.95-14.6,49.08-22.5a807.28,807.28,0,0,0,142-89.13A808.91,808.91,0,0,0,481,13.34c3.09-3.88,6.35-7.63,9.53-11.44Q490-55,489.44-111.9c-2.46,3.44-5,6.81-7.36,10.35A746.86,746.86,0,0,1,339.87,59.3M-418.72,212.07A904.83,904.83,0,0,1-652.95,108.52q-34.15-21.24-66.31-45.35a47.61,47.61,0,0,0-4.8-2.83L-723,168.71l3.35,2.12q41.73,27,86,49.75c3.47,1.79,6.86,3.72,10.29,5.57l367,16.06a27.21,27.21,0,0,0-4.35-1c-53.48-3.91-106-14.53-158-29.1m906.58-85.28A894.47,894.47,0,0,1,330.12,263.2c-2.22,1.51-4.54,2.92-6.81,4.38L470.78,274c6-5.5,12.05-11,18.12-16.52,1.28-1.14,2.79-2.06,4.19-3.08q-.66-65.56-1.31-131.14a48.55,48.55,0,0,0-3.92,3.51M-357.25-197.15Q-467.78-252-544.14-347.27A527.87,527.87,0,0,1-622.52-481,498,498,0,0,1-659-658.73a464.3,464.3,0,0,1,6.57-86.47,456.4,456.4,0,0,1,37.15-119.14A450.62,450.62,0,0,1-494-1021q75.13-62.4,171.26-90.46a510.28,510.28,0,0,1,132.16-20.17,526.63,526.63,0,0,1,97.18,7.07,542.09,542.09,0,0,1,121,34.62A552.3,552.3,0,0,1,210.18-967a533.67,533.67,0,0,1,108,157,505,505,0,0,1,44.9,199.86q-.34,11.61-.7,23.23a439.89,439.89,0,0,1-11.21,86.3c-16.82,72.91-49.2,138-97.77,194.91q-64,74.92-154.79,118c-65.83,31.15-136.31,46.85-211.2,47.57a531.21,531.21,0,0,1-123.26-13.61,543.85,543.85,0,0,1-121.41-43.38M-317.9-222a505.67,505.67,0,0,0,136,39.73A488.51,488.51,0,0,0-26-184.15q91.46-16,167.74-64.87Q247.2-316.77,299.62-428.73a425,425,0,0,0,37-128.58,446.73,446.73,0,0,0,.74-106.37,472.42,472.42,0,0,0-47.63-159.63A502.54,502.54,0,0,0,184-965.22,518.38,518.38,0,0,0-9.61-1080.87a496.8,496.8,0,0,0-162.45-25.94c-92.78.8-177.14,25.29-251.86,74.6C-516.48-971.14-576.39-886.94-604.64-781a406.35,406.35,0,0,0-13.42,89.68c-.32,8.46-.6,16.92-.82,23.11,2.19,101.83,32.63,193.91,93.33,277.76C-471.87-316.28-402.39-260.22-317.9-222m223.11,10.57a454.5,454.5,0,0,1-138.48-18.28q-155.44-45.57-253.54-172.82a452.41,452.41,0,0,1-67.27-122.38q-33.66-92.58-24.9-188.28a401.28,401.28,0,0,1,31-122.59A397.52,397.52,0,0,1-437.51-984.29a411.45,411.45,0,0,1,117.31-69.34q86.35-33.43,181.43-29.73c10.31.92,20.61,1.7,30.91,2.75A463.11,463.11,0,0,1-2.4-1056.8a486.08,486.08,0,0,1,159.34,92.17A472.84,472.84,0,0,1,266.23-828a444.91,444.91,0,0,1,50.31,163.32,414.23,414.23,0,0,1-2.88,109.95A399.44,399.44,0,0,1,259-407.26,395.46,395.46,0,0,1,153.71-293.39q-108.81,78.91-248.5,82m88.27-41q112-24.67,191.81-102C238.67-406.21,273.36-468.72,290.11-541a379,379,0,0,0,9-108.74q-6.31-104.76-63.06-197.07a447.36,447.36,0,0,0-121-129.38c-52-37.34-109.17-62.89-171.59-76.22a443,443,0,0,0-100.34-9.85,418.5,418.5,0,0,0-127.11,21.77,391,391,0,0,0-113.53,60.2A374.64,374.64,0,0,0-502.57-856.17,370.57,370.57,0,0,0-542-735.2c-1.2,8.33-2.34,16.7-2.93,25.12-.86,12.19-1.2,24.44-1.59,32.91,2,93.61,30,176.37,85.89,251.27,52.82,70.82,121.39,122,204.85,154a439,439,0,0,0,105.57,26C-101.43-240-53.55-242-6.52-252.37M153-358.36C78.53-297.17-9.55-269.31-109.9-272.41a405.84,405.84,0,0,1-52.8-5.83,422.81,422.81,0,0,1-142-51.82Q-421.19-398.28-477-517.71c-30.38-65.12-41.63-132.52-34.52-201.77a351.2,351.2,0,0,1,30.63-112.09c24-51.89,58.47-95.93,104.19-131.27,71.39-55.19,154.43-81.37,248.34-79.33,40.76.88,80.83,8.26,120,21.32a430.24,430.24,0,0,1,159,94.33,416.87,416.87,0,0,1,75.68,94.22q52.11,88.68,55.1,188.25a355.22,355.22,0,0,1-18.84,126.44C241.05-454.48,204.83-401,153-358.36m-54.63,7.73C158.53-386.08,202.88-435.55,232-497.77A326.68,326.68,0,0,0,261.3-606.89c1.12-12.15,1.28-24.43,1.69-32.73-1.68-81.84-26-153.58-74-218.75-40.24-54.57-91.82-96.2-154.1-125.07-48.28-22.37-98.81-34.8-151.26-36.2-101.28-2.69-187.94,28.76-258.72,94.81-51,47.54-83,106-97.38,174.11a331.53,331.53,0,0,0-6.31,93.39c5.74,77.7,34,148.18,85.36,210.78,46.71,56.93,105.38,97.77,175.29,122.92a379.64,379.64,0,0,0,85.43,20c83.93,9.65,161.14-5.88,231-47m26.07-46c-63.71,50.41-138.64,73-223.18,70.47a370.1,370.1,0,0,1-61.63-8.2,368.21,368.21,0,0,1-133.16-58.5,361.29,361.29,0,0,1-88.84-88.26Q-438.05-560-445.12-653a308.07,308.07,0,0,1,17-128.73c23.07-64.5,63.38-116.25,121-154.72,49.89-33.3,106.11-51.34,168.12-54.72a354.75,354.75,0,0,1,103.56,9.8,365.61,365.61,0,0,1,116.85,51Q172.24-870,214.55-772.57c26.55,61.36,34.22,124.2,22.61,187.85-14,76.54-51.48,139.63-112.77,188.12m97.88-242.35C221-806.48,80-953-99.67-961.44c-176.6-8.29-319.25,124.13-317.89,294.13,1.35,168.37,143,314.12,322.51,322.6C85.06-337.6,223.51-471.87,222.27-638.95M-92.82-358.41c-163.89-7.23-298-140.39-299.81-297.32-1.79-155.16,126-280.3,294-273.45S200.7-786.4,202-630.58C203.3-473.39,71.08-351.19-92.82-358.41M60.86-404.34c65.22-39,104.43-96.22,118-170.27,2.69-14.66,3.65-29.54,3.68-51.56-2.72-73.61-34.83-142.47-98.91-198C41.31-860.92-8-883.33-63.1-892.43-159-908.27-255-875.16-314.6-804.08c-31.7,37.81-50.58,81.44-55.75,130.89-7,66.77,10.1,128.94,51.55,185.42,43.68,59.52,102.57,97.81,175.22,114,73.65,16.46,142.46,6.39,204.44-30.62M23.22-392a227.5,227.5,0,0,1-35.14,12.21,57.33,57.33,0,0,0-.12-7.46,118.31,118.31,0,0,0-8.89-30.57c-11.28-25.46-29-46.17-52.32-62.31-38.25-26.42-80-37.13-125.06-30-27.9,4.39-51.76,16.16-70.36,36.37-3.6,3.91-6.76,8.19-10.09,12.25l-2.26-.75-.42.64,17.33,18.23c17.67-12.71,28.79-18.35,44.05-22.24,36.3-9.27,71.85-4.63,106.51,11.64,28.87,13.55,51.9,33.56,67.75,60.79,3.49,6,6.2,12.38,9.61,19.28L-74-370.49c-45.29-55.42-119.78-67.83-162.52-50.82l7.94,6.91a51.34,51.34,0,0,1-5.94-3.08c-22.31-14.83-42.33-32.15-59.15-52.71C-343-530.56-363-597.56-350-670.73c13.21-74,55.25-128.39,122.85-163.23,48.28-24.89,100.92-32.41,156.8-24.17a277.76,277.76,0,0,1,99.76,35c86.65,50.28,138,141.67,132.69,234.4-2.06,36.33-12,70.12-30.27,101.13C106.49-444.45,70.12-412.7,23.22-392m113.6-140.07c10.52-40.95,8.33-82.25-5.81-123.53-27.6-80.59-98.86-142.75-183.4-162.56-72.77-17.06-139.25-5.83-197.7,34.84-47.53,33.07-76.64,78.66-86,135.59-10.83,65.89,7.16,126.19,50.55,180.94.58.72,1.29,1.36,1.94,2l.79-.44a16.19,16.19,0,0,0-2.05-3.06c-3.78-3.65-3.06-7.25-1.32-11.33a111.87,111.87,0,0,1,39.75-48.78C-225.52-543-201.74-551-175.5-552.69c50-3.21,94.44,12,132.75,45.31,26.8,23.33,43.82,52,49.29,85.94,1.35,8.38.91,16.94,1.17,25.42.07,2.48-.3,5-.53,8.47l13.93-5.94c3.2-11.26,5.72-22.18,6.2-33.59C28.89-464.73,16-498.31-9.28-528c-26.28-31-59.8-50.83-99.33-60.66-34-8.46-67.31-7.84-99.28,3.56-41.67,14.85-70.26,42.23-83.15,83.88-1.31,4.24-2,8.69-3,13-.23,1-.52,1.95-.94,3.5-2.66-2.65-3.51-4.91-3.46-8.07.27-13.76,1.56-27.32,5.55-40.37,11.65-38.05,36.1-65.82,72.31-83.65s75.31-21.55,116.32-13c40.74,8.49,75.89,27.5,104.42,57.73,32.87,34.82,49,75.16,45.82,121a124.31,124.31,0,0,1-13.61,48.15,7.31,7.31,0,0,0-1,4.4c5.8-3.52,11.75-6.83,17.36-10.59,45-30.2,74.78-71,88.13-123m-364.89,118c-.16-.09-.33-.16-.5-.25l.41.35Zm5.51,3.62.11-.11-5.62-3.51-.09.1,5.6,3.52m0,0,.3.13-.19-.24-.11.11m1.16,1.09a5.91,5.91,0,0,0,3.79,1.15l-4.65-2.11a3.63,3.63,0,0,0,.86,1M86.92-680.25C48.41-737-5.65-771.58-73.48-784.41c-52.49-9.94-102.19-3.3-147.63,20.74C-279-733-314-685.59-324.32-621.57c-6.43,39.77.24,78.73,17.8,116.54.76,1.62,1.69,3.18,2.7,5.08.59-.95.93-1.5,1.28-2.05v0h0v0a34.72,34.72,0,0,1-2.86-5.27c-21.38-63.33-13.44-121.27,26.62-172.32,32.48-41.37,77.25-64.29,131.58-70.13,66.32-7.12,125.93,11.88,177.74,55.61,37,31.26,61,70.29,70,116.19,12,60.76-3.47,113.53-44.68,158-1.21,1.3-2.47,2.57-3.67,3.89-.19.2-.19.57-.63,2.1,5.32-4.73,10-8.54,14.25-12.73,32.72-32.21,52.07-71.16,56.68-117,4.89-48.59-7-94.48-35.56-136.6M-302.41-511.69c-2.85-47.37,13.19-87,47.6-118.68,27.8-25.57,62-39.31,101-42.73,45.85-4,89,6.35,128.75,31.19,46.45,29,77,69,87.76,121.06C71-481.1,63.8-444.4,42.56-411a14.31,14.31,0,0,0-2.4,5.29,28.5,28.5,0,0,0,2.15-1.94c24.18-26.91,38.8-58.18,41.86-94.64C87.72-544.64,76.36-584,50.93-620c-32.64-46.24-77.67-75.15-133.16-87.47-50.34-11.17-98-5.48-141.38,18.7-48.41,27-76.77,68-83.81,122.66a158.33,158.33,0,0,0,3.75,58.77c.45,1.77.75,3.56,1.13,5.36.05-3.23.32-6.45.13-9.67"/></g><path d="M28.5.5H4.5a4,4,0,0,0-4,4v24a4,4,0,0,0,4,4H16.64V21H12.8V16h3.84V13.52a6.62,6.62,0,0,1,6.48-6.88h3.54v5.64H23.5c-.83,0-1.07.48-1.07,1.13V16h4.23v5H22.43V32.5H28.5a4,4,0,0,0,4-4V4.5a4,4,0,0,0-4-4"/></svg>