<?xml version="1.0" encoding="utf-8"?>
<!-- Generator: Adobe Illustrator 25.2.1, SVG Export Plug-In . SVG Version: 6.00 Build 0)  -->
<svg version="1.1" id="Layer_1" xmlns="http://www.w3.org/2000/svg" xmlns:xlink="http://www.w3.org/1999/xlink" x="0px" y="0px"
	 viewBox="0 0 1199.7 484.4" style="enable-background:new 0 0 1199.7 484.4;" xml:space="preserve">
<style type="text/css">
	.st0{clip-path:url(#SVGID_3_);fill:#FDDF01;}
</style>
<g>
	<defs>
		<rect id="SVGID_1_" width="1199.7" height="484.4"/>
	</defs>
	<radialGradient id="SVGID_2_" cx="579.9006" cy="181.0372" r="618.2824" gradientUnits="userSpaceOnUse">
		<stop  offset="0" style="stop-color:#FDEC00"/>
		<stop  offset="1" style="stop-color:#FFF398"/>
	</radialGradient>
	<use xlink:href="#SVGID_1_"  style="overflow:visible;fill:url(#SVGID_2_);"/>
	<clipPath id="SVGID_3_">
		<use xlink:href="#SVGID_1_"  style="overflow:visible;"/>
	</clipPath>
	<path class="st0" d="M1163.2-13.8c19.7,57.7,32.2,116.6,37.5,176.7c2.5,28.5,3.5,56.9,2.5,85.4c-1.5,45.7-7,90.6-16.9,134.6
		c-16.2,72.1-43.1,139.1-80.7,201c-40.6,66.7-91.4,123.6-152.4,170.6c-44.5,34.3-92.9,61.9-145.1,82.8
		c-75.3,30.2-154.2,44.9-236.5,44.4c-30.3-0.2-60.7-2.6-91-7.2c-41.7-6.3-82.7-16.4-123-30.5c-67.5-23.7-130.5-57.4-189-100.9
		C107.6,697.4,54.4,643.4,9.2,581c-3.4-4.7-7.1-9.4-10.6-14c-0.4-39.1-0.7-78.2-1.1-117.4c0.9,1.1,2.1,2.1,2.8,3.4
		c19,36.8,40.9,71.7,66,104.6c52.2,68.4,114.1,125.2,186.2,170c58.5,36.4,120.5,62.7,186.1,79c47.9,11.9,96.2,17.9,144.9,18
		c70.7,0.2,138.6-11.8,204-35.9c56.9-21,109-50.5,156.5-88.2c70.1-55.8,124.9-125.1,164.3-207.4c28.4-59.1,46.9-121.9,56-188.2
		c6.7-49.1,7.9-98.7,3.6-148.6c-7.2-82.8-28.6-162.3-64.3-238.5c-29.3-62.4-66.7-119.3-112.5-170.7C934-317,867.9-368.5,792.8-407.2
		c-50.4-26-103-44.8-157.5-56.6c-34.3-7.5-68.9-12-103.6-13.4c-76.9-3.1-151,8-222.3,33.7c-60.8,21.9-116.2,53.3-166.3,94.1
		c-33.2,27-63.1,57.5-89.8,91.5c-22,28-41.4,57.9-58.3,89.6c-0.8,1.6-2.1,2.9-3.2,4.3c-0.3-32.9-0.6-65.9-0.9-98.8
		c1.5-1.5,3.2-2.9,4.5-4.7c33.1-44.4,71.2-83.7,114.4-117.6c47.5-37.3,99.3-67,155.6-88.8c70.9-27.5,144.8-41.5,221.8-42.1
		c45-0.3,89.9,4.2,134.5,13.2c51.2,10.4,100.9,26.7,149.1,48.9c67.9,31.3,129.9,72.6,186,123.9c48.7,44.6,91,94.9,126.8,150.9
		C1116.8-127.1,1143.3-72,1163.2-13.8 M132.3,552.1c-35.2-41.3-64.8-86.3-89-135C24.6,379.6,9.8,340.8-1.5,300.7
		c-0.6-2-1.6-3.8-2.5-5.7c-1-107.3-2-214.6-3-321.9c0.7-1.5,1.7-2.9,2.1-4.5c6.9-26,15.5-51.3,25.8-75.8
		c30-71.1,72.1-133.1,126.6-185.7c49.8-48,106.8-84.9,170.8-110.7c62.6-25.2,128.1-38.1,196.4-38.8c45.4-0.5,90.6,4.5,135.5,15.1
		c72.4,17.1,140.2,46.9,203.1,89.7c64.6,43.9,119.8,98.3,165.4,162.9c44.5,63.1,77,131.9,97.6,206.1c12.5,45.1,20,90.8,22.5,137.1
		c2.4,43.9,0.3,87.4-6.5,130.4c-8.3,52.5-22.9,102.7-44.3,150.5c-25.2,56.4-58.4,106.9-99.7,151.5c-55.9,60.3-122,105.4-198.3,135.1
		c-47.9,18.6-97.7,30.1-149.4,34.5c-33.9,2.9-67.9,2.6-102-0.7c-42.4-4.1-84.2-13-125.3-26.7c-47.5-15.7-92.7-37.1-135.6-64.4
		C223.3,644.1,174.8,601.9,132.3,552.1 M162.4,510.5c33.9,41.4,72.4,77.6,115.5,108.5c55.5,39.7,115.5,68.7,179.9,86.7
		c41.5,11.6,83.7,18.1,119.1,19.4c79.9,2.5,150.3-9.6,217.1-37.2c92.5-38.2,167.4-99.1,224.6-182.6c42.9-62.7,71.1-132.7,85-209.5
		c8.3-45.5,10.9-91.6,8.1-138.3c-4.2-70.3-20.3-138.2-48.4-203.8c-32.4-75.7-77.9-142.3-136.5-199.5
		c-59.1-57.6-126.4-100.8-201.9-129.5c-34.3-13-69.2-22.5-104.9-28.4c-28.7-4.8-57.5-7.1-86.4-7.1c-61.6,0-120.8,10.6-177.7,31.8
		c-52.5,19.6-100.3,47.3-143.5,83c-31.7,26.3-60,56.1-84.6,89.5C89.5-154.4,61.5-96.9,43.6-33.7C34.1-0.3,27.8,33.9,24.6,68.9
		c-2.9,31.7-3,63.6-0.8,95.6c3.6,51.9,14,102.6,30.9,152.3C79,387.9,114.8,452.4,162.4,510.5 M668-1009.8
		c-50.5-15.5-101.5-27.8-153.1-37.1c-63.6-11.4-127.3-18-191.3-19.7c-43.3-1.1-86.4,0.1-129.4,3.4c-69.6,5.4-138,17-205.2,34
		c-1.8,0.4-3.5,1.1-5.2,1.7c0.4,40.7,0.7,81.3,1.1,122c31.5-10.7,63.6-19.4,96.1-26.9c76.3-17.4,153.9-26.7,232.8-27.6
		c44.6-0.5,89.1,1.5,133.7,6.3c29.6,3.1,59.1,7.4,88.5,12.8c37.6,6.9,74.9,15.7,111.8,26.3c80.3,23.1,157.9,54.4,232.9,93.7
		c78.6,41.3,152.5,90.5,221.8,147.6c32.7,26.9,64,55.4,94.1,85.5c1.6,1.6,3.5,2.9,5.3,4.3c-0.4-40.3-0.7-80.6-1.1-120.9
		c-1.5-1.1-3.2-2.1-4.6-3.4c-47-42.3-96.2-81.3-147.9-117c-64.5-44.5-131.9-83.3-202.2-116.3C788.1-968.1,728.7-991.1,668-1009.8
		 M831.1-757.7c-62.6-30.4-127.1-54.7-193.4-72.8c-36.9-10.1-74-18.1-111.5-24.2c-47.4-7.7-94.9-12.1-142.5-13.2
		c-30.9-0.7-61.7,0-92.4,2.1c-65.5,4.4-129.6,15.1-192.4,31.9c-36.1,9.7-71.5,21.4-106.2,35.2c-2.2,0.9-4.5,1.7-6.7,2.6
		c0.3,32.9,0.6,65.9,0.9,98.8c50.8-24.9,103.5-44.8,158.2-59.8c67.9-18.6,137.3-29.2,208.2-31.8c35.3-1.3,70.7-0.6,106.1,2.1
		c37.9,2.8,75.6,8,113.1,15.3c39.8,7.7,79,18.1,117.9,30.7c41,13.4,81.2,29.4,120.4,48c58.3,27.7,113.9,60.7,166.8,98.8
		c46.7,33.7,90.7,71.1,131.9,111.9c32.3,32,62.5,66,90.7,101.8c1.1,1.4,2.4,2.5,3.6,3.8l-0.9-97.6c-14-15-27.9-30.2-42.2-45
		c-31.9-32.9-65.7-63.6-101.1-92.5C988.6-669.5,912.4-718.2,831.1-757.7 M1104.9,671.6c-29.8,41.2-63.8,78.4-101.9,111.5
		C947,832,884.5,870.2,815.6,897.9c-49.2,19.7-100.2,33.3-153,40.8c-53,7.6-106.5,8.8-160.5,3.7c-60.6-5.7-119.9-19.1-178.1-40.3
		c-52.7-19.2-102.9-44-150.7-74.7c-46.6-29.9-90-64.4-129.6-104c-14.1-14.1-27.5-29-41.2-43.5c-0.9-1-2-1.7-3-2.5
		c0.3,36,0.7,72,1,108.1c1.2,0.8,2.6,1.5,3.7,2.5c47.4,45.1,98.9,84.2,154.6,117c63.6,37.5,130.5,65.8,200.7,84.6
		c34.9,9.4,70.2,16.3,105.7,20.7c35,4.3,70,6.1,105,5.4c55.1-1,109.2-8.1,162.2-21.4c69.2-17.3,134.2-44.4,195-81.2
		c56.8-34.4,107.9-76.1,153.2-125.1c40.5-43.7,75.4-91.9,104.3-144.9c8.8-16.1,16.6-32.8,24.9-49.3c0.8-1.6,1.9-3.1,2.8-4.7
		c-0.4-44.9-0.8-89.9-1.3-134.8c-0.7,1.5-1.5,3-2,4.6C1186.3,536.4,1151.4,607.3,1104.9,671.6 M1048.7-464.5
		c-34.9-32.3-71.9-61.8-110.8-88.6c-54-37.3-110.8-68.6-170.5-94.1c-37.1-15.8-74.9-29.1-113.3-39.9c-28.6-8.1-57.4-14.7-86.4-19.8
		c-39.9-7-79.9-11.4-120-13c-45.8-1.8-91.3-0.1-136.4,5.4c-83.2,10-162.9,32-238.9,65.6C45.8-637.2,20-624-5-609.5
		c-2.4,1.4-4.9,2.6-7.3,3.9c0.3,28.7,0.5,57.3,0.8,86c1.9-1,3.9-1.9,5.7-3.1c23-16.1,46.8-30.8,71.5-44.2
		c56.7-30.9,116.6-54.3,179.5-70.1c56.6-14.2,114.3-22,173.1-23.3c56.4-1.2,112.7,3.4,168.8,14.1c38.1,7.3,75.8,17.1,112.9,29.6
		c66.7,22.5,130.1,52.9,190.4,91.1c79.7,50.6,150.3,112.4,212.1,185.2c37.3,44,70.3,91,99.2,141.1c1,1.8,2.5,3.3,3.7,5
		c-0.3-29.8-0.6-59.6-0.8-89.5c-2.9-3.9-6-7.7-8.8-11.7C1152.9-357.3,1103.7-413.6,1048.7-464.5 M943.7-434.7
		c-55.1-42.9-114.2-78.2-177.2-105.9c-45.1-19.8-91.3-35.2-138.7-46.3c-53.9-12.6-108.3-19.2-162.9-19.8
		c-76.7-0.9-151.2,10-223.6,32.4c-56.9,17.7-110.6,42.3-161.2,73.4c-29.5,18.2-57.6,38.6-84.2,61.1c-2.1,1.8-4.4,3.3-6.6,4.9
		c0.3,27.9,0.5,55.8,0.8,83.7c1.2-0.9,2.4-1.6,3.4-2.6c46.8-49.3,99.7-90.3,158.8-123c62.2-34.4,128.5-58.2,198.9-71.2
		c52.2-9.7,105.1-13.2,158.7-10.4c70.7,3.7,140,17.8,207.8,42.5c72,26.2,139.1,62.9,201.2,110c68.5,52,127.4,113.8,176.8,185.3
		c34.5,49.9,63.1,102.9,85.7,159c8.8,21.8,15.9,44.3,23.7,66.5c0.6,1.8,1.4,3.6,2.1,5.4c-0.3-36.4-0.7-72.8-1-109.2
		c-3.9-8.1-7.9-16.2-11.8-24.3c-28.1-58.1-62.1-112.5-102-163.2C1048.8-342,999.1-391.5,943.7-434.7 M688.5-1125.2
		c54.4,17.7,107.9,38.3,160.3,62.1c67.5,30.7,132.8,66.2,195.9,106.6c51.4,32.9,100.9,68.8,148.6,107.4c1.9,1.6,4.1,2.8,6.1,4.2
		c-0.5-55-1-110-1.5-165c-2.1-1.3-4.3-2.5-6.3-3.9c-21.6-15.2-42.8-30.8-64.7-45.4c-24.8-16.5-50.2-32.1-75.2-48.1
		c-1.5-1-2.8-2.5-4.2-3.7l-364.4-17.1C684.9-1127.1,686.6-1125.8,688.5-1125.2 M1064.5,895.9c-60.8,55.3-128.6,99.6-203.4,133
		c-51.7,23.1-105.5,40.2-161.2,51.4c-40.6,8.1-81.7,13.2-123.4,14.5c-7.8,0.2-15.7,0.1-23.5,0.2c-1.8,0-3.6,0.5-5.4,0.7
		c110.2,5.2,220.4,10.4,330.6,15.5c16.4-8,32.9-15.7,49-24.1c50.7-26.6,97.9-58.7,141.9-95.6c51-42.7,96.5-91,136.4-144.9
		c3.1-4.2,6.3-8.2,9.5-12.3c-0.4-40.7-0.8-81.3-1.1-122c-2.5,3.7-5,7.3-7.3,11.1C1167.1,788,1119.8,845.5,1064.5,895.9
		 M306.7,1059.7c-82.8-24.9-160.7-62.2-234-111C49.9,933.5,27.9,917.2,6.4,900c-1.5-1.2-3.2-2-4.8-3c0.4,38.7,0.7,77.5,1.1,116.2
		c1.1,0.8,2.2,1.5,3.3,2.3c27.8,19.3,56.4,37.1,85.9,53.4c3.5,1.9,6.9,4,10.3,6c122.2,5.7,244.4,11.5,366.6,17.2
		c-1.4-0.4-2.9-1-4.3-1.1C411,1086.7,358.5,1075.3,306.7,1059.7 M1212.3,968.3c-46.9,55.1-99.5,103.8-157.6,146.3
		c-2.2,1.6-4.5,3.1-6.8,4.7l147.3,6.9c6-5.9,12-11.8,18.1-17.7c1.3-1.2,2.8-2.2,4.2-3.3c-0.4-46.9-0.9-93.7-1.3-140.6
		C1214.9,965.7,1213.5,966.9,1212.3,968.3 M368.1,620.9c-73.6-39.2-135.8-92.9-186.7-161c-32.9-44.1-59-91.9-78.3-143.4
		C79.8,254.7,67.8,191.1,66.6,126c-0.6-31.2,1.8-62.1,6.6-92.7c7-44.5,19.3-87.1,37.1-127.8c28.6-65.3,69-121.4,121.2-167.9
		c50-44.6,107.1-76.9,171.1-97c42.7-13.4,86.8-20.5,132-21.6c32.4-0.8,64.8,1.9,97.1,7.6c41.5,7.3,81.8,19.7,120.9,37.1
		c69.2,30.9,130,74.8,182.4,131.8c45.7,49.7,81.7,105.9,107.9,168.4c28.9,69.1,43.6,140.5,44.9,214.3c-0.2,8.3-0.5,16.6-0.7,24.9
		c-0.9,31.4-4.7,62.2-11.2,92.5c-16.8,78.2-49.1,148-97.7,209c-42.6,53.6-94.2,95.8-154.6,126.5c-65.8,33.4-136.2,50.2-211,51
		c-41.4,0.4-82.4-4.6-123.1-14.6C447.3,657.1,406.9,641.6,368.1,620.9 M407.4,594.3c43.5,21.1,88.8,35.2,135.8,42.6
		c52.5,8.2,104.4,7.6,155.7-2c60.9-11.4,116.8-34.6,167.6-69.6c70.3-48.4,122.8-112.8,157.8-192.7c19.1-43.6,31.3-89.6,37-137.9
		c4.4-37.8,4.8-75.8,0.7-114.1c-6.2-59.4-22.1-116.5-47.6-171.2c-26.5-56.9-61.7-107.7-105.7-152.2c-55.9-56.5-120.3-97.9-193.4-124
		c-53.1-19-107.2-28.3-162.3-27.8c-92.7,0.9-177,27.1-251.6,80C209-209,149.2-118.7,120.9-5.1c-7.8,31.4-12.3,63.4-13.4,96.2
		c-0.3,9.1-0.6,18.1-0.8,24.8c2.2,109.2,32.6,207.9,93.2,297.8C253.6,493.2,323,553.3,407.4,594.3 M630.3,605.6
		c-46.6,1.1-92.9-5.3-138.3-19.6c-103.5-32.6-188-94.4-253.3-185.3c-29-40.4-51.3-84.3-67.2-131.2C149,203.3,140.7,136,146.6,67.6
		c3.9-45.8,14.2-89.6,31-131.4c24.9-62.1,61.7-115.3,110.3-159.3c34.8-31.5,73.9-56.4,117.2-74.3c57.5-23.9,118-34.4,181.2-31.9
		c10.3,1,20.6,1.8,30.9,3c35.9,3.9,71,12.7,105.3,25.5c59,22.1,112,55.1,159.2,98.8c45.2,42,81.6,90.9,109.2,146.5
		c27.5,55.6,44.2,114,50.3,175.1c3.9,39.7,3,79-2.9,117.9c-8.5,56.7-26.6,109.5-54.6,158.1c-27.5,47.8-62.4,88.7-105.2,122.1
		C806,574.1,723.1,603.4,630.3,605.6 M718.4,561.7C793,544.1,857,507.6,910.1,452.4c53.3-55.6,88-122.6,104.7-200.2
		c8.2-38.1,11.2-77,9-116.6c-4.2-74.9-25.1-145.4-63-211.3c-31.3-54.5-71.6-100.8-120.8-138.7c-51.9-40-109.1-67.4-171.4-81.7
		c-33.2-7.6-66.6-11.2-100.2-10.6c-43.9,0.8-86.2,8.6-127,23.3c-41.5,15-79.3,36.5-113.4,64.6c-44.3,36.4-79.3,80.8-105,133.1
		c-20,40.6-33.2,83.9-39.4,129.7c-1.2,8.9-2.3,17.9-2.9,26.9c-0.9,13.1-1.2,26.2-1.6,35.3c2,100.4,30,189.1,85.8,269.4
		c52.8,75.9,121.3,130.9,204.6,165.2c34.2,14.1,69.4,23.3,105.5,27.9C623.6,575,671.5,572.8,718.4,561.7 M877.7,448.1
		c-74.3,65.6-162.3,95.5-262.6,92.2c-17.7-0.8-35.3-3-52.7-6.3c-50.2-9.4-97.6-27.7-141.8-55.6C343,429.6,285.5,362.5,248.4,277.2
		c-30.4-69.8-41.6-142.1-34.5-216.4c4-42.1,14.2-82.2,30.6-120.2c23.9-55.6,58.4-102.9,104.1-140.7c71.3-59.2,154.3-87.3,248.1-85.1
		c40.7,0.9,80.7,8.9,119.9,22.9c59.8,21.4,112.8,55.1,158.8,101.1c29.9,30,55.1,63.7,75.6,101c34.7,63.4,53,130.8,55,201.8
		c1.4,46.7-5,91.9-18.8,135.6C965.8,345,929.6,402.3,877.7,448.1 M823.2,456.4c60.1-38,104.4-91.1,133.5-157.8
		c16.1-36.9,25.8-76,29.3-117c1.1-13,1.3-26.2,1.7-35.1C986,58.7,961.7-18.2,913.7-88.1c-40.2-58.5-91.7-103.2-153.9-134.1
		c-48.2-24-98.7-37.3-151.1-38.8c-101.2-2.9-187.7,30.8-258.5,101.7c-50.9,51-82.9,113.7-97.3,186.7c-6.5,32.9-8.6,66.3-6.3,100.1
		c5.7,83.3,34,158.9,85.3,226c46.7,61,105.3,104.8,175.1,131.8c27.8,10.7,56.2,17.9,85.3,21.5C676.2,517.1,753.3,500.5,823.2,456.4
		 M849.2,407.1c-63.6,54-138.5,78.3-222.9,75.6c-19.3-1-40.5-3.8-61.6-8.8c-48.1-11.4-92.5-32.3-133-62.7
		c-34.9-26.2-64.5-57.8-88.8-94.6c-37.1-56.4-57.9-117.9-62.6-184.4c-3.4-47.6,2.2-93.7,17-138c23.1-69.2,63.3-124.6,120.9-165.9
		c49.8-35.7,106-55,167.9-58.7c34.7-2,69.2,1.6,103.5,10.5c41.8,10.9,80.8,29.1,116.7,54.7c60.5,43.1,104.9,99.6,132.9,169.2
		c26.5,65.8,34.2,133.2,22.6,201.4C947.9,287.4,910.4,355.1,849.2,407.1 M947,147.2c-1.2-179.6-142.2-336.7-321.6-345.8
		C449-207.5,306.5-65.5,307.8,116.8c1.4,180.5,142.9,336.8,322.2,345.9C809.9,470.3,948.2,326.4,947,147.2 M632.2,448
		c-163.7-7.7-297.7-150.5-299.5-318.8C330.9-37.2,458.6-171.3,626.4-164c167.9,7.3,299,153.1,300.3,320.2
		C928,324.7,796,455.8,632.2,448 M785.7,398.8c65.2-41.8,104.3-103.2,117.9-182.6c2.7-15.7,3.6-31.7,3.7-55.3
		C904.6,82,872.5,8.1,808.5-51.4c-42.3-39.4-91.5-63.4-146.6-73.2c-95.8-17-191.7,18.5-251.2,94.7C379,10.7,360.1,57.5,355,110.5
		c-7,71.6,10.1,138.3,51.5,198.8c43.6,63.8,102.5,104.9,175,122.3C655.1,449.2,723.8,438.4,785.7,398.8 M748.1,412
		c-11.3,5.4-23,9.8-35.1,13.1c0-2.8,0.2-5.4-0.1-8c-1.6-11.2-4.5-22.2-8.9-32.8c-11.3-27.3-28.9-49.5-52.3-66.8
		c-38.2-28.3-79.9-39.8-124.9-32.2c-27.9,4.7-51.7,17.3-70.3,39c-3.6,4.2-6.8,8.8-10.1,13.1c-0.9-0.3-1.6-0.6-2.3-0.8
		c-0.1,0.2-0.3,0.5-0.4,0.7c5.8,6.5,11.6,13.1,17.3,19.6c17.7-13.6,28.8-19.7,44-23.9c36.3-9.9,71.8-5,106.4,12.5
		c28.8,14.5,51.8,36,67.7,65.2c3.5,6.4,6.2,13.3,9.6,20.7c-13,1.3-25.6,2.5-37.8,3.8c-45.2-59.4-119.7-72.7-162.3-54.5
		c2.7,2.5,5.3,5,7.9,7.4c-2-1.1-4.1-2-5.9-3.3c-22.3-15.9-42.3-34.5-59.1-56.5c-49.3-64.7-69.3-136.6-56.3-215
		c13.2-79.4,55.2-137.7,122.7-175c48.2-26.7,100.8-34.8,156.6-25.9c35.3,5.6,68.5,18.2,99.7,37.5c86.6,53.9,137.8,151.9,132.6,251.3
		c-2.1,39-12,75.2-30.2,108.4C831.3,355.8,795,389.8,748.1,412 M861.6,261.8c10.5-43.9,8.3-88.2-5.8-132.5
		C828.2,42.9,757.1-23.8,672.6-45c-72.7-18.3-139.1-6.3-197.5,37.4c-47.5,35.5-76.6,84.3-85.9,145.4c-10.8,70.6,7.1,135.3,50.5,194
		c0.6,0.8,1.3,1.5,1.9,2.2c0.3-0.2,0.5-0.3,0.8-0.5c-0.7-1.1-1.2-2.4-2-3.3c-3.8-3.9-3.1-7.8-1.3-12.1c8.5-21.4,21.7-38.9,39.7-52.3
		c20.9-15.6,44.6-24.2,70.8-26c49.9-3.4,94.3,12.8,132.6,48.6c26.8,25,43.8,55.7,49.2,92.2c1.4,9,0.9,18.2,1.2,27.2
		c0.1,2.7-0.3,5.3-0.5,9.1c5.3-2.4,9.7-4.5,13.9-6.4c3.2-12.1,5.7-23.8,6.2-36c1.6-40.4-11.3-76.4-36.6-108.3
		c-26.3-33.2-59.7-54.5-99.2-65c-33.9-9.1-67.2-8.4-99.2,3.8c-41.6,15.9-70.2,45.3-83.1,89.9c-1.3,4.5-2,9.3-3,14
		c-0.2,1.1-0.5,2.1-0.9,3.8c-2.7-2.8-3.5-5.3-3.5-8.7c0.3-14.8,1.6-29.3,5.5-43.3c11.6-40.8,36.1-70.6,72.2-89.7
		c36.2-19.1,75.2-23.1,116.2-13.9c40.7,9.1,75.8,29.5,104.3,61.9c32.8,37.3,48.9,80.6,45.8,129.8c-1.2,18.2-5.9,35.5-13.6,51.6
		c-0.6,1.3-1.2,2.6-1,4.7c5.8-3.8,11.7-7.3,17.3-11.4C818.5,361.3,848.3,317.5,861.6,261.8 M497.1,388.2c-0.2-0.1-0.3-0.2-0.5-0.3
		c0.1,0.1,0.3,0.3,0.4,0.4L497.1,388.2z M502.6,392.1l0.1-0.1c-1.9-1.3-3.7-2.5-5.6-3.8l-0.1,0.1
		C498.9,389.6,500.8,390.9,502.6,392.1 M502.6,392.1l0.3,0.1c-0.1-0.1-0.1-0.2-0.2-0.3L502.6,392.1 M503.8,393.3
		c1.1,0.7,2.3,1.4,3.8,1.2c-1.6-0.8-3.1-1.5-4.6-2.3C503.2,392.6,503.4,393.1,503.8,393.3 M811.8,102.9C773.3,42,719.3,5,651.5-8.8
		c-52.4-10.7-102.1-3.5-147.5,22.2C446.2,46.3,411.3,97.2,401,165.8c-6.4,42.6,0.2,84.4,17.8,125c0.8,1.7,1.7,3.4,2.7,5.5
		c0.6-1,0.9-1.6,1.3-2.2l0,0c0,0,0,0,0,0c0,0,0,0,0,0c0,0,0,0,0,0v0c-1-1.9-2.2-3.7-2.9-5.6c-21.4-67.9-13.4-130,26.6-184.8
		c32.4-44.4,77.2-68.9,131.4-75.2c66.3-7.6,125.8,12.7,177.6,59.6c37,33.5,60.9,75.4,69.9,124.6c11.9,65.2-3.5,121.7-44.6,169.4
		c-1.2,1.4-2.5,2.8-3.7,4.2c-0.2,0.2-0.2,0.6-0.6,2.3c5.3-5.1,10-9.2,14.2-13.6c32.7-34.5,52-76.3,56.6-125.5
		C852.2,197.3,840.3,148.1,811.8,102.9 M422.9,283.7c-2.8-50.8,13.2-93.3,47.5-127.2c27.8-27.4,61.9-42.2,100.9-45.8
		c45.8-4.3,88.9,6.8,128.6,33.4c46.4,31.1,76.9,74,87.7,129.8c8.2,42.6,1.1,82-20.2,117.8c-1,1.7-2,3.4-2.4,5.7
		c0.7-0.7,1.5-1.3,2.1-2.1c24.1-28.9,38.8-62.4,41.8-101.5c3.5-45.4-7.8-87.6-33.2-126.3c-32.6-49.6-77.6-80.6-133-93.8
		c-50.3-12-98-5.9-141.2,20c-48.4,29-76.7,72.9-83.7,131.5c-2.5,21-1.1,42,3.7,63c0.4,1.9,0.7,3.8,1.1,5.7
		C422.8,290.6,423,287.1,422.9,283.7"/>
</g>
</svg>
