<?xml version="1.0" encoding="utf-8"?>
<!-- Generator: Adobe Illustrator 25.2.1, SVG Export Plug-In . SVG Version: 6.00 Build 0)  -->
<svg version="1.1" id="Layer_1" xmlns="http://www.w3.org/2000/svg" xmlns:xlink="http://www.w3.org/1999/xlink" x="0px" y="0px"
	 viewBox="0 0 783.6 335.6" style="enable-background:new 0 0 783.6 335.6;" xml:space="preserve">
<style type="text/css">
	.st0{fill:#FFE200;}
</style>
<g>
	<path class="st0" d="M390.5,174.2l125.6,115.4l-14.6,1.4l-128.7-124L575.6,27.5l13.5,0.6l-198.9,146
		C390.3,174.1,390.4,174.2,390.5,174.2 M699.6,272.1l60.8-26.3l1-8.6l-76.9,36.3L699.6,272.1z M558.6,26.7L542.7,26L333.4,150.1
		c0,0-0.1,0-0.1-0.1l0.1,0.1l135.8,144l13.9-1.3L351.6,158.4L558.6,26.7z M751.7,35.9l27.7,40.8l1.2-10.7l-19-29.6L751.7,35.9z
		 M773.4,36.9l8.8,14.7l1.6-14.2L773.4,36.9z M747.3,267.6l11.1-4l1-8.7l-38.2,15.2L747.3,267.6z M728.3,34.8l48.7,62.8l1-9.3
		l-38.7-53L728.3,34.8z M522.8,25l-18.3-0.9L295.2,130.6l0.1,0.1l136.6,167l14.4-1.4l-134-156.7L522.8,25z M86.9,4.3l102.4,316.5
		l20.9-2L99.9,4.9L86.9,4.3z M124.3,7.4c0,0,1.6-0.4,4.7-1l-17.5-0.8l124,310.9l21.7-2.1L124.3,7.4L124.3,7.4z M351.9,16.9l-41.6-2
		L181.7,54.4l138.5,253.9l18.9-1.8L199.5,68.2L351.9,16.9z M237.6,94.8c0,0,1.8-0.3,1.8-0.3l184.4-74.2l-32.2-1.5L219.6,82.3
		l141.8,222.1l18.3-1.7L237.6,94.8L237.6,94.8z M61.1,3.1l78.7,322.4l19-1.8l-85-320L61.1,3.1z M427.3,186.8L612.9,29.3l-11.3-0.5
		L409.6,181c0,0,0,0,0,0l124.8,106.8l14.3-1.4L427.3,186.8C427.3,186.8,427.3,186.8,427.3,186.8 M678.8,32.4l94.8,96l0.7-6.5
		L691.2,33L678.8,32.4z M263.4,12.7l-66-3.1l-55.9,13.7l0.3,0.6l135.6,288.4l20.3-1.9L162.3,41.1L263.4,12.7z M480.3,23L456,21.8
		l-198.1,86.9l137.8,192.4l17.7-1.7L277,119.1L480.3,23z M704.3,33.6l70.9,80.6l0.8-7.2l-60.8-72.9L704.3,33.6z M31.8,1.7l55,328.8
		l25.2-2.4L47,2.4L31.8,1.7z M0.2,0.2l31.7,335.6l27.7-2.6L16.5,1L0.2,0.2z M613.8,37.4L613.8,37.4L613.8,37.4
		C613.7,37.4,613.7,37.4,613.8,37.4L444.2,191.8c0,0,0,0,0,0l122,93l13.4-1.3l-118-87c0,0-0.1,0-0.1,0L613.4,48.3c0,0,0-0.1,0-0.1
		l154.6,109l-4.1,3.8l-83.7,78.7c-0.1,0.2-0.2,0.3-0.3,0.5L617,217.3l32.1-68.2l66.7,25.1l-2.3,4.1l-59.3-22.3L627,217.1l55.7,18.7
		c0.4-0.7,0.9-1.4,1.3-2.1c-0.4,0.6-0.8,1.3-1.2,1.9l70.8-73.2l5.7-5.8L614,62.1L479.9,201c0,0-0.1,0-0.1,0L598,281.8l13.6-1.3
		l-115.5-76.1L615.4,71.7l137.5,84.9l-4,4.4L686,230.6c-0.2,0.3-0.3,0.5-0.5,0.8L640.2,217h0l20.8-52.7l50.5,17.6
		c0-0.1,0.1-0.1,0.1-0.2l-9.8,17.3c-0.4,0.9-0.8,1.8-1.2,2.8l17.8-30.6l-64.1-26.1l-10.9-4.4l-40,76.4l72.9,28.1
		c0.3-0.4,0.6-0.8,0.9-1.2c-0.2,0.2-0.3,0.5-0.5,0.7l93.1-82.4l0.8-7.1L613.8,37.4C613.8,37.4,613.8,37.4,613.8,37.4 M617.5,29.5
		l153.6,120.8l0.5-4l-138.4-116L617.5,29.5z M667.3,256.9l100.7-79l0.7-6.6l-97.6,80.8C669.9,253.8,668.6,255.3,667.3,256.9
		 M671.3,274.8l91.1-46.6l0.8-7.2l-99.9,54.5L671.3,274.8z M661.2,264.1C661.1,264.2,661.1,264.2,661.2,264.1l-99.8-49.9l65.4-104.5
		l102.5,51.7l0,0l-33.4,51.1c-0.7,1.4-1.4,2.8-2.1,4.3l39.4-57.1c0.1,0,0,0,0,0l-110.2-59.7l0,0l-76.6,112.5l109.6,57.3
		c0,0,0,0-0.1,0.1l110.3-74.8l0.8-7.1l-104.4,75.1L661.2,264.1z M529.3,210.3l90.4-119.6l120.4,66.8l-47.8,62
		c-0.5,0.9-1,1.9-1.5,2.8l-25.2-6.9c0,0,0,0,0,0l10.4-34.6l30.8,8.8c0.7-1.3,1.4-2.6,2.1-3.9l-40.2-12.6l-0.1-0.1l-15,43.2
		c0,0,0,0,0,0l34.8,10.1c0.3-0.5,0.5-1,0.8-1.5c0,0,0,0,0,0l56.1-68c0.1,0-0.1-0.1,0-0.1L617.3,81.5L513.8,207.8l117.5,70.9
		l13.8-1.3L529.3,210.3C529.4,210.3,529.4,210.3,529.3,210.3 M654.7,276.4l109.6-64.7l0.9-8.2l-115.2,73.3L654.7,276.4z M648,31
		l124.2,109.2l0.6-5.1l-110-103.4L648,31z M699.3,204.8c-0.4,1-0.8,1.9-1.3,2.9l26.7-42.9c0,0,0.1-0.1,0.1-0.1l0,0l0,0c0,0,0,0,0,0
		c0,0,0,0,0,0l-93.4-44.7l-55.4,95.7l91.1,41.5c1.5-1.8,2.9-3.6,4.3-5.4l-81-35.1l45.9-87.3l85.3,38.2c0,0,0,0-0.1,0.1L699.3,204.8z
		"/>
</g>
</svg>
