<?xml version="1.0" encoding="utf-8"?>
<!-- Generator: Adobe Illustrator 25.2.1, SVG Export Plug-In . SVG Version: 6.00 Build 0)  -->
<svg version="1.1" id="Layer_1" xmlns="http://www.w3.org/2000/svg" xmlns:xlink="http://www.w3.org/1999/xlink" x="0px" y="0px"
	 viewBox="0 0 176.4 53.7" style="enable-background:new 0 0 176.4 53.7;" xml:space="preserve">
<style type="text/css">
	.st0{fill:#FFFFFF;}
	.st1{enable-background:new    ;}
	.st2{fill:#1F140F;}
</style>
<g>
	<path class="st0" d="M39.4,53.7h97.7c21.6,0,39.4-17.7,39.4-39.4V0H0v14.3C0,36,17.7,53.7,39.4,53.7L39.4,53.7z"/>
	<g>
		<g>
			<g class="st1">
				<path class="st2" d="M28.9,26.3h5.3v2.8h-8.3V15.7h3V26.3z"/>
				<path class="st2" d="M48.2,22.4c0,4.2-3.1,7-7.1,7s-7.1-2.8-7.1-7s3.1-7,7.1-7S48.2,18.2,48.2,22.4z M37.3,22.4
					c0,2.4,1.6,3.9,3.8,3.9s3.8-1.5,3.8-3.9s-1.6-3.9-3.8-3.9S37.3,20,37.3,22.4z"/>
				<path class="st2" d="M57.9,16.4L56.6,19c-1.2-0.6-2.1-0.8-3-0.8c-0.9,0-1.2,0.3-1.2,0.8c0,0.4,0.2,0.7,1,1.1l2.2,1.4
					c1.6,1,2.5,2,2.5,3.9c0,2.6-1.8,4-4.9,4c-1.8,0-3.5-0.5-5-1.3l1.3-2.7c1.3,0.8,2.5,1.2,3.8,1.2c1.1,0,1.6-0.4,1.6-1.1
					c0-0.6-0.5-1-1.3-1.4l-2-1.3c-1.7-1-2.5-2.3-2.5-3.8c0-2.2,1.4-3.6,4.3-3.6C54.8,15.4,56.3,15.7,57.9,16.4z"/>
				<path class="st2" d="M80.4,29.1h-3.1l-1.8-7.7h0L73,27.2h-2.1l-2.5-5.8h0l-1.8,7.7h-3.1l3.4-13.4h2.2l2.8,6.9h0l2.8-6.9H77
					L80.4,29.1z"/>
				<path class="st2" d="M84.6,29.1h-3V15.7h3V29.1z"/>
				<path class="st2" d="M98.8,29.1h-2.5l-6.4-8.2h0v8.2h-3V15.7h2.5l6.4,8.3h0v-8.3h3V29.1z"/>
				<path class="st2" d="M104.1,29.1h-3V15.7h3V29.1z"/>
				<path class="st2" d="M119.8,22.4c0,4.2-3.1,7-7.1,7c-4,0-7.1-2.8-7.1-7s3.1-7,7.1-7C116.7,15.4,119.8,18.2,119.8,22.4z
					 M108.9,22.4c0,2.4,1.6,3.9,3.8,3.9c2.1,0,3.8-1.5,3.8-3.9s-1.6-3.9-3.8-3.9C110.6,18.5,108.9,20,108.9,22.4z"/>
				<path class="st2" d="M133.3,29.1h-2.5l-6.4-8.2h0v8.2h-3V15.7h2.5l6.4,8.3h0v-8.3h3V29.1z"/>
				<path class="st2" d="M144.1,16.4l-1.2,2.6c-1.2-0.6-2.1-0.8-3-0.8c-0.9,0-1.2,0.3-1.2,0.8c0,0.4,0.2,0.7,1,1.1l2.2,1.4
					c1.6,1,2.5,2,2.5,3.9c0,2.6-1.8,4-4.9,4c-1.8,0-3.5-0.5-5-1.3l1.3-2.7c1.3,0.8,2.5,1.2,3.8,1.2c1.1,0,1.6-0.4,1.6-1.1
					c0-0.6-0.5-1-1.3-1.4l-2-1.3c-1.7-1-2.5-2.3-2.5-3.8c0-2.2,1.4-3.6,4.3-3.6C141.1,15.4,142.5,15.7,144.1,16.4z"/>
			</g>
			<g class="st1">
				<path class="st2" d="M27.2,40h-1.8v-8.1h1.8V40z"/>
				<path class="st2" d="M35.9,40h-1.5l-3.9-5h0v5h-1.8v-8.1h1.5l3.9,5h0v-5h1.8V40z"/>
				<path class="st2" d="M41.4,40h-1.9l-3.1-8.1h2.1l1.9,5.8h0l1.9-5.8h2.1L41.4,40z"/>
				<path class="st2" d="M49.1,38.3h-3.1L45.4,40h-2l3.2-8.1h1.9l3.2,8.1h-2L49.1,38.3z M48.5,36.7l-1-2.9l-1,2.9H48.5z"/>
				<path class="st2" d="M59.2,35.9c0,2.5-1.8,4.1-4.4,4.1h-2.6v-8.1h2.6C57.4,31.9,59.2,33.4,59.2,35.9z M54.1,33.5v4.9H55
					c1.3,0,2.3-0.9,2.3-2.4c0-1.6-1-2.4-2.3-2.4H54.1z"/>
				<path class="st2" d="M62,40h-1.8v-8.1H62V40z"/>
				<path class="st2" d="M68.5,38.3V40h-5.1v-8.1h5v1.7h-3.2v1.3h2.9v1.6h-2.9v1.8H68.5z"/>
				<path class="st2" d="M71.7,36.9h-0.3V40h-1.8v-8.1h3.3c1.8,0,2.8,1.1,2.8,2.5c0,1.2-0.6,2.1-1.9,2.4L76,40h-2.3L71.7,36.9z
					 M71.4,35.4h1.2c0.7,0,1.1-0.3,1.1-1c0-0.6-0.4-1-1.1-1h-1.2V35.4z"/>
				<path class="st2" d="M84.6,35.9c0,2.5-1.9,4.2-4.3,4.2c-2.4,0-4.3-1.7-4.3-4.2s1.9-4.2,4.3-4.2C82.7,31.7,84.6,33.4,84.6,35.9z
					 M78,35.9c0,1.5,1,2.4,2.3,2.4c1.3,0,2.3-0.9,2.3-2.4s-1-2.4-2.3-2.4C79,33.5,78,34.5,78,35.9z"/>
				<path class="st2" d="M92.8,40h-1.5l-3.9-5h0v5h-1.8v-8.1h1.5l3.9,5h0v-5h1.8V40z"/>
				<path class="st2" d="M102.4,32.3l-0.8,1.6c-0.7-0.3-1.3-0.5-1.8-0.5c-0.6,0-0.7,0.2-0.7,0.5c0,0.2,0.2,0.4,0.6,0.7l1.3,0.8
					c1,0.6,1.5,1.2,1.5,2.4c0,1.6-1.1,2.4-3,2.4c-1.1,0-2.1-0.3-3-0.8l0.8-1.6c0.8,0.5,1.5,0.7,2.3,0.7c0.7,0,1-0.2,1-0.7
					c0-0.4-0.3-0.6-0.8-0.9l-1.2-0.8c-1.1-0.6-1.5-1.4-1.5-2.3c0-1.3,0.9-2.2,2.6-2.2C100.6,31.7,101.5,31.9,102.4,32.3z"/>
				<path class="st2" d="M108.7,38.3V40h-5.1v-8.1h5v1.7h-3.2v1.3h2.9v1.6h-2.9v1.8H108.7z"/>
				<path class="st2" d="M111.9,36.9h-0.3V40h-1.8v-8.1h3.3c1.8,0,2.8,1.1,2.8,2.5c0,1.2-0.6,2.1-1.9,2.4l2.3,3.2h-2.3L111.9,36.9z
					 M111.5,35.4h1.2c0.7,0,1.1-0.3,1.1-1c0-0.6-0.4-1-1.1-1h-1.2V35.4z"/>
				<path class="st2" d="M122,38.3V40h-5.1v-8.1h5v1.7h-3.2v1.3h2.9v1.6h-2.9v1.8H122z"/>
				<path class="st2" d="M130.3,40h-1.5l-3.9-5h0v5h-1.8v-8.1h1.5l3.9,5h0v-5h1.8V40z"/>
				<path class="st2" d="M133.5,40h-1.8v-8.1h1.8V40z"/>
				<path class="st2" d="M140.3,33.5h-2.1V40h-1.8v-6.4h-2.1v-1.7h6.1V33.5z"/>
				<path class="st2" d="M148.8,35.9c0,2.5-1.9,4.2-4.3,4.2s-4.3-1.7-4.3-4.2s1.9-4.2,4.3-4.2S148.8,33.4,148.8,35.9z M142.2,35.9
					c0,1.5,1,2.4,2.3,2.4s2.3-0.9,2.3-2.4s-1-2.4-2.3-2.4S142.2,34.5,142.2,35.9z"/>
			</g>
		</g>
		<g>
			<g>
				<path class="st2" d="M18.6,25.6h2.1l0.6,9H18L18.6,25.6z M18.1,21.2h3.1v3.1h-3.1V21.2z"/>
			</g>
			<g>
				<path class="st2" d="M157.9,30.2h-2.1l-0.6-9h3.3L157.9,30.2z M158.4,34.6h-3.1v-3.1h3.1V34.6z"/>
			</g>
		</g>
	</g>
</g>
</svg>
