<svg xmlns="http://www.w3.org/2000/svg" viewBox="0 0 726.05 181.1"><defs><style>.cls-1,.cls-2{fill:#1f140f;}.cls-2{fill-rule:evenodd;}.cls-3{fill:#fff;}.cls-4{fill:#ffe200;}</style></defs><g id="Capa_2" data-name="Capa 2"><g id="Capa_1-2" data-name="Capa 1"><path class="cls-1" d="M484.45,70.9c-3,0-4.58-1.9-4.6-5.51V57.08c0-.09,0-.17.14-.17l2.58-.27a.2.2,0,0,1,.15.06s.08.08.08.13V65c0,1.81.71,2.72,2.05,2.72a1.83,1.83,0,0,0,.33,0c1.6-.15,2.36-1.22,2.35-3.19V56.33a.17.17,0,0,1,.15-.17l2.61-.27a.15.15,0,0,1,.12,0s.09.09.09.13v8.31c0,2.23-.65,6-5.3,6.48a6.63,6.63,0,0,1-.75,0"/><path class="cls-1" d="M493.3,69.72a.17.17,0,0,1-.12,0,.19.19,0,0,1-.08-.14V55.84c0-.1,0-.18.13-.19l2.76-.17a.11.11,0,0,1,.14.05L502,63.28V55.22c0-.1,0-.17.13-.17l2.26-.17a.2.2,0,0,1,.13,0s.09.08.09.13v13.7c0,.1,0,.18-.13.18l-2.3.15A.16.16,0,0,1,502,69l-6.31-8.39v8.76c0,.1,0,.17-.15.17Z"/><path class="cls-1" d="M507.91,68.78a.16.16,0,0,1-.13-.06s-.09-.08-.09-.11V54.93c0-.1,0-.18.12-.18l3-.14a.12.12,0,0,1,.12,0s.1.08.1.12V68.45a.15.15,0,0,1-.15.17Z"/><path class="cls-1" d="M518.86,68.3a.18.18,0,0,1-.16-.09l-5.82-13.49c0-.06,0-.12,0-.18a.17.17,0,0,1,.15-.08l3.4-.09a.18.18,0,0,1,.17.11l3.79,8.8,3.91-9a.17.17,0,0,1,.15-.11l2.69-.08a.14.14,0,0,1,.15.08.12.12,0,0,1,0,.16l-6,13.84a.16.16,0,0,1-.16.11Z"/><path class="cls-1" d="M529.41,68c-.09,0-.21-.06-.21-.16V54.22s0-.1,0-.14a.21.21,0,0,1,.12,0h10.95a.19.19,0,0,1,.19.17v2.66a.19.19,0,0,1,0,.14.21.21,0,0,1-.13,0h-7.63v2.37h5.14a.18.18,0,0,1,.18.16v2.68a.28.28,0,0,1,0,.13.21.21,0,0,1-.13,0h-5.13l0,2.57h7.72a.18.18,0,0,1,.18.17v2.68a.17.17,0,0,1-.05.13.16.16,0,0,1-.12.05Z"/><path class="cls-1" d="M555.79,68.47l-3.55-.11a.2.2,0,0,1-.15-.09l-3-5.16-1.92,0v5a.21.21,0,0,1,0,.13.33.33,0,0,1-.13,0l-3-.08a.21.21,0,0,1-.2-.18V54.24c0-.06,0-.11,0-.13a.16.16,0,0,1,.13-.06l7.53.23c2.48.08,3.92,1.66,3.92,4.35a3.9,3.9,0,0,1-2.63,4.14L556,68.2a.28.28,0,0,1,0,.18.17.17,0,0,1-.16.09M547.12,60l2.75.09a2.46,2.46,0,0,0,1.71-.41,1.59,1.59,0,0,0,.32-1.17c0-.65-.14-1.23-1.6-1.28l-3.18-.09Z"/><path class="cls-1" d="M563.57,69.27a5.43,5.43,0,0,1-.57,0,11.68,11.68,0,0,1-5-1.84.17.17,0,0,1-.08-.15V64.1a.23.23,0,0,1,.08-.16.18.18,0,0,1,.2,0A11.55,11.55,0,0,0,563,66.11a2.55,2.55,0,0,0,2-.41.83.83,0,0,0,.24-.63c0-.31-.32-.6-1-.94-.39-.2-.88-.4-1.39-.6-2.13-.88-5-2.09-5.07-5.33a3.66,3.66,0,0,1,1-2.65,5.1,5.1,0,0,1,3.85-1.23A12.86,12.86,0,0,1,567.69,56a.22.22,0,0,1,.08.14V59.2a.16.16,0,0,1-.08.14.18.18,0,0,1-.2,0,11.51,11.51,0,0,0-4.89-1.89,1.6,1.6,0,0,0-1.25.32.42.42,0,0,0-.16.38c0,.35.31.69,1,1a12.83,12.83,0,0,0,1.47.66c2.11.9,5,2.1,5,5a4.35,4.35,0,0,1-1.11,3.1,5.44,5.44,0,0,1-4,1.32"/><path class="cls-1" d="M582.25,70.13l-3-.21a.16.16,0,0,1-.15-.13l-1-2.75-4.78-.36-1,2.6a.2.2,0,0,1-.19.12l-2.46-.2a.17.17,0,0,1-.15-.07.18.18,0,0,1,0-.16l5.3-13.43a.21.21,0,0,1,.17-.12l2.07.16a.19.19,0,0,1,.16.11l5.19,14.21a.16.16,0,0,1,0,.16.2.2,0,0,1-.16.07m-7.72-6.38,2.48.18-1.23-3.36Z"/><path class="cls-1" d="M592.84,71.11l-8.51-.78c-.09,0-.2-.08-.2-.17V56.29a.22.22,0,0,1,0-.14.16.16,0,0,1,.13,0l2.57.22c.09,0,.19.11.19.19v11l5.8.53a.19.19,0,0,1,.17.18v2.71a.15.15,0,0,1-.06.15.12.12,0,0,1-.11,0"/><path class="cls-2" d="M538.78,34.73a2.05,2.05,0,0,0,.78.1v0c-.07,0-.23-.07-.31-.13h0a1.21,1.21,0,0,1,.53.21l.07-.05c-.07.09-.11.11-.08.21-.36-.06-.62-.18-.74.21l.11.09-.08,0a.41.41,0,0,1,0,.09,1.13,1.13,0,0,0,.4.27,1.36,1.36,0,0,0,0,.2s0,0,.08,0,0,.14.08.18.45.3.54.4,0,.1.06.16a1.74,1.74,0,0,1,.4.23s0,0,0,0c.26.13.65.12.86.24,0,0,0,0,0,.08.23.06.46.12.67.19l.05,0s0,0,0-.11c.13-.07.17-.22.26-.32a.35.35,0,0,1-.06-.21,1.34,1.34,0,0,0,.4-.17c0-.08,0-.11-.07-.15s0,0,.09,0l.05-.06a.86.86,0,0,1-.14-.13h0a.48.48,0,0,0,.29,0l0,0-.08-.08a.89.89,0,0,0,.43.06.54.54,0,0,1,0-.11s0,0,.08,0a.8.8,0,0,1-.09.14l0,0a2,2,0,0,0,1-.12v-.09c.43-.12,1.06.14,1.48.12a8.7,8.7,0,0,0-3.34-1.54,6.23,6.23,0,0,0-3,0,1.33,1.33,0,0,0-.62-.13h-.05a.23.23,0,0,0,.11.06c-.11,0-.16,0-.24,0s0,.06,0,.14Zm3.86,1.58s0,0,0,0,0,0,0,0M523.13,70.8a4.06,4.06,0,0,0,.63,1c.53.54,1.39.85,1.73,1.55l.48.46a1.12,1.12,0,0,1,0,.21,2.86,2.86,0,0,1,.1.77,2,2,0,0,0,0,.36c0,.08,0,.14.06.23a3,3,0,0,0-.14.71c-.08,0,0,0-.11,0a1.85,1.85,0,0,0,0,.23h.06c0,.16,0,.3-.05.45s0,.28.05.44-.11.08-.12.17a.5.5,0,0,0,0,.16,2.12,2.12,0,0,1-.17.73c-.09.19,0,.36-.15.48a3.5,3.5,0,0,1,.08.59c-.06,0,0,0-.11,0,0,.57.24.88.05,1.28a.26.26,0,0,1,.07.23,3.77,3.77,0,0,0-.31,1.13s0,0-.06,0v.21a.33.33,0,0,1-.15-.05v0a2.75,2.75,0,0,0,.31.87c0,.35-.22.46,0,.85v0a.08.08,0,0,0-.07,0c0,.16,0,.32,0,.51a.41.41,0,0,0,.21.1h.06a.73.73,0,0,0-.08-.51l0,0,.12,0c0-.07,0-.06,0-.07a.12.12,0,0,1,0,0s0,0,.08.09a.79.79,0,0,0,0,.09.16.16,0,0,1,0,.27.15.15,0,0,1,.09.07,4,4,0,0,0,0,.77h0c0-.1-.1-.35-.07-.36a.43.43,0,0,0-.21-.19.49.49,0,0,0-.11.29c0,.06.1.1.13.14v.24h-.13s0,.07.06.11l-.13.1v.07l.11,0a.11.11,0,0,0,.07-.06,2.29,2.29,0,0,1,.29.18l-.08,0c0,.06,0,0,.08.07a.31.31,0,0,0-.06.16.24.24,0,0,0-.17-.06v0l0,0-.08,0a4.66,4.66,0,0,0,.22.56,1.14,1.14,0,0,1,.22.12.17.17,0,0,0-.11,0,1.77,1.77,0,0,1,0,.21l.07,0a.51.51,0,0,0,.09-.16.43.43,0,0,0,0,.12H526a.46.46,0,0,1,.07.3l.18-.07a.43.43,0,0,0,.1.07v.06a.4.4,0,0,1-.16,0s0,0,0,0a.62.62,0,0,0,.25.23s0,0-.05-.08.19.15.29.25l-.27-.11a.52.52,0,0,0,.33.21s0,0,0,0,.66.48.8.44,0,0,0,.07a2.54,2.54,0,0,0,.9.39l-.12-.13a1.6,1.6,0,0,0,.28.07v0l0,0,.08,0v-.07a1.66,1.66,0,0,0,.22,0l0,0v0c-.46-.05-.6-.43-1-.53a.43.43,0,0,1,0-.07c-.09-.11-.23-.1-.31-.22h0l0,0a1,1,0,0,0,.24.1c-.14-.16-.33-.29-.36-.56a.1.1,0,0,0,0,0l.24,0c.05,0,0-.14,0-.26s.32-.12.4-.22,0-.13,0-.24c-.27-.19-.66-.23-.57-.64a.47.47,0,0,1,.46-.06h.07s0,0-.06-.06.05-.06.1-.08a.47.47,0,0,0,0-.29.3.3,0,0,1,.29-.15c0-.08-.13-.09-.2-.15l0,0,.12,0a.51.51,0,0,1,.15.17l.14,0,0-.06a.33.33,0,0,0,0-.19l0-.06a.68.68,0,0,0-.19,0s.07,0,.09.07v0l-.11-.06c-.06,0-.06-.07-.16-.1s-.06-.29-.12-.42c.14-.15.41.17.58.2l.39,0,.1-.18-.08,0-.06-.08c.07-.1.19-.25.12-.39,0,0,0,0,.07,0a.26.26,0,0,0,0-.1,3.21,3.21,0,0,0,1.57.1c.07,0,.32-.35.41-.41v-.25c-.13,0-.2,0-.21-.23l.13-.12c-.07-.29-.36-.32-.5-.54l.07-.08s0,0,0,0,.1.08.13.18a1.92,1.92,0,0,1,.3.08c.11,0,.21.25.32.26s.18,0,.3,0a.33.33,0,0,0,.27.12c.32,0,.36-.18.57-.32l.34-.14c.09-.12.17-.24.26-.35l.64-.28c.27-.17.4-.49.65-.67s.68-.27.79-.69c0,0,0,0-.06,0a4,4,0,0,1,.13-.59,2.88,2.88,0,0,1,1.52-.68l.22.16a.43.43,0,0,1,0-.12.13.13,0,0,1-.08,0c.17,0,.3-.26.46-.21s0,0,0-.09v-.05a3.31,3.31,0,0,1,1.17.27s0,0,.08-.08c0-.26.3-.16.49-.24s.14-.41.33-.49.28-.26.52-.39c.08-.06.17-.06.23-.16.23-.35.07-.51.53-.68a1.57,1.57,0,0,1,.27-.6,2.5,2.5,0,0,1,.22-.24,2.77,2.77,0,0,1,.12-.6c.08-.21.25-.36.28-.64.2-.1.38-.06.57-.19l.84-.74c.1,0,.21,0,.29-.07s.25-.18.38-.29a2,2,0,0,0,1-1.11c0-.12,0-.22,0-.34s.3-1.57.3-1.57c-12.66,0-22,.14-22,.14m3.81,16.81,0,0a0,0,0,0,1,0,0l.06,0,0,0m.12.16s.05,0,.1-.08l.05,0h0c0,.1-.08.06-.18.06m.44.48v0Zm.24-.29s-.1,0-.14,0a.74.74,0,0,0,.08.13.28.28,0,0,1-.15-.17s-.06.06-.08.1l-.05,0a3,3,0,0,0,0-.32c.11,0,.09.08.11.17a.4.4,0,0,0,.27.08m-.15-.25a.07.07,0,0,0,0,0l-.07,0s0,0-.06,0l0,0,0,0,.07,0m1.62-3.83c-.08,0-.08-.07-.08-.14s0,0,.08.11ZM534,81.59a.33.33,0,0,1-.24.12v.08a.67.67,0,0,1-.35.16l-.08,0c.16-.12.37-.24.45-.43l.22,0Zm1.19-1a.2.2,0,0,1,0,0s0,0,0,0l0,0m0-.07a.12.12,0,0,1,0-.06c0,.06,0,0,0,.06m3-1.64v0h.07Zm-25-29.3,0,0c.28-.31.21-.25.25-.66,0,0,0-.07,0-.1l-.07.08a4.67,4.67,0,0,1,.25-1.15c0-.16-.06-.46,0-.67.11-.49.16-1.54.57-1.84a.23.23,0,0,0,0,.1l.07,0c.08.27-.27.71-.22,1.06a1.29,1.29,0,0,0-.2.21l0,0,.09-.09c0,.09-.05.39.06.5s0,0,0,0a0,0,0,0,1,0,0,.64.64,0,0,0-.09.35l.08,0a1.62,1.62,0,0,0,0,.19h.08c0,.22-.09.28-.21.43a.87.87,0,0,0,.22.39.34.34,0,0,0-.09.22c.17.21.37,1.64.08,1.86-.08.1-.09.09-.05.18s-.07.08-.16.1c-.21.54.27.68.3,1.15a.44.44,0,0,1,.09.08s1.82-.08,2.91-.1c0,0-.08,0-.13-.08a6,6,0,0,1-.23-1.31.67.67,0,0,1,.12-.16c-.16-.36.09-.72.23-1s.22-.53.32-.8c.1-.12.31-.1.37-.33s0-.29,0-.5.27-.23.26-.45c.11,0,.28-.07.31-.16l0-.08c0,.06,0,0,0,.09s.05,0,.1,0,0,0,0-.09l0-.08a1.07,1.07,0,0,0,.74-.21c.15,0,.08-.08.07-.15a.64.64,0,0,1,.13-.1l0,0a.46.46,0,0,1-.07.07l.07,0c.06.06.32-.07.47-.06a2.12,2.12,0,0,1,.6.2h.05v-.06l-.1,0s0,0,0,0l.13,0s.11.15.15.21,0,0,0,0l0,.05a.64.64,0,0,1,.15.13,1.07,1.07,0,0,1,.23-.1.29.29,0,0,1,0,.11c.12,0,.13-.09.2-.16a1.34,1.34,0,0,0,.2.21.15.15,0,0,0,.06,0s.05,0,.08-.08a1.21,1.21,0,0,1-.16-.16l0,0c0-.07.07-.07.18-.08a.37.37,0,0,0,0-.15l-.13.07a.23.23,0,0,0,0,0,1.07,1.07,0,0,1,.82-.06l.05-.14,0,0v.21c.36,0,.62-.1.9.19.07.06.07.18.11.22s.46-.1.63-.1.23.49.32.52c.14.3-.25.46-.2.68l0,0c.07-.06.06-.06,0-.14l0,0c0,.1,0,.07.09.09a.91.91,0,0,0-.19.13,1.09,1.09,0,0,0,0,.38l.08,0a.15.15,0,0,0,0,0c-.06.09,0,.13-.09.22h.06s.07.09,0,.17c0,.24.27.24.14.53.1.12.38,0,.47,0,0-.2.25-.42.34-.6a2.58,2.58,0,0,0,0-.92l.1,0c0-.22-.08-.46-.12-.69.09-.9.8-1.12,1.51-1.33.34-.1.22-.37.82-.26.16-.29.67-.25,1-.31a.1.1,0,0,1,0,0c-.06,0,0,0-.07-.08v0a1.18,1.18,0,0,1,.43-.1l.08-.11a.36.36,0,0,0-.3-.15l.33,0V45s0-.35,0-.51l-.11,0s0,0,0-.07.13-.23.17-.31,0-.31,0-.38l.22-.2c-.17.26-.09.26-.14.56a.33.33,0,0,0,.13,0c-.09.09-.19.14-.24.25l0,0,.09,0c.08-.19.48-.33.65-.62-.12-.09-.08-.16-.1-.3a.51.51,0,0,0,.22.15s0,.06-.07.08c.26,0,.61-.28.73-.47s0,0-.06-.05v0c.29,0,.71.05,1,0l-.08-.1c-.24,0-.47-.06-.71,0,.3-.23,1.19.1,1.57-.05,0,.09.14.09.34.09A.25.25,0,0,1,533,43l-.06-.08c0,.08,0,.08-.1.08h-.14c0-.11,0-.24-.16-.27v0l.24,0a1.09,1.09,0,0,0-.06-.11c.12-.14.36-.2.45-.31a.88.88,0,0,0,.67-.09s0,0,0,.09a5.12,5.12,0,0,0,1-.09.41.41,0,0,0,0-.09,1.85,1.85,0,0,1,.26.06,2.49,2.49,0,0,0,1-.06l0,0-.23.07,0,0a2,2,0,0,1,.26.05l-.93.16,0,0,.13,0-.08,0c-.08.1-.11.1-.11.27h.11c.07.11,0,.16.15.16s.44-.16.7-.16c0-.06,0-.08.09-.09a0,0,0,0,1,0,0s0,0,.07-.08.06.11.16.13c.14-.14,1,.05,1.27,0h0c-.06-.06-.1-.06-.2-.07s.05,0,.07-.07a2,2,0,0,0,.7,0v0c0-.1-.13-.17-.23-.19v0a.58.58,0,0,1,.13-.15c-.05,0,0,0,0-.1L538,42c-.16.08-.55.17-.55.4-.14,0-.18,0-.19-.13-.38,0-.54-.15-.85-.19a.55.55,0,0,1-.06-.08h.06l0,0-.31-.11a3,3,0,0,1-.15-.27l.09-.05a.23.23,0,0,0-.18-.06v0a2.12,2.12,0,0,0,.42-.18l0-.06a2,2,0,0,1-.55,0,.26.26,0,0,0-.26-.18v0c.22,0,.3.12.5.13a4.26,4.26,0,0,0,.5-.06v0c.06,0,0,0,0-.1l.06,0c-.39-.55-1.82-.36-2.42-.25-.24,0-.41.27-.77.27a7,7,0,0,1,1.29-.55s.56,0,.59,0,.09-.11.15-.15a1.18,1.18,0,0,1,.85,0c.37.12.74.15,1.11.29a5,5,0,0,0,1.19.31,2.55,2.55,0,0,0,.54-.15c.4-.16,1.18.25,1.46-.05,0-.08,0,0,0-.08h0c0-.06,0-.32,0-.42a1.48,1.48,0,0,0-.27-.1c0-.06,0,0,0-.07-.17,0-.18-.05-.31-.05,0-.19-.21-.26-.41-.29l.44,0c-.08-.12-.27-.13-.28-.24s-.27,0-.37-.07,0,0-.06-.1-.24,0-.3-.1-.09-.12-.2-.15,0,0,0-.09a1.22,1.22,0,0,0-.42-.26s0,0,.07,0a.69.69,0,0,0,0-.24l-.11,0a.91.91,0,0,0,0-.2c-.15-.06-.3-.12-.28-.29h-.07a2.88,2.88,0,0,1-.49-.8c-.4.11-.92.77-1.46.31-.09,0-.17-.13-.33-.16a.32.32,0,0,0,0-.13l-.11,0c0-.14.1-.16.08-.33l.19-.07s0-.06-.05-.08l-.15.06a1.07,1.07,0,0,0-.53-.23,0,0,0,0,1,0,0s0,0,.07,0a2.9,2.9,0,0,0-.53-.39h-.43a3.62,3.62,0,0,0-1-.23s-.08.07-.09.1,0,0,0,.06,0,0,.08,0a.56.56,0,0,1-.31.17c.13.14,0,.16.12.26a1.69,1.69,0,0,1-.6.2.29.29,0,0,1-.07.12.51.51,0,0,1,.42.47c-.19.38-.58.43-1.05.52h-.54c0,.07,0,.15.08.2-.08.17-.27.36-.14.56a.55.55,0,0,1-.32.16v.14h-.07s0,0-.06-.11-.19.07-.3.11l-.15-.07a3.21,3.21,0,0,0-.35-.66.81.81,0,0,0,.23-.22s0-.09,0-.13.2-.14.27-.27a4.27,4.27,0,0,1-1.51-.51c-.07-.07-.09-.21-.19-.29a4.43,4.43,0,0,0-.45-.2h-.55a2,2,0,0,0,.3-.45.83.83,0,0,0-.34,0v-.07a3,3,0,0,1,1.79-.73l-.07-.08a2.15,2.15,0,0,0,.51,0c.07-.1.06-.1,0-.17h0a2.81,2.81,0,0,0,1.5-.16c.05,0,0,0,0,0a3.06,3.06,0,0,1,.51-.1h0v0a.23.23,0,0,0-.11,0v0l.35,0c0,.08.24.24.34.27s0,0,0-.06h0s0,0-.11-.1v0a.48.48,0,0,0,.16.08s0-.08,0-.13l.21.13v0a7.16,7.16,0,0,0,.74-.12.45.45,0,0,0-.13-.15,7.12,7.12,0,0,0-3.3-.82c-1.17,0-5.32,1.45-8.61,3.1a25.25,25.25,0,0,0-4.56,3,8.66,8.66,0,0,0-2.47,3.25c0,.07-.12.12-.17.2s-.33.83-.33.86l.12,0c0,.2.12.2.06.48s-.37.87-.48,1.3a1.18,1.18,0,0,0-.1.42,1.37,1.37,0,0,1,0,.54c-.06.11-.13.22-.18.32a.54.54,0,0,1-.18,0c0,.22,0,.35,0,.55,0,0,0,0,.07,0a.9.9,0,0,1-.19,1,1.92,1.92,0,0,1,.19,1m18.34-6.42,0,0h.06l-.09,0m6.17-.76h0s0,0,0,0Zm-.08,0h.08v.06a1.2,1.2,0,0,0-.19,0l.11-.06m-1.32-.1-.3,0-.05,0s0,0,0-.07l.32.07M540,40l.06,0,0,0c-.05,0,0,0,0-.06m-1.18-.3a.35.35,0,0,1,.11,0l.47.07a5.76,5.76,0,0,1-.63,0s0,0,0-.09M532.24,43s0,0,0,.05,0-.05,0-.05m-10.6,3.42a1.27,1.27,0,0,0,.13.11,2,2,0,0,1-.27,0c0-.09.08-.1.14-.14M517,50.32c.06,0,.06,0,.07.12H517Zm-2.52-6c.11.19-.08.33-.14.46h0c.05-.16.12-.28.17-.46m-.24.54s0,0,0,.06a.14.14,0,0,1,0-.06m20.17-9.44a2.44,2.44,0,0,1,.71.15c.21.12.29.26.52.3a.29.29,0,0,1-.16,0,.39.39,0,0,0,.26.18.09.09,0,0,0-.06,0,.67.67,0,0,0,.19.14h.07c0-.08,0,0-.07-.08.48.13.91.47,1.44.57,0-.08,0,0,.07-.06a2.11,2.11,0,0,0-.78-.56l0-.07.3.16v0c.31.16.63.38.93.55h.12c-.09-.07-.17-.08-.22-.19l.13,0a.22.22,0,0,0,0-.13v0c.05,0,0,0,.06.07s.07,0,.12-.07,0,.06.07.09a.32.32,0,0,0,0-.07h.12c-.1,0-.17-.15-.31-.17v0h.09v0c-.09-.08-.38-.31-.59-.27a.27.27,0,0,0-.15-.26h.12l0,0a.06.06,0,0,1,0-.06c.2,0,.37.2.57.2-.05.23.36.27.5.39s.11,0,.18,0l0,0s0,0,0-.06a.3.3,0,0,0,.26,0v.08h.11l0-.09h.11s-.05-.07-.07-.09a1.18,1.18,0,0,0,.32,0c0-.14-.21-.2-.38-.19,0,0,0,0,.05,0h-.16c-.06,0-.11-.13-.28-.14,0,0,0,0,.07,0a.66.66,0,0,0-.31-.13l0,0,.07,0c-.19,0-.23-.08-.35,0s-.07-.11-.25-.14l0,0-.39-.1s.06,0,.11,0,0,0,0-.09l.35.09,0,0a.34.34,0,0,0-.28-.11v-.06l.19.06v-.07c-.13-.11-.18-.11-.4-.1,0-.06.07,0,.17-.06-.17-.14-.42-.06-.59-.18,0,0-.15-.17-.17-.18a2.38,2.38,0,0,0-.63-.15.11.11,0,0,0,0,0c-.15-.08-.31-.13-.48-.21h.12c-.06-.13-.81.18-1,.36,0,0,.3.27.21.25a.14.14,0,0,1,0,0h0c.06.08.4.06.48.06l0,0c-.06,0-.09,0-.17,0h0c0,.1.14.09.25,0l.06.12a.83.83,0,0,0-.22,0c0,.11.22.12.38.13v-.05a.48.48,0,0,0-.17,0,.13.13,0,0,1,0-.08,1.39,1.39,0,0,0,.27.1,1,1,0,0,0,.09.26c-.26,0-.53.07-.78.08l0,0c.06,0,.1.1.16.15a2.54,2.54,0,0,0-.55,0c-.36-.07-.62-.25-1,0a.12.12,0,0,1,0,0c.1.18.41.11.62.14m2.26-.09c-.06,0,0,0-.06,0a.08.08,0,0,0,.06,0m-1-.7,0,0s0,0,0,0m.45.57s.07,0,.12-.06.11.11.31.11c0,.07,0,0,0,.06s0,0,.06,0a1.41,1.41,0,0,0-.46,0,.15.15,0,0,0,0-.13m-.26.27c.11,0,.24.08.28.17s0,0,0,0a1.73,1.73,0,0,0-.44-.08v0h.15s0-.07,0-.1m-.67-.68.1-.08v0a2.08,2.08,0,0,0-.48-.08c-.08,0-.15.05-.22.08l0,.07a.85.85,0,0,0,.63.06m-2.2.49a.59.59,0,0,0-.29-.07.51.51,0,0,1,.05-.12c-.13-.08-.39-.15-.48-.27s0-.13-.09-.19a.3.3,0,0,1,0,.06.78.78,0,0,0-.73.31c-.16,0-.31,0-.38.07.09.07.31,0,.42,0s0,0-.06.06l-.05.08a1.41,1.41,0,0,0,.78-.1l.29.06-.09,0a1.08,1.08,0,0,0,.71.13.56.56,0,0,0,0-.08m-.91-.46a.12.12,0,0,1,.05-.09l0,0h0a.27.27,0,0,1-.12.06m5.84.36,0,0a0,0,0,0,0,0,0m-6.28.25c0,.06,0,.08,0,.12a2.56,2.56,0,0,0,.69-.08l0,0a2.22,2.22,0,0,1-.45-.06,1.11,1.11,0,0,1-.27.06m2.22,0-.11,0v0h.11m-.4.07.1.11h.16v-.07Zm.51.13H534l0,0,0-.06-.17,0c0,.07.06.07.14.13m-1.16,0-.16,0a.15.15,0,0,0,0,.08s0,0,0,.08.18-.06.3-.08a.27.27,0,0,0,0-.08.38.38,0,0,0-.19,0m2.53.1,0,0v0Zm-.61.18a.29.29,0,0,0-.19-.07.17.17,0,0,0,.13.07Zm-1.73.22v0h-.12a0,0,0,0,1,0,0Zm14.12,1.06v0a3,3,0,0,1,.62.27l0,0a.78.78,0,0,0-.18-.05s0,.07,0,.09c.44.11,1.54.67,1.92.23a3.47,3.47,0,0,1-.62-.47c-.11,0-.18,0-.28-.12h-.1a.22.22,0,0,1,0,.08,1.85,1.85,0,0,1-.59-.13s0,.05,0,.06a.54.54,0,0,0-.25-.13.94.94,0,0,0,.09.12c-.08,0-.06,0-.13,0a1.11,1.11,0,0,0-.65-.38s.07,0,.08.08L547,37a.63.63,0,0,0-.13.11,5.61,5.61,0,0,0,.62.18.58.58,0,0,1-.4,0m-11.28-.62,0,0v.06l0,0m1.58.14v0s0,0-.1,0l.1,0m0,0a.38.38,0,0,0,.2.15.2.2,0,0,0,.09-.07s0-.07-.06-.08l-.11,0s0,0-.12,0m-1.17.11a.2.2,0,0,1,0,0,.38.38,0,0,0,.24,0l0,0-.1-.06h-.07Zm16.48,3.33c0,.08,0,.12,0,.19s.47.33.6.6c.07,0,.06,0,.11,0s0,.14.08.2.5.34.67.25.07-.15,0-.25.07,0,.11,0,0-.06,0-.09c.46.2.69.78,1.18,1l.07.17c-.08,0-.08.08-.13.15a.89.89,0,0,0,.35.27c0,.06,0,0-.12,0a.34.34,0,0,0,.12.12h.09v-.12s-.09-.15-.16-.18,0,0,0-.06a.54.54,0,0,1-.09-.12.72.72,0,0,1,.18.21l.19,0v-.05l-.11-.16a.19.19,0,0,0,0-.08l.17,0a.28.28,0,0,0-.07-.13,7.07,7.07,0,0,1,.68.64c-.09,0-.09.08-.06.18l-.08,0c-.1.12-.13,0-.27,0s0,0,0-.08a.57.57,0,0,0-.14-.13v.08a.2.2,0,0,1-.1,0c0,.11,0,.07,0,.19h-.06a.39.39,0,0,1-.08-.16c0-.05,0-.05-.08-.05s0,0,0,.05-.23-.11-.34-.18,0,0,0,0-.08,0-.15-.09v-.05a2.68,2.68,0,0,0,.33.18c-.06-.13-.22-.33-.39-.29s-.06-.17-.1-.24,0,0,.06,0a.12.12,0,0,1,0-.08c-.16-.16-.38-.26-.45-.51l-.11,0a.88.88,0,0,0,0,.15h0l-.11,0c.07.28.65.72.63.85l.11,0,.22.29c-.06,0,0,0,0,.09a.8.8,0,0,0-.24,0v.09H555a.15.15,0,0,1,0,.07.72.72,0,0,0,.07.11c.06,0,0,0,.11,0s.08.13.08.2,0,0-.1,0,0,.15.05.2l-.12,0-.18-.48,0,0h0c.07.24.24.58.11.69s-.23.11-.32.2.09.2.13.32a.45.45,0,0,1-.18.07c0,.05-.07.1,0,.15s0,.05,0,.05c-.21,0-.41-.14-.55-.18l0,0c.08.13.21.21.27.37l0,.06A.26.26,0,0,0,554,45l-.21-.17c-.11.05-.29,0-.38.15h0c0,.12.13.11.22.19h-.11c.19.17.43.13.67.21,0,0,.79.72.79.76l-.09-.06a2,2,0,0,1,.4,1.16c-.27.13-.94-.08-1.31-.12-.1,0-.35.09-.5,0s-.1-.08-.2-.05-.15.09-.1.16-.2,0-.22.1l-.08,0c0,.16.1.16.14.3l.09-.05a3,3,0,0,0,.28.73,3.07,3.07,0,0,1,0,1.17,1.45,1.45,0,0,1,.18.17.11.11,0,0,0,.09,0,1.77,1.77,0,0,1,.13.78c.16,0,.34,0,.43,0s.09-.08.19-.09c.28-.13.42.53.72.58.06-.06.29-.29.32-.34a2,2,0,0,1,.55,0,.25.25,0,0,1,0-.07.22.22,0,0,1,.14.06c.05-.11.09-.32.14-.41a.29.29,0,0,1,.18,0c0-.1-.08-.24,0-.41s.09-.1.13-.22c-.52-.33-.05-.75-.21-1,.1-.13.19-.09.3-.18a.93.93,0,0,0,.21-.27c0-.18-.3-.45-.23-.63s.09-.08.12-.16c.24.08.41.2.62.27.12-.1.09-.29.28-.32l.06-.21v0c.43.08.69.68.91,1l.63.6s.09,0,.16,0a.75.75,0,0,0,.1.2,2.24,2.24,0,0,1,.81,1.24.29.29,0,0,0-.18.12.32.32,0,0,1-.26-.1s0,0,0,.07l-.06,0h0a.33.33,0,0,0,0,.22,8.14,8.14,0,0,0,.68.56,4.16,4.16,0,0,1-.15-.69l.1.08a.53.53,0,0,0,0-.41c0-.08,0-.06.07-.09-.06-.21-.16-.23-.27-.36a1.82,1.82,0,0,0-.09-.37l0,0a2,2,0,0,0,.35.36,1.33,1.33,0,0,0-.74-.8.36.36,0,0,1,0-.21c-.11-.07-.17,0-.28-.11a5.69,5.69,0,0,1-.53-.73c-.15-.21-.46-.29-.54-.58,0,0,0-.06,0-.11s-.13-.11-.15-.23.07,0,.13-.1a.13.13,0,0,0,.06,0c.06.07.17.3.23.39l0,0a.2.2,0,0,0,0-.11.79.79,0,0,1,.08.16l0,0s0-.1-.05-.14c.15,0,.21.31.29.41s.29.22.39.32l-.06,0,.12.16.07,0s0-.05-.06-.08l.1.06a.06.06,0,0,1,0,0l-.09,0c.06.08.06,0,.15,0a2.17,2.17,0,0,1,.57.56c.1.23.17.48.28.72s.35.41.45.61c0,0,0,0,0,0a.27.27,0,0,0,0,.16.47.47,0,0,0,.26.19.33.33,0,0,0,0,.19,1.41,1.41,0,0,1,.29.54l0,0h0a.68.68,0,0,1,0-.12s0,0,0,0a2.72,2.72,0,0,1,.11.25l0,0c0-.05,0-.09,0-.13a.23.23,0,0,1,.09.11,3.66,3.66,0,0,0-.21-.51s0,0,0,.08l0,0v0c0-.07-.08-.18-.13-.25s.1.06.14.11l-.06-.2c.06.06.13.11.17.16a1.53,1.53,0,0,0-.48-.62c0-.06,0,0,.07,0-.06-.21-.36-.4-.41-.7,0,.17.16.11.25.19h0l-.21-.27c.05,0,.07-.05.1-.07s.14.11.25.11a.37.37,0,0,0,0,.15,1.77,1.77,0,0,0,0-.51,2.71,2.71,0,0,1-.22-.38,6,6,0,0,1-.61-1.22,24.29,24.29,0,0,0-3.46-4.24,27,27,0,0,0-4.31-3.14.33.33,0,0,1-.18.14c0,.11,0,.11,0,.18a.31.31,0,0,0-.16.07,1.29,1.29,0,0,0,.21.2m2.41,3a.15.15,0,0,0,0,.05v-.05Zm-1.59,6.34a.24.24,0,0,0,0-.08h0s0,.06,0,.08m1.73-6.41h.05s0,0-.05,0m1.27-.08s-.06,0-.09,0,0,0,.09,0m4.87,7,.11.09s0,0,0,0a1.14,1.14,0,0,0-.15-.16.12.12,0,0,0,.07,0m-2.69-3.38v.05l0-.06h0m-28.68-8.64c0,.1.3.19.41.2a.19.19,0,0,0,0-.15.88.88,0,0,0-.31-.08l-.1,0m8.56.58,0,0-.09,0c0,.07,0,0,.06.06m.86.78v0l0,0a.07.07,0,0,0,0,.06m-3,1.14a4.9,4.9,0,0,0,1.12.57h0v0a1.92,1.92,0,0,0-1.12-.55Zm4.16.22a.11.11,0,0,0,0,.06c.05,0,0,0,0-.06m10.69,1a.2.2,0,0,1-.09,0c0,.09.07.09.06.18h.17v-.11h0c0,.18.13.3.18.48h.06v0a.11.11,0,0,0,0-.08l.1.06a.77.77,0,0,1,0-.15s.09.05.12.09a.33.33,0,0,1,0,.24.57.57,0,0,1,.15.12s0,0,0-.06.11,0,.17.05v-.07a.21.21,0,0,0,.23,0c.11.12.06.34.34.31a.34.34,0,0,0,.08.26c-.13.11-.25,0-.4,0,0,.11,0,.1.11.15l-.07.08,0,0,.14,0,.13.17c0,.1-.12.14-.23.17l0,0c0,.06.12.09.16.13s.35,0,.53.09a.58.58,0,0,0,.14,0,.31.31,0,0,0,0,.1H553a.64.64,0,0,1-.23.45v0c.09,0,.09,0,.18,0s0-.12.15-.14.18,0,.26,0,0-.16,0-.18a3.57,3.57,0,0,1,.54.06h0s0-.06,0-.09a1,1,0,0,0,.57-.09l0,0s0-.07,0-.09l-.24,0a.45.45,0,0,0,.12-.27c0-.16-.35-.5-.51-.28a.1.1,0,0,1-.06,0,1.6,1.6,0,0,0-.52-.6l-.3-.13c-.27-.25-.39-.44-.79-.44l.14-.11-.09-.06c.06-.14,0-.24,0-.35s-.42-.11-.6-.08c0-.09,0-.06,0-.09a.24.24,0,0,1,.11-.16s0-.07,0-.11-.33,0-.47,0,0,.05,0,.1-.05.08,0,.16-.05,0-.08,0a1.12,1.12,0,0,1,.1.16l-.23-.15c0,.07,0,0-.07.1a.71.71,0,0,0,.37.15s0,.06,0,.06m.4.39,0,0h-.08v-.05ZM538.61,42a10.84,10.84,0,0,1,1.47.39H540l.35.12a.23.23,0,0,1,0-.07l.21.08a1.13,1.13,0,0,1-.51.08.35.35,0,0,0,0,.07,1.35,1.35,0,0,0,.93-.12l.06.08a.26.26,0,0,1-.16.22c0,.09,0,0,.07.1a1.6,1.6,0,0,0,.23-.08.3.3,0,0,0-.06.2,2.33,2.33,0,0,1,.25.07c.12-.07.16-.2.27-.27a1.11,1.11,0,0,1,0-.13c-.08-.05-.08.06-.23.06v-.06a.38.38,0,0,1,.19-.13v0a.55.55,0,0,0-.37.13l0,0s0,0,0,0,.37-.16.39-.2l0,0c-.06-.06-.25,0-.36-.06s0,0,0-.17a.3.3,0,0,0,.19-.08.6.6,0,0,0-.44-.17c-.07-.07,0-.12-.12-.15s0,0,0,0,0,0,0,.08h-.11c-.09,0-.07,0,0-.07s0,0-.07,0a.28.28,0,0,0-.15-.06l0,0c-.07,0,0,0-.07,0s0,0,0,0v-.05a.55.55,0,0,0,.18,0v0c-.1-.08-.22-.06-.31-.14l-.3.1c0-.16.33-.3.5-.34l.06-.09s0,0-.13,0v0a.45.45,0,0,0,.22,0,.08.08,0,0,0,.05,0v0a2.5,2.5,0,0,0-.25-.08h-.29a2.08,2.08,0,0,0-.33.17c-.19.09-.27.31-.5.37,0,0,0,0,0,.11s0,0-.07,0a.81.81,0,0,0-.23.17l.1.1a1.29,1.29,0,0,0-.46.07,1.1,1.1,0,0,1,0,.16m12.23-.54.11-.08c0-.05,0-.12,0-.18h-.1a1.09,1.09,0,0,0-.13.11c0,.06.07.08.08.12s.05,0,.05,0m-10.35-.27,0,0Zm10.35.31-.06,0-.07,0a.69.69,0,0,1,.13.2h.06l-.06-.21m-10.32-.23s0,0,0,0a.13.13,0,0,0-.08,0l0,.05m14.49.54c0-.07,0,0,0,0a.07.07,0,0,0,0,0m-3.79-.07a.13.13,0,0,0-.07,0l.05.06Zm-.38,0a.1.1,0,0,1,.06,0v0h-.06Zm.34.14s0,0,0-.06h0s0,0,0,0,0,0,0,0m-.07,0V42h0c0-.05,0,0,0-.05m-12.37-.29,0,0,.24,0-.1-.08Zm2.27.16a.24.24,0,0,1,0,.07l.13,0c0-.09,0-.06-.12-.09m10.48.49a.19.19,0,0,0,0-.24.15.15,0,0,1-.12.12c0,.09,0,.07.1.12m-.1-.2,0,0Zm-15-.42-.18.07,0,0a1.39,1.39,0,0,0,.59.35s0,0,0,0a.14.14,0,0,0,.12.08c.16,0,.14-.09.37-.09v0c-.1-.05-.78-.2-.78-.2s-.05,0-.06-.08,0,0,0-.16Zm14.34,1.21,0,0a.23.23,0,0,0,.21.07,1.2,1.2,0,0,0-.11.1c.11.18.23.09.43.13-.12.07-.08.07-.08.18s-.07,0,0,.1,0,0,0,.12H551a.15.15,0,0,1,0,.09l.19,0-.12.08c.2.47.89-.15,1.2-.14a.87.87,0,0,0-.33-.66v0c.11,0,.09-.07.16-.13v-.05c-.13-.13-.22-.13-.31-.28a.3.3,0,0,0-.33,0l0-.06a1.16,1.16,0,0,0-.15-.06.5.5,0,0,1-.24.09.24.24,0,0,1-.07.18.16.16,0,0,0,.2,0c0,.08-.06.08-.07.13l-.44,0c0,.09,0,0,.06.09m-9.43-.65s0,0,0,0a.12.12,0,0,1,0,.05h0m14.88.35a.36.36,0,0,1,0,.09l.12,0c0-.06-.07-.07-.16-.12m-21.27-.35h-.06a.19.19,0,0,0,0,.06h0c.05,0,.05,0,.07-.07m17.37.59,0,0a.11.11,0,0,0,.07,0l0,0s-.05-.08-.08-.08a.2.2,0,0,0,0,.1m-18.48-.58s0,0,0,.08l0,0Zm.12.08h0Zm6,.23s0,0,0,.08,0,0,0-.05,0,0-.06,0m1.11.08h-.06s0,0-.06,0a.12.12,0,0,0,0,0h.06l.08,0Zm-1.13,0,0,0h0s0,0-.07,0Zm.08,0v0l0,0Zm15.13.76v0h0s0,0,0,0M532.9,42.9h0v0Zm-.36.2s-.06,0-.1,0v0h.18s0,0-.08-.08m-.68,0,0,0h0s0,0-.06,0m1,.1-.1,0,0,0a.11.11,0,0,0,.08,0s0,0,0,0m-3.73,2h.07l0,0a.07.07,0,0,1,0,0m-15.28,1.26a.92.92,0,0,0,.09-.23l-.05,0a.82.82,0,0,0,0,.26m5.77.16.07-.05h0Zm39.88,1.14c0-.05,0,0,0-.05v.05Zm-1.08.6a.11.11,0,0,0,0,.05c0-.23-.11-.68-.27-.76a1,1,0,0,0,0,.11l-.11.06a.77.77,0,0,0,.29.54m0-.63,0,.07h.07c0-.05,0,0-.05-.07m-45.32,1,0,0s0,.06.06.07,0-.08,0-.09m45.41-.22s0,.1,0,.14,0,0-.13,0c0,.2.21.37.28.53s0,.27.06.36.07.09.19.11,0-.09,0-.13,0,0,.1,0a2.36,2.36,0,0,0-.4-1Zm2.64.45a.1.1,0,0,1,.05.06c0-.09,0-.08-.05-.13Zm.17.13c0-.06,0,0,0-.06Zm-.11.23.06,0a.59.59,0,0,1-.08-.08s0,.05,0,.08-.05,0-.06-.06a.33.33,0,0,0,.06.1m.14,0s.06,0,.07.06v-.06s0,0-.07-.05Zm.18.45v.07l.05,0a.16.16,0,0,1-.05-.1m-.41.24v.13l0,0,0,0,0,0-.1-.17m.13.34s0,0,.07.05v-.06l-.1-.07a.26.26,0,0,1,0,.08m.64.79,0,0-.08,0,.06.09M537.67,78.87a.13.13,0,0,0,0,.06h.08l-.06-.08a.06.06,0,0,1,0,0m.17,0,0,0h0Zm-12.9,3.69h0v0Zm.67,1.57-.09,0,.06,0Zm-.47.32,0,.07h.07v0s0,0-.1,0m.13.4h0a.07.07,0,0,0,0,0Zm.15.21h0Zm3.13,3.5,0,0s0,0,0,0m.63,0,0,0a1.33,1.33,0,0,1-.21,0c0,.06.12,0,.19.06"/><path class="cls-2" d="M535.47,34.53A31.59,31.59,0,0,1,563,51a29.85,29.85,0,0,0-55,0c4.19-7.47,13.06-16.43,27.45-16.41"/><path class="cls-2" d="M564,71.67a30,30,0,0,1-28.53,21C520.8,92.69,511,83.61,507,71.9c4.11,10.91,15.28,18.72,28.41,18.72s24.48-7.94,28.51-19"/><path class="cls-1" d="M596.18,68a1.84,1.84,0,1,1-1.86,1.84A1.84,1.84,0,0,1,596.18,68m0,3.41a1.57,1.57,0,0,0,0-3.13,1.57,1.57,0,0,0,0,3.13m1-1.22a.9.9,0,0,1-.9.75,1,1,0,0,1-1.09-1.1,1,1,0,0,1,1.08-1.12.87.87,0,0,1,.91.75h-.31a.6.6,0,0,0-.6-.48.76.76,0,0,0-.77.85.8.8,0,0,0,.78.84.56.56,0,0,0,.59-.49Z"/><path class="cls-1" d="M705.89,68.56a54.19,54.19,0,0,1-.31-5.74c0-3.89.29-5.92,1-7.72a3.78,3.78,0,0,1,3.72-2.71,4,4,0,0,1,3.76,2.36c.89,1.89,1.19,4.3,1.19,8.94,0,3.74-.3,6.2-1.07,7.89a3.71,3.71,0,0,1-3.67,2.49h0a3.73,3.73,0,0,1-3.08-1.43,7.71,7.71,0,0,1-1.51-4.08m2.77-5.11c0,3.68.11,5.21.51,6.31.28.79.6,1.13,1.23,1.14a1.14,1.14,0,0,0,1-.53,4,4,0,0,0,.56-1.93,34.71,34.71,0,0,0,.22-4.32v-.55c-.05-4.72-.23-6.51-.72-7.38a1.12,1.12,0,0,0-1.1-.71,1.06,1.06,0,0,0-.9.45,2.5,2.5,0,0,0-.54,1.36,34.56,34.56,0,0,0-.3,6.16"/><polygon class="cls-1" points="620.61 52.67 618.39 52.67 618.07 53 618.07 73.49 618.35 73.78 620.64 73.78 620.99 73.44 620.99 53.06 620.61 52.67"/><polygon class="cls-1" points="667.59 52.67 665.38 52.67 665.06 53 665.06 73.49 665.35 73.78 667.64 73.78 667.98 73.44 667.98 53.06 667.59 52.67"/><path class="cls-1" d="M663.11,73.43l-1.6-20.76H659l-1.69,10-.35,2.74c-.21-1.59-.41-2.55-.69-4.09l-1.55-8.62h-2.52l-1.44,20.74.38.37h2.38L654,63c.18,1.35,2,10.81,2,10.81h2l1.79-10.73.55,10.73h2.48Z"/><polygon class="cls-1" points="630.12 70.81 626.6 70.81 626.6 53.03 626.25 52.67 624.04 52.67 623.67 53.06 623.67 73.43 624.01 73.78 630.09 73.78 630.4 73.48 630.4 71.08 630.12 70.81"/><polygon class="cls-1" points="638.35 70.81 634.83 70.81 634.83 53.03 634.49 52.67 632.29 52.67 631.9 53.06 631.9 73.43 632.26 73.78 638.33 73.78 638.64 73.48 638.64 71.08 638.35 70.81"/><path class="cls-1" d="M644.45,74h0Zm3.82-21.36h-2.18l-.27.26V67.8a6.07,6.07,0,0,1-.32,2.55c-.2.39-.39.55-1.1.56s-.9-.19-1.13-.65a7.56,7.56,0,0,1-.34-2.89V53l-.31-.33h-2.2l-.31.31V67.5a16.52,16.52,0,0,0,.22,3.39A3.84,3.84,0,0,0,644.4,74a4.12,4.12,0,0,0,2.71-.82,3.51,3.51,0,0,0,1.2-1.89,13.39,13.39,0,0,0,.31-3.44V53Z"/><path class="cls-1" d="M691,73.32l0,0-3.81-20.68h-2.29l-3.79,20.72.28.39h2.47l.72-4h2.87l.71,4h2.47ZM685,67s1-6.92,1-7.09c.19,1.72,1.05,7.09,1.05,7.09Z"/><path class="cls-1" d="M679.32,73.43V53l-.32-.34h-2.28l-.29.3c0,8.61,0,8.63,0,9.27,0,1.09,0,1,.06,1.75a.24.24,0,0,0,0-.09c-.39-1.69-3.13-11.23-3.13-11.23H671l-.32.33V73.47l.31.31h2.25l.31-.31-.09-10.08-.1-1.35c.23,1,.34,1.33.7,2.6l2.62,9.14H679Z"/><path class="cls-1" d="M726.05,73.43V53l-.34-.34h-2.27l-.3.3c0,8.61,0,8.63,0,9.27.06,1.09,0,1,.08,1.75a.25.25,0,0,0,0-.09c-.38-1.69-3.12-11.23-3.12-11.23h-2.38l-.33.33V73.47l.31.31h2.24l.32-.31L720.09,62c.21,1,.32,1.33.67,2.6l2.62,9.14h2.31Z"/><polygon class="cls-1" points="703.16 52.67 700.95 52.67 700.55 53.07 700.55 73.44 700.91 73.78 703.16 73.78 703.51 73.44 703.51 53.03 703.16 52.67"/><polygon class="cls-1" points="698.49 52.67 690.99 52.67 690.62 53.05 690.62 55.41 690.97 55.76 693.35 55.76 693.35 73.47 693.65 73.78 695.91 73.78 696.2 73.49 696.2 55.73 698.47 55.73 698.87 55.33 698.87 53.04 698.49 52.67"/><path class="cls-1" d="M501.14,110.45a5.78,5.78,0,1,1-5.75-5.88,5.8,5.8,0,0,1,5.75,5.88m-10.61.06a4.83,4.83,0,1,0,4.86-5.16,4.9,4.9,0,0,0-4.86,5.16m7.19-2.23a4.07,4.07,0,0,0-1.85-.44,2.47,2.47,0,0,0-2.68,2.67,2.53,2.53,0,0,0,2.69,2.69,3.75,3.75,0,0,0,1.93-.49l.23.72a4.33,4.33,0,0,1-2.34.6,3.3,3.3,0,0,1-3.5-3.46,3.52,3.52,0,0,1,3.65-3.55,3.78,3.78,0,0,1,2.1.51Z"/><path class="cls-1" d="M509.18,104.08v7.62c0,2.88,1.28,4.1,3,4.1,1.91,0,3.13-1.26,3.13-4.1v-7.62H517v7.5c0,4-2.08,5.58-4.87,5.58s-4.62-1.51-4.62-5.5v-7.58Z"/><path class="cls-1" d="M519.91,110.2c0-1,0-1.73-.07-2.5h1.48l.1,1.53h0a3.4,3.4,0,0,1,3-1.74c1.29,0,3.27.76,3.27,3.94V117H526.1v-5.33c0-1.49-.55-2.73-2.14-2.73a2.37,2.37,0,0,0-2.25,1.72,2.3,2.3,0,0,0-.11.78V117h-1.69Z"/><path class="cls-1" d="M532.48,105.1a1,1,0,1,1-2.08,0,1,1,0,0,1,1.05-1,1,1,0,0,1,1,1m-1.87,2.6h1.68V117h-1.68Z"/><path class="cls-1" d="M535.82,107.7l1.82,5.2a24.42,24.42,0,0,1,.74,2.37h.06c.21-.77.48-1.53.78-2.37l1.8-5.2h1.75L539.15,117h-1.61L534,107.7Z"/><path class="cls-1" d="M545.2,112.63a3,3,0,0,0,3.17,3.21,6,6,0,0,0,2.56-.48l.29,1.21a7.69,7.69,0,0,1-3.08.57c-2.85,0-4.54-1.87-4.54-4.66s1.64-5,4.33-5c3,0,3.82,2.66,3.82,4.36a6,6,0,0,1-.06.78Zm4.93-1.2c0-1.07-.44-2.74-2.33-2.74a2.79,2.79,0,0,0-2.58,2.74Z"/><path class="cls-1" d="M553.93,110.58c0-1.08,0-2-.08-2.88h1.47l.06,1.82h.07a2.8,2.8,0,0,1,2.56-2,2.16,2.16,0,0,1,.48.06v1.59a2.37,2.37,0,0,0-.57-.06,2.34,2.34,0,0,0-2.25,2.16,4.56,4.56,0,0,0-.08.78V117h-1.66Z"/><path class="cls-1" d="M560,115.23a4.45,4.45,0,0,0,2.22.67c1.22,0,1.79-.61,1.79-1.38s-.48-1.24-1.72-1.7c-1.66-.59-2.44-1.51-2.44-2.61,0-1.5,1.2-2.72,3.19-2.72a4.52,4.52,0,0,1,2.27.58l-.42,1.22a3.57,3.57,0,0,0-1.89-.54c-1,0-1.55.58-1.55,1.27s.56,1.1,1.76,1.56c1.6.61,2.43,1.41,2.43,2.79,0,1.62-1.26,2.77-3.46,2.77a5.31,5.31,0,0,1-2.6-.63Z"/><path class="cls-1" d="M573.05,117l-.14-1.17h0a3.44,3.44,0,0,1-2.83,1.38,2.64,2.64,0,0,1-2.83-2.66c0-2.23,2-3.45,5.56-3.43v-.2a1.9,1.9,0,0,0-2.1-2.13,4.62,4.62,0,0,0-2.41.68l-.38-1.11a5.81,5.81,0,0,1,3-.82c2.82,0,3.51,1.93,3.51,3.78v3.46a12.51,12.51,0,0,0,.16,2.22Zm-.25-4.72c-1.84,0-3.92.29-3.92,2.08a1.49,1.49,0,0,0,1.59,1.61,2.32,2.32,0,0,0,2.24-1.55,2,2,0,0,0,.09-.54Z"/><rect class="cls-1" x="577.23" y="103.39" width="1.68" height="13.56"/><path class="cls-1" d="M595,116.53a8.33,8.33,0,0,1-3.4.61c-3.63,0-6.36-2.29-6.36-6.51a6.41,6.41,0,0,1,6.73-6.77,6.84,6.84,0,0,1,3,.58l-.4,1.35a6.15,6.15,0,0,0-2.6-.53c-3,0-5,1.93-5,5.31,0,3.15,1.81,5.18,5,5.18a6.73,6.73,0,0,0,2.71-.54Z"/><path class="cls-1" d="M599,105.1a1,1,0,1,1-2.08,0,1,1,0,0,1,1.05-1,1,1,0,0,1,1,1m-1.87,2.6h1.68V117H597.1Z"/><path class="cls-1" d="M603.68,105.05v2.65h2.41V109h-2.41v5c0,1.14.33,1.79,1.26,1.79a3.65,3.65,0,0,0,1-.11l.07,1.26a4.15,4.15,0,0,1-1.48.23,2.33,2.33,0,0,1-1.82-.71A3.41,3.41,0,0,1,602,114v-5h-1.43V107.7H602v-2.21Z"/><path class="cls-1" d="M608.86,107.7l2,5.47c.22.61.45,1.33.6,1.89h0c.18-.56.37-1.26.6-1.93l1.83-5.43h1.78l-2.52,6.6c-1.2,3.16-2,4.79-3.18,5.78a4.54,4.54,0,0,1-2.06,1.09l-.41-1.41a4.42,4.42,0,0,0,1.46-.83,5,5,0,0,0,1.42-1.87,1.29,1.29,0,0,0,.13-.4,1.45,1.45,0,0,0-.12-.44L607,107.7Z"/><path class="cls-1" d="M621.31,114.92a5.91,5.91,0,0,0,3,.84c1.7,0,2.69-.9,2.69-2.19s-.68-1.89-2.42-2.56c-2.1-.75-3.4-1.84-3.4-3.65,0-2,1.66-3.5,4.16-3.5a5.78,5.78,0,0,1,2.85.64l-.46,1.35a5.11,5.11,0,0,0-2.44-.61c-1.76,0-2.43,1.05-2.43,1.93,0,1.2.78,1.8,2.56,2.48,2.18.84,3.28,1.89,3.28,3.78s-1.46,3.71-4.5,3.71a6.78,6.78,0,0,1-3.29-.82Z"/><path class="cls-1" d="M633,105.05v2.65h2.41V109H633v5c0,1.14.33,1.79,1.27,1.79a3.68,3.68,0,0,0,1-.11l.08,1.26a4.22,4.22,0,0,1-1.49.23,2.33,2.33,0,0,1-1.82-.71,3.41,3.41,0,0,1-.65-2.4v-5h-1.43V107.7h1.43v-2.21Z"/><path class="cls-1" d="M645.09,114.43c0,.95,0,1.79.08,2.52h-1.49l-.1-1.51h0a3.51,3.51,0,0,1-3.06,1.72c-1.45,0-3.19-.8-3.19-4V107.7H639v5.12c0,1.76.54,2.94,2.07,2.94a2.44,2.44,0,0,0,2.21-1.52,2.39,2.39,0,0,0,.15-.86V107.7h1.68Z"/><path class="cls-1" d="M656,103.39v11.17c0,.82,0,1.76.08,2.39h-1.51l-.08-1.6h0a3.41,3.41,0,0,1-3.15,1.81c-2.23,0-4-1.89-4-4.7,0-3.08,1.89-5,4.14-5a3.08,3.08,0,0,1,2.79,1.42h0v-5.52Zm-1.68,8.08a2.87,2.87,0,0,0-.08-.71,2.47,2.47,0,0,0-2.42-2c-1.74,0-2.77,1.53-2.77,3.57,0,1.87.92,3.42,2.73,3.42a2.51,2.51,0,0,0,2.46-2,2.82,2.82,0,0,0,.08-.73Z"/><path class="cls-1" d="M660.72,105.1a1,1,0,0,1-2.09,0,1,1,0,0,1,1-1,1,1,0,0,1,1,1m-1.88,2.6h1.69V117h-1.69Z"/><path class="cls-1" d="M671.78,112.25a4.52,4.52,0,0,1-4.61,4.91c-2.5,0-4.43-1.84-4.43-4.76,0-3.09,2-4.91,4.58-4.91s4.46,1.93,4.46,4.76m-7.34.09c0,2,1.16,3.56,2.81,3.56s2.81-1.51,2.81-3.59c0-1.57-.78-3.56-2.77-3.56s-2.85,1.84-2.85,3.59"/><path class="cls-1" d="M673.76,115.23a4.45,4.45,0,0,0,2.22.67c1.22,0,1.79-.61,1.79-1.38s-.48-1.24-1.72-1.7c-1.66-.59-2.44-1.51-2.44-2.61,0-1.5,1.2-2.72,3.19-2.72a4.52,4.52,0,0,1,2.27.58l-.42,1.22a3.57,3.57,0,0,0-1.89-.54c-1,0-1.55.58-1.55,1.27s.56,1.1,1.76,1.56c1.6.61,2.43,1.41,2.43,2.79,0,1.62-1.26,2.77-3.46,2.77a5.31,5.31,0,0,1-2.6-.63Z"/><polygon class="cls-1" points="685.85 104.08 687.51 104.08 687.51 115.55 693.02 115.55 693.02 116.95 685.85 116.95 685.85 104.08"/><polygon class="cls-1" points="694.96 104.08 696.63 104.08 696.63 115.55 702.12 115.55 702.12 116.95 694.96 116.95 694.96 104.08"/><path class="cls-1" d="M712.33,116.53a8.39,8.39,0,0,1-3.41.61c-3.62,0-6.35-2.29-6.35-6.51a6.41,6.41,0,0,1,6.72-6.77,6.86,6.86,0,0,1,3.06.58l-.41,1.35a6.1,6.1,0,0,0-2.59-.53c-3,0-5,1.93-5,5.31,0,3.15,1.82,5.18,4.95,5.18a6.73,6.73,0,0,0,2.71-.54Z"/><path class="cls-1" d="M714,116a1.13,1.13,0,0,1,1.15-1.2,1.21,1.21,0,0,1,0,2.41A1.13,1.13,0,0,1,714,116"/><path class="cls-1" d="M527.86,135.16l-1.34,4.05H524.8l4.38-12.87h2l4.39,12.87H533.8l-1.38-4.05Zm4.22-1.3-1.26-3.7c-.29-.84-.48-1.61-.67-2.35h0c-.19.76-.4,1.54-.65,2.33l-1.26,3.72Z"/><rect class="cls-1" x="537.45" y="125.65" width="1.68" height="13.56"/><rect class="cls-1" x="542.05" y="125.65" width="1.68" height="13.56"/><path class="cls-1" d="M550.85,126.51a17.51,17.51,0,0,1,3.19-.27,5.3,5.3,0,0,1,3.73,1.05,3.19,3.19,0,0,1,1,2.44,3.38,3.38,0,0,1-2.43,3.29v.06a3.21,3.21,0,0,1,1.9,2.6,20.5,20.5,0,0,0,1,3.53h-1.72a17.16,17.16,0,0,1-.86-3.08c-.38-1.77-1.07-2.44-2.58-2.5h-1.56v5.58h-1.67Zm1.67,5.86h1.7c1.77,0,2.9-1,2.9-2.44,0-1.66-1.2-2.39-3-2.41a7.18,7.18,0,0,0-1.64.15Z"/><path class="cls-1" d="M563.23,127.37a1,1,0,0,1-2.08,0,1,1,0,0,1,1.05-1.05,1,1,0,0,1,1,1.05M561.36,130H563v9.25h-1.68Z"/><path class="cls-1" d="M573.89,130c0,.67-.08,1.41-.08,2.54v5.37c0,2.11-.42,3.42-1.32,4.22a4.87,4.87,0,0,1-3.36,1.1,5.9,5.9,0,0,1-3.07-.76l.42-1.28a5.21,5.21,0,0,0,2.71.72c1.72,0,3-.89,3-3.22v-1h0a3.32,3.32,0,0,1-2.94,1.54c-2.29,0-3.93-1.94-3.93-4.5,0-3.14,2-4.92,4.16-4.92a3.08,3.08,0,0,1,2.88,1.61h0l.08-1.39Zm-1.74,3.65a2.63,2.63,0,0,0-.09-.77,2.44,2.44,0,0,0-2.36-1.78c-1.6,0-2.75,1.36-2.75,3.5,0,1.82.92,3.33,2.74,3.33a2.47,2.47,0,0,0,2.33-1.73,3,3,0,0,0,.13-.89Z"/><path class="cls-1" d="M576.7,125.65h1.68v5.77h0a3.06,3.06,0,0,1,1.21-1.18,3.42,3.42,0,0,1,1.72-.49c1.24,0,3.22.77,3.22,4v5.5h-1.67V133.9c0-1.49-.56-2.75-2.15-2.75a2.42,2.42,0,0,0-2.25,1.68,2.15,2.15,0,0,0-.11.8v5.58H576.7Z"/><path class="cls-1" d="M589.34,127.31V130h2.41v1.27h-2.41v5c0,1.15.33,1.79,1.26,1.79a3.77,3.77,0,0,0,1-.11l.07,1.26a4,4,0,0,1-1.49.23,2.32,2.32,0,0,1-1.81-.71,3.38,3.38,0,0,1-.65-2.4v-5h-1.43V130h1.43v-2.22Z"/><path class="cls-1" d="M593.5,137.49a4.38,4.38,0,0,0,2.22.67c1.22,0,1.8-.61,1.8-1.37s-.48-1.25-1.73-1.7c-1.66-.6-2.44-1.51-2.44-2.62,0-1.49,1.2-2.72,3.19-2.72a4.52,4.52,0,0,1,2.27.58l-.42,1.22a3.58,3.58,0,0,0-1.89-.53c-1,0-1.55.57-1.55,1.26s.56,1.11,1.76,1.56c1.61.62,2.43,1.42,2.43,2.79,0,1.62-1.26,2.77-3.46,2.77a5.31,5.31,0,0,1-2.6-.63Z"/><path class="cls-1" d="M605.59,126.51a17.59,17.59,0,0,1,3.19-.27,5.3,5.3,0,0,1,3.73,1.05,3.19,3.19,0,0,1,1,2.44A3.38,3.38,0,0,1,611.1,133v.06a3.22,3.22,0,0,1,1.89,2.6,20.5,20.5,0,0,0,1,3.53h-1.72a17.16,17.16,0,0,1-.86-3.08c-.38-1.77-1.07-2.44-2.58-2.5h-1.56v5.58h-1.67Zm1.67,5.86H609c1.77,0,2.9-1,2.9-2.44,0-1.66-1.2-2.39-3-2.41a7.18,7.18,0,0,0-1.64.15Z"/><path class="cls-1" d="M616.92,134.89a3,3,0,0,0,3.17,3.21,6.23,6.23,0,0,0,2.56-.47l.29,1.2a7.69,7.69,0,0,1-3.08.57c-2.85,0-4.54-1.87-4.54-4.66s1.64-5,4.33-5c3,0,3.82,2.66,3.82,4.36a5.88,5.88,0,0,1-.06.78Zm4.93-1.2c0-1.07-.44-2.73-2.33-2.73a2.79,2.79,0,0,0-2.58,2.73Z"/><path class="cls-1" d="M625.42,137.49a4.35,4.35,0,0,0,2.22.67c1.22,0,1.79-.61,1.79-1.37s-.48-1.25-1.72-1.7c-1.66-.6-2.44-1.51-2.44-2.62,0-1.49,1.2-2.72,3.19-2.72a4.58,4.58,0,0,1,2.27.58l-.42,1.22a3.58,3.58,0,0,0-1.89-.53c-1,0-1.55.57-1.55,1.26s.56,1.11,1.76,1.56c1.6.62,2.43,1.42,2.43,2.79,0,1.62-1.27,2.77-3.46,2.77a5.28,5.28,0,0,1-2.6-.63Z"/><path class="cls-1" d="M634.24,134.89a3,3,0,0,0,3.18,3.21,6.21,6.21,0,0,0,2.55-.47l.29,1.2a7.63,7.63,0,0,1-3.07.57,4.29,4.29,0,0,1-4.55-4.66c0-2.79,1.64-5,4.33-5,3,0,3.83,2.66,3.83,4.36a5.88,5.88,0,0,1-.06.78Zm4.93-1.2c0-1.07-.44-2.73-2.33-2.73a2.79,2.79,0,0,0-2.58,2.73Z"/><path class="cls-1" d="M643,132.85c0-1.09,0-2-.07-2.89h1.47l0,1.82h.08a2.77,2.77,0,0,1,2.56-2,2.28,2.28,0,0,1,.48.05v1.59a2.46,2.46,0,0,0-.58-.06,2.36,2.36,0,0,0-2.25,2.16,4.56,4.56,0,0,0-.08.78v4.93H643Z"/><path class="cls-1" d="M650.44,130l1.82,5.2c.3.84.55,1.61.74,2.37h.06c.2-.76.48-1.53.78-2.37l1.8-5.2h1.75l-3.63,9.25h-1.6L648.65,130Z"/><path class="cls-1" d="M659.82,134.89A3,3,0,0,0,663,138.1a6.23,6.23,0,0,0,2.56-.47l.29,1.2a7.69,7.69,0,0,1-3.08.57,4.29,4.29,0,0,1-4.55-4.66c0-2.79,1.64-5,4.34-5,3,0,3.82,2.66,3.82,4.36a5.88,5.88,0,0,1-.06.78Zm4.92-1.2a2.38,2.38,0,0,0-2.33-2.73,2.79,2.79,0,0,0-2.57,2.73Z"/><path class="cls-1" d="M676.53,125.65v11.17c0,.82,0,1.76.08,2.39H675.1l-.08-1.6h0a3.41,3.41,0,0,1-3.15,1.81c-2.23,0-4-1.89-4-4.7,0-3.07,1.89-5,4.14-5a3.08,3.08,0,0,1,2.79,1.42h0v-5.52Zm-1.68,8.08a3.49,3.49,0,0,0-.07-.71,2.49,2.49,0,0,0-2.43-2c-1.74,0-2.77,1.53-2.77,3.57,0,1.88.92,3.43,2.73,3.43a2.54,2.54,0,0,0,2.47-2,3.35,3.35,0,0,0,.07-.73Z"/><path class="cls-1" d="M678.82,138.22A1.13,1.13,0,0,1,680,137a1.2,1.2,0,0,1,0,2.4,1.12,1.12,0,0,1-1.13-1.2"/><path class="cls-3" d="M418.55,181.1h0V46.88h0A47.26,47.26,0,0,0,371.3,0h-324A47.26,47.26,0,0,0,0,46.88H0V181.1H0"/><path class="cls-1" d="M252.6,135.67a30.92,30.92,0,0,1-5.25-.51c-2.24-.38-15-4.11-19.9-5.56v4.85H176.17v-3.1c-.85.72-3.38,3.1-3.38,3.1H97.84v-2l-3.5,2H68.08v-1.61c-.72.38-3.54,1.61-3.54,1.61H38.81s.2-11.38.26-14.61l.16-9,.22-11a27.45,27.45,0,0,1,2.07-10.69,23.72,23.72,0,0,1,5.78-8.29,25.77,25.77,0,0,1,8.86-5.34,33.13,33.13,0,0,1,11.26-1.87,33.53,33.53,0,0,1,3.91.22c1,.11,2,.28,3,.5h0l8.82,1.88c.5-.22,1-.43,1.52-.61a30.86,30.86,0,0,1,3.65-1.1,34.68,34.68,0,0,1,3.89-.66,36.22,36.22,0,0,1,4.07-.22,32.84,32.84,0,0,1,8.7,1.14c2.64.74,11.5,4.36,17.07,6.62V74.73h26.22s5.47,3.87,7.33,5.2c.27-.23.59-.48.9-.7a28.64,28.64,0,0,1,8.22-4.14,33.82,33.82,0,0,1,10-1.46,33.48,33.48,0,0,1,10.17,1.5,26.56,26.56,0,0,1,8.26,4.28,26.89,26.89,0,0,1,5.65,5.67c.56.87,1.6,2.5,1.86,3V74.84h26.75v7.89c2.35-1.2,7.75-4,9.7-5a33.77,33.77,0,0,1,7.32-3,31.25,31.25,0,0,1,16.93.18A30.88,30.88,0,0,1,274,82.16c2.32-.78,20.69-6.73,21.05-6.86s1-.3,1.46-.44a34,34,0,0,1,9.26-1.23,34.78,34.78,0,0,1,8.28,1,28.17,28.17,0,0,1,7.1,2.79c.39.22.78.46,1.2.72,0,0,21.84-4.89,24.32-5.34a42.73,42.73,0,0,1,6.86-.71,40.42,40.42,0,0,1,5.8.42,42.45,42.45,0,0,1,11.11,3.17,39.21,39.21,0,0,1,5,2.7l4.26,2.71L370.42,98a24.36,24.36,0,0,1,2.94,2.46,18.25,18.25,0,0,1,2.77,3.52,17.35,17.35,0,0,1,1.81,4.3,19.78,19.78,0,0,1,.64,5.14,23.08,23.08,0,0,1-1.78,9.15,19.55,19.55,0,0,1-5.08,7A22.93,22.93,0,0,1,363.8,134a32.61,32.61,0,0,1-10.25,1.54,42.29,42.29,0,0,1-4.36-.22,40.91,40.91,0,0,1-5-.78c-2-.42-9.88-2.19-9.88-2.19l0,2.1H308.58l-4.14-2.23c-.07.65-.26,2.23-.26,2.23H277.85s-7.36-2.08-10-2.78a30.63,30.63,0,0,1-15.23,4"/><path class="cls-1" d="M295.62,75.93h0"/><path class="cls-4" d="M126.48,79.17h17.86V130H126.48Zm78.66,51H223V79.28H205.14ZM357.61,96.6c-4.35-1.75-7-2.81-7-4v-.2c0-1,1.17-1.71,3-1.71,3.38,0,8.09,1.6,12.32,4.17l.84.53,7.06-12.78-.73-.47a37.11,37.11,0,0,0-19.58-5.59c-12.33,0-20.31,6.77-20.31,17.25V94c0,10.14,7.8,13.77,16.5,16.89,4.85,1.85,7,2.73,7,4.05v.17c0,1.71-2.32,1.9-3.3,1.9-4.31,0-9.49-1.91-14.59-5.39L338,111l-7.29,12.58.68.47a37.55,37.55,0,0,0,22.14,7c12.69,0,20.59-6.72,20.59-17.52v-.2c0-8.89-6.27-13-16.39-16.72M198.17,99.21c-.26-12.37-9.27-21.14-23.41-21.14s-23.52,8.52-23.52,21.14c0,.05-.23,15-.52,30.8h18.11c0-7.07.27-28.26.27-28.28,0-3,2.23-5,5.59-5s5.56,2.06,5.62,5c0,0,.3,24.13.3,28.28H198.8c-.3-15.82-.63-30.75-.63-30.8m131,0c-.25-12.37-9.27-21.14-23.41-21.14s-23.53,8.52-23.53,21.14c0,.05-.21,15-.5,30.8h18.1c.05-7.07.26-28.26.26-28.28,0-3,2.25-5,5.61-5,3.2,0,5.55,2.06,5.6,5,0,0,.31,24.13.31,28.28h18.19c-.29-15.82-.63-30.75-.63-30.8m-209.75,0c-.25-12.37-9.69-21.13-23.18-21.13a26.25,26.25,0,0,0-14.64,4,25.55,25.55,0,0,0-14.21-4c-14.13,0-23.52,8.51-23.52,21.13,0,.05-.3,15-.57,30.8h17.4c.08-7.06.28-28.26.28-28.28,0-3,2.24-5,5.62-5,3.2,0,5.54,2.06,5.6,5,0,0,.27,14.45.28,15.94h0s0,0,0,0,0,8.15,0,12.3h18c.07-7.06.28-28.26.28-28.28,0-3,2.24-5,5.61-5,3.21,0,5.54,2.06,5.6,5,0,0,.28,14.45.29,15.94h0V130h17.77c-.32-15.82-.6-30.75-.6-30.8"/><path class="cls-3" d="M262.58,104.62a10,10,0,1,1-19.37-3.35h-17a28.42,28.42,0,0,0-.21,3.35,26.61,26.61,0,0,0,53.21,0,28.42,28.42,0,0,0-.21-3.35H262a9.79,9.79,0,0,1,.59,3.35"/><path class="cls-1" d="M210.18,61.43a5.25,5.25,0,0,0,4.42,2.06h0a5.33,5.33,0,0,0,5.3-3.57c1.11-2.45,1.55-6,1.55-11.37,0-6.68-.43-10.14-1.72-12.88a5.66,5.66,0,0,0-5.41-3.39c-2.63,0-4.35,1.37-5.36,3.9s-1.44,5.51-1.44,11.11a76.09,76.09,0,0,0,.44,8.27,10.76,10.76,0,0,0,2.18,5.87m2.24-22.09a3.76,3.76,0,0,1,.76-2,1.56,1.56,0,0,1,1.3-.64,1.68,1.68,0,0,1,1.62,1c.68,1.25.94,3.83,1,10.62v.81a49.89,49.89,0,0,1-.31,6.2,6.09,6.09,0,0,1-.81,2.79,1.67,1.67,0,0,1-1.51.78c-.9,0-1.35-.54-1.76-1.67-.56-1.57-.74-3.79-.74-9.09,0-5,.08-6.91.44-8.85"/><polygon class="cls-1" points="85.75 63.09 86.27 62.57 86.27 33.24 85.7 32.68 82.51 32.68 82.04 33.15 82.04 62.67 82.46 63.09 85.75 63.09"/><polygon class="cls-1" points="153.16 63.09 153.66 62.57 153.66 33.24 153.1 32.68 149.91 32.68 149.45 33.15 149.45 62.67 149.87 63.09 153.16 63.09"/><path class="cls-1" d="M142,63.09h3.58l.5-.52L143.8,32.68h-3.69L138,44.88,137.69,47,137.17,51c-.3-2.3-.57-3.67-1-5.88L134,32.68h-3.62l-2.07,29.87.53.54h3.44L133,47.52c.27,1.93,2.81,15.57,2.81,15.57h2.84l2.58-15.47Z"/><polygon class="cls-1" points="99.68 63.09 100.11 62.66 100.11 59.21 99.71 58.8 94.63 58.8 94.63 33.18 94.14 32.68 90.97 32.68 90.41 33.24 90.41 62.58 90.92 63.09 99.68 63.09"/><polygon class="cls-1" points="111.33 63.09 111.77 62.66 111.77 59.21 111.36 58.8 106.28 58.8 106.28 33.18 105.79 32.68 102.62 32.68 102.06 33.24 102.06 62.58 102.57 63.09 111.33 63.09"/><path class="cls-1" d="M119.08,63.44A6,6,0,0,0,123,62.26a4.9,4.9,0,0,0,1.72-2.71,19.45,19.45,0,0,0,.46-5V33.16l-.48-.48H121.5l-.38.38V54.45a9.05,9.05,0,0,1-.45,3.69c-.32.57-.58.81-1.59.82a1.51,1.51,0,0,1-1.64-1,11.17,11.17,0,0,1-.47-4.18V33.14l-.46-.46h-3.17l-.44.44V54.05a23.45,23.45,0,0,0,.32,4.88c.58,2.88,2.77,4.5,5.86,4.51"/><path class="cls-1" d="M187.09,62.43l0,0-5.47-29.77h-3.32l-5.47,29.84.43.57h3.56l1-5.76H182l1,5.76h3.54Zm-8.58-9.07s1.42-10,1.45-10.2c.27,2.48,1.51,10.2,1.51,10.2Z"/><path class="cls-1" d="M167.06,32.68l-.44.44c0,12.4,0,12.41.08,13.35.06,1.55,0,1.47.09,2.52a1.13,1.13,0,0,1,0-.15c-.58-2.42-4.51-16.16-4.51-16.16h-3.43l-.47.47V62.64l.46.45H162l.43-.44-.08-12.82,0-1.73-.11-1.91c.31,1.39.46,1.89,1,3.71L167,63.09h3.33l.52-.52V33.17l-.49-.49Z"/><path class="cls-1" d="M229.18,62.65l-.09-12.82L229,48.1l-.12-1.9c.32,1.38.47,1.89,1,3.7l3.77,13.19H237l.52-.52V33.17l-.49-.49h-3.27l-.44.44c0,12.4,0,12.41.08,13.35.06,1.55,0,1.47.09,2.52a1.55,1.55,0,0,0,0-.15c-.57-2.42-4.52-16.16-4.52-16.16h-3.41l-.47.47V62.64l.44.45h3.25Z"/><polygon class="cls-1" points="203.97 62.59 203.97 33.19 203.45 32.68 200.28 32.68 199.7 33.26 199.7 62.57 200.22 63.09 203.47 63.09 203.97 62.59"/><polygon class="cls-1" points="190.03 37.12 190.03 62.65 190.47 63.09 193.71 63.09 194.13 62.67 194.13 37.08 197.39 37.08 197.97 36.5 197.97 33.22 197.43 32.68 186.64 32.68 186.09 33.22 186.09 36.62 186.6 37.12 190.03 37.12"/><path class="cls-1" d="M244.67,50.3h4.21a3.85,3.85,0,0,1,4.21,4.05v0c0,2.76-2,4.18-4.42,4.18h-2.73v4.51h-1.27Zm4.05,7a2.79,2.79,0,0,0,3.08-2.82v0c0-1.83-1.2-2.78-3-2.78h-2.84v5.63Z"/><path class="cls-1" d="M255.4,50.3h4.84a4.16,4.16,0,0,1,3.2,1.28,3.77,3.77,0,0,1,.87,2.52v0a3.59,3.59,0,0,1-3.06,3.73l3.46,5.22h-1.56l-3.26-5h-3.22v5H255.4Zm4.73,6.52A2.61,2.61,0,0,0,263,54.19v0c0-1.57-1.06-2.52-2.87-2.52h-3.48v5.19Z"/><polygon class="cls-1" points="267.02 50.3 275.15 50.3 275.15 51.61 268.29 51.61 268.29 55.98 274.43 55.98 274.43 57.29 268.29 57.29 268.29 61.77 275.23 61.77 275.23 63.08 267.02 63.08 267.02 50.3"/><path class="cls-1" d="M277.05,61.22l.79-1.06A5,5,0,0,0,281.69,62a2.25,2.25,0,0,0,2.51-2.18v0c0-1.19-.56-1.86-2.93-2.43-2.58-.64-3.77-1.59-3.77-3.69v0a3.49,3.49,0,0,1,3.7-3.49,5.45,5.45,0,0,1,3.95,1.57l-.74,1.11a4.61,4.61,0,0,0-3.24-1.39,2.16,2.16,0,0,0-2.4,2.07v0c0,1.2.58,1.88,3.05,2.48s3.67,1.66,3.67,3.61v0a3.56,3.56,0,0,1-3.84,3.62,6.18,6.18,0,0,1-4.6-2.05"/><polygon class="cls-1" points="288.07 50.3 296.21 50.3 296.21 51.61 289.34 51.61 289.34 55.98 295.48 55.98 295.48 57.29 289.34 57.29 289.34 61.77 296.29 61.77 296.29 63.08 288.07 63.08 288.07 50.3"/><polygon class="cls-1" points="298.84 50.3 300.03 50.3 307.12 60.55 307.12 50.3 308.36 50.3 308.36 63.08 307.34 63.08 300.08 52.6 300.08 63.08 298.84 63.08 298.84 50.3"/><polygon class="cls-1" points="314.51 51.63 310.73 51.63 310.73 50.3 319.57 50.3 319.57 51.63 315.8 51.63 315.8 63.08 314.51 63.08 314.51 51.63"/><path class="cls-1" d="M324.66,50.21h1.2L331,63.08h-1.36L328.3,59.7h-6.13l-1.33,3.38h-1.3Zm3.14,8.2-2.56-6.52-2.57,6.52Z"/><path class="cls-4" d="M278,96.77a26.61,26.61,0,0,0-50.85,0H278Z"/><path class="cls-3" d="M262,101.27a9.79,9.79,0,0,1,.59,3.35,10,10,0,1,1-19.37-3.35h-17a28.42,28.42,0,0,0-.21,3.35,26.61,26.61,0,1,0,53.21,0,28.42,28.42,0,0,0-.21-3.35Z"/></g></g></svg>